0
SECTION
2
HEADER
9
$INSUNITS
70
1
9
$ACADVER
1
AC1014
9
$HANDSEED
5
FFFF
0
ENDSEC
0
SECTION
2
TABLES
0
TABLE
2
VPORT
5
8
100
AcDbSymbolTable
0
ENDTAB
0
TABLE
2
LTYPE
5
5
100
AcDbSymbolTable
0
LTYPE
5
14
100
AcDbSymbolTableRecord
100
AcDbLinetypeTableRecord
2
BYBLOCK
70
0
0
LTYPE
5
15
100
AcDbSymbolTableRecord
100
AcDbLinetypeTableRecord
2
BYLAYER
70
0
0
LTYPE
5
16
100
AcDbSymbolTableRecord
100
AcDbLinetypeTableRecord
2
DASHED
70
0
3
Dashed __ __ __ __ __ __ __ __ __ __ __ __ __ _
72
65
73
2
40
0.75
49
0.5
74
0
49
-0.25
74
0
0
ENDTAB
0
TABLE
2
LAYER
5
2
100
AcDbSymbolTable
70
2
0
LAYER
5
50
100
AcDbSymbolTableRecord
100
AcDbLayerTableRecord
2
0
70
0
62
7
6
CONTINUOUS
0
ENDTAB
0
TABLE
2
STYLE
5
3
100
AcDbSymbolTable
70
1
0
STYLE
5
11
100
AcDbSymbolTableRecord
100
AcDbTextStyleTableRecord
2
STANDARD
70
0
0
ENDTAB
0
TABLE
2
VIEW
5
6
100
AcDbSymbolTable
70
0
0
ENDTAB
0
TABLE
2
UCS
5
7
100
AcDbSymbolTable
70
0
0
ENDTAB
0
TABLE
2
APPID
5
9
100
AcDbSymbolTable
70
2
0
APPID
5
12
100
AcDbSymbolTableRecord
100
AcDbRegAppTableRecord
2
ACAD
70
0
0
ENDTAB
0
TABLE
2
DIMSTYLE
5
A
100
AcDbSymbolTable
70
1
0
ENDTAB
0
TABLE
2
BLOCK_RECORD
5
1
100
AcDbSymbolTable
70
1
0
BLOCK_RECORD
5
1F
100
AcDbSymbolTableRecord
100
AcDbBlockTableRecord
2
*MODEL_SPACE
0
BLOCK_RECORD
5
1B
100
AcDbSymbolTableRecord
100
AcDbBlockTableRecord
2
*PAPER_SPACE
0
ENDTAB
0
ENDSEC
0
SECTION
2
BLOCKS
0
BLOCK
5
20
100
AcDbEntity
100
AcDbBlockBegin
2
*MODEL_SPACE
0
ENDBLK
5
21
100
AcDbEntity
100
AcDbBlockEnd
0
BLOCK
5
1C
100
AcDbEntity
100
AcDbBlockBegin
2
*PAPER_SPACE
0
ENDBLK
5
1D
100
AcDbEntity
100
AcDbBlockEnd
0
ENDSEC
0
SECTION
2
ENTITIES
0
POINT
5
100
100
AcDbEntity
8
0
100
AcDbPoint
10
0
20
0
30
0
0
POINT
5
101
100
AcDbEntity
8
0
100
AcDbPoint
10
0
20
0
30
0
0
LINE
5
102
100
AcDbEntity
8
0
100
AcDbLine
10
0
20
0
30
0
11
0
21
0.26300000000000001
31
0
0
LINE
5
103
100
AcDbEntity
8
0
100
AcDbLine
10
0
20
0.26300000000000001
30
0
11
-0.10999999999999999
21
0.52099999999999991
31
0
0
LINE
5
104
100
AcDbEntity
8
0
100
AcDbLine
10
-0.10999999999999999
20
0.52099999999999991
30
0
11
-0.55600000000000005
21
0.52099999999999991
31
0
0
LINE
5
105
100
AcDbEntity
8
0
100
AcDbLine
10
-1.4417354645298592
20
0.48599999999999993
30
0
11
-2.0819999999999994
21
0.48599999999999993
31
0
0
LINE
5
106
100
AcDbEntity
8
0
100
AcDbLine
10
-2.0819999999999994
20
0.48599999999999993
30
0
11
-2.2539999999999996
21
0.36556430342792984
31
0
0
LINE
5
107
100
AcDbEntity
8
0
100
AcDbLine
10
-2.2539999999999996
20
0.36556430342792984
30
0
11
-2.2539999999999996
21
0
31
0
0
LINE
5
108
100
AcDbEntity
8
0
100
AcDbLine
10
0
20
0
30
0
11
-0.45800000000000002
21
0
31
0
0
CIRCLE
5
109
100
AcDbEntity
8
0
100
AcDbCircle
10
-0.45800000000000002
20
0.46999999999999997
30
0
40
0.02749999999999999
210
0
220
0
230
1
0
LINE
5
110
100
AcDbEntity
8
0
100
AcDbLine
10
-0.48542410143340992
20
0.4679582702015101
30
0
11
-0.48542410143340992
21
0.41399999999999998
31
0
0
LWPOLYLINE
5
111
100
AcDbEntity
8
0
100
AcDbPolyline
90
4
70
1
43
0.0
10
-0.48542410143340992
20
0.41399999999999998
10
-0.43074032627871778
20
0.41399999999999998
10
-0.43074032627871778
20
0.52099999999999991
10
-0.48542410143340992
20
0.52099999999999991
0
LINE
5
112
100
AcDbEntity
8
0
100
AcDbLine
10
0
20
-0.019499999999999941
30
0
11
0
21
0.26300000000000001
31
0
0
LWPOLYLINE
5
113
100
AcDbEntity
8
0
100
AcDbPolyline
90
4
70
1
43
0.0
10
0
20
0
10
-1.123
20
0
10
-1.123
20
0.26300000000000001
10
0
20
0.26300000000000001
0
LINE
5
114
100
AcDbEntity
8
0
100
AcDbLine
10
-1.123
20
0
30
0
11
-2.2539999999999996
21
0
31
0
0
LINE
5
115
100
AcDbEntity
8
0
100
AcDbLine
10
0
20
0
30
0
11
-1.4579999999999997
21
0
31
0
0
CIRCLE
5
116
100
AcDbEntity
8
0
100
AcDbCircle
10
-1.4579999999999997
20
0.42999999999999999
30
0
40
0.034999999999999969
210
0
220
0
230
1
0
LINE
5
117
100
AcDbEntity
8
0
100
AcDbLine
10
0
20
0
30
0
11
-0.27500000000000002
21
0
31
0
0
LINE
5
118
100
AcDbEntity
8
0
100
AcDbLine
10
-0.27500000000000002
20
0
30
0
11
-0.39311023622047248
21
0
31
0
0
LINE
5
119
100
AcDbEntity
8
0
100
AcDbLine
10
-0.39311023622047248
20
0
30
0
11
-0.39311023622047248
21
0.11811023622047245
31
0
0
LINE
5
120
100
AcDbEntity
8
0
100
AcDbLine
10
-0.39311023622047248
20
0.11811023622047245
30
0
11
-0.15688976377952757
21
0.11811023622047245
31
0
0
LINE
5
121
100
AcDbEntity
8
0
100
AcDbLine
10
-0.15688976377952757
20
0.11811023622047245
30
0
11
-0.15688976377952757
21
0
31
0
0
LINE
5
122
100
AcDbEntity
8
0
100
AcDbLine
10
0
20
0
30
0
11
-0.79999999999999993
21
0
31
0
0
LINE
5
123
100
AcDbEntity
8
0
100
AcDbLine
10
-0.79999999999999993
20
0
30
0
11
-0.91811023622047228
21
0
31
0
0
LINE
5
124
100
AcDbEntity
8
0
100
AcDbLine
10
-0.91811023622047228
20
0
30
0
11
-0.91811023622047228
21
0.11811023622047245
31
0
0
LINE
5
125
100
AcDbEntity
8
0
100
AcDbLine
10
-0.91811023622047228
20
0.11811023622047245
30
0
11
-0.68188976377952737
21
0.11811023622047245
31
0
0
LINE
5
126
100
AcDbEntity
8
0
100
AcDbLine
10
-0.68188976377952737
20
0.11811023622047245
30
0
11
-0.68188976377952737
21
0
31
0
0
ARC
5
127
100
AcDbEntity
8
0
100
AcDbCircle
10
-1.4579999999999997
20
0.42999999999999999
30
0
40
0.084999999999999964
210
0
220
0
230
1
100
AcDbArc
50
-221.21021006338916
51
42.736867466824819
0
LINE
5
128
100
AcDbEntity
8
0
100
AcDbLine
10
-1.4379999999999999
20
0.48599999999999993
30
0
11
-0.48542410143340992
21
0.52099999999999991
31
0
0
CIRCLE
5
129
100
AcDbEntity
8
0
100
AcDbCircle
10
-0.45800000000000002
20
-0.46999999999999997
30
0
40
0.02749999999999999
210
0
220
0
230
1
0
LINE
5
130
100
AcDbEntity
8
0
100
AcDbLine
10
-2.0819999999999994
20
-0.48599999999999993
30
0
11
-2.2539999999999996
21
-0.36556430342792984
31
0
0
LINE
5
131
100
AcDbEntity
8
0
100
AcDbLine
10
0
20
0
30
0
11
-0.79999999999999993
21
0
31
0
0
LWPOLYLINE
5
132
100
AcDbEntity
8
0
100
AcDbPolyline
90
4
70
1
43
0.0
10
-1.123
20
0
10
-1.123
20
-0.26300000000000001
10
0
20
-0.26300000000000001
10
0
20
0
0
LWPOLYLINE
5
133
100
AcDbEntity
8
0
100
AcDbPolyline
90
4
70
1
43
0.0
10
-0.43074032627871778
20
-0.52099999999999991
10
-0.48542410143340992
20
-0.52099999999999991
10
-0.48542410143340992
20
-0.41399999999999998
10
-0.43074032627871778
20
-0.41399999999999998
0
LINE
5
134
100
AcDbEntity
8
0
100
AcDbLine
10
-0.48542410143340992
20
-0.4679582702015101
30
0
11
-0.48542410143340992
21
-0.41399999999999998
31
0
0
LINE
5
135
100
AcDbEntity
8
0
100
AcDbLine
10
0
20
0
30
0
11
-0.45800000000000002
21
0
31
0
0
LINE
5
136
100
AcDbEntity
8
0
100
AcDbLine
10
-0.10999999999999999
20
-0.52099999999999991
30
0
11
-0.48542410143340992
21
-0.52099999999999991
31
0
0
LINE
5
137
100
AcDbEntity
8
0
100
AcDbLine
10
-1.4417354645298592
20
-0.48599999999999993
30
0
11
-2.0819999999999994
21
-0.48599999999999993
31
0
0
ARC
5
138
100
AcDbEntity
8
0
100
AcDbCircle
10
-1.4579999999999997
20
-0.42999999999999999
30
0
40
0.084999999999999937
210
0
220
0
230
1
100
AcDbArc
50
-42.736867466824812
51
221.21021006338916
0
LINE
5
139
100
AcDbEntity
8
0
100
AcDbLine
10
-0.91811023622047228
20
-0.11811023622047245
30
0
11
-0.68188976377952737
21
-0.11811023622047245
31
0
0
LINE
5
140
100
AcDbEntity
8
0
100
AcDbLine
10
-1.4379999999999999
20
-0.48599999999999993
30
0
11
-0.48542410143340992
21
-0.52099999999999991
31
0
0
CIRCLE
5
141
100
AcDbEntity
8
0
100
AcDbCircle
10
-1.4579999999999997
20
-0.42999999999999999
30
0
40
0.034999999999999969
210
0
220
0
230
1
0
LINE
5
142
100
AcDbEntity
8
0
100
AcDbLine
10
0
20
0
30
0
11
-0.27500000000000002
21
0
31
0
0
LINE
5
143
100
AcDbEntity
8
0
100
AcDbLine
10
-0.27500000000000002
20
0
30
0
11
-0.39311023622047248
21
0
31
0
0
LINE
5
144
100
AcDbEntity
8
0
100
AcDbLine
10
0
20
0
30
0
11
0
21
-0.26300000000000001
31
0
0
LINE
5
145
100
AcDbEntity
8
0
100
AcDbLine
10
-0.15688976377952757
20
-0.11811023622047245
30
0
11
-0.15688976377952757
21
0
31
0
0
LINE
5
146
100
AcDbEntity
8
0
100
AcDbLine
10
-1.123
20
0
30
0
11
-2.2539999999999996
21
0
31
0
0
LINE
5
147
100
AcDbEntity
8
0
100
AcDbLine
10
0
20
-0.26300000000000001
30
0
11
-0.10999999999999999
21
-0.52099999999999991
31
0
0
LINE
5
148
100
AcDbEntity
8
0
100
AcDbLine
10
0
20
0
30
0
11
-1.4579999999999997
21
0
31
0
0
LINE
5
149
100
AcDbEntity
8
0
100
AcDbLine
10
-0.68188976377952737
20
-0.11811023622047245
30
0
11
-0.68188976377952737
21
0
31
0
0
LINE
5
150
100
AcDbEntity
8
0
100
AcDbLine
10
-2.2539999999999996
20
-0.36556430342792984
30
0
11
-2.2539999999999996
21
0
31
0
0
LINE
5
151
100
AcDbEntity
8
0
100
AcDbLine
10
-0.79999999999999993
20
0
30
0
11
-0.91811023622047228
21
0
31
0
0
LINE
5
152
100
AcDbEntity
8
0
100
AcDbLine
10
-0.39311023622047248
20
-0.11811023622047245
30
0
11
-0.15688976377952757
21
-0.11811023622047245
31
0
0
LINE
5
153
100
AcDbEntity
8
0
100
AcDbLine
10
-0.39311023622047248
20
0
30
0
11
-0.39311023622047248
21
-0.11811023622047245
31
0
0
LINE
5
154
100
AcDbEntity
8
0
100
AcDbLine
10
0
20
0.019499999999999941
30
0
11
0
21
-0.26300000000000001
31
0
0
LINE
5
155
100
AcDbEntity
8
0
100
AcDbLine
10
-0.91811023622047228
20
0
30
0
11
-0.91811023622047228
21
-0.11811023622047245
31
0
0
LINE
5
156
100
AcDbEntity
8
0
100
AcDbLine
10
-1.4379999999999999
20
0.48599999999999993
30
0
11
-2.0819999999999994
21
0.48599999999999993
31
0
0
LINE
5
157
100
AcDbEntity
8
0
100
AcDbLine
10
-1.4379999999999999
20
-0.48599999999999993
30
0
11
-2.0819999999999994
21
-0.48599999999999993
31
0
0
LINE
5
158
100
AcDbEntity
8
0
100
AcDbLine
10
-0.43074032627871778
20
0.48599999999999993
30
0
11
-0.43563373075365502
21
0.48599999999999993
31
0
0
LINE
5
159
100
AcDbEntity
8
0
100
AcDbLine
10
-0.48036626924634501
20
0.48599999999999993
30
0
11
-0.48542410143340992
21
0.48599999999999993
31
0
0
LINE
5
160
100
AcDbEntity
8
0
100
AcDbLine
10
-0.48036626924634501
20
-0.48599999999999993
30
0
11
-0.48542410143340992
21
-0.48599999999999993
31
0
0
ENDSEC
0
SECTION
2
OBJECTS
0
DICTIONARY
5
C
100
AcDbDictionary
3
ACAD_GROUP
350
D
3
ACAD_MLINESTYLE
350
17
0
DICTIONARY
5
D
100
AcDbDictionary
0
DICTIONARY
5
1A
330
C
100
AcDbDictionary
0
DICTIONARY
5
17
100
AcDbDictionary
0
ENDSEC
0
EOF
