%TF.GenerationSoftware,KiCad,Pcbnew,9.0.3*%
%TF.CreationDate,2025-08-06T08:50:17-04:00*%
%TF.ProjectId,remote,72656d6f-7465-42e6-9b69-6361645f7063,rev?*%
%TF.SameCoordinates,Original*%
%TF.FileFunction,Copper,L2,Bot*%
%TF.FilePolarity,Positive*%
%FSLAX46Y46*%
G04 Gerber Fmt 4.6, Leading zero omitted, Abs format (unit mm)*
G04 Created by KiCad (PCBNEW 9.0.3) date 2025-08-06 08:50:17*
%MOMM*%
%LPD*%
G01*
G04 APERTURE LIST*
G04 Aperture macros list*
%AMRoundRect*
0 Rectangle with rounded corners*
0 $1 Rounding radius*
0 $2 $3 $4 $5 $6 $7 $8 $9 X,Y pos of 4 corners*
0 Add a 4 corners polygon primitive as box body*
4,1,4,$2,$3,$4,$5,$6,$7,$8,$9,$2,$3,0*
0 Add four circle primitives for the rounded corners*
1,1,$1+$1,$2,$3*
1,1,$1+$1,$4,$5*
1,1,$1+$1,$6,$7*
1,1,$1+$1,$8,$9*
0 Add four rect primitives between the rounded corners*
20,1,$1+$1,$2,$3,$4,$5,0*
20,1,$1+$1,$4,$5,$6,$7,0*
20,1,$1+$1,$6,$7,$8,$9,0*
20,1,$1+$1,$8,$9,$2,$3,0*%
G04 Aperture macros list end*
%ADD10C,0.200000*%
%TA.AperFunction,NonConductor*%
%ADD11C,0.200000*%
%TD*%
%TA.AperFunction,SMDPad,CuDef*%
%ADD12R,1.900000X0.400000*%
%TD*%
%TA.AperFunction,ComponentPad*%
%ADD13R,1.700000X1.700000*%
%TD*%
%TA.AperFunction,ComponentPad*%
%ADD14C,1.700000*%
%TD*%
%TA.AperFunction,SMDPad,CuDef*%
%ADD15RoundRect,0.250000X0.475000X-0.250000X0.475000X0.250000X-0.475000X0.250000X-0.475000X-0.250000X0*%
%TD*%
%TA.AperFunction,SMDPad,CuDef*%
%ADD16RoundRect,0.137500X0.600000X0.137500X-0.600000X0.137500X-0.600000X-0.137500X0.600000X-0.137500X0*%
%TD*%
%TA.AperFunction,SMDPad,CuDef*%
%ADD17RoundRect,0.137500X0.137500X0.600000X-0.137500X0.600000X-0.137500X-0.600000X0.137500X-0.600000X0*%
%TD*%
%TA.AperFunction,SMDPad,CuDef*%
%ADD18RoundRect,0.250000X0.250000X0.475000X-0.250000X0.475000X-0.250000X-0.475000X0.250000X-0.475000X0*%
%TD*%
%TA.AperFunction,SMDPad,CuDef*%
%ADD19R,0.762000X1.905000*%
%TD*%
%TA.AperFunction,SMDPad,CuDef*%
%ADD20R,0.800000X1.700000*%
%TD*%
%TA.AperFunction,SMDPad,CuDef*%
%ADD21R,0.990600X2.006600*%
%TD*%
%TA.AperFunction,SMDPad,CuDef*%
%ADD22RoundRect,0.100000X0.130000X0.100000X-0.130000X0.100000X-0.130000X-0.100000X0.130000X-0.100000X0*%
%TD*%
%TA.AperFunction,SMDPad,CuDef*%
%ADD23RoundRect,0.100000X0.100000X-0.130000X0.100000X0.130000X-0.100000X0.130000X-0.100000X-0.130000X0*%
%TD*%
%TA.AperFunction,ViaPad*%
%ADD24C,0.505460*%
%TD*%
%TA.AperFunction,Conductor*%
%ADD25C,0.152400*%
%TD*%
G04 APERTURE END LIST*
D10*
D11*
X204597786Y-72460419D02*
X204931119Y-71984228D01*
X205169214Y-72460419D02*
X205169214Y-71460419D01*
X205169214Y-71460419D02*
X204788262Y-71460419D01*
X204788262Y-71460419D02*
X204693024Y-71508038D01*
X204693024Y-71508038D02*
X204645405Y-71555657D01*
X204645405Y-71555657D02*
X204597786Y-71650895D01*
X204597786Y-71650895D02*
X204597786Y-71793752D01*
X204597786Y-71793752D02*
X204645405Y-71888990D01*
X204645405Y-71888990D02*
X204693024Y-71936609D01*
X204693024Y-71936609D02*
X204788262Y-71984228D01*
X204788262Y-71984228D02*
X205169214Y-71984228D01*
X203788262Y-72412800D02*
X203883500Y-72460419D01*
X203883500Y-72460419D02*
X204073976Y-72460419D01*
X204073976Y-72460419D02*
X204169214Y-72412800D01*
X204169214Y-72412800D02*
X204216833Y-72317561D01*
X204216833Y-72317561D02*
X204216833Y-71936609D01*
X204216833Y-71936609D02*
X204169214Y-71841371D01*
X204169214Y-71841371D02*
X204073976Y-71793752D01*
X204073976Y-71793752D02*
X203883500Y-71793752D01*
X203883500Y-71793752D02*
X203788262Y-71841371D01*
X203788262Y-71841371D02*
X203740643Y-71936609D01*
X203740643Y-71936609D02*
X203740643Y-72031847D01*
X203740643Y-72031847D02*
X204216833Y-72127085D01*
X203312071Y-72460419D02*
X203312071Y-71793752D01*
X203312071Y-71888990D02*
X203264452Y-71841371D01*
X203264452Y-71841371D02*
X203169214Y-71793752D01*
X203169214Y-71793752D02*
X203026357Y-71793752D01*
X203026357Y-71793752D02*
X202931119Y-71841371D01*
X202931119Y-71841371D02*
X202883500Y-71936609D01*
X202883500Y-71936609D02*
X202883500Y-72460419D01*
X202883500Y-71936609D02*
X202835881Y-71841371D01*
X202835881Y-71841371D02*
X202740643Y-71793752D01*
X202740643Y-71793752D02*
X202597786Y-71793752D01*
X202597786Y-71793752D02*
X202502547Y-71841371D01*
X202502547Y-71841371D02*
X202454928Y-71936609D01*
X202454928Y-71936609D02*
X202454928Y-72460419D01*
X201835881Y-72460419D02*
X201931119Y-72412800D01*
X201931119Y-72412800D02*
X201978738Y-72365180D01*
X201978738Y-72365180D02*
X202026357Y-72269942D01*
X202026357Y-72269942D02*
X202026357Y-71984228D01*
X202026357Y-71984228D02*
X201978738Y-71888990D01*
X201978738Y-71888990D02*
X201931119Y-71841371D01*
X201931119Y-71841371D02*
X201835881Y-71793752D01*
X201835881Y-71793752D02*
X201693024Y-71793752D01*
X201693024Y-71793752D02*
X201597786Y-71841371D01*
X201597786Y-71841371D02*
X201550167Y-71888990D01*
X201550167Y-71888990D02*
X201502548Y-71984228D01*
X201502548Y-71984228D02*
X201502548Y-72269942D01*
X201502548Y-72269942D02*
X201550167Y-72365180D01*
X201550167Y-72365180D02*
X201597786Y-72412800D01*
X201597786Y-72412800D02*
X201693024Y-72460419D01*
X201693024Y-72460419D02*
X201835881Y-72460419D01*
X201216833Y-71793752D02*
X200835881Y-71793752D01*
X201073976Y-71460419D02*
X201073976Y-72317561D01*
X201073976Y-72317561D02*
X201026357Y-72412800D01*
X201026357Y-72412800D02*
X200931119Y-72460419D01*
X200931119Y-72460419D02*
X200835881Y-72460419D01*
X200121595Y-72412800D02*
X200216833Y-72460419D01*
X200216833Y-72460419D02*
X200407309Y-72460419D01*
X200407309Y-72460419D02*
X200502547Y-72412800D01*
X200502547Y-72412800D02*
X200550166Y-72317561D01*
X200550166Y-72317561D02*
X200550166Y-71936609D01*
X200550166Y-71936609D02*
X200502547Y-71841371D01*
X200502547Y-71841371D02*
X200407309Y-71793752D01*
X200407309Y-71793752D02*
X200216833Y-71793752D01*
X200216833Y-71793752D02*
X200121595Y-71841371D01*
X200121595Y-71841371D02*
X200073976Y-71936609D01*
X200073976Y-71936609D02*
X200073976Y-72031847D01*
X200073976Y-72031847D02*
X200550166Y-72127085D01*
X199693023Y-71555657D02*
X199645404Y-71508038D01*
X199645404Y-71508038D02*
X199550166Y-71460419D01*
X199550166Y-71460419D02*
X199312071Y-71460419D01*
X199312071Y-71460419D02*
X199216833Y-71508038D01*
X199216833Y-71508038D02*
X199169214Y-71555657D01*
X199169214Y-71555657D02*
X199121595Y-71650895D01*
X199121595Y-71650895D02*
X199121595Y-71746133D01*
X199121595Y-71746133D02*
X199169214Y-71888990D01*
X199169214Y-71888990D02*
X199740642Y-72460419D01*
X199740642Y-72460419D02*
X199121595Y-72460419D01*
X198502547Y-71460419D02*
X198407309Y-71460419D01*
X198407309Y-71460419D02*
X198312071Y-71508038D01*
X198312071Y-71508038D02*
X198264452Y-71555657D01*
X198264452Y-71555657D02*
X198216833Y-71650895D01*
X198216833Y-71650895D02*
X198169214Y-71841371D01*
X198169214Y-71841371D02*
X198169214Y-72079466D01*
X198169214Y-72079466D02*
X198216833Y-72269942D01*
X198216833Y-72269942D02*
X198264452Y-72365180D01*
X198264452Y-72365180D02*
X198312071Y-72412800D01*
X198312071Y-72412800D02*
X198407309Y-72460419D01*
X198407309Y-72460419D02*
X198502547Y-72460419D01*
X198502547Y-72460419D02*
X198597785Y-72412800D01*
X198597785Y-72412800D02*
X198645404Y-72365180D01*
X198645404Y-72365180D02*
X198693023Y-72269942D01*
X198693023Y-72269942D02*
X198740642Y-72079466D01*
X198740642Y-72079466D02*
X198740642Y-71841371D01*
X198740642Y-71841371D02*
X198693023Y-71650895D01*
X198693023Y-71650895D02*
X198645404Y-71555657D01*
X198645404Y-71555657D02*
X198597785Y-71508038D01*
X198597785Y-71508038D02*
X198502547Y-71460419D01*
X197788261Y-71555657D02*
X197740642Y-71508038D01*
X197740642Y-71508038D02*
X197645404Y-71460419D01*
X197645404Y-71460419D02*
X197407309Y-71460419D01*
X197407309Y-71460419D02*
X197312071Y-71508038D01*
X197312071Y-71508038D02*
X197264452Y-71555657D01*
X197264452Y-71555657D02*
X197216833Y-71650895D01*
X197216833Y-71650895D02*
X197216833Y-71746133D01*
X197216833Y-71746133D02*
X197264452Y-71888990D01*
X197264452Y-71888990D02*
X197835880Y-72460419D01*
X197835880Y-72460419D02*
X197216833Y-72460419D01*
X196312071Y-71460419D02*
X196788261Y-71460419D01*
X196788261Y-71460419D02*
X196835880Y-71936609D01*
X196835880Y-71936609D02*
X196788261Y-71888990D01*
X196788261Y-71888990D02*
X196693023Y-71841371D01*
X196693023Y-71841371D02*
X196454928Y-71841371D01*
X196454928Y-71841371D02*
X196359690Y-71888990D01*
X196359690Y-71888990D02*
X196312071Y-71936609D01*
X196312071Y-71936609D02*
X196264452Y-72031847D01*
X196264452Y-72031847D02*
X196264452Y-72269942D01*
X196264452Y-72269942D02*
X196312071Y-72365180D01*
X196312071Y-72365180D02*
X196359690Y-72412800D01*
X196359690Y-72412800D02*
X196454928Y-72460419D01*
X196454928Y-72460419D02*
X196693023Y-72460419D01*
X196693023Y-72460419D02*
X196788261Y-72412800D01*
X196788261Y-72412800D02*
X196835880Y-72365180D01*
X195169213Y-71793752D02*
X194931118Y-72460419D01*
X194931118Y-72460419D02*
X194693023Y-71793752D01*
X193788261Y-72460419D02*
X194359689Y-72460419D01*
X194073975Y-72460419D02*
X194073975Y-71460419D01*
X194073975Y-71460419D02*
X194169213Y-71603276D01*
X194169213Y-71603276D02*
X194264451Y-71698514D01*
X194264451Y-71698514D02*
X194359689Y-71746133D01*
D10*
D11*
X233458452Y-68260019D02*
X232839405Y-68260019D01*
X232839405Y-68260019D02*
X233172738Y-68640971D01*
X233172738Y-68640971D02*
X233029881Y-68640971D01*
X233029881Y-68640971D02*
X232934643Y-68688590D01*
X232934643Y-68688590D02*
X232887024Y-68736209D01*
X232887024Y-68736209D02*
X232839405Y-68831447D01*
X232839405Y-68831447D02*
X232839405Y-69069542D01*
X232839405Y-69069542D02*
X232887024Y-69164780D01*
X232887024Y-69164780D02*
X232934643Y-69212400D01*
X232934643Y-69212400D02*
X233029881Y-69260019D01*
X233029881Y-69260019D02*
X233315595Y-69260019D01*
X233315595Y-69260019D02*
X233410833Y-69212400D01*
X233410833Y-69212400D02*
X233458452Y-69164780D01*
X232410833Y-69164780D02*
X232363214Y-69212400D01*
X232363214Y-69212400D02*
X232410833Y-69260019D01*
X232410833Y-69260019D02*
X232458452Y-69212400D01*
X232458452Y-69212400D02*
X232410833Y-69164780D01*
X232410833Y-69164780D02*
X232410833Y-69260019D01*
X232029881Y-68260019D02*
X231410834Y-68260019D01*
X231410834Y-68260019D02*
X231744167Y-68640971D01*
X231744167Y-68640971D02*
X231601310Y-68640971D01*
X231601310Y-68640971D02*
X231506072Y-68688590D01*
X231506072Y-68688590D02*
X231458453Y-68736209D01*
X231458453Y-68736209D02*
X231410834Y-68831447D01*
X231410834Y-68831447D02*
X231410834Y-69069542D01*
X231410834Y-69069542D02*
X231458453Y-69164780D01*
X231458453Y-69164780D02*
X231506072Y-69212400D01*
X231506072Y-69212400D02*
X231601310Y-69260019D01*
X231601310Y-69260019D02*
X231887024Y-69260019D01*
X231887024Y-69260019D02*
X231982262Y-69212400D01*
X231982262Y-69212400D02*
X232029881Y-69164780D01*
X231077500Y-68593352D02*
X230839405Y-69260019D01*
X230839405Y-69260019D02*
X230601310Y-68593352D01*
D12*
%TO.P,Y1,1*%
%TO.N,Net-(CPU1-XTAL1{slash}PB6)*%
X212422288Y-60253400D03*
%TO.P,Y1,2*%
%TO.N,GND*%
X212422288Y-61453400D03*
%TO.P,Y1,3*%
%TO.N,Net-(CPU1-XTAL2{slash}PB7)*%
X212422288Y-62653400D03*
%TD*%
D13*
%TO.P,ISP1,1,MISO*%
%TO.N,/MISO*%
X223344288Y-70637400D03*
D14*
%TO.P,ISP1,2,VCC*%
%TO.N,+3.3V*%
X223344288Y-73177400D03*
%TO.P,ISP1,3,SCK*%
%TO.N,/SCK*%
X225884288Y-70637400D03*
%TO.P,ISP1,4,MOSI*%
%TO.N,/MOSI*%
X225884288Y-73177400D03*
%TO.P,ISP1,5,~{RST}*%
%TO.N,/RESET*%
X228424288Y-70637400D03*
%TO.P,ISP1,6,GND*%
%TO.N,GND*%
X228424288Y-73177400D03*
%TD*%
D15*
%TO.P,C4,1*%
%TO.N,+3.3V*%
X194718488Y-62621200D03*
%TO.P,C4,2*%
%TO.N,GND*%
X194718488Y-60721200D03*
%TD*%
D16*
%TO.P,CPU1,1,PD3*%
%TO.N,unconnected-(CPU1-PD3-Pad1)*%
X207440788Y-58439400D03*
%TO.P,CPU1,2,PD4*%
%TO.N,unconnected-(CPU1-PD4-Pad2)*%
X207440788Y-59239400D03*
%TO.P,CPU1,3,GND*%
%TO.N,GND*%
X207440788Y-60039400D03*
%TO.P,CPU1,4,VCC*%
%TO.N,+3.3V*%
X207440788Y-60839400D03*
%TO.P,CPU1,5,GND*%
%TO.N,GND*%
X207440788Y-61639400D03*
%TO.P,CPU1,6,VCC*%
%TO.N,+3.3V*%
X207440788Y-62439400D03*
%TO.P,CPU1,7,XTAL1/PB6*%
%TO.N,Net-(CPU1-XTAL1{slash}PB6)*%
X207440788Y-63239400D03*
%TO.P,CPU1,8,XTAL2/PB7*%
%TO.N,Net-(CPU1-XTAL2{slash}PB7)*%
X207440788Y-64039400D03*
D17*
%TO.P,CPU1,9,PD5*%
%TO.N,/PD5*%
X206078288Y-65401900D03*
%TO.P,CPU1,10,PD6*%
%TO.N,/PD6*%
X205278288Y-65401900D03*
%TO.P,CPU1,11,PD7*%
%TO.N,unconnected-(CPU1-PD7-Pad11)*%
X204478288Y-65401900D03*
%TO.P,CPU1,12,PB0*%
%TO.N,unconnected-(CPU1-PB0-Pad12)*%
X203678288Y-65401900D03*
%TO.P,CPU1,13,PB1*%
%TO.N,unconnected-(CPU1-PB1-Pad13)*%
X202878288Y-65401900D03*
%TO.P,CPU1,14,PB2*%
%TO.N,/NSS*%
X202078288Y-65401900D03*
%TO.P,CPU1,15,PB3*%
%TO.N,/MOSI*%
X201278288Y-65401900D03*
%TO.P,CPU1,16,PB4*%
%TO.N,/MISO*%
X200478288Y-65401900D03*
D16*
%TO.P,CPU1,17,PB5*%
%TO.N,/SCK*%
X199115788Y-64039400D03*
%TO.P,CPU1,18,AVCC*%
%TO.N,+3.3V*%
X199115788Y-63239400D03*
%TO.P,CPU1,19,ADC6*%
%TO.N,unconnected-(CPU1-ADC6-Pad19)*%
X199115788Y-62439400D03*
%TO.P,CPU1,20,AREF*%
%TO.N,unconnected-(CPU1-AREF-Pad20)*%
X199115788Y-61639400D03*
%TO.P,CPU1,21,GND*%
%TO.N,GND*%
X199115788Y-60839400D03*
%TO.P,CPU1,22,ADC7*%
%TO.N,unconnected-(CPU1-ADC7-Pad22)*%
X199115788Y-60039400D03*
%TO.P,CPU1,23,PC0*%
%TO.N,unconnected-(CPU1-PC0-Pad23)*%
X199115788Y-59239400D03*
%TO.P,CPU1,24,PC1*%
%TO.N,unconnected-(CPU1-PC1-Pad24)*%
X199115788Y-58439400D03*
D17*
%TO.P,CPU1,25,PC2*%
%TO.N,unconnected-(CPU1-PC2-Pad25)*%
X200478288Y-57076900D03*
%TO.P,CPU1,26,PC3*%
%TO.N,unconnected-(CPU1-PC3-Pad26)*%
X201278288Y-57076900D03*
%TO.P,CPU1,27,PC4*%
%TO.N,unconnected-(CPU1-PC4-Pad27)*%
X202078288Y-57076900D03*
%TO.P,CPU1,28,PC5*%
%TO.N,unconnected-(CPU1-PC5-Pad28)*%
X202878288Y-57076900D03*
%TO.P,CPU1,29,~{RESET}/PC6*%
%TO.N,/RESET*%
X203678288Y-57076900D03*
%TO.P,CPU1,30,PD0*%
%TO.N,unconnected-(CPU1-PD0-Pad30)*%
X204478288Y-57076900D03*
%TO.P,CPU1,31,PD1*%
%TO.N,unconnected-(CPU1-PD1-Pad31)*%
X205278288Y-57076900D03*
%TO.P,CPU1,32,PD2*%
%TO.N,/PD2*%
X206078288Y-57076900D03*
%TD*%
D18*
%TO.P,C3,1*%
%TO.N,+3.3V*%
X214210488Y-51358800D03*
%TO.P,C3,2*%
%TO.N,GND*%
X212310488Y-51358800D03*
%TD*%
D19*
%TO.P,RADIO1,1,GND*%
%TO.N,GND*%
X231233287Y-66433700D03*
%TO.P,RADIO1,2,MISO*%
%TO.N,/MISO*%
X229233288Y-66433700D03*
%TO.P,RADIO1,3,MOSI*%
%TO.N,/MOSI*%
X227233287Y-66433700D03*
%TO.P,RADIO1,4,SCK*%
%TO.N,/SCK*%
X225233289Y-66433700D03*
%TO.P,RADIO1,5,NSS*%
%TO.N,/NSS*%
X223233287Y-66433700D03*
%TO.P,RADIO1,6,RESET*%
%TO.N,unconnected-(RADIO1-RESET-Pad6)*%
X221233289Y-66433700D03*
%TO.P,RADIO1,7,DIO5*%
%TO.N,unconnected-(RADIO1-DIO5-Pad7)*%
X219233288Y-66433700D03*
%TO.P,RADIO1,8,GND*%
%TO.N,GND*%
X217233287Y-66433700D03*
%TO.P,RADIO1,9,ANT*%
%TO.N,/ANT*%
X217233289Y-51727100D03*
%TO.P,RADIO1,10,GND*%
%TO.N,GND*%
X219233288Y-51727100D03*
%TO.P,RADIO1,11,DIO3*%
%TO.N,unconnected-(RADIO1-DIO3-Pad11)*%
X221233289Y-51727100D03*
%TO.P,RADIO1,12,DIO4*%
%TO.N,unconnected-(RADIO1-DIO4-Pad12)*%
X223233287Y-51727100D03*
%TO.P,RADIO1,13,3.3V*%
%TO.N,+3.3V*%
X225233289Y-51727100D03*
%TO.P,RADIO1,14,DIO0*%
%TO.N,/PD2*%
X227233287Y-51727100D03*
%TO.P,RADIO1,15,DIO1*%
%TO.N,unconnected-(RADIO1-DIO1-Pad15)*%
X229233288Y-51727100D03*
%TO.P,RADIO1,16,DIO02*%
%TO.N,unconnected-(RADIO1-DIO02-Pad16)*%
X231233289Y-51727100D03*
%TD*%
D20*
%TO.P,B3,1*%
%TO.N,/RESET*%
X208563288Y-55270400D03*
%TO.P,B3,2*%
%TO.N,GND*%
X211963288Y-55270400D03*
%TD*%
D21*
%TO.P,ANT1,1,FEED*%
%TO.N,/ANT*%
X243600788Y-54508400D03*
%TO.P,ANT1,2,DUMMY*%
%TO.N,unconnected-(ANT1-DUMMY-Pad2)*%
X240997288Y-54508400D03*
%TO.P,ANT1,3,GROUND*%
%TO.N,GND*%
X238393788Y-54508400D03*
%TD*%
D22*
%TO.P,R1,1*%
%TO.N,/RESET*%
X203537288Y-51460400D03*
%TO.P,R1,2*%
%TO.N,+3.3V*%
X202897288Y-51460400D03*
%TD*%
D23*
%TO.P,C1,1*%
%TO.N,+3.3V*%
X196344088Y-59146400D03*
%TO.P,C1,2*%
%TO.N,GND*%
X196344088Y-58506400D03*
%TD*%
D24*
%TO.N,GND*%
X216765688Y-63144400D03*
X190451288Y-67335400D03*
X217248288Y-68478400D03*
X190451288Y-60350400D03*
X219153288Y-53365400D03*
X190451288Y-59588400D03*
X190451288Y-67970400D03*
X226062088Y-54000400D03*
X209628288Y-57683400D03*
X219102488Y-54305200D03*
X192737288Y-58445400D03*
X233758288Y-53492400D03*
X227535288Y-53949600D03*
X192610288Y-59715400D03*
X213946288Y-67716400D03*
X213946288Y-54635400D03*
X214200288Y-55778400D03*
X231091288Y-70002400D03*
%TO.N,+3.3V*%
X202897288Y-52857400D03*
X197436288Y-54381400D03*
X222607688Y-53644800D03*
X214073288Y-73177400D03*
%TO.N,/MOSI*%
X213184288Y-69875400D03*
X217121288Y-73812400D03*
%TO.N,Net-(CPU1-XTAL1{slash}PB6)*%
X215216288Y-62636400D03*
X215216288Y-59588400D03*
%TO.N,/PD5*%
X234012288Y-71399400D03*
X240895688Y-59944000D03*
X215343288Y-68986400D03*
%TO.N,/PD6*%
X226824088Y-60299600D03*
X211279288Y-68351400D03*
X215470288Y-64922400D03*
%TD*%
D25*
%TO.N,Net-(CPU1-XTAL1{slash}PB6)*%
X208866288Y-63239400D02*
X209856488Y-62249200D01*
X209856488Y-62249200D02*
X214829088Y-62249200D01*
X214829088Y-62249200D02*
X215216288Y-62636400D01*
X214581288Y-58953400D02*
X213722288Y-58953400D01*
X213722288Y-58953400D02*
X212422288Y-60253400D01*
X207440788Y-63239400D02*
X208866288Y-63239400D01*
%TO.N,Net-(CPU1-XTAL2{slash}PB7)*%
X207440788Y-64039400D02*
X208618288Y-64039400D01*
X208618288Y-64039400D02*
X210004288Y-62653400D01*
X210004288Y-62653400D02*
X212422288Y-62653400D01*
%TO.N,GND*%
X206216240Y-60839400D02*
X207016240Y-60039400D01*
X208739288Y-60223400D02*
X208739288Y-61366400D01*
X207016240Y-60039400D02*
X207440788Y-60039400D01*
X199115788Y-60839400D02*
X197836288Y-60839400D01*
X205837288Y-60839400D02*
X205818288Y-60858400D01*
X207440788Y-60039400D02*
X208555288Y-60039400D01*
X238393788Y-54508400D02*
X234774288Y-54508400D01*
X208466288Y-61639400D02*
X207440788Y-61639400D01*
X200630288Y-60839400D02*
X200738288Y-60731400D01*
X208555288Y-60039400D02*
X208739288Y-60223400D01*
X199115788Y-60839400D02*
X200630288Y-60839400D01*
X208739288Y-61366400D02*
X208466288Y-61639400D01*
X197836288Y-60839400D02*
X197817288Y-60858400D01*
X206216240Y-60839400D02*
X205837288Y-60839400D01*
X234774288Y-54508400D02*
X233758288Y-53492400D01*
%TO.N,+3.3V*%
X207016240Y-60839400D02*
X207440788Y-60839400D01*
X193616088Y-62621200D02*
X193550088Y-62687200D01*
X193550088Y-63500000D02*
X193550088Y-62687200D01*
X207959088Y-54990000D02*
X207959088Y-54216200D01*
X202897288Y-51460400D02*
X202897288Y-52857400D01*
X207959088Y-55550800D02*
X205590688Y-55550800D01*
X207440788Y-62439400D02*
X206764288Y-62439400D01*
X196166288Y-55143400D02*
X196928288Y-54381400D01*
X193829488Y-59258200D02*
X194007288Y-59080400D01*
X196344088Y-59146400D02*
X193941288Y-59146400D01*
X197112688Y-63239400D02*
X199115788Y-63239400D01*
X207959088Y-56324600D02*
X207959088Y-55550800D01*
X194007288Y-59080400D02*
X196166288Y-56921400D01*
X206175088Y-56135200D02*
X206361136Y-56135200D01*
X206557488Y-56413400D02*
X215546488Y-56413400D01*
X205029888Y-54990000D02*
X207959088Y-54990000D01*
X205590688Y-55550800D02*
X206175088Y-56135200D01*
X206361136Y-56135200D02*
X206557488Y-56331552D01*
X215546488Y-56413400D02*
X221439288Y-56413400D01*
X221439288Y-56413400D02*
X224931788Y-52920900D01*
X214210488Y-51358800D02*
X215546488Y-52694800D01*
X199115788Y-63239400D02*
X206216240Y-63239400D01*
X224207888Y-53644800D02*
X224931788Y-52920900D01*
X196166288Y-56921400D02*
X196166288Y-55143400D01*
X207016240Y-62439400D02*
X207440788Y-62439400D01*
X215546488Y-52694800D02*
X215546488Y-56413400D01*
X206499088Y-62174200D02*
X206499088Y-61356552D01*
X206557488Y-56331552D02*
X206557488Y-56413400D01*
X223344288Y-73177400D02*
X214073288Y-73177400D01*
X209167488Y-54216200D02*
X209167488Y-56324600D01*
X197112688Y-63239400D02*
X196852088Y-63500000D01*
X207959088Y-54216200D02*
X209167488Y-54216200D01*
X206216240Y-63239400D02*
X207016240Y-62439400D01*
X196852088Y-63500000D02*
X193550088Y-63500000D01*
X193941288Y-59146400D02*
X193829488Y-59258200D01*
X202897288Y-52857400D02*
X205029888Y-54990000D01*
X193550088Y-59537600D02*
X193829488Y-59258200D01*
X206499088Y-61356552D02*
X207016240Y-60839400D01*
X193550088Y-62687200D02*
X193550088Y-59537600D01*
X206764288Y-62439400D02*
X206499088Y-62174200D01*
X225249288Y-52603400D02*
X225249288Y-51587400D01*
X222607688Y-53644800D02*
X224207888Y-53644800D01*
X209167488Y-56324600D02*
X207959088Y-56324600D01*
X196928288Y-54381400D02*
X197436288Y-54381400D01*
X194718488Y-62621200D02*
X193616088Y-62621200D01*
X224931788Y-52920900D02*
X225249288Y-52603400D01*
%TO.N,/RESET*%
X200323287Y-52637401D02*
X202135288Y-50825400D01*
X212549288Y-70383400D02*
X196039288Y-70383400D01*
X191594288Y-65938400D02*
X191594288Y-54635400D01*
X204747289Y-55270400D02*
X203678288Y-56339401D01*
X196039288Y-70383400D02*
X191594288Y-65938400D01*
X203102287Y-50825400D02*
X203537288Y-51260401D01*
X228424288Y-70637400D02*
X227011488Y-72050200D01*
X193245288Y-52984400D02*
X200323287Y-52984400D01*
X203678288Y-56339401D02*
X203678288Y-57076900D01*
X202135288Y-50825400D02*
X203102287Y-50825400D01*
X212802748Y-70636860D02*
X212549288Y-70383400D01*
X191594288Y-54635400D02*
X193245288Y-52984400D01*
X200323287Y-52984400D02*
X200323287Y-52637401D01*
X200323287Y-52984400D02*
X203678288Y-56339401D01*
X221184748Y-70636860D02*
X212802748Y-70636860D01*
X203537288Y-51260401D02*
X203537288Y-51460400D01*
X222598088Y-72050200D02*
X221184748Y-70636860D01*
X208563288Y-55270400D02*
X204747289Y-55270400D01*
X227011488Y-72050200D02*
X222598088Y-72050200D01*
%TO.N,/SCK*%
X225884288Y-70637400D02*
X225884288Y-66929000D01*
X224092588Y-65137300D02*
X224032288Y-65197600D01*
X216419588Y-65197600D02*
X216359288Y-65137300D01*
X215685188Y-65811400D02*
X215470288Y-65811400D01*
X208474336Y-66573400D02*
X205940336Y-64039400D01*
X216359288Y-65137300D02*
X215685188Y-65811400D01*
X215470288Y-65811400D02*
X214708288Y-66573400D01*
X214708288Y-66573400D02*
X208474336Y-66573400D01*
X225884288Y-66929000D02*
X224092588Y-65137300D01*
X224032288Y-65197600D02*
X216419588Y-65197600D01*
X205940336Y-64039400D02*
X199115788Y-64039400D01*
%TO.N,/NSS*%
X223249286Y-68319402D02*
X221566288Y-70002400D01*
X221566288Y-70002400D02*
X214200288Y-70002400D01*
X223249286Y-66294000D02*
X223249286Y-68319402D01*
X202078288Y-66139399D02*
X202078288Y-65401900D01*
X205052289Y-69113400D02*
X202078288Y-66139399D01*
X213311288Y-69113400D02*
X205052289Y-69113400D01*
X214200288Y-70002400D02*
X213311288Y-69113400D01*
%TO.N,/MOSI*%
X226544586Y-73177400D02*
X227957386Y-71764600D01*
X225884288Y-73177400D02*
X224757088Y-74304600D01*
X224757088Y-74304600D02*
X221430360Y-74304600D01*
X228891190Y-71764600D02*
X229551488Y-71104302D01*
X225884288Y-73177400D02*
X226544586Y-73177400D01*
X217455766Y-74146878D02*
X217121288Y-73812400D01*
X221430360Y-74304600D02*
X217455766Y-74146878D01*
X204532689Y-69393800D02*
X201278288Y-66139399D01*
X201278288Y-66139399D02*
X201278288Y-65401900D01*
X212702688Y-69393800D02*
X204532689Y-69393800D01*
X229551488Y-71104302D02*
X229551488Y-68596202D01*
X227957386Y-71764600D02*
X228891190Y-71764600D01*
X229551488Y-68596202D02*
X227249286Y-66294000D01*
X213184288Y-69875400D02*
X212702688Y-69393800D01*
%TO.N,/MISO*%
X200478288Y-65932400D02*
X200478288Y-65401900D01*
X227027288Y-71088502D02*
X227027288Y-68732400D01*
X226871589Y-68576701D02*
X227027288Y-68732400D01*
X226646288Y-64668400D02*
X227623687Y-64668400D01*
X221874168Y-70637400D02*
X221593228Y-70356460D01*
X223344288Y-70637400D02*
X221874168Y-70637400D01*
X226392288Y-64922400D02*
X226646288Y-64668400D01*
X226351190Y-71764600D02*
X227027288Y-71088502D01*
X221593228Y-70356460D02*
X212985026Y-70356460D01*
X224471488Y-71764600D02*
X226351190Y-71764600D01*
X226392288Y-67334601D02*
X226392288Y-64922400D01*
X204421288Y-69875400D02*
X200478288Y-65932400D01*
X223344288Y-70637400D02*
X224471488Y-71764600D01*
X212503966Y-69875400D02*
X204421288Y-69875400D01*
X227623687Y-64668400D02*
X229249287Y-66294000D01*
X226871589Y-67813902D02*
X226871589Y-68576701D01*
X212985026Y-70356460D02*
X212503966Y-69875400D01*
X226871589Y-67813902D02*
X226392288Y-67334601D01*
%TO.N,/PD2*%
X227233287Y-51727100D02*
X221883487Y-57076900D01*
X221883487Y-57076900D02*
X206078288Y-57076900D01*
%TO.N,Net-(CPU1-XTAL1{slash}PB6)*%
X215216288Y-59588400D02*
X214581288Y-58953400D01*
%TO.N,/ANT*%
X242338366Y-52730400D02*
X243600788Y-53992822D01*
X217233289Y-51727100D02*
X219404989Y-49555400D01*
X217375288Y-51079400D02*
X217233289Y-51221399D01*
X219404989Y-49555400D02*
X232107288Y-49555400D01*
X235282288Y-52730400D02*
X242338366Y-52730400D01*
X243600788Y-53992822D02*
X243600788Y-54508400D01*
X232107288Y-49555400D02*
X235282288Y-52730400D01*
X217233289Y-51221399D02*
X217233289Y-51727100D01*
%TO.N,/PD5*%
X240895688Y-59944000D02*
X240641688Y-59944000D01*
X206906290Y-65401900D02*
X206078288Y-65401900D01*
X240641688Y-59944000D02*
X236679288Y-63906400D01*
X212549288Y-68605400D02*
X210834788Y-66890900D01*
X208548788Y-66890900D02*
X208511688Y-66853800D01*
X210834788Y-66890900D02*
X208548788Y-66890900D01*
X236679288Y-63906400D02*
X236679288Y-68732400D01*
X215343288Y-68986400D02*
X215189888Y-68833000D01*
X236679288Y-68732400D02*
X234012288Y-71399400D01*
X215189888Y-68833000D02*
X212549288Y-68833000D01*
X208511688Y-66853800D02*
X208358190Y-66853800D01*
X208358190Y-66853800D02*
X206906290Y-65401900D01*
X212549288Y-68833000D02*
X212549288Y-68605400D01*
%TO.N,/PD6*%
X207490289Y-68351400D02*
X205278288Y-66139399D01*
X223003288Y-64120400D02*
X226824088Y-60299600D01*
X215851288Y-64922400D02*
X216653288Y-64120400D01*
X211279288Y-68351400D02*
X207490289Y-68351400D01*
X216653288Y-64120400D02*
X223003288Y-64120400D01*
X205278288Y-66139399D02*
X205278288Y-65401900D01*
X215470288Y-64922400D02*
X215851288Y-64922400D01*
%TD*%
%TA.AperFunction,Conductor*%
%TO.N,GND*%
G36*
X219284552Y-49172054D02*
G01*
X219332365Y-49223003D01*
X219345043Y-49291712D01*
X219318561Y-49356369D01*
X219290596Y-49382046D01*
X219289604Y-49382708D01*
X219271117Y-49401196D01*
X219232300Y-49440013D01*
X219232299Y-49440014D01*
X218194361Y-50477951D01*
X218133038Y-50511436D01*
X218063346Y-50506452D01*
X218007414Y-50464582D01*
X217971835Y-50417054D01*
X217924993Y-50381988D01*
X217856624Y-50330806D01*
X217856617Y-50330802D01*
X217721771Y-50280508D01*
X217721772Y-50280508D01*
X217662172Y-50274101D01*
X217662170Y-50274100D01*
X217662162Y-50274100D01*
X217662153Y-50274100D01*
X216804418Y-50274100D01*
X216804412Y-50274101D01*
X216744805Y-50280508D01*
X216609960Y-50330802D01*
X216609953Y-50330806D01*
X216494744Y-50417052D01*
X216494741Y-50417055D01*
X216408495Y-50532264D01*
X216408491Y-50532271D01*
X216358197Y-50667117D01*
X216352127Y-50723581D01*
X216351790Y-50726723D01*
X216351789Y-50726735D01*
X216351789Y-52727470D01*
X216351790Y-52727476D01*
X216358197Y-52787083D01*
X216408491Y-52921928D01*
X216408495Y-52921935D01*
X216494741Y-53037144D01*
X216494744Y-53037147D01*
X216609953Y-53123393D01*
X216609960Y-53123397D01*
X216744806Y-53173691D01*
X216744805Y-53173691D01*
X216751733Y-53174435D01*
X216804416Y-53180100D01*
X217662161Y-53180099D01*
X217721772Y-53173691D01*
X217856620Y-53123396D01*
X217971835Y-53037146D01*
X218058085Y-52921931D01*
X218108380Y-52787083D01*
X218110251Y-52769675D01*
X218136986Y-52705127D01*
X218194378Y-52665278D01*
X218264203Y-52662782D01*
X218324293Y-52698433D01*
X218355569Y-52760911D01*
X218356829Y-52769671D01*
X218358689Y-52786974D01*
X218358691Y-52786979D01*
X218408933Y-52921686D01*
X218408937Y-52921693D01*
X218495097Y-53036787D01*
X218495100Y-53036790D01*
X218610194Y-53122950D01*
X218610201Y-53122954D01*
X218744908Y-53173196D01*
X218744915Y-53173198D01*
X218804443Y-53179599D01*
X218804460Y-53179600D01*
X218983288Y-53179600D01*
X218983288Y-50316538D01*
X219002973Y-50249499D01*
X219019607Y-50228857D01*
X219453045Y-49795419D01*
X219514368Y-49761934D01*
X219540726Y-49759100D01*
X231971551Y-49759100D01*
X232038590Y-49778785D01*
X232059232Y-49795419D01*
X235102528Y-52838715D01*
X235102531Y-52838719D01*
X235166903Y-52903091D01*
X235224805Y-52927073D01*
X235241769Y-52934100D01*
X235241771Y-52934100D01*
X236584379Y-52934100D01*
X236651418Y-52953785D01*
X236697173Y-53006589D01*
X236708378Y-53057598D01*
X236750634Y-63495111D01*
X236742041Y-63524817D01*
X236735468Y-63555039D01*
X236731936Y-63559756D01*
X236731221Y-63562230D01*
X236714317Y-63583294D01*
X236675158Y-63622454D01*
X236563902Y-63733710D01*
X236563901Y-63733710D01*
X236563900Y-63733711D01*
X236506596Y-63791015D01*
X236475589Y-63865877D01*
X236475588Y-63865882D01*
X236475588Y-68596662D01*
X236455903Y-68663701D01*
X236439269Y-68684343D01*
X234443671Y-70679940D01*
X234382348Y-70713425D01*
X234312656Y-70708441D01*
X234308537Y-70706820D01*
X234231997Y-70675116D01*
X234231989Y-70675114D01*
X234086479Y-70646170D01*
X234086475Y-70646170D01*
X233938101Y-70646170D01*
X233938096Y-70646170D01*
X233792586Y-70675114D01*
X233792578Y-70675116D01*
X233655502Y-70731894D01*
X233655493Y-70731899D01*
X233532132Y-70814327D01*
X233532130Y-70814329D01*
X233427218Y-70919240D01*
X233427215Y-70919244D01*
X233344787Y-71042605D01*
X233344782Y-71042614D01*
X233288004Y-71179690D01*
X233288002Y-71179698D01*
X233259058Y-71325208D01*
X233259058Y-71473591D01*
X233288002Y-71619101D01*
X233288004Y-71619109D01*
X233344782Y-71756185D01*
X233344787Y-71756194D01*
X233427215Y-71879555D01*
X233427218Y-71879559D01*
X233532130Y-71984471D01*
X233655493Y-72066900D01*
X233655502Y-72066905D01*
X233686555Y-72079767D01*
X233792579Y-72123684D01*
X233923024Y-72149631D01*
X233938096Y-72152629D01*
X233938100Y-72152630D01*
X233938101Y-72152630D01*
X234086476Y-72152630D01*
X234086477Y-72152629D01*
X234231997Y-72123684D01*
X234369076Y-72066904D01*
X234369082Y-72066900D01*
X234492446Y-71984471D01*
X234492447Y-71984469D01*
X234597357Y-71879559D01*
X234597360Y-71879556D01*
X234679792Y-71756188D01*
X234736572Y-71619109D01*
X234765518Y-71473587D01*
X234765518Y-71325213D01*
X234736572Y-71179691D01*
X234736570Y-71179686D01*
X234704867Y-71103147D01*
X234697398Y-71033678D01*
X234728673Y-70971199D01*
X234731719Y-70968042D01*
X236562154Y-69137607D01*
X236623475Y-69104124D01*
X236693167Y-69109108D01*
X236749100Y-69150980D01*
X236773517Y-69216444D01*
X236773832Y-69224788D01*
X236797144Y-74982798D01*
X236777731Y-75049917D01*
X236725113Y-75095885D01*
X236673145Y-75107300D01*
X232160535Y-75107300D01*
X232155618Y-75107202D01*
X231870430Y-75095885D01*
X231666208Y-75087780D01*
X223525324Y-74764729D01*
X223503348Y-74757318D01*
X223480345Y-74754345D01*
X223470862Y-74746362D01*
X223459118Y-74742402D01*
X223444636Y-74724284D01*
X223426893Y-74709348D01*
X223423231Y-74697506D01*
X223415493Y-74687825D01*
X223413104Y-74664754D01*
X223406254Y-74642597D01*
X223409575Y-74630657D01*
X223408299Y-74618327D01*
X223418763Y-74597627D01*
X223424979Y-74575283D01*
X223434230Y-74567032D01*
X223439822Y-74555972D01*
X223459814Y-74544216D01*
X223477125Y-74528779D01*
X223495989Y-74522945D01*
X223500051Y-74520558D01*
X223510815Y-74518358D01*
X223564694Y-74509825D01*
X223584081Y-74508300D01*
X224797605Y-74508300D01*
X224797607Y-74508300D01*
X224841288Y-74490207D01*
X224872472Y-74477291D01*
X224872473Y-74477289D01*
X224872475Y-74477289D01*
X224929777Y-74419987D01*
X224929777Y-74419986D01*
X224947210Y-74402553D01*
X224947214Y-74402547D01*
X225009402Y-74340359D01*
X225070723Y-74306876D01*
X225140415Y-74311860D01*
X225169971Y-74327728D01*
X225176467Y-74332448D01*
X225176469Y-74332449D01*
X225176472Y-74332451D01*
X225365876Y-74428957D01*
X225568045Y-74494646D01*
X225778001Y-74527900D01*
X225778002Y-74527900D01*
X225990574Y-74527900D01*
X225990575Y-74527900D01*
X226200531Y-74494646D01*
X226402700Y-74428957D01*
X226592104Y-74332451D01*
X226650200Y-74290242D01*
X226764074Y-74207509D01*
X226764076Y-74207506D01*
X226764080Y-74207504D01*
X226914392Y-74057192D01*
X226914394Y-74057188D01*
X226914397Y-74057186D01*
X227000178Y-73939117D01*
X227039339Y-73885216D01*
X227044081Y-73875908D01*
X227092051Y-73825111D01*
X227159871Y-73808311D01*
X227226007Y-73830845D01*
X227265051Y-73875900D01*
X227269661Y-73884947D01*
X227309016Y-73939116D01*
X227941325Y-73306808D01*
X227958363Y-73370393D01*
X228024189Y-73484407D01*
X228117281Y-73577499D01*
X228231295Y-73643325D01*
X228294878Y-73660362D01*
X227662570Y-74292669D01*
X227662570Y-74292670D01*
X227716737Y-74332024D01*
X227906070Y-74428495D01*
X228108158Y-74494157D01*
X228318042Y-74527400D01*
X228530534Y-74527400D01*
X228740415Y-74494157D01*
X228740418Y-74494157D01*
X228942505Y-74428495D01*
X229131842Y-74332022D01*
X229186004Y-74292670D01*
X229186005Y-74292670D01*
X228553696Y-73660362D01*
X228617281Y-73643325D01*
X228731295Y-73577499D01*
X228824387Y-73484407D01*
X228890213Y-73370393D01*
X228907250Y-73306808D01*
X229539558Y-73939117D01*
X229539558Y-73939116D01*
X229578910Y-73884954D01*
X229650957Y-73743555D01*
X233948288Y-73743555D01*
X233948288Y-73743984D01*
X233948288Y-73881245D01*
X233950314Y-73891430D01*
X233951335Y-73896565D01*
X233951335Y-73896904D01*
X233951683Y-73898316D01*
X233952227Y-73901052D01*
X233975148Y-74016283D01*
X233975151Y-74016295D01*
X233985415Y-74041074D01*
X233985416Y-74041075D01*
X233989005Y-74049742D01*
X233991781Y-74061001D01*
X234000738Y-74078068D01*
X234002892Y-74083267D01*
X234002892Y-74083268D01*
X234027840Y-74143497D01*
X234027842Y-74143501D01*
X234057936Y-74188539D01*
X234057936Y-74188540D01*
X234061585Y-74194001D01*
X234070323Y-74210650D01*
X234080031Y-74221609D01*
X234084721Y-74228627D01*
X234104335Y-74257980D01*
X234104341Y-74257988D01*
X234173760Y-74327407D01*
X234182396Y-74337155D01*
X234185985Y-74339632D01*
X234201702Y-74355349D01*
X234316187Y-74431846D01*
X234316188Y-74431846D01*
X234316189Y-74431847D01*
X234316191Y-74431848D01*
X234433272Y-74480344D01*
X234443397Y-74484538D01*
X234443399Y-74484538D01*
X234443401Y-74484539D01*
X234448262Y-74485505D01*
X234471908Y-74490209D01*
X234479512Y-74493093D01*
X234497200Y-74495240D01*
X234578443Y-74511400D01*
X234630281Y-74511400D01*
X234647288Y-74513465D01*
X234664295Y-74511400D01*
X234716134Y-74511400D01*
X234724448Y-74509746D01*
X234797369Y-74495241D01*
X234815064Y-74493093D01*
X234822666Y-74490209D01*
X234851179Y-74484538D01*
X234978389Y-74431846D01*
X235092874Y-74355349D01*
X235108594Y-74339628D01*
X235112180Y-74337155D01*
X235120805Y-74327417D01*
X235190237Y-74257986D01*
X235214544Y-74221608D01*
X235224253Y-74210650D01*
X235232985Y-74194008D01*
X235266734Y-74143501D01*
X235293839Y-74078061D01*
X235302795Y-74061001D01*
X235305570Y-74049742D01*
X235319426Y-74016291D01*
X235342892Y-73898315D01*
X235343241Y-73896904D01*
X235343252Y-73896504D01*
X235346288Y-73881245D01*
X235346288Y-73743555D01*
X235343252Y-73728295D01*
X235343241Y-73727896D01*
X235342892Y-73726484D01*
X235319426Y-73608509D01*
X235305570Y-73575057D01*
X235302795Y-73563799D01*
X235293837Y-73546731D01*
X235266734Y-73481299D01*
X235266732Y-73481296D01*
X235266731Y-73481293D01*
X235236638Y-73436257D01*
X235236637Y-73436256D01*
X235232992Y-73430801D01*
X235224253Y-73414150D01*
X235214540Y-73403186D01*
X235212936Y-73400785D01*
X235190237Y-73366814D01*
X235120815Y-73297392D01*
X235112180Y-73287645D01*
X235108590Y-73285167D01*
X235100622Y-73277199D01*
X235092874Y-73269451D01*
X234978389Y-73192954D01*
X234978388Y-73192953D01*
X234978386Y-73192952D01*
X234978384Y-73192951D01*
X234851183Y-73140263D01*
X234851179Y-73140262D01*
X234832779Y-73136601D01*
X234832779Y-73136600D01*
X234822659Y-73134587D01*
X234815064Y-73131707D01*
X234797367Y-73129558D01*
X234794355Y-73128959D01*
X234792769Y-73128643D01*
X234792766Y-73128643D01*
X234745077Y-73119157D01*
X234716134Y-73113400D01*
X234716133Y-73113400D01*
X234664295Y-73113400D01*
X234647288Y-73111335D01*
X234630281Y-73113400D01*
X234578443Y-73113400D01*
X234556519Y-73117761D01*
X234501809Y-73128643D01*
X234501808Y-73128643D01*
X234497203Y-73129558D01*
X234479512Y-73131707D01*
X234471912Y-73134589D01*
X234461787Y-73136603D01*
X234461786Y-73136602D01*
X234443397Y-73140261D01*
X234443395Y-73140262D01*
X234316189Y-73192952D01*
X234201700Y-73269451D01*
X234201699Y-73269453D01*
X234193944Y-73277208D01*
X234193943Y-73277207D01*
X234185975Y-73285174D01*
X234182396Y-73287645D01*
X234173790Y-73297358D01*
X234171116Y-73300033D01*
X234171117Y-73300033D01*
X234104343Y-73366808D01*
X234104334Y-73366819D01*
X234084722Y-73396169D01*
X234084723Y-73396170D01*
X234080030Y-73403192D01*
X234070323Y-73414150D01*
X234061591Y-73430786D01*
X234057942Y-73436248D01*
X234027841Y-73481299D01*
X234002891Y-73541530D01*
X234002892Y-73541531D01*
X234000735Y-73546737D01*
X233991781Y-73563799D01*
X233989006Y-73575057D01*
X233987995Y-73577499D01*
X233976820Y-73604479D01*
X233975149Y-73608512D01*
X233975148Y-73608515D01*
X233952226Y-73723748D01*
X233951206Y-73728337D01*
X233950811Y-73730866D01*
X233948288Y-73743555D01*
X229650957Y-73743555D01*
X229675383Y-73695617D01*
X229741045Y-73493530D01*
X229741045Y-73493527D01*
X229774288Y-73283646D01*
X229774288Y-73071153D01*
X229741045Y-72861272D01*
X229741045Y-72861269D01*
X229675383Y-72659182D01*
X229578912Y-72469849D01*
X229539558Y-72415682D01*
X229539557Y-72415682D01*
X228907250Y-73047990D01*
X228890213Y-72984407D01*
X228824387Y-72870393D01*
X228731295Y-72777301D01*
X228617281Y-72711475D01*
X228553696Y-72694437D01*
X229186004Y-72062128D01*
X229127900Y-72019914D01*
X229129180Y-72018151D01*
X229119547Y-72007498D01*
X229100802Y-71993466D01*
X229096550Y-71982068D01*
X229088391Y-71973045D01*
X229084568Y-71949941D01*
X229076385Y-71928002D01*
X229078970Y-71916114D01*
X229076985Y-71904113D01*
X229086259Y-71882610D01*
X229091237Y-71859729D01*
X229102778Y-71844312D01*
X229104657Y-71839956D01*
X229112377Y-71831486D01*
X229195820Y-71748043D01*
X229210604Y-71735416D01*
X229304080Y-71667504D01*
X229454392Y-71517192D01*
X229522306Y-71423714D01*
X229534926Y-71408938D01*
X229724177Y-71219689D01*
X229755188Y-71144821D01*
X229755188Y-71063784D01*
X229755188Y-70877191D01*
X229756715Y-70857793D01*
X229757466Y-70853055D01*
X229774788Y-70743687D01*
X229774788Y-70531113D01*
X229756715Y-70417005D01*
X229755188Y-70397607D01*
X229755188Y-69926262D01*
X229774873Y-69859223D01*
X229827677Y-69813468D01*
X229896835Y-69803524D01*
X229960391Y-69832549D01*
X229966869Y-69838581D01*
X229994952Y-69866664D01*
X234063952Y-69866664D01*
X234063952Y-67653429D01*
X232226828Y-67653429D01*
X232159789Y-67633744D01*
X232114034Y-67580940D01*
X232104090Y-67511782D01*
X232106150Y-67500917D01*
X232107885Y-67493570D01*
X232114286Y-67434044D01*
X232114287Y-67434027D01*
X232114287Y-66683700D01*
X231357287Y-66683700D01*
X231290248Y-66664015D01*
X231244493Y-66611211D01*
X231233287Y-66559700D01*
X231233287Y-66433700D01*
X231107287Y-66433700D01*
X231040248Y-66414015D01*
X230994493Y-66361211D01*
X230983287Y-66309700D01*
X230983287Y-66183700D01*
X231483287Y-66183700D01*
X232114287Y-66183700D01*
X232114287Y-65433372D01*
X232114286Y-65433355D01*
X232107885Y-65373827D01*
X232107883Y-65373820D01*
X232057641Y-65239113D01*
X232057637Y-65239106D01*
X231971477Y-65124012D01*
X231971474Y-65124009D01*
X231856380Y-65037849D01*
X231856373Y-65037845D01*
X231721666Y-64987603D01*
X231721659Y-64987601D01*
X231662131Y-64981200D01*
X231483287Y-64981200D01*
X231483287Y-66183700D01*
X230983287Y-66183700D01*
X230983287Y-64981200D01*
X230804442Y-64981200D01*
X230744914Y-64987601D01*
X230744907Y-64987603D01*
X230610200Y-65037845D01*
X230610193Y-65037849D01*
X230495099Y-65124009D01*
X230495096Y-65124012D01*
X230408936Y-65239106D01*
X230408932Y-65239113D01*
X230358690Y-65373820D01*
X230358688Y-65373825D01*
X230356828Y-65391127D01*
X230330087Y-65455677D01*
X230272692Y-65495522D01*
X230202867Y-65498013D01*
X230142780Y-65462357D01*
X230111508Y-65399877D01*
X230110249Y-65391115D01*
X230108379Y-65373717D01*
X230058085Y-65238871D01*
X230058081Y-65238864D01*
X229971835Y-65123655D01*
X229971832Y-65123652D01*
X229856623Y-65037406D01*
X229856616Y-65037402D01*
X229721770Y-64987108D01*
X229721771Y-64987108D01*
X229662171Y-64980701D01*
X229662169Y-64980700D01*
X229662161Y-64980700D01*
X229662152Y-64980700D01*
X228804417Y-64980700D01*
X228804411Y-64980701D01*
X228744804Y-64987108D01*
X228609959Y-65037402D01*
X228609956Y-65037404D01*
X228507712Y-65113944D01*
X228442247Y-65138361D01*
X228373974Y-65123509D01*
X228345720Y-65102358D01*
X227813817Y-64570455D01*
X227813815Y-64570452D01*
X227739071Y-64495708D01*
X227664209Y-64464701D01*
X227664207Y-64464700D01*
X227664206Y-64464700D01*
X226686806Y-64464700D01*
X226605769Y-64464700D01*
X226605767Y-64464700D01*
X226605765Y-64464701D01*
X226530903Y-64495708D01*
X226219596Y-64807015D01*
X226188589Y-64881877D01*
X226188588Y-64881882D01*
X226188588Y-65041045D01*
X226168903Y-65108084D01*
X226116099Y-65153839D01*
X226046941Y-65163783D01*
X225983385Y-65134758D01*
X225976907Y-65128726D01*
X225971833Y-65123652D01*
X225856624Y-65037406D01*
X225856617Y-65037402D01*
X225721771Y-64987108D01*
X225721772Y-64987108D01*
X225662172Y-64980701D01*
X225662170Y-64980700D01*
X225662162Y-64980700D01*
X225662153Y-64980700D01*
X224804418Y-64980700D01*
X224804412Y-64980701D01*
X224744805Y-64987108D01*
X224609960Y-65037402D01*
X224609957Y-65037404D01*
X224507713Y-65113944D01*
X224442248Y-65138361D01*
X224373975Y-65123509D01*
X224345721Y-65102358D01*
X224207975Y-64964612D01*
X224207974Y-64964611D01*
X224133107Y-64933600D01*
X224052069Y-64933600D01*
X224052068Y-64933600D01*
X223977200Y-64964612D01*
X223967048Y-64971396D01*
X223964878Y-64968148D01*
X223957304Y-64972284D01*
X223931486Y-64988877D01*
X223925285Y-64989768D01*
X223922909Y-64991066D01*
X223896551Y-64993900D01*
X223762350Y-64993900D01*
X223729537Y-64987980D01*
X223729322Y-64988893D01*
X223721770Y-64987108D01*
X223662170Y-64980701D01*
X223662168Y-64980700D01*
X223662160Y-64980700D01*
X223662151Y-64980700D01*
X222804416Y-64980700D01*
X222804410Y-64980701D01*
X222744802Y-64987109D01*
X222737258Y-64988892D01*
X222737042Y-64987979D01*
X222704225Y-64993900D01*
X221762352Y-64993900D01*
X221729539Y-64987980D01*
X221729324Y-64988893D01*
X221721772Y-64987108D01*
X221662172Y-64980701D01*
X221662170Y-64980700D01*
X221662162Y-64980700D01*
X221662153Y-64980700D01*
X220804418Y-64980700D01*
X220804412Y-64980701D01*
X220744804Y-64987109D01*
X220737260Y-64988892D01*
X220737044Y-64987979D01*
X220704227Y-64993900D01*
X219762351Y-64993900D01*
X219729538Y-64987980D01*
X219729323Y-64988893D01*
X219721771Y-64987108D01*
X219662171Y-64980701D01*
X219662169Y-64980700D01*
X219662161Y-64980700D01*
X219662152Y-64980700D01*
X218804417Y-64980700D01*
X218804411Y-64980701D01*
X218744803Y-64987109D01*
X218737259Y-64988892D01*
X218737043Y-64987979D01*
X218704226Y-64993900D01*
X217760921Y-64993900D01*
X217729490Y-64988229D01*
X217729217Y-64989387D01*
X217721659Y-64987601D01*
X217662131Y-64981200D01*
X217463651Y-64981200D01*
X217445583Y-64991066D01*
X217419225Y-64993900D01*
X217047349Y-64993900D01*
X217004098Y-64981200D01*
X216804442Y-64981200D01*
X216744914Y-64987601D01*
X216741211Y-64988476D01*
X216740588Y-64988877D01*
X216737848Y-64989270D01*
X216737357Y-64989387D01*
X216737346Y-64989343D01*
X216705653Y-64993900D01*
X216555325Y-64993900D01*
X216488286Y-64974215D01*
X216484592Y-64971238D01*
X216474675Y-64964612D01*
X216474674Y-64964611D01*
X216399807Y-64933600D01*
X216388523Y-64928926D01*
X216389046Y-64927661D01*
X216338850Y-64901404D01*
X216304276Y-64840689D01*
X216308015Y-64770919D01*
X216337268Y-64724494D01*
X216701345Y-64360419D01*
X216762668Y-64326934D01*
X216789026Y-64324100D01*
X223043805Y-64324100D01*
X223043807Y-64324100D01*
X223081241Y-64308594D01*
X223118672Y-64293091D01*
X223118673Y-64293089D01*
X223118675Y-64293089D01*
X223175977Y-64235787D01*
X223175977Y-64235786D01*
X223193415Y-64218348D01*
X223193416Y-64218345D01*
X226392705Y-61019057D01*
X226454026Y-60985574D01*
X226523718Y-60990558D01*
X226527824Y-60992174D01*
X226604379Y-61023884D01*
X226749896Y-61052829D01*
X226749900Y-61052830D01*
X226749901Y-61052830D01*
X226898276Y-61052830D01*
X226898277Y-61052829D01*
X227043797Y-61023884D01*
X227180876Y-60967104D01*
X227304244Y-60884672D01*
X227409160Y-60779756D01*
X227491592Y-60656388D01*
X227548372Y-60519309D01*
X227577318Y-60373787D01*
X227577318Y-60225413D01*
X227548372Y-60079891D01*
X227499429Y-59961733D01*
X227491593Y-59942814D01*
X227491588Y-59942805D01*
X227409160Y-59819444D01*
X227409157Y-59819440D01*
X227304247Y-59714530D01*
X227304243Y-59714527D01*
X227180882Y-59632099D01*
X227180873Y-59632094D01*
X227043797Y-59575316D01*
X227043789Y-59575314D01*
X226898279Y-59546370D01*
X226898275Y-59546370D01*
X226749901Y-59546370D01*
X226749896Y-59546370D01*
X226604386Y-59575314D01*
X226604378Y-59575316D01*
X226467302Y-59632094D01*
X226467293Y-59632099D01*
X226343932Y-59714527D01*
X226343928Y-59714530D01*
X226239018Y-59819440D01*
X226239015Y-59819444D01*
X226156587Y-59942805D01*
X226156582Y-59942814D01*
X226099804Y-60079890D01*
X226099802Y-60079898D01*
X226070858Y-60225408D01*
X226070858Y-60373791D01*
X226099802Y-60519301D01*
X226099804Y-60519308D01*
X226131508Y-60595851D01*
X226138976Y-60665320D01*
X226107700Y-60727799D01*
X226104627Y-60730983D01*
X222955232Y-63880381D01*
X222893909Y-63913866D01*
X222867551Y-63916700D01*
X216693806Y-63916700D01*
X216612769Y-63916700D01*
X216612767Y-63916700D01*
X216612765Y-63916701D01*
X216537903Y-63947708D01*
X216137045Y-64348566D01*
X216075722Y-64382051D01*
X216006030Y-64377067D01*
X215961683Y-64348566D01*
X215950447Y-64337330D01*
X215950443Y-64337327D01*
X215827082Y-64254899D01*
X215827073Y-64254894D01*
X215689997Y-64198116D01*
X215689989Y-64198114D01*
X215544479Y-64169170D01*
X215544475Y-64169170D01*
X215396101Y-64169170D01*
X215396096Y-64169170D01*
X215250586Y-64198114D01*
X215250578Y-64198116D01*
X215113502Y-64254894D01*
X215113493Y-64254899D01*
X214990132Y-64337327D01*
X214990128Y-64337330D01*
X214885218Y-64442240D01*
X214885215Y-64442244D01*
X214802787Y-64565605D01*
X214802782Y-64565614D01*
X214746004Y-64702690D01*
X214746002Y-64702698D01*
X214717058Y-64848208D01*
X214717058Y-64996591D01*
X214746002Y-65142101D01*
X214746004Y-65142109D01*
X214802782Y-65279185D01*
X214802787Y-65279194D01*
X214885215Y-65402555D01*
X214885218Y-65402559D01*
X214990128Y-65507469D01*
X214990132Y-65507472D01*
X215113493Y-65589900D01*
X215113497Y-65589902D01*
X215113500Y-65589904D01*
X215131339Y-65597293D01*
X215147255Y-65603886D01*
X215201658Y-65647727D01*
X215223723Y-65714021D01*
X215206444Y-65781721D01*
X215187483Y-65806128D01*
X214660232Y-66333381D01*
X214598909Y-66366866D01*
X214572551Y-66369700D01*
X208610074Y-66369700D01*
X208543035Y-66350015D01*
X208522393Y-66333381D01*
X207215592Y-65026580D01*
X207182107Y-64965257D01*
X207187091Y-64895565D01*
X207228963Y-64839632D01*
X207294427Y-64815215D01*
X207303273Y-64814899D01*
X208105210Y-64814899D01*
X208105222Y-64814899D01*
X208141386Y-64812054D01*
X208296182Y-64767081D01*
X208434931Y-64685026D01*
X208548914Y-64571043D01*
X208630969Y-64432294D01*
X208673035Y-64287501D01*
X208707493Y-64231458D01*
X208723907Y-64216134D01*
X208733675Y-64212089D01*
X208790977Y-64154787D01*
X208790977Y-64154785D01*
X210052344Y-62893419D01*
X210113667Y-62859934D01*
X210140025Y-62857100D01*
X210855655Y-62857100D01*
X210922694Y-62876785D01*
X210968449Y-62929589D01*
X210975058Y-62953651D01*
X210976412Y-62953332D01*
X210978195Y-62960879D01*
X211028490Y-63095728D01*
X211028494Y-63095735D01*
X211114740Y-63210944D01*
X211114743Y-63210947D01*
X211229952Y-63297193D01*
X211229959Y-63297197D01*
X211364805Y-63347491D01*
X211364804Y-63347491D01*
X211371732Y-63348235D01*
X211424415Y-63353900D01*
X213420160Y-63353899D01*
X213479771Y-63347491D01*
X213614619Y-63297196D01*
X213729834Y-63210946D01*
X213816084Y-63095731D01*
X213866379Y-62960883D01*
X213872788Y-62901273D01*
X213872787Y-62576899D01*
X213892471Y-62509861D01*
X213945275Y-62464106D01*
X213996787Y-62452900D01*
X214339058Y-62452900D01*
X214406097Y-62472585D01*
X214451852Y-62525389D01*
X214463058Y-62576900D01*
X214463058Y-62710591D01*
X214492002Y-62856101D01*
X214492004Y-62856109D01*
X214548782Y-62993185D01*
X214548787Y-62993194D01*
X214631215Y-63116555D01*
X214631218Y-63116559D01*
X214736128Y-63221469D01*
X214736132Y-63221472D01*
X214859493Y-63303900D01*
X214859499Y-63303903D01*
X214859500Y-63303904D01*
X214996579Y-63360684D01*
X215142096Y-63389629D01*
X215142100Y-63389630D01*
X215142101Y-63389630D01*
X215290476Y-63389630D01*
X215290477Y-63389629D01*
X215435997Y-63360684D01*
X215573076Y-63303904D01*
X215696444Y-63221472D01*
X215801360Y-63116556D01*
X215883792Y-62993188D01*
X215940572Y-62856109D01*
X215969518Y-62710587D01*
X215969518Y-62562213D01*
X215940572Y-62416691D01*
X215883792Y-62279612D01*
X215883791Y-62279611D01*
X215883788Y-62279605D01*
X215801360Y-62156244D01*
X215801357Y-62156240D01*
X215696447Y-62051330D01*
X215696443Y-62051327D01*
X215573082Y-61968899D01*
X215573073Y-61968894D01*
X215435997Y-61912116D01*
X215435989Y-61912114D01*
X215290479Y-61883170D01*
X215290475Y-61883170D01*
X215142101Y-61883170D01*
X215142096Y-61883170D01*
X214996586Y-61912114D01*
X214996578Y-61912116D01*
X214859502Y-61968894D01*
X214859493Y-61968899D01*
X214776130Y-62024602D01*
X214709453Y-62045480D01*
X214707239Y-62045500D01*
X213938284Y-62045500D01*
X213871245Y-62025815D01*
X213825490Y-61973011D01*
X213815546Y-61903853D01*
X213822102Y-61878167D01*
X213865884Y-61760779D01*
X213865886Y-61760772D01*
X213872287Y-61701244D01*
X213872288Y-61701227D01*
X213872288Y-61653400D01*
X210972288Y-61653400D01*
X210972288Y-61701244D01*
X210978689Y-61760772D01*
X210978691Y-61760779D01*
X211022474Y-61878167D01*
X211027458Y-61947858D01*
X210993973Y-62009181D01*
X210932650Y-62042666D01*
X210906292Y-62045500D01*
X209897006Y-62045500D01*
X209815969Y-62045500D01*
X209815967Y-62045500D01*
X209815965Y-62045501D01*
X209741103Y-62076508D01*
X209741101Y-62076510D01*
X208855802Y-62961810D01*
X208851634Y-62964085D01*
X208849056Y-62968073D01*
X208821258Y-62980672D01*
X208794479Y-62995295D01*
X208789743Y-62994956D01*
X208785418Y-62996917D01*
X208755223Y-62992487D01*
X208724787Y-62990311D01*
X208720985Y-62987465D01*
X208716288Y-62986776D01*
X208693281Y-62966725D01*
X208668854Y-62948439D01*
X208666205Y-62943128D01*
X208663615Y-62940871D01*
X208649046Y-62908728D01*
X208638955Y-62873993D01*
X208638955Y-62804806D01*
X208675942Y-62677498D01*
X208678788Y-62641335D01*
X208678787Y-62237466D01*
X208675942Y-62201302D01*
X208647074Y-62101940D01*
X208638695Y-62073098D01*
X208638695Y-62003908D01*
X208671962Y-61889400D01*
X208581919Y-61889400D01*
X208560024Y-61882970D01*
X208537281Y-61881087D01*
X208523851Y-61872349D01*
X208514880Y-61869715D01*
X208506496Y-61863825D01*
X208500017Y-61858860D01*
X208434931Y-61793774D01*
X208347964Y-61742342D01*
X208342069Y-61737825D01*
X208325659Y-61715381D01*
X208306688Y-61695064D01*
X208305325Y-61687571D01*
X208300830Y-61681424D01*
X208299158Y-61653670D01*
X208294184Y-61626322D01*
X208297087Y-61619282D01*
X208296630Y-61611680D01*
X208310228Y-61587429D01*
X208320829Y-61561733D01*
X208328237Y-61555313D01*
X208330803Y-61550738D01*
X208337824Y-61547005D01*
X208354368Y-61532669D01*
X208434931Y-61485026D01*
X208494239Y-61425717D01*
X208555560Y-61392234D01*
X208581919Y-61389400D01*
X208671963Y-61389400D01*
X208671962Y-61389399D01*
X208638695Y-61274890D01*
X208638695Y-61205700D01*
X208675942Y-61077498D01*
X208678788Y-61041335D01*
X208678787Y-60637466D01*
X208675942Y-60601302D01*
X208646881Y-60501276D01*
X208638695Y-60473098D01*
X208638695Y-60403908D01*
X208671962Y-60289400D01*
X208581919Y-60289400D01*
X208572358Y-60286592D01*
X208562477Y-60287866D01*
X208539393Y-60276913D01*
X208514880Y-60269715D01*
X208506673Y-60261387D01*
X208499353Y-60257914D01*
X208494255Y-60253098D01*
X208434931Y-60193774D01*
X208354370Y-60146130D01*
X208351129Y-60142660D01*
X208346626Y-60141154D01*
X208327517Y-60117371D01*
X208306688Y-60095064D01*
X208305837Y-60090390D01*
X208302863Y-60086688D01*
X208299644Y-60056341D01*
X208294184Y-60026322D01*
X208295995Y-60021931D01*
X208295494Y-60017208D01*
X208301362Y-60005527D01*
X210971788Y-60005527D01*
X210971788Y-60005534D01*
X210971788Y-60005535D01*
X210971788Y-60501270D01*
X210971789Y-60501276D01*
X210978196Y-60560883D01*
X211028490Y-60695728D01*
X211028492Y-60695731D01*
X211079163Y-60763419D01*
X211091205Y-60779504D01*
X211115623Y-60844969D01*
X211100772Y-60913242D01*
X211091206Y-60928127D01*
X211028935Y-61011310D01*
X211028933Y-61011313D01*
X210978691Y-61146020D01*
X210978689Y-61146027D01*
X210972288Y-61205555D01*
X210972288Y-61253400D01*
X213872288Y-61253400D01*
X213872288Y-61205572D01*
X213872287Y-61205555D01*
X213865886Y-61146027D01*
X213865884Y-61146020D01*
X213815642Y-61011313D01*
X213815640Y-61011310D01*
X213753370Y-60928127D01*
X213728953Y-60862662D01*
X213743805Y-60794389D01*
X213753371Y-60779504D01*
X213762671Y-60767081D01*
X213816084Y-60695731D01*
X213866379Y-60560883D01*
X213872788Y-60501273D01*
X213872787Y-60005528D01*
X213866379Y-59945917D01*
X213866109Y-59945194D01*
X213816085Y-59811071D01*
X213816081Y-59811064D01*
X213729835Y-59695855D01*
X213729832Y-59695852D01*
X213614623Y-59609606D01*
X213614614Y-59609601D01*
X213605698Y-59606276D01*
X213549764Y-59564405D01*
X213525346Y-59498941D01*
X213540197Y-59430668D01*
X213561349Y-59402413D01*
X213610829Y-59352934D01*
X213770344Y-59193419D01*
X213831667Y-59159934D01*
X213858025Y-59157100D01*
X214394069Y-59157100D01*
X214461108Y-59176785D01*
X214506863Y-59229589D01*
X214516807Y-59298747D01*
X214508630Y-59328553D01*
X214492004Y-59368690D01*
X214492002Y-59368698D01*
X214463058Y-59514208D01*
X214463058Y-59662591D01*
X214492002Y-59808101D01*
X214492004Y-59808109D01*
X214548782Y-59945185D01*
X214548787Y-59945194D01*
X214631215Y-60068555D01*
X214631218Y-60068559D01*
X214736128Y-60173469D01*
X214736132Y-60173472D01*
X214859493Y-60255900D01*
X214859502Y-60255905D01*
X214872737Y-60261387D01*
X214996579Y-60312684D01*
X215142096Y-60341629D01*
X215142100Y-60341630D01*
X215142101Y-60341630D01*
X215290476Y-60341630D01*
X215290477Y-60341629D01*
X215435997Y-60312684D01*
X215573076Y-60255904D01*
X215696444Y-60173472D01*
X215801360Y-60068556D01*
X215883792Y-59945188D01*
X215940572Y-59808109D01*
X215969518Y-59662587D01*
X215969518Y-59514213D01*
X215940572Y-59368691D01*
X215883792Y-59231612D01*
X215883791Y-59231611D01*
X215883788Y-59231605D01*
X215801360Y-59108244D01*
X215801357Y-59108240D01*
X215696447Y-59003330D01*
X215696443Y-59003327D01*
X215573082Y-58920899D01*
X215573073Y-58920894D01*
X215435997Y-58864116D01*
X215435989Y-58864114D01*
X215290479Y-58835170D01*
X215290475Y-58835170D01*
X215142101Y-58835170D01*
X215142096Y-58835170D01*
X214996586Y-58864114D01*
X214996583Y-58864115D01*
X214996582Y-58864115D01*
X214996579Y-58864116D01*
X214934981Y-58889630D01*
X214920036Y-58895821D01*
X214900157Y-58897957D01*
X214881430Y-58904943D01*
X214866133Y-58901615D01*
X214850566Y-58903289D01*
X214832688Y-58894339D01*
X214813157Y-58890091D01*
X214790866Y-58873404D01*
X214788087Y-58872013D01*
X214784903Y-58868940D01*
X214771418Y-58855455D01*
X214771416Y-58855452D01*
X214696672Y-58780708D01*
X214621810Y-58749701D01*
X214621808Y-58749700D01*
X214621807Y-58749700D01*
X214621805Y-58749700D01*
X213777249Y-58749700D01*
X213777241Y-58749699D01*
X213762807Y-58749699D01*
X213681770Y-58749699D01*
X213681768Y-58749699D01*
X213681766Y-58749700D01*
X213637913Y-58767864D01*
X213637913Y-58767865D01*
X213622407Y-58774288D01*
X213606900Y-58780711D01*
X213586559Y-58801053D01*
X213549599Y-58838013D01*
X213549598Y-58838014D01*
X212871030Y-59516581D01*
X212809707Y-59550066D01*
X212783349Y-59552900D01*
X211424417Y-59552900D01*
X211424411Y-59552901D01*
X211364804Y-59559308D01*
X211229959Y-59609602D01*
X211229952Y-59609606D01*
X211114743Y-59695852D01*
X211114740Y-59695855D01*
X211028494Y-59811064D01*
X211028490Y-59811071D01*
X210978198Y-59945913D01*
X210978197Y-59945917D01*
X210971788Y-60005527D01*
X208301362Y-60005527D01*
X208309193Y-59989939D01*
X208320829Y-59961733D01*
X208325316Y-59957844D01*
X208326859Y-59954774D01*
X208354367Y-59932670D01*
X208434931Y-59885026D01*
X208494239Y-59825717D01*
X208555560Y-59792234D01*
X208581919Y-59789400D01*
X208671963Y-59789400D01*
X208671962Y-59789399D01*
X208638695Y-59674890D01*
X208638695Y-59605700D01*
X208675942Y-59477498D01*
X208678788Y-59441335D01*
X208678787Y-59037466D01*
X208678279Y-59031014D01*
X208675942Y-59001302D01*
X208658916Y-58942700D01*
X208638955Y-58873993D01*
X208638955Y-58804806D01*
X208675942Y-58677498D01*
X208678788Y-58641335D01*
X208678787Y-58237466D01*
X208675942Y-58201302D01*
X208630969Y-58046506D01*
X208603617Y-58000256D01*
X208548918Y-57907763D01*
X208548909Y-57907751D01*
X208434936Y-57793778D01*
X208434924Y-57793769D01*
X208296184Y-57711720D01*
X208296177Y-57711717D01*
X208141390Y-57666746D01*
X208141384Y-57666745D01*
X208105230Y-57663900D01*
X208105223Y-57663900D01*
X206977787Y-57663900D01*
X206969101Y-57661349D01*
X206960139Y-57662638D01*
X206936100Y-57651659D01*
X206910748Y-57644215D01*
X206904819Y-57637373D01*
X206896584Y-57633612D01*
X206882297Y-57611380D01*
X206864993Y-57591411D01*
X206862705Y-57580895D01*
X206858810Y-57574834D01*
X206853787Y-57539899D01*
X206853788Y-57404599D01*
X206873473Y-57337560D01*
X206926277Y-57291805D01*
X206977788Y-57280600D01*
X221924004Y-57280600D01*
X221924006Y-57280600D01*
X221961440Y-57265094D01*
X221998871Y-57249591D01*
X221998872Y-57249589D01*
X221998874Y-57249589D01*
X222056176Y-57192287D01*
X222056176Y-57192286D01*
X222073614Y-57174848D01*
X222073616Y-57174845D01*
X226272215Y-52976245D01*
X226333536Y-52942762D01*
X226403228Y-52947746D01*
X226459160Y-52989616D01*
X226494474Y-53036790D01*
X226494742Y-53037147D01*
X226609951Y-53123393D01*
X226609958Y-53123397D01*
X226744804Y-53173691D01*
X226744803Y-53173691D01*
X226751731Y-53174435D01*
X226804414Y-53180100D01*
X227662159Y-53180099D01*
X227721770Y-53173691D01*
X227856618Y-53123396D01*
X227971833Y-53037146D01*
X228058083Y-52921931D01*
X228108378Y-52787083D01*
X228109998Y-52772012D01*
X228136734Y-52707464D01*
X228194126Y-52667615D01*
X228263951Y-52665120D01*
X228324041Y-52700772D01*
X228355316Y-52763251D01*
X228356577Y-52772015D01*
X228358196Y-52787083D01*
X228408490Y-52921928D01*
X228408494Y-52921935D01*
X228494740Y-53037144D01*
X228494743Y-53037147D01*
X228609952Y-53123393D01*
X228609959Y-53123397D01*
X228744805Y-53173691D01*
X228744804Y-53173691D01*
X228751732Y-53174435D01*
X228804415Y-53180100D01*
X229662160Y-53180099D01*
X229721771Y-53173691D01*
X229856619Y-53123396D01*
X229971834Y-53037146D01*
X230058084Y-52921931D01*
X230108379Y-52787083D01*
X230109999Y-52772012D01*
X230136735Y-52707464D01*
X230194127Y-52667615D01*
X230263952Y-52665120D01*
X230324042Y-52700772D01*
X230355317Y-52763251D01*
X230356578Y-52772015D01*
X230358197Y-52787083D01*
X230408491Y-52921928D01*
X230408495Y-52921935D01*
X230494741Y-53037144D01*
X230494744Y-53037147D01*
X230609953Y-53123393D01*
X230609960Y-53123397D01*
X230744806Y-53173691D01*
X230744805Y-53173691D01*
X230751733Y-53174435D01*
X230804416Y-53180100D01*
X231662161Y-53180099D01*
X231721772Y-53173691D01*
X231856620Y-53123396D01*
X231971835Y-53037146D01*
X232058085Y-52921931D01*
X232108380Y-52787083D01*
X232114789Y-52727473D01*
X232114788Y-50726728D01*
X232108380Y-50667117D01*
X232096550Y-50635400D01*
X232058086Y-50532271D01*
X232058082Y-50532264D01*
X231971836Y-50417055D01*
X231971833Y-50417052D01*
X231856624Y-50330806D01*
X231856617Y-50330802D01*
X231721771Y-50280508D01*
X231721772Y-50280508D01*
X231662172Y-50274101D01*
X231662170Y-50274100D01*
X231662162Y-50274100D01*
X231662153Y-50274100D01*
X230804418Y-50274100D01*
X230804412Y-50274101D01*
X230744805Y-50280508D01*
X230609960Y-50330802D01*
X230609953Y-50330806D01*
X230494744Y-50417052D01*
X230494741Y-50417055D01*
X230408495Y-50532264D01*
X230408491Y-50532271D01*
X230358197Y-50667116D01*
X230356577Y-50682189D01*
X230329837Y-50746739D01*
X230272443Y-50786586D01*
X230202618Y-50789077D01*
X230142530Y-50753423D01*
X230111257Y-50690942D01*
X230109998Y-50682180D01*
X230108379Y-50667116D01*
X230058085Y-50532271D01*
X230058081Y-50532264D01*
X229971835Y-50417055D01*
X229971832Y-50417052D01*
X229856623Y-50330806D01*
X229856616Y-50330802D01*
X229721770Y-50280508D01*
X229721771Y-50280508D01*
X229662171Y-50274101D01*
X229662169Y-50274100D01*
X229662161Y-50274100D01*
X229662152Y-50274100D01*
X228804417Y-50274100D01*
X228804411Y-50274101D01*
X228744804Y-50280508D01*
X228609959Y-50330802D01*
X228609952Y-50330806D01*
X228494743Y-50417052D01*
X228494740Y-50417055D01*
X228408494Y-50532264D01*
X228408490Y-50532271D01*
X228358196Y-50667116D01*
X228356576Y-50682189D01*
X228329836Y-50746739D01*
X228272442Y-50786586D01*
X228202617Y-50789077D01*
X228142529Y-50753423D01*
X228111256Y-50690942D01*
X228109997Y-50682180D01*
X228108378Y-50667116D01*
X228058084Y-50532271D01*
X228058080Y-50532264D01*
X227971834Y-50417055D01*
X227971831Y-50417052D01*
X227856622Y-50330806D01*
X227856615Y-50330802D01*
X227721769Y-50280508D01*
X227721770Y-50280508D01*
X227662170Y-50274101D01*
X227662168Y-50274100D01*
X227662160Y-50274100D01*
X227662151Y-50274100D01*
X226804416Y-50274100D01*
X226804410Y-50274101D01*
X226744803Y-50280508D01*
X226609958Y-50330802D01*
X226609951Y-50330806D01*
X226494742Y-50417052D01*
X226494739Y-50417055D01*
X226408493Y-50532264D01*
X226408489Y-50532271D01*
X226358195Y-50667116D01*
X226356577Y-50682173D01*
X226329839Y-50746723D01*
X226272446Y-50786571D01*
X226202620Y-50789064D01*
X226142532Y-50753411D01*
X226111258Y-50690931D01*
X226109998Y-50682168D01*
X226108380Y-50667116D01*
X226058086Y-50532271D01*
X226058082Y-50532264D01*
X225971836Y-50417055D01*
X225971833Y-50417052D01*
X225856624Y-50330806D01*
X225856617Y-50330802D01*
X225721771Y-50280508D01*
X225721772Y-50280508D01*
X225662172Y-50274101D01*
X225662170Y-50274100D01*
X225662162Y-50274100D01*
X225662153Y-50274100D01*
X224804418Y-50274100D01*
X224804412Y-50274101D01*
X224744805Y-50280508D01*
X224609960Y-50330802D01*
X224609953Y-50330806D01*
X224494744Y-50417052D01*
X224494741Y-50417055D01*
X224408495Y-50532264D01*
X224408491Y-50532271D01*
X224358197Y-50667116D01*
X224356577Y-50682191D01*
X224329838Y-50746742D01*
X224272445Y-50786589D01*
X224202620Y-50789082D01*
X224142532Y-50753428D01*
X224111258Y-50690949D01*
X224109998Y-50682187D01*
X224108378Y-50667116D01*
X224058084Y-50532271D01*
X224058080Y-50532264D01*
X223971834Y-50417055D01*
X223971831Y-50417052D01*
X223856622Y-50330806D01*
X223856615Y-50330802D01*
X223721769Y-50280508D01*
X223721770Y-50280508D01*
X223662170Y-50274101D01*
X223662168Y-50274100D01*
X223662160Y-50274100D01*
X223662151Y-50274100D01*
X222804416Y-50274100D01*
X222804410Y-50274101D01*
X222744803Y-50280508D01*
X222609958Y-50330802D01*
X222609951Y-50330806D01*
X222494742Y-50417052D01*
X222494739Y-50417055D01*
X222408493Y-50532264D01*
X222408489Y-50532271D01*
X222358195Y-50667116D01*
X222356577Y-50682173D01*
X222329839Y-50746723D01*
X222272446Y-50786571D01*
X222202620Y-50789064D01*
X222142532Y-50753411D01*
X222111258Y-50690931D01*
X222109998Y-50682168D01*
X222108380Y-50667116D01*
X222058086Y-50532271D01*
X222058082Y-50532264D01*
X221971836Y-50417055D01*
X221971833Y-50417052D01*
X221856624Y-50330806D01*
X221856617Y-50330802D01*
X221721771Y-50280508D01*
X221721772Y-50280508D01*
X221662172Y-50274101D01*
X221662170Y-50274100D01*
X221662162Y-50274100D01*
X221662153Y-50274100D01*
X220804418Y-50274100D01*
X220804412Y-50274101D01*
X220744805Y-50280508D01*
X220609960Y-50330802D01*
X220609953Y-50330806D01*
X220494744Y-50417052D01*
X220494741Y-50417055D01*
X220408495Y-50532264D01*
X220408491Y-50532271D01*
X220358197Y-50667116D01*
X220356325Y-50684534D01*
X220329586Y-50749085D01*
X220272193Y-50788932D01*
X220202368Y-50791425D01*
X220142280Y-50755771D01*
X220111006Y-50693291D01*
X220109747Y-50684532D01*
X220107886Y-50667227D01*
X220107884Y-50667220D01*
X220057642Y-50532513D01*
X220057638Y-50532506D01*
X219971478Y-50417412D01*
X219971475Y-50417409D01*
X219856381Y-50331249D01*
X219856374Y-50331245D01*
X219721667Y-50281003D01*
X219721660Y-50281001D01*
X219662132Y-50274600D01*
X219483288Y-50274600D01*
X219483288Y-53179600D01*
X219662116Y-53179600D01*
X219662132Y-53179599D01*
X219721660Y-53173198D01*
X219721667Y-53173196D01*
X219856374Y-53122954D01*
X219856381Y-53122950D01*
X219971475Y-53036790D01*
X219971478Y-53036787D01*
X220057638Y-52921693D01*
X220057642Y-52921686D01*
X220107884Y-52786979D01*
X220107886Y-52786972D01*
X220109747Y-52769668D01*
X220136485Y-52705117D01*
X220193877Y-52665268D01*
X220263702Y-52662775D01*
X220323791Y-52698427D01*
X220355066Y-52760907D01*
X220356326Y-52769670D01*
X220358197Y-52787083D01*
X220408491Y-52921928D01*
X220408495Y-52921935D01*
X220494741Y-53037144D01*
X220494744Y-53037147D01*
X220609953Y-53123393D01*
X220609960Y-53123397D01*
X220744806Y-53173691D01*
X220744805Y-53173691D01*
X220751733Y-53174435D01*
X220804416Y-53180100D01*
X221662161Y-53180099D01*
X221721772Y-53173691D01*
X221769188Y-53156006D01*
X221838879Y-53151022D01*
X221900202Y-53184507D01*
X221933687Y-53245830D01*
X221928703Y-53315522D01*
X221927082Y-53319640D01*
X221883405Y-53425086D01*
X221883402Y-53425098D01*
X221854458Y-53570608D01*
X221854458Y-53718991D01*
X221883402Y-53864501D01*
X221883404Y-53864509D01*
X221940182Y-54001585D01*
X221940187Y-54001594D01*
X222022615Y-54124955D01*
X222022618Y-54124959D01*
X222127528Y-54229869D01*
X222127532Y-54229872D01*
X222250893Y-54312300D01*
X222250902Y-54312305D01*
X222252645Y-54313027D01*
X222387979Y-54369084D01*
X222533496Y-54398029D01*
X222533500Y-54398030D01*
X222533501Y-54398030D01*
X222681876Y-54398030D01*
X222681877Y-54398029D01*
X222827397Y-54369084D01*
X222879901Y-54347335D01*
X222949369Y-54339867D01*
X223011848Y-54371142D01*
X223047501Y-54431230D01*
X223045008Y-54501056D01*
X223015034Y-54549578D01*
X221391232Y-56173381D01*
X221329909Y-56206866D01*
X221303551Y-56209700D01*
X215874188Y-56209700D01*
X215807149Y-56190015D01*
X215761394Y-56137211D01*
X215750188Y-56085700D01*
X215750188Y-52654282D01*
X215750186Y-52654277D01*
X215719179Y-52579415D01*
X215235106Y-52095342D01*
X215201621Y-52034019D01*
X215201559Y-51993511D01*
X215199799Y-51993332D01*
X215210987Y-51883816D01*
X215210988Y-51883809D01*
X215210987Y-50833792D01*
X215200487Y-50731003D01*
X215145302Y-50564466D01*
X215053200Y-50415144D01*
X214929144Y-50291088D01*
X214816424Y-50221562D01*
X214779824Y-50198987D01*
X214779819Y-50198985D01*
X214737618Y-50185001D01*
X214613285Y-50143801D01*
X214613283Y-50143800D01*
X214510498Y-50133300D01*
X213910486Y-50133300D01*
X213910468Y-50133301D01*
X213807691Y-50143800D01*
X213807688Y-50143801D01*
X213641156Y-50198985D01*
X213641151Y-50198987D01*
X213491830Y-50291089D01*
X213367776Y-50415143D01*
X213367771Y-50415149D01*
X213365729Y-50418461D01*
X213363735Y-50420253D01*
X213363295Y-50420811D01*
X213363199Y-50420735D01*
X213313779Y-50465183D01*
X213244816Y-50476402D01*
X213180735Y-50448555D01*
X213154656Y-50418456D01*
X213152807Y-50415459D01*
X213152804Y-50415455D01*
X213028833Y-50291484D01*
X212879612Y-50199443D01*
X212879607Y-50199441D01*
X212713185Y-50144294D01*
X212713178Y-50144293D01*
X212610474Y-50133800D01*
X212560488Y-50133800D01*
X212560488Y-52583799D01*
X212610460Y-52583799D01*
X212610474Y-52583798D01*
X212713185Y-52573305D01*
X212879607Y-52518158D01*
X212879612Y-52518156D01*
X213028833Y-52426115D01*
X213152806Y-52302142D01*
X213154653Y-52299148D01*
X213156457Y-52297524D01*
X213157286Y-52296477D01*
X213157464Y-52296618D01*
X213206598Y-52252421D01*
X213275561Y-52241196D01*
X213339644Y-52269036D01*
X213365731Y-52299141D01*
X213367776Y-52302456D01*
X213491832Y-52426512D01*
X213641154Y-52518614D01*
X213807691Y-52573799D01*
X213910479Y-52584300D01*
X214510496Y-52584299D01*
X214510504Y-52584298D01*
X214510507Y-52584298D01*
X214566790Y-52578548D01*
X214613285Y-52573799D01*
X214779822Y-52518614D01*
X214883413Y-52454718D01*
X214950805Y-52436279D01*
X215017468Y-52457202D01*
X215036190Y-52472577D01*
X215306469Y-52742856D01*
X215339954Y-52804179D01*
X215342788Y-52830537D01*
X215342788Y-56085700D01*
X215323103Y-56152739D01*
X215270299Y-56198494D01*
X215218788Y-56209700D01*
X212987288Y-56209700D01*
X212920249Y-56190015D01*
X212874494Y-56137211D01*
X212863288Y-56085700D01*
X212863288Y-55520400D01*
X212213288Y-55520400D01*
X212213288Y-56085700D01*
X212193603Y-56152739D01*
X212140799Y-56198494D01*
X212089288Y-56209700D01*
X211837288Y-56209700D01*
X211770249Y-56190015D01*
X211724494Y-56137211D01*
X211713288Y-56085700D01*
X211713288Y-55520400D01*
X211063288Y-55520400D01*
X211063288Y-56085700D01*
X211043603Y-56152739D01*
X210990799Y-56198494D01*
X210939288Y-56209700D01*
X209587788Y-56209700D01*
X209520749Y-56190015D01*
X209474994Y-56137211D01*
X209463788Y-56085700D01*
X209463787Y-54372555D01*
X211063288Y-54372555D01*
X211063288Y-55020400D01*
X211713288Y-55020400D01*
X212213288Y-55020400D01*
X212863288Y-55020400D01*
X212863288Y-54372572D01*
X212863287Y-54372555D01*
X212856886Y-54313027D01*
X212856884Y-54313020D01*
X212806642Y-54178313D01*
X212806638Y-54178306D01*
X212720478Y-54063212D01*
X212720475Y-54063209D01*
X212605381Y-53977049D01*
X212605374Y-53977045D01*
X212470667Y-53926803D01*
X212470660Y-53926801D01*
X212411132Y-53920400D01*
X212213288Y-53920400D01*
X212213288Y-55020400D01*
X211713288Y-55020400D01*
X211713288Y-53920400D01*
X211515443Y-53920400D01*
X211455915Y-53926801D01*
X211455908Y-53926803D01*
X211321201Y-53977045D01*
X211321194Y-53977049D01*
X211206100Y-54063209D01*
X211206097Y-54063212D01*
X211119937Y-54178306D01*
X211119933Y-54178313D01*
X211069691Y-54313020D01*
X211069689Y-54313027D01*
X211063288Y-54372555D01*
X209463787Y-54372555D01*
X209463787Y-54372529D01*
X209463786Y-54372523D01*
X209463785Y-54372516D01*
X209457379Y-54312917D01*
X209457150Y-54312304D01*
X209407085Y-54178071D01*
X209407081Y-54178064D01*
X209320835Y-54062855D01*
X209320832Y-54062852D01*
X209205623Y-53976606D01*
X209205616Y-53976602D01*
X209070770Y-53926308D01*
X209070771Y-53926308D01*
X209011171Y-53919901D01*
X209011169Y-53919900D01*
X209011161Y-53919900D01*
X209011152Y-53919900D01*
X208115417Y-53919900D01*
X208115411Y-53919901D01*
X208055804Y-53926308D01*
X207920959Y-53976602D01*
X207920952Y-53976606D01*
X207805743Y-54062852D01*
X207805740Y-54062855D01*
X207719494Y-54178064D01*
X207719490Y-54178071D01*
X207669196Y-54312917D01*
X207666299Y-54339867D01*
X207662789Y-54372523D01*
X207662788Y-54372535D01*
X207662788Y-54662300D01*
X207643103Y-54729339D01*
X207590299Y-54775094D01*
X207538788Y-54786300D01*
X205165625Y-54786300D01*
X205098586Y-54766615D01*
X205077944Y-54749981D01*
X203616747Y-53288784D01*
X203583262Y-53227461D01*
X203588246Y-53157769D01*
X203589854Y-53153682D01*
X203621572Y-53077109D01*
X203650518Y-52931587D01*
X203650518Y-52783213D01*
X203621572Y-52637691D01*
X203564792Y-52500612D01*
X203564791Y-52500611D01*
X203564788Y-52500605D01*
X203482360Y-52377244D01*
X203482357Y-52377240D01*
X203477697Y-52372580D01*
X203444212Y-52311257D01*
X203449196Y-52241565D01*
X203491068Y-52185632D01*
X203556532Y-52161215D01*
X203565366Y-52160899D01*
X203706648Y-52160899D01*
X203706651Y-52160899D01*
X203824041Y-52145446D01*
X203824045Y-52145444D01*
X203824050Y-52145444D01*
X203970129Y-52084936D01*
X204095570Y-51988682D01*
X204176059Y-51883786D01*
X211310489Y-51883786D01*
X211320982Y-51986496D01*
X211376129Y-52152919D01*
X211376131Y-52152924D01*
X211468172Y-52302145D01*
X211592142Y-52426115D01*
X211741363Y-52518156D01*
X211741368Y-52518158D01*
X211907790Y-52573305D01*
X211907797Y-52573306D01*
X212010507Y-52583799D01*
X212060487Y-52583798D01*
X212060488Y-52583798D01*
X212060488Y-51608800D01*
X211310489Y-51608800D01*
X211310489Y-51883786D01*
X204176059Y-51883786D01*
X204191824Y-51863241D01*
X204252332Y-51717162D01*
X204267788Y-51599761D01*
X204267787Y-51321040D01*
X204267787Y-51321039D01*
X204267787Y-51321036D01*
X204252334Y-51203646D01*
X204252332Y-51203641D01*
X204252332Y-51203638D01*
X204191824Y-51057559D01*
X204191823Y-51057558D01*
X204191823Y-51057557D01*
X204097157Y-50934186D01*
X204096770Y-50933682D01*
X204095570Y-50932118D01*
X204007822Y-50864787D01*
X208357788Y-50864787D01*
X208357788Y-51040012D01*
X208391969Y-51211850D01*
X208391972Y-51211862D01*
X208459020Y-51373731D01*
X208459022Y-51373734D01*
X208459023Y-51373736D01*
X208474830Y-51397392D01*
X208475174Y-51397908D01*
X208475271Y-51398124D01*
X208475866Y-51398943D01*
X208477208Y-51400952D01*
X208556367Y-51519423D01*
X208556369Y-51519425D01*
X208575182Y-51538237D01*
X208582084Y-51545139D01*
X208584813Y-51548895D01*
X208595125Y-51558180D01*
X208680265Y-51643320D01*
X208716780Y-51667719D01*
X208723308Y-51673597D01*
X208740003Y-51683235D01*
X208743380Y-51685492D01*
X208825947Y-51740662D01*
X208825948Y-51740662D01*
X208825952Y-51740665D01*
X208873803Y-51760485D01*
X208884703Y-51766779D01*
X208904621Y-51773250D01*
X208987830Y-51807717D01*
X209046797Y-51819446D01*
X209061945Y-51824368D01*
X209082284Y-51826505D01*
X209159680Y-51841900D01*
X209228745Y-51841900D01*
X209247288Y-51843849D01*
X209265831Y-51841900D01*
X209334895Y-51841900D01*
X209334896Y-51841900D01*
X209412292Y-51826504D01*
X209432631Y-51824368D01*
X209447773Y-51819447D01*
X209506746Y-51807717D01*
X209589966Y-51773246D01*
X209609873Y-51766779D01*
X209620772Y-51760485D01*
X209668624Y-51740665D01*
X209754583Y-51683228D01*
X209771268Y-51673597D01*
X209777793Y-51667720D01*
X209814311Y-51643320D01*
X209899460Y-51558170D01*
X209909763Y-51548895D01*
X209912488Y-51545142D01*
X209938208Y-51519423D01*
X210018720Y-51398927D01*
X210019305Y-51398124D01*
X210019399Y-51397911D01*
X210035553Y-51373736D01*
X210102605Y-51211858D01*
X210136788Y-51040008D01*
X210136788Y-50864792D01*
X210130626Y-50833813D01*
X211310488Y-50833813D01*
X211310488Y-51108800D01*
X212060488Y-51108800D01*
X212060488Y-50133800D01*
X212060487Y-50133799D01*
X212010517Y-50133800D01*
X212010499Y-50133801D01*
X211907790Y-50144294D01*
X211741368Y-50199441D01*
X211741363Y-50199443D01*
X211592142Y-50291484D01*
X211468172Y-50415454D01*
X211376131Y-50564675D01*
X211376129Y-50564680D01*
X211320982Y-50731102D01*
X211320981Y-50731109D01*
X211310488Y-50833813D01*
X210130626Y-50833813D01*
X210130619Y-50833780D01*
X210114633Y-50753411D01*
X210102605Y-50692942D01*
X210102603Y-50692937D01*
X210035555Y-50531068D01*
X210035553Y-50531065D01*
X210035553Y-50531064D01*
X210019399Y-50506888D01*
X210019305Y-50506676D01*
X210018717Y-50505868D01*
X209938208Y-50385377D01*
X209938206Y-50385374D01*
X209919395Y-50366564D01*
X209912491Y-50359660D01*
X209909763Y-50355905D01*
X209899450Y-50346619D01*
X209897165Y-50344334D01*
X209814311Y-50261480D01*
X209814310Y-50261479D01*
X209814309Y-50261478D01*
X209785231Y-50242049D01*
X209785231Y-50242048D01*
X209777794Y-50237079D01*
X209771268Y-50231203D01*
X209754570Y-50221562D01*
X209751208Y-50219316D01*
X209668624Y-50164135D01*
X209668620Y-50164133D01*
X209628283Y-50147425D01*
X209620774Y-50144315D01*
X209609873Y-50138021D01*
X209589951Y-50131547D01*
X209506746Y-50097083D01*
X209506744Y-50097082D01*
X209506739Y-50097080D01*
X209454948Y-50086779D01*
X209454946Y-50086779D01*
X209447774Y-50085352D01*
X209432631Y-50080432D01*
X209412297Y-50078294D01*
X209406728Y-50077187D01*
X209406720Y-50077186D01*
X209351841Y-50066270D01*
X209334896Y-50062900D01*
X209265822Y-50062900D01*
X209247288Y-50060952D01*
X209228754Y-50062900D01*
X209159680Y-50062900D01*
X209087856Y-50077185D01*
X209087855Y-50077184D01*
X209082261Y-50078296D01*
X209061945Y-50080432D01*
X209046815Y-50085347D01*
X209039636Y-50086776D01*
X209039630Y-50086778D01*
X208987834Y-50097081D01*
X208909122Y-50129683D01*
X208909123Y-50129684D01*
X208904615Y-50131550D01*
X208884703Y-50138021D01*
X208873801Y-50144314D01*
X208866291Y-50147426D01*
X208866289Y-50147426D01*
X208825949Y-50164136D01*
X208743372Y-50219309D01*
X208743373Y-50219310D01*
X208739977Y-50221578D01*
X208723308Y-50231203D01*
X208716787Y-50237073D01*
X208709357Y-50242039D01*
X208709351Y-50242044D01*
X208680262Y-50261482D01*
X208680257Y-50261486D01*
X208597407Y-50344335D01*
X208595094Y-50346647D01*
X208584813Y-50355905D01*
X208582092Y-50359649D01*
X208556372Y-50385370D01*
X208556365Y-50385380D01*
X208477184Y-50503878D01*
X208477185Y-50503879D01*
X208475835Y-50505899D01*
X208475271Y-50506676D01*
X208475180Y-50506879D01*
X208472719Y-50510564D01*
X208472717Y-50510564D01*
X208472716Y-50510568D01*
X208459023Y-50531062D01*
X208459021Y-50531065D01*
X208391972Y-50692937D01*
X208391969Y-50692949D01*
X208357788Y-50864787D01*
X204007822Y-50864787D01*
X203970129Y-50835864D01*
X203965177Y-50833813D01*
X203824050Y-50775356D01*
X203824048Y-50775355D01*
X203706650Y-50759900D01*
X203376225Y-50759900D01*
X203309186Y-50740215D01*
X203288544Y-50723581D01*
X203217671Y-50652708D01*
X203142809Y-50621701D01*
X203142807Y-50621700D01*
X203142806Y-50621700D01*
X202175806Y-50621700D01*
X202094769Y-50621700D01*
X202094767Y-50621700D01*
X202094765Y-50621701D01*
X202019903Y-50652708D01*
X200150595Y-52522016D01*
X200119588Y-52596878D01*
X200119587Y-52596883D01*
X200119587Y-52656700D01*
X200099902Y-52723739D01*
X200047098Y-52769494D01*
X199995587Y-52780700D01*
X193300249Y-52780700D01*
X193300241Y-52780699D01*
X193285807Y-52780699D01*
X193204770Y-52780699D01*
X193204768Y-52780699D01*
X193204766Y-52780700D01*
X193160913Y-52798864D01*
X193160913Y-52798865D01*
X193148084Y-52804179D01*
X193129900Y-52811711D01*
X193111075Y-52830537D01*
X193072599Y-52869013D01*
X191421598Y-54520013D01*
X191421596Y-54520015D01*
X191390589Y-54594877D01*
X191390588Y-54594882D01*
X191390588Y-65978917D01*
X191390589Y-65978922D01*
X191421596Y-66053784D01*
X191496337Y-66128525D01*
X191496343Y-66128530D01*
X195923901Y-70556089D01*
X195923903Y-70556091D01*
X195981805Y-70580073D01*
X195998769Y-70587100D01*
X196079806Y-70587100D01*
X212413551Y-70587100D01*
X212480590Y-70606785D01*
X212501232Y-70623419D01*
X212630058Y-70752245D01*
X212630059Y-70752247D01*
X212687361Y-70809549D01*
X212698899Y-70814328D01*
X212762230Y-70840561D01*
X212762231Y-70840561D01*
X212857701Y-70840561D01*
X212857709Y-70840560D01*
X221049011Y-70840560D01*
X221116050Y-70860245D01*
X221136692Y-70876879D01*
X222348121Y-72088308D01*
X222381606Y-72149631D01*
X222376622Y-72219323D01*
X222348122Y-72263669D01*
X222314178Y-72297613D01*
X222189239Y-72469579D01*
X222092732Y-72658983D01*
X222027042Y-72861155D01*
X222025784Y-72869099D01*
X221995854Y-72932233D01*
X221936542Y-72969164D01*
X221903311Y-72973700D01*
X214887058Y-72973700D01*
X214820019Y-72954015D01*
X214774264Y-72901211D01*
X214772497Y-72897153D01*
X214740793Y-72820615D01*
X214740793Y-72820614D01*
X214740792Y-72820612D01*
X214740790Y-72820609D01*
X214740788Y-72820605D01*
X214658360Y-72697244D01*
X214658357Y-72697240D01*
X214553447Y-72592330D01*
X214553443Y-72592327D01*
X214430082Y-72509899D01*
X214430073Y-72509894D01*
X214292997Y-72453116D01*
X214292989Y-72453114D01*
X214147479Y-72424170D01*
X214147475Y-72424170D01*
X213999101Y-72424170D01*
X213999096Y-72424170D01*
X213853586Y-72453114D01*
X213853578Y-72453116D01*
X213716502Y-72509894D01*
X213716493Y-72509899D01*
X213593132Y-72592327D01*
X213593128Y-72592330D01*
X213488218Y-72697240D01*
X213488215Y-72697244D01*
X213405787Y-72820605D01*
X213405782Y-72820614D01*
X213349004Y-72957690D01*
X213349002Y-72957698D01*
X213320058Y-73103208D01*
X213320058Y-73251591D01*
X213349002Y-73397101D01*
X213349004Y-73397109D01*
X213405782Y-73534185D01*
X213405787Y-73534194D01*
X213488215Y-73657555D01*
X213488218Y-73657559D01*
X213593128Y-73762469D01*
X213593132Y-73762472D01*
X213716493Y-73844900D01*
X213716499Y-73844903D01*
X213716500Y-73844904D01*
X213853579Y-73901684D01*
X213999096Y-73930629D01*
X213999100Y-73930630D01*
X213999101Y-73930630D01*
X214147476Y-73930630D01*
X214147477Y-73930629D01*
X214292997Y-73901684D01*
X214430076Y-73844904D01*
X214553444Y-73762472D01*
X214658360Y-73657556D01*
X214740792Y-73534188D01*
X214757634Y-73493527D01*
X214772497Y-73457647D01*
X214816339Y-73403243D01*
X214882633Y-73381179D01*
X214887058Y-73381100D01*
X216299069Y-73381100D01*
X216366108Y-73400785D01*
X216411863Y-73453589D01*
X216421807Y-73522747D01*
X216413630Y-73552550D01*
X216406777Y-73569096D01*
X216397004Y-73592690D01*
X216397002Y-73592698D01*
X216368058Y-73738208D01*
X216368058Y-73886591D01*
X216397002Y-74032101D01*
X216397004Y-74032109D01*
X216453782Y-74169185D01*
X216453787Y-74169193D01*
X216534670Y-74290242D01*
X216555548Y-74356919D01*
X216537064Y-74424299D01*
X216485085Y-74470990D01*
X216426651Y-74483035D01*
X209777619Y-74219184D01*
X209755502Y-74218307D01*
X209755495Y-74218300D01*
X209755303Y-74218300D01*
X209755101Y-74218292D01*
X209755100Y-74218292D01*
X209752850Y-74218203D01*
X209752849Y-74218202D01*
X209737607Y-74217598D01*
X209733567Y-74218300D01*
X193436956Y-74218300D01*
X193369917Y-74198615D01*
X193365814Y-74195862D01*
X191755367Y-73067778D01*
X193182761Y-73067778D01*
X205774714Y-73067778D01*
X205774714Y-72708787D01*
X208357788Y-72708787D01*
X208357788Y-72884012D01*
X208391969Y-73055850D01*
X208391972Y-73055862D01*
X208459020Y-73217731D01*
X208459022Y-73217734D01*
X208459023Y-73217736D01*
X208474830Y-73241392D01*
X208475174Y-73241908D01*
X208475271Y-73242124D01*
X208475866Y-73242943D01*
X208477208Y-73244952D01*
X208556367Y-73363423D01*
X208556369Y-73363425D01*
X208575182Y-73382237D01*
X208582084Y-73389139D01*
X208584813Y-73392895D01*
X208595125Y-73402180D01*
X208680265Y-73487320D01*
X208716780Y-73511719D01*
X208723308Y-73517597D01*
X208740003Y-73527235D01*
X208750408Y-73534188D01*
X208825947Y-73584662D01*
X208825948Y-73584662D01*
X208825952Y-73584665D01*
X208873803Y-73604485D01*
X208884703Y-73610779D01*
X208904621Y-73617250D01*
X208987830Y-73651717D01*
X209046797Y-73663446D01*
X209061945Y-73668368D01*
X209082284Y-73670505D01*
X209159680Y-73685900D01*
X209228745Y-73685900D01*
X209247288Y-73687849D01*
X209265831Y-73685900D01*
X209334895Y-73685900D01*
X209334896Y-73685900D01*
X209412292Y-73670504D01*
X209432631Y-73668368D01*
X209447773Y-73663447D01*
X209506746Y-73651717D01*
X209589966Y-73617246D01*
X209609873Y-73610779D01*
X209620772Y-73604485D01*
X209668624Y-73584665D01*
X209754583Y-73527228D01*
X209771268Y-73517597D01*
X209777793Y-73511720D01*
X209814311Y-73487320D01*
X209899460Y-73402170D01*
X209909763Y-73392895D01*
X209912488Y-73389142D01*
X209938208Y-73363423D01*
X210018720Y-73242927D01*
X210019305Y-73242124D01*
X210019399Y-73241911D01*
X210035553Y-73217736D01*
X210102605Y-73055858D01*
X210136788Y-72884008D01*
X210136788Y-72708792D01*
X210102605Y-72536942D01*
X210102603Y-72536937D01*
X210035555Y-72375068D01*
X210035553Y-72375065D01*
X210035553Y-72375064D01*
X210019399Y-72350888D01*
X210019305Y-72350676D01*
X210018717Y-72349868D01*
X209938208Y-72229377D01*
X209938206Y-72229374D01*
X209919395Y-72210564D01*
X209912491Y-72203660D01*
X209909763Y-72199905D01*
X209899450Y-72190619D01*
X209897165Y-72188334D01*
X209814311Y-72105480D01*
X209814310Y-72105479D01*
X209814309Y-72105478D01*
X209785231Y-72086049D01*
X209785231Y-72086048D01*
X209777794Y-72081079D01*
X209771268Y-72075203D01*
X209754570Y-72065562D01*
X209751208Y-72063316D01*
X209668624Y-72008135D01*
X209668620Y-72008133D01*
X209628283Y-71991425D01*
X209620774Y-71988315D01*
X209609873Y-71982021D01*
X209589951Y-71975547D01*
X209506746Y-71941083D01*
X209506744Y-71941082D01*
X209506739Y-71941080D01*
X209454948Y-71930779D01*
X209454946Y-71930779D01*
X209447774Y-71929352D01*
X209432631Y-71924432D01*
X209412297Y-71922294D01*
X209406728Y-71921187D01*
X209406720Y-71921186D01*
X209351841Y-71910270D01*
X209334896Y-71906900D01*
X209265822Y-71906900D01*
X209247288Y-71904952D01*
X209228754Y-71906900D01*
X209159680Y-71906900D01*
X209087856Y-71921185D01*
X209087855Y-71921184D01*
X209082261Y-71922296D01*
X209061945Y-71924432D01*
X209046815Y-71929347D01*
X209039636Y-71930776D01*
X209039630Y-71930778D01*
X208987834Y-71941081D01*
X208909122Y-71973683D01*
X208909123Y-71973684D01*
X208904615Y-71975550D01*
X208884703Y-71982021D01*
X208873801Y-71988314D01*
X208866291Y-71991426D01*
X208866289Y-71991426D01*
X208825949Y-72008136D01*
X208743372Y-72063309D01*
X208743373Y-72063310D01*
X208739977Y-72065578D01*
X208723308Y-72075203D01*
X208716787Y-72081073D01*
X208709357Y-72086039D01*
X208709351Y-72086044D01*
X208680262Y-72105482D01*
X208680257Y-72105486D01*
X208597407Y-72188335D01*
X208595094Y-72190647D01*
X208584813Y-72199905D01*
X208582092Y-72203649D01*
X208556372Y-72229370D01*
X208556365Y-72229380D01*
X208477184Y-72347878D01*
X208477185Y-72347879D01*
X208475835Y-72349899D01*
X208475271Y-72350676D01*
X208475180Y-72350879D01*
X208472719Y-72354564D01*
X208472717Y-72354564D01*
X208472716Y-72354568D01*
X208459023Y-72375062D01*
X208459021Y-72375065D01*
X208391972Y-72536937D01*
X208391969Y-72536949D01*
X208357788Y-72708787D01*
X205774714Y-72708787D01*
X205774714Y-70853055D01*
X193182761Y-70853055D01*
X193182761Y-73067778D01*
X191755367Y-73067778D01*
X189082246Y-71195313D01*
X189038631Y-71140728D01*
X189029388Y-71093751D01*
X189029388Y-52655047D01*
X189049073Y-52588008D01*
X189082246Y-52553485D01*
X189127036Y-52522111D01*
X190727597Y-51400952D01*
X193365814Y-49552938D01*
X193432016Y-49530598D01*
X193436956Y-49530500D01*
X209755092Y-49530500D01*
X209755101Y-49530508D01*
X209755303Y-49530500D01*
X209755495Y-49530500D01*
X209775657Y-49530500D01*
X209779746Y-49529529D01*
X219216785Y-49155044D01*
X219284552Y-49172054D01*
G37*
%TD.AperFunction*%
%TA.AperFunction,Conductor*%
G36*
X200254589Y-53207785D02*
G01*
X200275231Y-53224419D01*
X202687483Y-55636671D01*
X202689758Y-55640838D01*
X202693746Y-55643417D01*
X202706345Y-55671214D01*
X202720968Y-55697994D01*
X202720629Y-55702729D01*
X202722590Y-55707055D01*
X202718160Y-55737249D01*
X202715984Y-55767686D01*
X202713138Y-55771487D01*
X202712449Y-55776185D01*
X202692398Y-55799191D01*
X202674112Y-55823619D01*
X202668801Y-55826267D01*
X202666544Y-55828858D01*
X202634398Y-55843428D01*
X202512884Y-55878732D01*
X202443693Y-55878732D01*
X202316390Y-55841746D01*
X202316384Y-55841745D01*
X202280223Y-55838900D01*
X201876365Y-55838900D01*
X201876340Y-55838901D01*
X201840189Y-55841746D01*
X201712883Y-55878732D01*
X201643693Y-55878732D01*
X201516390Y-55841746D01*
X201516384Y-55841745D01*
X201480223Y-55838900D01*
X201076365Y-55838900D01*
X201076340Y-55838901D01*
X201040189Y-55841746D01*
X200912883Y-55878732D01*
X200843693Y-55878732D01*
X200716390Y-55841746D01*
X200716384Y-55841745D01*
X200680223Y-55838900D01*
X200276365Y-55838900D01*
X200276340Y-55838901D01*
X200240189Y-55841746D01*
X200085398Y-55886717D01*
X200085391Y-55886720D01*
X199946651Y-55968769D01*
X199946639Y-55968778D01*
X199832666Y-56082751D01*
X199832657Y-56082763D01*
X199750608Y-56221503D01*
X199750605Y-56221510D01*
X199705634Y-56376297D01*
X199705633Y-56376303D01*
X199702788Y-56412457D01*
X199702788Y-57539900D01*
X199683103Y-57606939D01*
X199630299Y-57652694D01*
X199578788Y-57663900D01*
X198451365Y-57663900D01*
X198451340Y-57663901D01*
X198415189Y-57666746D01*
X198260398Y-57711717D01*
X198260391Y-57711720D01*
X198121651Y-57793769D01*
X198121639Y-57793778D01*
X198007666Y-57907751D01*
X198007657Y-57907763D01*
X197925608Y-58046503D01*
X197925605Y-58046510D01*
X197880634Y-58201297D01*
X197880633Y-58201303D01*
X197877788Y-58237457D01*
X197877788Y-58641322D01*
X197877789Y-58641347D01*
X197880634Y-58677498D01*
X197917620Y-58804804D01*
X197917620Y-58873994D01*
X197880634Y-59001297D01*
X197880633Y-59001303D01*
X197877788Y-59037457D01*
X197877788Y-59441322D01*
X197877789Y-59441347D01*
X197880634Y-59477498D01*
X197917620Y-59604804D01*
X197917620Y-59673994D01*
X197880634Y-59801297D01*
X197880633Y-59801303D01*
X197877788Y-59837457D01*
X197877788Y-60241322D01*
X197877789Y-60241347D01*
X197880634Y-60277498D01*
X197917880Y-60405700D01*
X197917881Y-60474889D01*
X197884613Y-60589399D01*
X197884613Y-60589400D01*
X197974657Y-60589400D01*
X197996551Y-60595829D01*
X198019295Y-60597713D01*
X198032724Y-60606450D01*
X198041696Y-60609085D01*
X198050080Y-60614975D01*
X198056558Y-60619939D01*
X198121645Y-60685026D01*
X198208607Y-60736454D01*
X198214506Y-60740975D01*
X198230916Y-60763419D01*
X198249887Y-60783737D01*
X198251249Y-60791228D01*
X198255745Y-60797377D01*
X198257416Y-60825129D01*
X198262391Y-60852478D01*
X198259487Y-60859517D01*
X198259945Y-60867120D01*
X198246347Y-60891368D01*
X198235746Y-60917068D01*
X198228336Y-60923487D01*
X198225772Y-60928062D01*
X198218751Y-60931793D01*
X198202204Y-60946132D01*
X198121647Y-60993772D01*
X198121643Y-60993775D01*
X198104109Y-61011310D01*
X198062336Y-61053082D01*
X198001016Y-61086566D01*
X197974657Y-61089400D01*
X197884613Y-61089400D01*
X197917881Y-61203910D01*
X197917880Y-61273099D01*
X197880634Y-61401297D01*
X197880633Y-61401303D01*
X197877788Y-61437457D01*
X197877788Y-61841322D01*
X197877789Y-61841347D01*
X197880634Y-61877498D01*
X197917620Y-62004804D01*
X197917620Y-62073994D01*
X197880634Y-62201297D01*
X197880633Y-62201303D01*
X197877788Y-62237457D01*
X197877788Y-62641322D01*
X197877789Y-62641347D01*
X197880634Y-62677498D01*
X197917620Y-62804804D01*
X197917620Y-62822454D01*
X197922543Y-62839044D01*
X197917621Y-62873993D01*
X197897536Y-62943128D01*
X197896616Y-62946294D01*
X197859009Y-63005180D01*
X197795537Y-63034387D01*
X197777539Y-63035700D01*
X197072169Y-63035700D01*
X197072167Y-63035700D01*
X197072165Y-63035701D01*
X196997303Y-63066708D01*
X196939998Y-63124013D01*
X196939998Y-63124014D01*
X196804030Y-63259982D01*
X196742710Y-63293466D01*
X196716351Y-63296300D01*
X196014974Y-63296300D01*
X195947935Y-63276615D01*
X195902180Y-63223811D01*
X195892236Y-63154653D01*
X195897265Y-63133304D01*
X195933487Y-63023997D01*
X195943988Y-62921209D01*
X195943987Y-62321192D01*
X195933487Y-62218403D01*
X195878302Y-62051866D01*
X195786200Y-61902544D01*
X195662144Y-61778488D01*
X195658830Y-61776443D01*
X195657034Y-61774448D01*
X195656477Y-61774007D01*
X195656552Y-61773911D01*
X195612106Y-61724497D01*
X195600885Y-61655534D01*
X195628728Y-61591452D01*
X195658836Y-61565365D01*
X195661830Y-61563518D01*
X195785803Y-61439545D01*
X195877844Y-61290324D01*
X195877846Y-61290319D01*
X195932993Y-61123897D01*
X195932994Y-61123890D01*
X195943487Y-61021186D01*
X195943488Y-61021173D01*
X195943488Y-60971200D01*
X194842488Y-60971200D01*
X194775449Y-60951515D01*
X194729694Y-60898711D01*
X194718488Y-60847200D01*
X194718488Y-60721200D01*
X194592488Y-60721200D01*
X194525449Y-60701515D01*
X194479694Y-60648711D01*
X194468488Y-60597200D01*
X194468488Y-60471200D01*
X194968488Y-60471200D01*
X195943487Y-60471200D01*
X195943487Y-60421228D01*
X195943486Y-60421213D01*
X195932993Y-60318502D01*
X195877846Y-60152080D01*
X195877844Y-60152075D01*
X195785803Y-60002854D01*
X195745834Y-59962885D01*
X195624836Y-59856063D01*
X195512612Y-59786843D01*
X195512607Y-59786841D01*
X195346185Y-59731694D01*
X195346178Y-59731693D01*
X195243474Y-59721200D01*
X194968488Y-59721200D01*
X194968488Y-60471200D01*
X194468488Y-60471200D01*
X194468488Y-59721200D01*
X194193517Y-59721200D01*
X194193500Y-59721201D01*
X194090790Y-59731694D01*
X193919321Y-59788514D01*
X193849493Y-59790916D01*
X193789451Y-59755184D01*
X193758258Y-59692664D01*
X193765819Y-59623204D01*
X193792633Y-59583129D01*
X193989346Y-59386418D01*
X194050670Y-59352934D01*
X194077027Y-59350100D01*
X195541785Y-59350100D01*
X195608824Y-59369785D01*
X195654579Y-59422589D01*
X195656346Y-59426648D01*
X195719550Y-59579238D01*
X195719551Y-59579239D01*
X195719552Y-59579241D01*
X195815806Y-59704682D01*
X195941247Y-59800936D01*
X196087326Y-59861444D01*
X196204727Y-59876900D01*
X196483448Y-59876899D01*
X196483451Y-59876899D01*
X196600841Y-59861446D01*
X196600845Y-59861444D01*
X196600850Y-59861444D01*
X196746929Y-59800936D01*
X196872370Y-59704682D01*
X196968624Y-59579241D01*
X197029132Y-59433162D01*
X197044588Y-59315761D01*
X197044587Y-58977040D01*
X197044587Y-58977036D01*
X197029134Y-58859649D01*
X197029132Y-58859644D01*
X197029132Y-58859638D01*
X197029129Y-58859631D01*
X197028565Y-58857525D01*
X197028565Y-58855324D01*
X197028072Y-58851579D01*
X197028565Y-58851514D01*
X197028565Y-58801217D01*
X197027583Y-58801088D01*
X197028565Y-58793629D01*
X197028565Y-58793323D01*
X197028644Y-58793027D01*
X197040049Y-58706400D01*
X197024281Y-58706400D01*
X196995172Y-58697852D01*
X196965482Y-58691573D01*
X196961108Y-58687850D01*
X196957242Y-58686715D01*
X196937106Y-58670585D01*
X196931071Y-58664619D01*
X196872370Y-58588118D01*
X196788868Y-58524045D01*
X196783345Y-58518585D01*
X196770037Y-58494543D01*
X196753831Y-58472348D01*
X196753358Y-58464410D01*
X196749508Y-58457455D01*
X196751310Y-58430036D01*
X196749676Y-58402602D01*
X196753569Y-58395669D01*
X196754091Y-58387736D01*
X196770432Y-58365642D01*
X196783889Y-58341681D01*
X196790911Y-58337954D01*
X196795639Y-58331563D01*
X196821330Y-58321811D01*
X196845606Y-58308929D01*
X196858799Y-58307589D01*
X196860962Y-58306769D01*
X196862882Y-58307175D01*
X196870520Y-58306400D01*
X197040047Y-58306400D01*
X197040048Y-58306398D01*
X197028645Y-58219772D01*
X197028643Y-58219766D01*
X196968188Y-58073814D01*
X196872012Y-57948475D01*
X196746674Y-57852299D01*
X196600719Y-57791844D01*
X196544088Y-57784387D01*
X196544088Y-58291900D01*
X196541537Y-58300585D01*
X196542826Y-58309547D01*
X196531847Y-58333587D01*
X196524403Y-58358939D01*
X196517562Y-58364866D01*
X196513801Y-58373103D01*
X196491566Y-58387392D01*
X196471599Y-58404694D01*
X196461084Y-58406981D01*
X196455023Y-58410877D01*
X196420088Y-58415900D01*
X196268088Y-58415900D01*
X196201049Y-58396215D01*
X196155294Y-58343411D01*
X196144088Y-58291900D01*
X196144088Y-57784387D01*
X196087456Y-57791844D01*
X195941501Y-57852299D01*
X195816163Y-57948475D01*
X195719987Y-58073813D01*
X195659533Y-58219765D01*
X195659532Y-58219769D01*
X195648126Y-58306400D01*
X195817656Y-58306400D01*
X195839234Y-58312736D01*
X195861658Y-58314470D01*
X195872111Y-58322390D01*
X195884695Y-58326085D01*
X195899422Y-58343081D01*
X195917349Y-58356663D01*
X195921861Y-58368977D01*
X195930450Y-58378889D01*
X195933650Y-58401148D01*
X195941389Y-58422266D01*
X195938527Y-58435065D01*
X195940394Y-58448047D01*
X195931050Y-58468505D01*
X195926144Y-58490453D01*
X195915250Y-58503102D01*
X195911369Y-58511603D01*
X195904831Y-58518585D01*
X195899307Y-58524045D01*
X195815806Y-58588118D01*
X195757104Y-58664619D01*
X195751070Y-58670585D01*
X195727480Y-58683289D01*
X195705843Y-58699089D01*
X195694463Y-58701072D01*
X195689555Y-58703716D01*
X195682447Y-58703166D01*
X195663895Y-58706400D01*
X195648129Y-58706400D01*
X195648127Y-58706401D01*
X195660592Y-58801089D01*
X195657451Y-58801502D01*
X195656157Y-58856428D01*
X195617009Y-58914300D01*
X195552787Y-58941820D01*
X195538036Y-58942700D01*
X194732425Y-58942700D01*
X194665386Y-58923015D01*
X194619631Y-58870211D01*
X194609687Y-58801053D01*
X194638712Y-58737497D01*
X194644744Y-58731019D01*
X195044200Y-58331563D01*
X196264233Y-57111528D01*
X196264236Y-57111527D01*
X196281674Y-57094089D01*
X196281675Y-57094089D01*
X196338977Y-57036787D01*
X196338977Y-57036785D01*
X196338979Y-57036784D01*
X196354482Y-56999353D01*
X196369988Y-56961919D01*
X196369988Y-55279136D01*
X196389673Y-55212097D01*
X196406303Y-55191459D01*
X196706031Y-54891730D01*
X196767352Y-54858247D01*
X196837043Y-54863231D01*
X196881391Y-54891732D01*
X196956128Y-54966469D01*
X196956132Y-54966472D01*
X197079493Y-55048900D01*
X197079499Y-55048903D01*
X197079500Y-55048904D01*
X197216579Y-55105684D01*
X197362096Y-55134629D01*
X197362100Y-55134630D01*
X197362101Y-55134630D01*
X197510476Y-55134630D01*
X197510477Y-55134629D01*
X197655997Y-55105684D01*
X197793076Y-55048904D01*
X197916444Y-54966472D01*
X198021360Y-54861556D01*
X198103792Y-54738188D01*
X198160572Y-54601109D01*
X198189518Y-54455587D01*
X198189518Y-54307213D01*
X198160572Y-54161691D01*
X198103792Y-54024612D01*
X198103791Y-54024611D01*
X198103788Y-54024605D01*
X198021360Y-53901244D01*
X198021357Y-53901240D01*
X197916447Y-53796330D01*
X197916443Y-53796327D01*
X197793082Y-53713899D01*
X197793073Y-53713894D01*
X197655997Y-53657116D01*
X197655989Y-53657114D01*
X197510479Y-53628170D01*
X197510475Y-53628170D01*
X197362101Y-53628170D01*
X197362096Y-53628170D01*
X197216586Y-53657114D01*
X197216578Y-53657116D01*
X197079502Y-53713894D01*
X197079493Y-53713899D01*
X196956132Y-53796327D01*
X196956128Y-53796330D01*
X196851218Y-53901240D01*
X196851215Y-53901244D01*
X196768787Y-54024605D01*
X196768782Y-54024614D01*
X196712004Y-54161690D01*
X196712002Y-54161696D01*
X196682613Y-54309446D01*
X196650228Y-54371356D01*
X196648677Y-54372935D01*
X195993598Y-55028013D01*
X195993596Y-55028015D01*
X195962589Y-55102877D01*
X195962588Y-55102882D01*
X195962588Y-56785662D01*
X195942903Y-56852701D01*
X195926269Y-56873343D01*
X194891861Y-57907751D01*
X193891902Y-58907710D01*
X193891901Y-58907711D01*
X193825901Y-58973710D01*
X193825901Y-58973711D01*
X193808458Y-58991154D01*
X193808455Y-58991155D01*
X193768600Y-59031012D01*
X193768599Y-59031013D01*
X193377398Y-59422213D01*
X193377396Y-59422215D01*
X193346389Y-59497077D01*
X193346388Y-59497082D01*
X193346388Y-63540517D01*
X193346389Y-63540522D01*
X193377396Y-63615384D01*
X193434703Y-63672691D01*
X193492605Y-63696673D01*
X193509569Y-63703700D01*
X193509571Y-63703700D01*
X196892605Y-63703700D01*
X196892607Y-63703700D01*
X196930041Y-63688194D01*
X196967472Y-63672691D01*
X196967473Y-63672689D01*
X196967475Y-63672689D01*
X197024777Y-63615387D01*
X197024777Y-63615386D01*
X197042207Y-63597956D01*
X197042210Y-63597951D01*
X197160745Y-63479417D01*
X197222068Y-63445934D01*
X197248425Y-63443100D01*
X197777539Y-63443100D01*
X197844578Y-63462785D01*
X197890333Y-63515589D01*
X197896615Y-63532505D01*
X197917620Y-63604804D01*
X197917620Y-63673994D01*
X197880634Y-63801297D01*
X197880633Y-63801303D01*
X197877788Y-63837457D01*
X197877788Y-64241322D01*
X197877789Y-64241347D01*
X197880634Y-64277498D01*
X197925605Y-64432289D01*
X197925608Y-64432296D01*
X198007657Y-64571036D01*
X198007666Y-64571048D01*
X198121639Y-64685021D01*
X198121643Y-64685024D01*
X198121645Y-64685026D01*
X198121648Y-64685027D01*
X198121651Y-64685030D01*
X198151515Y-64702691D01*
X198260394Y-64767081D01*
X198301216Y-64778941D01*
X198415185Y-64812053D01*
X198415188Y-64812053D01*
X198415190Y-64812054D01*
X198451353Y-64814900D01*
X199578788Y-64814899D01*
X199645827Y-64834584D01*
X199691582Y-64887387D01*
X199702788Y-64938899D01*
X199702788Y-66066322D01*
X199702789Y-66066347D01*
X199705634Y-66102498D01*
X199750605Y-66257289D01*
X199750608Y-66257296D01*
X199832657Y-66396036D01*
X199832666Y-66396048D01*
X199946639Y-66510021D01*
X199946643Y-66510024D01*
X199946645Y-66510026D01*
X199946648Y-66510027D01*
X199946651Y-66510030D01*
X200005203Y-66544657D01*
X200085394Y-66592081D01*
X200101888Y-66596873D01*
X200240185Y-66637053D01*
X200240188Y-66637053D01*
X200240190Y-66637054D01*
X200276353Y-66639900D01*
X200680222Y-66639899D01*
X200716386Y-66637054D01*
X200784267Y-66617332D01*
X200854131Y-66617530D01*
X200906540Y-66648727D01*
X204225832Y-69968019D01*
X204259317Y-70029342D01*
X204254333Y-70099034D01*
X204212461Y-70154967D01*
X204146997Y-70179384D01*
X204138151Y-70179700D01*
X196175026Y-70179700D01*
X196107987Y-70160015D01*
X196087345Y-70143381D01*
X191834307Y-65890343D01*
X191800822Y-65829020D01*
X191797988Y-65802662D01*
X191797988Y-54771137D01*
X191817673Y-54704098D01*
X191834307Y-54683456D01*
X193293344Y-53224419D01*
X193354667Y-53190934D01*
X193381025Y-53188100D01*
X200187550Y-53188100D01*
X200254589Y-53207785D01*
G37*
%TD.AperFunction*%
%TA.AperFunction,Conductor*%
G36*
X217426326Y-65420985D02*
G01*
X217472081Y-65473789D01*
X217483287Y-65525300D01*
X217483287Y-67886200D01*
X217662115Y-67886200D01*
X217662131Y-67886199D01*
X217721659Y-67879798D01*
X217721666Y-67879796D01*
X217856373Y-67829554D01*
X217856380Y-67829550D01*
X217971474Y-67743390D01*
X217971477Y-67743387D01*
X218057637Y-67628293D01*
X218057641Y-67628286D01*
X218107883Y-67493579D01*
X218107885Y-67493572D01*
X218109746Y-67476268D01*
X218136484Y-67411717D01*
X218193876Y-67371868D01*
X218263701Y-67369375D01*
X218323790Y-67405027D01*
X218355065Y-67467507D01*
X218356325Y-67476270D01*
X218358196Y-67493683D01*
X218408490Y-67628528D01*
X218408494Y-67628535D01*
X218494740Y-67743744D01*
X218494743Y-67743747D01*
X218609952Y-67829993D01*
X218609959Y-67829997D01*
X218744805Y-67880291D01*
X218744804Y-67880291D01*
X218751732Y-67881035D01*
X218804415Y-67886700D01*
X219662160Y-67886699D01*
X219721771Y-67880291D01*
X219856619Y-67829996D01*
X219971834Y-67743746D01*
X220058084Y-67628531D01*
X220108379Y-67493683D01*
X220109999Y-67478612D01*
X220136735Y-67414064D01*
X220194127Y-67374215D01*
X220263952Y-67371720D01*
X220324042Y-67407372D01*
X220355317Y-67469851D01*
X220356578Y-67478615D01*
X220358197Y-67493683D01*
X220408491Y-67628528D01*
X220408495Y-67628535D01*
X220494741Y-67743744D01*
X220494744Y-67743747D01*
X220609953Y-67829993D01*
X220609960Y-67829997D01*
X220744806Y-67880291D01*
X220744805Y-67880291D01*
X220751733Y-67881035D01*
X220804416Y-67886700D01*
X221662161Y-67886699D01*
X221721772Y-67880291D01*
X221856620Y-67829996D01*
X221971835Y-67743746D01*
X222058085Y-67628531D01*
X222108380Y-67493683D01*
X222109999Y-67478626D01*
X222136733Y-67414080D01*
X222194124Y-67374230D01*
X222263949Y-67371734D01*
X222324039Y-67407384D01*
X222355316Y-67469862D01*
X222356576Y-67478626D01*
X222358194Y-67493680D01*
X222408489Y-67628528D01*
X222408493Y-67628535D01*
X222494739Y-67743744D01*
X222494742Y-67743747D01*
X222609951Y-67829993D01*
X222609958Y-67829997D01*
X222625592Y-67835828D01*
X222744804Y-67880291D01*
X222804414Y-67886700D01*
X222921586Y-67886699D01*
X222930271Y-67889249D01*
X222939233Y-67887961D01*
X222963270Y-67898938D01*
X222988625Y-67906383D01*
X222994553Y-67913225D01*
X223002789Y-67916986D01*
X223017075Y-67939217D01*
X223034380Y-67959187D01*
X223036667Y-67969702D01*
X223040563Y-67975764D01*
X223045586Y-68010699D01*
X223045586Y-68183665D01*
X223025901Y-68250704D01*
X223009267Y-68271346D01*
X221518232Y-69762381D01*
X221456909Y-69795866D01*
X221430551Y-69798700D01*
X215892147Y-69798700D01*
X215825108Y-69779015D01*
X215779353Y-69726211D01*
X215769409Y-69657053D01*
X215798434Y-69593497D01*
X215818854Y-69575480D01*
X215818736Y-69575336D01*
X215822791Y-69572007D01*
X215823256Y-69571598D01*
X215823324Y-69571552D01*
X215823444Y-69571472D01*
X215928360Y-69466556D01*
X216010792Y-69343188D01*
X216067572Y-69206109D01*
X216096518Y-69060587D01*
X216096518Y-68912213D01*
X216067572Y-68766691D01*
X216010792Y-68629612D01*
X216010791Y-68629611D01*
X216010788Y-68629605D01*
X215928360Y-68506244D01*
X215928357Y-68506240D01*
X215823447Y-68401330D01*
X215823443Y-68401327D01*
X215700082Y-68318899D01*
X215700073Y-68318894D01*
X215562997Y-68262116D01*
X215562989Y-68262114D01*
X215417479Y-68233170D01*
X215417475Y-68233170D01*
X215269101Y-68233170D01*
X215269096Y-68233170D01*
X215123586Y-68262114D01*
X215123578Y-68262116D01*
X214986502Y-68318894D01*
X214986493Y-68318899D01*
X214863132Y-68401327D01*
X214863128Y-68401330D01*
X214758218Y-68506240D01*
X214758215Y-68506244D01*
X214712815Y-68574191D01*
X214659203Y-68618996D01*
X214609713Y-68629300D01*
X212862526Y-68629300D01*
X212795487Y-68609615D01*
X212760971Y-68576451D01*
X212752988Y-68565056D01*
X212752988Y-68564881D01*
X212721977Y-68490013D01*
X212664675Y-68432711D01*
X212664673Y-68432710D01*
X211666007Y-67434044D01*
X216352287Y-67434044D01*
X216358688Y-67493572D01*
X216358690Y-67493579D01*
X216408932Y-67628286D01*
X216408936Y-67628293D01*
X216495096Y-67743387D01*
X216495099Y-67743390D01*
X216610193Y-67829550D01*
X216610200Y-67829554D01*
X216744907Y-67879796D01*
X216744914Y-67879798D01*
X216804442Y-67886199D01*
X216804459Y-67886200D01*
X216983287Y-67886200D01*
X216983287Y-66683700D01*
X216352287Y-66683700D01*
X216352287Y-67434044D01*
X211666007Y-67434044D01*
X211220744Y-66988781D01*
X211187259Y-66927458D01*
X211192243Y-66857766D01*
X211234115Y-66801833D01*
X211299579Y-66777416D01*
X211308425Y-66777100D01*
X214748805Y-66777100D01*
X214748807Y-66777100D01*
X214786241Y-66761594D01*
X214823672Y-66746091D01*
X214823673Y-66746089D01*
X214823675Y-66746089D01*
X214880977Y-66688787D01*
X214880977Y-66688786D01*
X214898410Y-66671353D01*
X214898414Y-66671347D01*
X215518344Y-66051419D01*
X215579667Y-66017934D01*
X215606025Y-66015100D01*
X215725705Y-66015100D01*
X215725707Y-66015100D01*
X215763141Y-65999594D01*
X215800572Y-65984091D01*
X215800573Y-65984089D01*
X215800575Y-65984089D01*
X215857877Y-65926787D01*
X215857877Y-65926786D01*
X215875315Y-65909348D01*
X215875316Y-65909345D01*
X216140608Y-65644054D01*
X216201929Y-65610571D01*
X216271621Y-65615555D01*
X216327554Y-65657427D01*
X216351971Y-65722891D01*
X216352287Y-65731737D01*
X216352287Y-66183700D01*
X216983287Y-66183700D01*
X216983287Y-65525300D01*
X217002972Y-65458261D01*
X217055776Y-65412506D01*
X217107287Y-65401300D01*
X217359287Y-65401300D01*
X217426326Y-65420985D01*
G37*
%TD.AperFunction*%
%TA.AperFunction,Conductor*%
G36*
X205712880Y-58275066D02*
G01*
X205840190Y-58312054D01*
X205876353Y-58314900D01*
X206078788Y-58314899D01*
X206145827Y-58334583D01*
X206191582Y-58387387D01*
X206202788Y-58438898D01*
X206202788Y-58641321D01*
X206202789Y-58641347D01*
X206205634Y-58677498D01*
X206242620Y-58804804D01*
X206242620Y-58873994D01*
X206205634Y-59001297D01*
X206205633Y-59001303D01*
X206202788Y-59037457D01*
X206202788Y-59441322D01*
X206202789Y-59441347D01*
X206205634Y-59477498D01*
X206242880Y-59605700D01*
X206242881Y-59674889D01*
X206209613Y-59789399D01*
X206209613Y-59789400D01*
X206299657Y-59789400D01*
X206321551Y-59795829D01*
X206344295Y-59797713D01*
X206357724Y-59806450D01*
X206366696Y-59809085D01*
X206375080Y-59814975D01*
X206381558Y-59819939D01*
X206446645Y-59885026D01*
X206533607Y-59936454D01*
X206539506Y-59940975D01*
X206555916Y-59963419D01*
X206574887Y-59983737D01*
X206576249Y-59991228D01*
X206580745Y-59997377D01*
X206582416Y-60025129D01*
X206587391Y-60052478D01*
X206584487Y-60059517D01*
X206584945Y-60067120D01*
X206571347Y-60091368D01*
X206560746Y-60117068D01*
X206553336Y-60123487D01*
X206550772Y-60128062D01*
X206543751Y-60131793D01*
X206527204Y-60146132D01*
X206446647Y-60193772D01*
X206446643Y-60193775D01*
X206416991Y-60223428D01*
X206387336Y-60253082D01*
X206326016Y-60286566D01*
X206299657Y-60289400D01*
X206209613Y-60289400D01*
X206242881Y-60403910D01*
X206242880Y-60473099D01*
X206205634Y-60601297D01*
X206205633Y-60601303D01*
X206202788Y-60637457D01*
X206202788Y-61041322D01*
X206202789Y-61041347D01*
X206205634Y-61077498D01*
X206242880Y-61205700D01*
X206242881Y-61274889D01*
X206209613Y-61389399D01*
X206220424Y-61403798D01*
X206238427Y-61409085D01*
X206284182Y-61461889D01*
X206295388Y-61513400D01*
X206295388Y-61765400D01*
X206275703Y-61832439D01*
X206222899Y-61878194D01*
X206217076Y-61879460D01*
X206209613Y-61889400D01*
X206242881Y-62003910D01*
X206242880Y-62073099D01*
X206205634Y-62201297D01*
X206205633Y-62201303D01*
X206202788Y-62237457D01*
X206202788Y-62641322D01*
X206202789Y-62641347D01*
X206205634Y-62677498D01*
X206242620Y-62804804D01*
X206242620Y-62822452D01*
X206247544Y-62839048D01*
X206242620Y-62873996D01*
X206230638Y-62915235D01*
X206199246Y-62968316D01*
X206168186Y-62999378D01*
X206106864Y-63032865D01*
X206080502Y-63035700D01*
X200454037Y-63035700D01*
X200386998Y-63016015D01*
X200341243Y-62963211D01*
X200334961Y-62946296D01*
X200330107Y-62929589D01*
X200313955Y-62873993D01*
X200313955Y-62804806D01*
X200350942Y-62677498D01*
X200353788Y-62641335D01*
X200353787Y-62237466D01*
X200350942Y-62201302D01*
X200313955Y-62073993D01*
X200313955Y-62004806D01*
X200350942Y-61877498D01*
X200353788Y-61841335D01*
X200353787Y-61437466D01*
X200350942Y-61401302D01*
X200322074Y-61301940D01*
X200313695Y-61273098D01*
X200313695Y-61203908D01*
X200346962Y-61089400D01*
X200256919Y-61089400D01*
X200235024Y-61082970D01*
X200212281Y-61081087D01*
X200198851Y-61072349D01*
X200189880Y-61069715D01*
X200181496Y-61063825D01*
X200175017Y-61058860D01*
X200109931Y-60993774D01*
X200022964Y-60942342D01*
X200017069Y-60937825D01*
X200000659Y-60915381D01*
X199981688Y-60895064D01*
X199980325Y-60887571D01*
X199975830Y-60881424D01*
X199974158Y-60853670D01*
X199969184Y-60826322D01*
X199972087Y-60819282D01*
X199971630Y-60811680D01*
X199985228Y-60787429D01*
X199995829Y-60761733D01*
X200003237Y-60755313D01*
X200005803Y-60750738D01*
X200012824Y-60747005D01*
X200029368Y-60732669D01*
X200109931Y-60685026D01*
X200169239Y-60625717D01*
X200230560Y-60592234D01*
X200256919Y-60589400D01*
X200346963Y-60589400D01*
X200346962Y-60589399D01*
X200313695Y-60474890D01*
X200313695Y-60405700D01*
X200350942Y-60277498D01*
X200353788Y-60241335D01*
X200353787Y-59837466D01*
X200350942Y-59801302D01*
X200313955Y-59673993D01*
X200313955Y-59604806D01*
X200350942Y-59477498D01*
X200353788Y-59441335D01*
X200353787Y-59037466D01*
X200353279Y-59031014D01*
X200350942Y-59001302D01*
X200333916Y-58942700D01*
X200313955Y-58873993D01*
X200313955Y-58804806D01*
X200350942Y-58677498D01*
X200353788Y-58641335D01*
X200353787Y-58438898D01*
X200373471Y-58371860D01*
X200426275Y-58326105D01*
X200477787Y-58314899D01*
X200680210Y-58314899D01*
X200680222Y-58314899D01*
X200716386Y-58312054D01*
X200843694Y-58275067D01*
X200912882Y-58275067D01*
X201040190Y-58312054D01*
X201076353Y-58314900D01*
X201480222Y-58314899D01*
X201516386Y-58312054D01*
X201643694Y-58275067D01*
X201712882Y-58275067D01*
X201840190Y-58312054D01*
X201876353Y-58314900D01*
X202280222Y-58314899D01*
X202316386Y-58312054D01*
X202443694Y-58275067D01*
X202512882Y-58275067D01*
X202640190Y-58312054D01*
X202676353Y-58314900D01*
X203080222Y-58314899D01*
X203116386Y-58312054D01*
X203243694Y-58275067D01*
X203312882Y-58275067D01*
X203440190Y-58312054D01*
X203476353Y-58314900D01*
X203880222Y-58314899D01*
X203916386Y-58312054D01*
X204043694Y-58275067D01*
X204112882Y-58275067D01*
X204240190Y-58312054D01*
X204276353Y-58314900D01*
X204680222Y-58314899D01*
X204716386Y-58312054D01*
X204843694Y-58275067D01*
X204912882Y-58275067D01*
X205040190Y-58312054D01*
X205076353Y-58314900D01*
X205480222Y-58314899D01*
X205516386Y-58312054D01*
X205643694Y-58275067D01*
X205661342Y-58275067D01*
X205677934Y-58270144D01*
X205712880Y-58275066D01*
G37*
%TD.AperFunction*%
%TD*%
M02*
