G04 #@! TF.GenerationSoftware,KiCad,Pcbnew,9.0.3*
G04 #@! TF.CreationDate,2025-08-17T17:29:31-04:00*
G04 #@! TF.ProjectId,remote,72656d6f-7465-42e6-9b69-6361645f7063,rev?*
G04 #@! TF.SameCoordinates,Original*
G04 #@! TF.FileFunction,Soldermask,Bot*
G04 #@! TF.FilePolarity,Negative*
%FSLAX46Y46*%
G04 Gerber Fmt 4.6, Leading zero omitted, Abs format (unit mm)*
G04 Created by KiCad (PCBNEW 9.0.3) date 2025-08-17 17:29:31*
%MOMM*%
%LPD*%
G01*
G04 APERTURE LIST*
G04 Aperture macros list*
%AMRoundRect*
0 Rectangle with rounded corners*
0 $1 Rounding radius*
0 $2 $3 $4 $5 $6 $7 $8 $9 X,Y pos of 4 corners*
0 Add a 4 corners polygon primitive as box body*
4,1,4,$2,$3,$4,$5,$6,$7,$8,$9,$2,$3,0*
0 Add four circle primitives for the rounded corners*
1,1,$1+$1,$2,$3*
1,1,$1+$1,$4,$5*
1,1,$1+$1,$6,$7*
1,1,$1+$1,$8,$9*
0 Add four rect primitives between the rounded corners*
20,1,$1+$1,$2,$3,$4,$5,0*
20,1,$1+$1,$4,$5,$6,$7,0*
20,1,$1+$1,$6,$7,$8,$9,0*
20,1,$1+$1,$8,$9,$2,$3,0*%
G04 Aperture macros list end*
%ADD10RoundRect,0.218750X0.218750X0.256250X-0.218750X0.256250X-0.218750X-0.256250X0.218750X-0.256250X0*%
%ADD11RoundRect,0.200000X0.200000X0.275000X-0.200000X0.275000X-0.200000X-0.275000X0.200000X-0.275000X0*%
%ADD12RoundRect,0.250000X0.475000X-0.250000X0.475000X0.250000X-0.475000X0.250000X-0.475000X-0.250000X0*%
%ADD13R,1.700000X1.700000*%
%ADD14C,1.700000*%
%ADD15RoundRect,0.137500X0.600000X0.137500X-0.600000X0.137500X-0.600000X-0.137500X0.600000X-0.137500X0*%
%ADD16RoundRect,0.137500X0.137500X0.600000X-0.137500X0.600000X-0.137500X-0.600000X0.137500X-0.600000X0*%
%ADD17RoundRect,0.250000X0.250000X0.475000X-0.250000X0.475000X-0.250000X-0.475000X0.250000X-0.475000X0*%
%ADD18R,0.762000X1.905000*%
%ADD19RoundRect,0.102000X-0.400000X-0.850000X0.400000X-0.850000X0.400000X0.850000X-0.400000X0.850000X0*%
%ADD20R,0.990600X2.006600*%
%ADD21RoundRect,0.102000X-0.950000X0.200000X-0.950000X-0.200000X0.950000X-0.200000X0.950000X0.200000X0*%
G04 APERTURE END LIST*
D10*
G04 #@! TO.C,D1*
X197004388Y-52222400D03*
X198579388Y-52222400D03*
G04 #@! TD*
D11*
G04 #@! TO.C,R2*
X193944288Y-52247800D03*
X195594288Y-52247800D03*
G04 #@! TD*
G04 #@! TO.C,R1*
X204042288Y-51460400D03*
X202392288Y-51460400D03*
G04 #@! TD*
D12*
G04 #@! TO.C,C1*
X195810688Y-57922200D03*
X195810688Y-56022200D03*
G04 #@! TD*
D13*
G04 #@! TO.C,ISP1*
X223344288Y-70637400D03*
D14*
X223344288Y-73177400D03*
X225884288Y-70637400D03*
X225884288Y-73177400D03*
X228424288Y-70637400D03*
X228424288Y-73177400D03*
G04 #@! TD*
D12*
G04 #@! TO.C,C4*
X195632888Y-62468800D03*
X195632888Y-60568800D03*
G04 #@! TD*
D15*
G04 #@! TO.C,CPU1*
X207440788Y-58439400D03*
X207440788Y-59239400D03*
X207440788Y-60039400D03*
X207440788Y-60839400D03*
X207440788Y-61639400D03*
X207440788Y-62439400D03*
X207440788Y-63239400D03*
X207440788Y-64039400D03*
D16*
X206078288Y-65401900D03*
X205278288Y-65401900D03*
X204478288Y-65401900D03*
X203678288Y-65401900D03*
X202878288Y-65401900D03*
X202078288Y-65401900D03*
X201278288Y-65401900D03*
X200478288Y-65401900D03*
D15*
X199115788Y-64039400D03*
X199115788Y-63239400D03*
X199115788Y-62439400D03*
X199115788Y-61639400D03*
X199115788Y-60839400D03*
X199115788Y-60039400D03*
X199115788Y-59239400D03*
X199115788Y-58439400D03*
D16*
X200478288Y-57076900D03*
X201278288Y-57076900D03*
X202078288Y-57076900D03*
X202878288Y-57076900D03*
X203678288Y-57076900D03*
X204478288Y-57076900D03*
X205278288Y-57076900D03*
X206078288Y-57076900D03*
G04 #@! TD*
D17*
G04 #@! TO.C,C3*
X214210488Y-51358800D03*
X212310488Y-51358800D03*
G04 #@! TD*
D18*
G04 #@! TO.C,RADIO1*
X231233287Y-66433700D03*
X229233288Y-66433700D03*
X227233287Y-66433700D03*
X225233289Y-66433700D03*
X223233287Y-66433700D03*
X221233289Y-66433700D03*
X219233288Y-66433700D03*
X217233287Y-66433700D03*
X217233289Y-51727100D03*
X219233288Y-51727100D03*
X221233289Y-51727100D03*
X223233287Y-51727100D03*
X225233289Y-51727100D03*
X227233287Y-51727100D03*
X229233288Y-51727100D03*
X231233289Y-51727100D03*
G04 #@! TD*
D19*
G04 #@! TO.C,B3*
X208563288Y-55270400D03*
X211963288Y-55270400D03*
G04 #@! TD*
D20*
G04 #@! TO.C,ANT1*
X243600788Y-54508400D03*
X240997288Y-54508400D03*
X238393788Y-54508400D03*
G04 #@! TD*
D21*
G04 #@! TO.C,Y1*
X212422288Y-60253400D03*
X212422288Y-61453400D03*
X212422288Y-62653400D03*
G04 #@! TD*
M02*
