G04 #@! TF.GenerationSoftware,KiCad,Pcbnew,9.0.3*
G04 #@! TF.CreationDate,2025-08-17T17:29:31-04:00*
G04 #@! TF.ProjectId,remote,72656d6f-7465-42e6-9b69-6361645f7063,rev?*
G04 #@! TF.SameCoordinates,Original*
G04 #@! TF.FileFunction,Legend,Bot*
G04 #@! TF.FilePolarity,Positive*
%FSLAX46Y46*%
G04 Gerber Fmt 4.6, Leading zero omitted, Abs format (unit mm)*
G04 Created by KiCad (PCBNEW 9.0.3) date 2025-08-17 17:29:31*
%MOMM*%
%LPD*%
G01*
G04 APERTURE LIST*
G04 Aperture macros list*
%AMRoundRect*
0 Rectangle with rounded corners*
0 $1 Rounding radius*
0 $2 $3 $4 $5 $6 $7 $8 $9 X,Y pos of 4 corners*
0 Add a 4 corners polygon primitive as box body*
4,1,4,$2,$3,$4,$5,$6,$7,$8,$9,$2,$3,0*
0 Add four circle primitives for the rounded corners*
1,1,$1+$1,$2,$3*
1,1,$1+$1,$4,$5*
1,1,$1+$1,$6,$7*
1,1,$1+$1,$8,$9*
0 Add four rect primitives between the rounded corners*
20,1,$1+$1,$2,$3,$4,$5,0*
20,1,$1+$1,$4,$5,$6,$7,0*
20,1,$1+$1,$6,$7,$8,$9,0*
20,1,$1+$1,$8,$9,$2,$3,0*%
G04 Aperture macros list end*
%ADD10C,0.200000*%
%ADD11C,0.150000*%
%ADD12C,0.120000*%
%ADD13C,0.152400*%
%ADD14C,0.127000*%
%ADD15C,0.372664*%
%ADD16RoundRect,0.218750X0.218750X0.256250X-0.218750X0.256250X-0.218750X-0.256250X0.218750X-0.256250X0*%
%ADD17RoundRect,0.200000X0.200000X0.275000X-0.200000X0.275000X-0.200000X-0.275000X0.200000X-0.275000X0*%
%ADD18RoundRect,0.250000X0.475000X-0.250000X0.475000X0.250000X-0.475000X0.250000X-0.475000X-0.250000X0*%
%ADD19R,1.700000X1.700000*%
%ADD20C,1.700000*%
%ADD21RoundRect,0.137500X0.600000X0.137500X-0.600000X0.137500X-0.600000X-0.137500X0.600000X-0.137500X0*%
%ADD22RoundRect,0.137500X0.137500X0.600000X-0.137500X0.600000X-0.137500X-0.600000X0.137500X-0.600000X0*%
%ADD23RoundRect,0.250000X0.250000X0.475000X-0.250000X0.475000X-0.250000X-0.475000X0.250000X-0.475000X0*%
%ADD24R,0.762000X1.905000*%
%ADD25RoundRect,0.102000X-0.400000X-0.850000X0.400000X-0.850000X0.400000X0.850000X-0.400000X0.850000X0*%
%ADD26R,0.990600X2.006600*%
%ADD27RoundRect,0.102000X-0.950000X0.200000X-0.950000X-0.200000X0.950000X-0.200000X0.950000X0.200000X0*%
G04 APERTURE END LIST*
D10*
X203073786Y-68300731D02*
X203407119Y-67824540D01*
X203645214Y-68300731D02*
X203645214Y-67300731D01*
X203645214Y-67300731D02*
X203264262Y-67300731D01*
X203264262Y-67300731D02*
X203169024Y-67348350D01*
X203169024Y-67348350D02*
X203121405Y-67395969D01*
X203121405Y-67395969D02*
X203073786Y-67491207D01*
X203073786Y-67491207D02*
X203073786Y-67634064D01*
X203073786Y-67634064D02*
X203121405Y-67729302D01*
X203121405Y-67729302D02*
X203169024Y-67776921D01*
X203169024Y-67776921D02*
X203264262Y-67824540D01*
X203264262Y-67824540D02*
X203645214Y-67824540D01*
X202264262Y-68253112D02*
X202359500Y-68300731D01*
X202359500Y-68300731D02*
X202549976Y-68300731D01*
X202549976Y-68300731D02*
X202645214Y-68253112D01*
X202645214Y-68253112D02*
X202692833Y-68157873D01*
X202692833Y-68157873D02*
X202692833Y-67776921D01*
X202692833Y-67776921D02*
X202645214Y-67681683D01*
X202645214Y-67681683D02*
X202549976Y-67634064D01*
X202549976Y-67634064D02*
X202359500Y-67634064D01*
X202359500Y-67634064D02*
X202264262Y-67681683D01*
X202264262Y-67681683D02*
X202216643Y-67776921D01*
X202216643Y-67776921D02*
X202216643Y-67872159D01*
X202216643Y-67872159D02*
X202692833Y-67967397D01*
X201788071Y-68300731D02*
X201788071Y-67634064D01*
X201788071Y-67729302D02*
X201740452Y-67681683D01*
X201740452Y-67681683D02*
X201645214Y-67634064D01*
X201645214Y-67634064D02*
X201502357Y-67634064D01*
X201502357Y-67634064D02*
X201407119Y-67681683D01*
X201407119Y-67681683D02*
X201359500Y-67776921D01*
X201359500Y-67776921D02*
X201359500Y-68300731D01*
X201359500Y-67776921D02*
X201311881Y-67681683D01*
X201311881Y-67681683D02*
X201216643Y-67634064D01*
X201216643Y-67634064D02*
X201073786Y-67634064D01*
X201073786Y-67634064D02*
X200978547Y-67681683D01*
X200978547Y-67681683D02*
X200930928Y-67776921D01*
X200930928Y-67776921D02*
X200930928Y-68300731D01*
X200311881Y-68300731D02*
X200407119Y-68253112D01*
X200407119Y-68253112D02*
X200454738Y-68205492D01*
X200454738Y-68205492D02*
X200502357Y-68110254D01*
X200502357Y-68110254D02*
X200502357Y-67824540D01*
X200502357Y-67824540D02*
X200454738Y-67729302D01*
X200454738Y-67729302D02*
X200407119Y-67681683D01*
X200407119Y-67681683D02*
X200311881Y-67634064D01*
X200311881Y-67634064D02*
X200169024Y-67634064D01*
X200169024Y-67634064D02*
X200073786Y-67681683D01*
X200073786Y-67681683D02*
X200026167Y-67729302D01*
X200026167Y-67729302D02*
X199978548Y-67824540D01*
X199978548Y-67824540D02*
X199978548Y-68110254D01*
X199978548Y-68110254D02*
X200026167Y-68205492D01*
X200026167Y-68205492D02*
X200073786Y-68253112D01*
X200073786Y-68253112D02*
X200169024Y-68300731D01*
X200169024Y-68300731D02*
X200311881Y-68300731D01*
X199692833Y-67634064D02*
X199311881Y-67634064D01*
X199549976Y-67300731D02*
X199549976Y-68157873D01*
X199549976Y-68157873D02*
X199502357Y-68253112D01*
X199502357Y-68253112D02*
X199407119Y-68300731D01*
X199407119Y-68300731D02*
X199311881Y-68300731D01*
X198597595Y-68253112D02*
X198692833Y-68300731D01*
X198692833Y-68300731D02*
X198883309Y-68300731D01*
X198883309Y-68300731D02*
X198978547Y-68253112D01*
X198978547Y-68253112D02*
X199026166Y-68157873D01*
X199026166Y-68157873D02*
X199026166Y-67776921D01*
X199026166Y-67776921D02*
X198978547Y-67681683D01*
X198978547Y-67681683D02*
X198883309Y-67634064D01*
X198883309Y-67634064D02*
X198692833Y-67634064D01*
X198692833Y-67634064D02*
X198597595Y-67681683D01*
X198597595Y-67681683D02*
X198549976Y-67776921D01*
X198549976Y-67776921D02*
X198549976Y-67872159D01*
X198549976Y-67872159D02*
X199026166Y-67967397D01*
X198169023Y-67395969D02*
X198121404Y-67348350D01*
X198121404Y-67348350D02*
X198026166Y-67300731D01*
X198026166Y-67300731D02*
X197788071Y-67300731D01*
X197788071Y-67300731D02*
X197692833Y-67348350D01*
X197692833Y-67348350D02*
X197645214Y-67395969D01*
X197645214Y-67395969D02*
X197597595Y-67491207D01*
X197597595Y-67491207D02*
X197597595Y-67586445D01*
X197597595Y-67586445D02*
X197645214Y-67729302D01*
X197645214Y-67729302D02*
X198216642Y-68300731D01*
X198216642Y-68300731D02*
X197597595Y-68300731D01*
X196978547Y-67300731D02*
X196883309Y-67300731D01*
X196883309Y-67300731D02*
X196788071Y-67348350D01*
X196788071Y-67348350D02*
X196740452Y-67395969D01*
X196740452Y-67395969D02*
X196692833Y-67491207D01*
X196692833Y-67491207D02*
X196645214Y-67681683D01*
X196645214Y-67681683D02*
X196645214Y-67919778D01*
X196645214Y-67919778D02*
X196692833Y-68110254D01*
X196692833Y-68110254D02*
X196740452Y-68205492D01*
X196740452Y-68205492D02*
X196788071Y-68253112D01*
X196788071Y-68253112D02*
X196883309Y-68300731D01*
X196883309Y-68300731D02*
X196978547Y-68300731D01*
X196978547Y-68300731D02*
X197073785Y-68253112D01*
X197073785Y-68253112D02*
X197121404Y-68205492D01*
X197121404Y-68205492D02*
X197169023Y-68110254D01*
X197169023Y-68110254D02*
X197216642Y-67919778D01*
X197216642Y-67919778D02*
X197216642Y-67681683D01*
X197216642Y-67681683D02*
X197169023Y-67491207D01*
X197169023Y-67491207D02*
X197121404Y-67395969D01*
X197121404Y-67395969D02*
X197073785Y-67348350D01*
X197073785Y-67348350D02*
X196978547Y-67300731D01*
X196264261Y-67395969D02*
X196216642Y-67348350D01*
X196216642Y-67348350D02*
X196121404Y-67300731D01*
X196121404Y-67300731D02*
X195883309Y-67300731D01*
X195883309Y-67300731D02*
X195788071Y-67348350D01*
X195788071Y-67348350D02*
X195740452Y-67395969D01*
X195740452Y-67395969D02*
X195692833Y-67491207D01*
X195692833Y-67491207D02*
X195692833Y-67586445D01*
X195692833Y-67586445D02*
X195740452Y-67729302D01*
X195740452Y-67729302D02*
X196311880Y-68300731D01*
X196311880Y-68300731D02*
X195692833Y-68300731D01*
X194788071Y-67300731D02*
X195264261Y-67300731D01*
X195264261Y-67300731D02*
X195311880Y-67776921D01*
X195311880Y-67776921D02*
X195264261Y-67729302D01*
X195264261Y-67729302D02*
X195169023Y-67681683D01*
X195169023Y-67681683D02*
X194930928Y-67681683D01*
X194930928Y-67681683D02*
X194835690Y-67729302D01*
X194835690Y-67729302D02*
X194788071Y-67776921D01*
X194788071Y-67776921D02*
X194740452Y-67872159D01*
X194740452Y-67872159D02*
X194740452Y-68110254D01*
X194740452Y-68110254D02*
X194788071Y-68205492D01*
X194788071Y-68205492D02*
X194835690Y-68253112D01*
X194835690Y-68253112D02*
X194930928Y-68300731D01*
X194930928Y-68300731D02*
X195169023Y-68300731D01*
X195169023Y-68300731D02*
X195264261Y-68253112D01*
X195264261Y-68253112D02*
X195311880Y-68205492D01*
X193645213Y-67634064D02*
X193407118Y-68300731D01*
X193407118Y-68300731D02*
X193169023Y-67634064D01*
X192264261Y-68300731D02*
X192835689Y-68300731D01*
X192549975Y-68300731D02*
X192549975Y-67300731D01*
X192549975Y-67300731D02*
X192645213Y-67443588D01*
X192645213Y-67443588D02*
X192740451Y-67538826D01*
X192740451Y-67538826D02*
X192835689Y-67586445D01*
X203692833Y-69624960D02*
X203216643Y-69624960D01*
X203788071Y-69910675D02*
X203454738Y-68910675D01*
X203454738Y-68910675D02*
X203121405Y-69910675D01*
X202930928Y-68910675D02*
X202359500Y-68910675D01*
X202645214Y-69910675D02*
X202645214Y-68910675D01*
X202026166Y-69910675D02*
X202026166Y-69244008D01*
X202026166Y-69339246D02*
X201978547Y-69291627D01*
X201978547Y-69291627D02*
X201883309Y-69244008D01*
X201883309Y-69244008D02*
X201740452Y-69244008D01*
X201740452Y-69244008D02*
X201645214Y-69291627D01*
X201645214Y-69291627D02*
X201597595Y-69386865D01*
X201597595Y-69386865D02*
X201597595Y-69910675D01*
X201597595Y-69386865D02*
X201549976Y-69291627D01*
X201549976Y-69291627D02*
X201454738Y-69244008D01*
X201454738Y-69244008D02*
X201311881Y-69244008D01*
X201311881Y-69244008D02*
X201216642Y-69291627D01*
X201216642Y-69291627D02*
X201169023Y-69386865D01*
X201169023Y-69386865D02*
X201169023Y-69910675D01*
X200311881Y-69863056D02*
X200407119Y-69910675D01*
X200407119Y-69910675D02*
X200597595Y-69910675D01*
X200597595Y-69910675D02*
X200692833Y-69863056D01*
X200692833Y-69863056D02*
X200740452Y-69767817D01*
X200740452Y-69767817D02*
X200740452Y-69386865D01*
X200740452Y-69386865D02*
X200692833Y-69291627D01*
X200692833Y-69291627D02*
X200597595Y-69244008D01*
X200597595Y-69244008D02*
X200407119Y-69244008D01*
X200407119Y-69244008D02*
X200311881Y-69291627D01*
X200311881Y-69291627D02*
X200264262Y-69386865D01*
X200264262Y-69386865D02*
X200264262Y-69482103D01*
X200264262Y-69482103D02*
X200740452Y-69577341D01*
X199407119Y-69244008D02*
X199407119Y-70053532D01*
X199407119Y-70053532D02*
X199454738Y-70148770D01*
X199454738Y-70148770D02*
X199502357Y-70196389D01*
X199502357Y-70196389D02*
X199597595Y-70244008D01*
X199597595Y-70244008D02*
X199740452Y-70244008D01*
X199740452Y-70244008D02*
X199835690Y-70196389D01*
X199407119Y-69863056D02*
X199502357Y-69910675D01*
X199502357Y-69910675D02*
X199692833Y-69910675D01*
X199692833Y-69910675D02*
X199788071Y-69863056D01*
X199788071Y-69863056D02*
X199835690Y-69815436D01*
X199835690Y-69815436D02*
X199883309Y-69720198D01*
X199883309Y-69720198D02*
X199883309Y-69434484D01*
X199883309Y-69434484D02*
X199835690Y-69339246D01*
X199835690Y-69339246D02*
X199788071Y-69291627D01*
X199788071Y-69291627D02*
X199692833Y-69244008D01*
X199692833Y-69244008D02*
X199502357Y-69244008D01*
X199502357Y-69244008D02*
X199407119Y-69291627D01*
X198502357Y-69910675D02*
X198502357Y-69386865D01*
X198502357Y-69386865D02*
X198549976Y-69291627D01*
X198549976Y-69291627D02*
X198645214Y-69244008D01*
X198645214Y-69244008D02*
X198835690Y-69244008D01*
X198835690Y-69244008D02*
X198930928Y-69291627D01*
X198502357Y-69863056D02*
X198597595Y-69910675D01*
X198597595Y-69910675D02*
X198835690Y-69910675D01*
X198835690Y-69910675D02*
X198930928Y-69863056D01*
X198930928Y-69863056D02*
X198978547Y-69767817D01*
X198978547Y-69767817D02*
X198978547Y-69672579D01*
X198978547Y-69672579D02*
X198930928Y-69577341D01*
X198930928Y-69577341D02*
X198835690Y-69529722D01*
X198835690Y-69529722D02*
X198597595Y-69529722D01*
X198597595Y-69529722D02*
X198502357Y-69482103D01*
X198121404Y-68910675D02*
X197502357Y-68910675D01*
X197502357Y-68910675D02*
X197835690Y-69291627D01*
X197835690Y-69291627D02*
X197692833Y-69291627D01*
X197692833Y-69291627D02*
X197597595Y-69339246D01*
X197597595Y-69339246D02*
X197549976Y-69386865D01*
X197549976Y-69386865D02*
X197502357Y-69482103D01*
X197502357Y-69482103D02*
X197502357Y-69720198D01*
X197502357Y-69720198D02*
X197549976Y-69815436D01*
X197549976Y-69815436D02*
X197597595Y-69863056D01*
X197597595Y-69863056D02*
X197692833Y-69910675D01*
X197692833Y-69910675D02*
X197978547Y-69910675D01*
X197978547Y-69910675D02*
X198073785Y-69863056D01*
X198073785Y-69863056D02*
X198121404Y-69815436D01*
X197121404Y-69005913D02*
X197073785Y-68958294D01*
X197073785Y-68958294D02*
X196978547Y-68910675D01*
X196978547Y-68910675D02*
X196740452Y-68910675D01*
X196740452Y-68910675D02*
X196645214Y-68958294D01*
X196645214Y-68958294D02*
X196597595Y-69005913D01*
X196597595Y-69005913D02*
X196549976Y-69101151D01*
X196549976Y-69101151D02*
X196549976Y-69196389D01*
X196549976Y-69196389D02*
X196597595Y-69339246D01*
X196597595Y-69339246D02*
X197169023Y-69910675D01*
X197169023Y-69910675D02*
X196549976Y-69910675D01*
X195978547Y-69339246D02*
X196073785Y-69291627D01*
X196073785Y-69291627D02*
X196121404Y-69244008D01*
X196121404Y-69244008D02*
X196169023Y-69148770D01*
X196169023Y-69148770D02*
X196169023Y-69101151D01*
X196169023Y-69101151D02*
X196121404Y-69005913D01*
X196121404Y-69005913D02*
X196073785Y-68958294D01*
X196073785Y-68958294D02*
X195978547Y-68910675D01*
X195978547Y-68910675D02*
X195788071Y-68910675D01*
X195788071Y-68910675D02*
X195692833Y-68958294D01*
X195692833Y-68958294D02*
X195645214Y-69005913D01*
X195645214Y-69005913D02*
X195597595Y-69101151D01*
X195597595Y-69101151D02*
X195597595Y-69148770D01*
X195597595Y-69148770D02*
X195645214Y-69244008D01*
X195645214Y-69244008D02*
X195692833Y-69291627D01*
X195692833Y-69291627D02*
X195788071Y-69339246D01*
X195788071Y-69339246D02*
X195978547Y-69339246D01*
X195978547Y-69339246D02*
X196073785Y-69386865D01*
X196073785Y-69386865D02*
X196121404Y-69434484D01*
X196121404Y-69434484D02*
X196169023Y-69529722D01*
X196169023Y-69529722D02*
X196169023Y-69720198D01*
X196169023Y-69720198D02*
X196121404Y-69815436D01*
X196121404Y-69815436D02*
X196073785Y-69863056D01*
X196073785Y-69863056D02*
X195978547Y-69910675D01*
X195978547Y-69910675D02*
X195788071Y-69910675D01*
X195788071Y-69910675D02*
X195692833Y-69863056D01*
X195692833Y-69863056D02*
X195645214Y-69815436D01*
X195645214Y-69815436D02*
X195597595Y-69720198D01*
X195597595Y-69720198D02*
X195597595Y-69529722D01*
X195597595Y-69529722D02*
X195645214Y-69434484D01*
X195645214Y-69434484D02*
X195692833Y-69386865D01*
X195692833Y-69386865D02*
X195788071Y-69339246D01*
X195169023Y-69910675D02*
X195169023Y-68910675D01*
X195169023Y-68910675D02*
X194788071Y-68910675D01*
X194788071Y-68910675D02*
X194692833Y-68958294D01*
X194692833Y-68958294D02*
X194645214Y-69005913D01*
X194645214Y-69005913D02*
X194597595Y-69101151D01*
X194597595Y-69101151D02*
X194597595Y-69244008D01*
X194597595Y-69244008D02*
X194645214Y-69339246D01*
X194645214Y-69339246D02*
X194692833Y-69386865D01*
X194692833Y-69386865D02*
X194788071Y-69434484D01*
X194788071Y-69434484D02*
X195169023Y-69434484D01*
X203502357Y-70949190D02*
X203597595Y-70901571D01*
X203597595Y-70901571D02*
X203645214Y-70853952D01*
X203645214Y-70853952D02*
X203692833Y-70758714D01*
X203692833Y-70758714D02*
X203692833Y-70711095D01*
X203692833Y-70711095D02*
X203645214Y-70615857D01*
X203645214Y-70615857D02*
X203597595Y-70568238D01*
X203597595Y-70568238D02*
X203502357Y-70520619D01*
X203502357Y-70520619D02*
X203311881Y-70520619D01*
X203311881Y-70520619D02*
X203216643Y-70568238D01*
X203216643Y-70568238D02*
X203169024Y-70615857D01*
X203169024Y-70615857D02*
X203121405Y-70711095D01*
X203121405Y-70711095D02*
X203121405Y-70758714D01*
X203121405Y-70758714D02*
X203169024Y-70853952D01*
X203169024Y-70853952D02*
X203216643Y-70901571D01*
X203216643Y-70901571D02*
X203311881Y-70949190D01*
X203311881Y-70949190D02*
X203502357Y-70949190D01*
X203502357Y-70949190D02*
X203597595Y-70996809D01*
X203597595Y-70996809D02*
X203645214Y-71044428D01*
X203645214Y-71044428D02*
X203692833Y-71139666D01*
X203692833Y-71139666D02*
X203692833Y-71330142D01*
X203692833Y-71330142D02*
X203645214Y-71425380D01*
X203645214Y-71425380D02*
X203597595Y-71473000D01*
X203597595Y-71473000D02*
X203502357Y-71520619D01*
X203502357Y-71520619D02*
X203311881Y-71520619D01*
X203311881Y-71520619D02*
X203216643Y-71473000D01*
X203216643Y-71473000D02*
X203169024Y-71425380D01*
X203169024Y-71425380D02*
X203121405Y-71330142D01*
X203121405Y-71330142D02*
X203121405Y-71139666D01*
X203121405Y-71139666D02*
X203169024Y-71044428D01*
X203169024Y-71044428D02*
X203216643Y-70996809D01*
X203216643Y-70996809D02*
X203311881Y-70949190D01*
X202692833Y-71520619D02*
X202692833Y-70520619D01*
X202692833Y-70520619D02*
X202359500Y-71234904D01*
X202359500Y-71234904D02*
X202026167Y-70520619D01*
X202026167Y-70520619D02*
X202026167Y-71520619D01*
X201549976Y-71520619D02*
X201549976Y-70520619D01*
X201549976Y-70996809D02*
X200978548Y-70996809D01*
X200978548Y-71520619D02*
X200978548Y-70520619D01*
X200597595Y-70853952D02*
X200073786Y-70853952D01*
X200073786Y-70853952D02*
X200597595Y-71520619D01*
X200597595Y-71520619D02*
X200073786Y-71520619D01*
X199645214Y-71473000D02*
X199645214Y-71520619D01*
X199645214Y-71520619D02*
X199692833Y-71615857D01*
X199692833Y-71615857D02*
X199740452Y-71663476D01*
X198549976Y-70520619D02*
X197930929Y-70520619D01*
X197930929Y-70520619D02*
X198264262Y-70901571D01*
X198264262Y-70901571D02*
X198121405Y-70901571D01*
X198121405Y-70901571D02*
X198026167Y-70949190D01*
X198026167Y-70949190D02*
X197978548Y-70996809D01*
X197978548Y-70996809D02*
X197930929Y-71092047D01*
X197930929Y-71092047D02*
X197930929Y-71330142D01*
X197930929Y-71330142D02*
X197978548Y-71425380D01*
X197978548Y-71425380D02*
X198026167Y-71473000D01*
X198026167Y-71473000D02*
X198121405Y-71520619D01*
X198121405Y-71520619D02*
X198407119Y-71520619D01*
X198407119Y-71520619D02*
X198502357Y-71473000D01*
X198502357Y-71473000D02*
X198549976Y-71425380D01*
X197502357Y-71425380D02*
X197454738Y-71473000D01*
X197454738Y-71473000D02*
X197502357Y-71520619D01*
X197502357Y-71520619D02*
X197549976Y-71473000D01*
X197549976Y-71473000D02*
X197502357Y-71425380D01*
X197502357Y-71425380D02*
X197502357Y-71520619D01*
X197121405Y-70520619D02*
X196502358Y-70520619D01*
X196502358Y-70520619D02*
X196835691Y-70901571D01*
X196835691Y-70901571D02*
X196692834Y-70901571D01*
X196692834Y-70901571D02*
X196597596Y-70949190D01*
X196597596Y-70949190D02*
X196549977Y-70996809D01*
X196549977Y-70996809D02*
X196502358Y-71092047D01*
X196502358Y-71092047D02*
X196502358Y-71330142D01*
X196502358Y-71330142D02*
X196549977Y-71425380D01*
X196549977Y-71425380D02*
X196597596Y-71473000D01*
X196597596Y-71473000D02*
X196692834Y-71520619D01*
X196692834Y-71520619D02*
X196978548Y-71520619D01*
X196978548Y-71520619D02*
X197073786Y-71473000D01*
X197073786Y-71473000D02*
X197121405Y-71425380D01*
X196216643Y-70520619D02*
X195883310Y-71520619D01*
X195883310Y-71520619D02*
X195549977Y-70520619D01*
D11*
X200093575Y-54097895D02*
X200474527Y-54097895D01*
X200474527Y-54097895D02*
X200474527Y-53297895D01*
X199826908Y-53678847D02*
X199560242Y-53678847D01*
X199445956Y-54097895D02*
X199826908Y-54097895D01*
X199826908Y-54097895D02*
X199826908Y-53297895D01*
X199826908Y-53297895D02*
X199445956Y-53297895D01*
X199103098Y-54097895D02*
X199103098Y-53297895D01*
X199103098Y-53297895D02*
X198912622Y-53297895D01*
X198912622Y-53297895D02*
X198798336Y-53335990D01*
X198798336Y-53335990D02*
X198722146Y-53412180D01*
X198722146Y-53412180D02*
X198684051Y-53488371D01*
X198684051Y-53488371D02*
X198645955Y-53640752D01*
X198645955Y-53640752D02*
X198645955Y-53755038D01*
X198645955Y-53755038D02*
X198684051Y-53907419D01*
X198684051Y-53907419D02*
X198722146Y-53983609D01*
X198722146Y-53983609D02*
X198798336Y-54059800D01*
X198798336Y-54059800D02*
X198912622Y-54097895D01*
X198912622Y-54097895D02*
X199103098Y-54097895D01*
X197579289Y-54097895D02*
X197655479Y-54059800D01*
X197655479Y-54059800D02*
X197693574Y-54021704D01*
X197693574Y-54021704D02*
X197731670Y-53945514D01*
X197731670Y-53945514D02*
X197731670Y-53716942D01*
X197731670Y-53716942D02*
X197693574Y-53640752D01*
X197693574Y-53640752D02*
X197655479Y-53602657D01*
X197655479Y-53602657D02*
X197579289Y-53564561D01*
X197579289Y-53564561D02*
X197465003Y-53564561D01*
X197465003Y-53564561D02*
X197388812Y-53602657D01*
X197388812Y-53602657D02*
X197350717Y-53640752D01*
X197350717Y-53640752D02*
X197312622Y-53716942D01*
X197312622Y-53716942D02*
X197312622Y-53945514D01*
X197312622Y-53945514D02*
X197350717Y-54021704D01*
X197350717Y-54021704D02*
X197388812Y-54059800D01*
X197388812Y-54059800D02*
X197465003Y-54097895D01*
X197465003Y-54097895D02*
X197579289Y-54097895D01*
X196969764Y-53564561D02*
X196969764Y-54097895D01*
X196969764Y-53640752D02*
X196931669Y-53602657D01*
X196931669Y-53602657D02*
X196855479Y-53564561D01*
X196855479Y-53564561D02*
X196741193Y-53564561D01*
X196741193Y-53564561D02*
X196665002Y-53602657D01*
X196665002Y-53602657D02*
X196626907Y-53678847D01*
X196626907Y-53678847D02*
X196626907Y-54097895D01*
X195636430Y-54097895D02*
X195636430Y-53297895D01*
X195636430Y-53297895D02*
X195331668Y-53297895D01*
X195331668Y-53297895D02*
X195255478Y-53335990D01*
X195255478Y-53335990D02*
X195217383Y-53374085D01*
X195217383Y-53374085D02*
X195179287Y-53450276D01*
X195179287Y-53450276D02*
X195179287Y-53564561D01*
X195179287Y-53564561D02*
X195217383Y-53640752D01*
X195217383Y-53640752D02*
X195255478Y-53678847D01*
X195255478Y-53678847D02*
X195331668Y-53716942D01*
X195331668Y-53716942D02*
X195636430Y-53716942D01*
X194379287Y-54021704D02*
X194417383Y-54059800D01*
X194417383Y-54059800D02*
X194531668Y-54097895D01*
X194531668Y-54097895D02*
X194607859Y-54097895D01*
X194607859Y-54097895D02*
X194722145Y-54059800D01*
X194722145Y-54059800D02*
X194798335Y-53983609D01*
X194798335Y-53983609D02*
X194836430Y-53907419D01*
X194836430Y-53907419D02*
X194874526Y-53755038D01*
X194874526Y-53755038D02*
X194874526Y-53640752D01*
X194874526Y-53640752D02*
X194836430Y-53488371D01*
X194836430Y-53488371D02*
X194798335Y-53412180D01*
X194798335Y-53412180D02*
X194722145Y-53335990D01*
X194722145Y-53335990D02*
X194607859Y-53297895D01*
X194607859Y-53297895D02*
X194531668Y-53297895D01*
X194531668Y-53297895D02*
X194417383Y-53335990D01*
X194417383Y-53335990D02*
X194379287Y-53374085D01*
X194074526Y-53374085D02*
X194036430Y-53335990D01*
X194036430Y-53335990D02*
X193960240Y-53297895D01*
X193960240Y-53297895D02*
X193769764Y-53297895D01*
X193769764Y-53297895D02*
X193693573Y-53335990D01*
X193693573Y-53335990D02*
X193655478Y-53374085D01*
X193655478Y-53374085D02*
X193617383Y-53450276D01*
X193617383Y-53450276D02*
X193617383Y-53526466D01*
X193617383Y-53526466D02*
X193655478Y-53640752D01*
X193655478Y-53640752D02*
X194112621Y-54097895D01*
X194112621Y-54097895D02*
X193617383Y-54097895D01*
X198529982Y-51247219D02*
X198529982Y-50247219D01*
X198529982Y-50247219D02*
X198291887Y-50247219D01*
X198291887Y-50247219D02*
X198149030Y-50294838D01*
X198149030Y-50294838D02*
X198053792Y-50390076D01*
X198053792Y-50390076D02*
X198006173Y-50485314D01*
X198006173Y-50485314D02*
X197958554Y-50675790D01*
X197958554Y-50675790D02*
X197958554Y-50818647D01*
X197958554Y-50818647D02*
X198006173Y-51009123D01*
X198006173Y-51009123D02*
X198053792Y-51104361D01*
X198053792Y-51104361D02*
X198149030Y-51199600D01*
X198149030Y-51199600D02*
X198291887Y-51247219D01*
X198291887Y-51247219D02*
X198529982Y-51247219D01*
X197006173Y-51247219D02*
X197577601Y-51247219D01*
X197291887Y-51247219D02*
X197291887Y-50247219D01*
X197291887Y-50247219D02*
X197387125Y-50390076D01*
X197387125Y-50390076D02*
X197482363Y-50485314D01*
X197482363Y-50485314D02*
X197577601Y-50532933D01*
X194935954Y-51272619D02*
X195269287Y-50796428D01*
X195507382Y-51272619D02*
X195507382Y-50272619D01*
X195507382Y-50272619D02*
X195126430Y-50272619D01*
X195126430Y-50272619D02*
X195031192Y-50320238D01*
X195031192Y-50320238D02*
X194983573Y-50367857D01*
X194983573Y-50367857D02*
X194935954Y-50463095D01*
X194935954Y-50463095D02*
X194935954Y-50605952D01*
X194935954Y-50605952D02*
X194983573Y-50701190D01*
X194983573Y-50701190D02*
X195031192Y-50748809D01*
X195031192Y-50748809D02*
X195126430Y-50796428D01*
X195126430Y-50796428D02*
X195507382Y-50796428D01*
X194555001Y-50367857D02*
X194507382Y-50320238D01*
X194507382Y-50320238D02*
X194412144Y-50272619D01*
X194412144Y-50272619D02*
X194174049Y-50272619D01*
X194174049Y-50272619D02*
X194078811Y-50320238D01*
X194078811Y-50320238D02*
X194031192Y-50367857D01*
X194031192Y-50367857D02*
X193983573Y-50463095D01*
X193983573Y-50463095D02*
X193983573Y-50558333D01*
X193983573Y-50558333D02*
X194031192Y-50701190D01*
X194031192Y-50701190D02*
X194602620Y-51272619D01*
X194602620Y-51272619D02*
X193983573Y-51272619D01*
X203383954Y-50670619D02*
X203717287Y-50194428D01*
X203955382Y-50670619D02*
X203955382Y-49670619D01*
X203955382Y-49670619D02*
X203574430Y-49670619D01*
X203574430Y-49670619D02*
X203479192Y-49718238D01*
X203479192Y-49718238D02*
X203431573Y-49765857D01*
X203431573Y-49765857D02*
X203383954Y-49861095D01*
X203383954Y-49861095D02*
X203383954Y-50003952D01*
X203383954Y-50003952D02*
X203431573Y-50099190D01*
X203431573Y-50099190D02*
X203479192Y-50146809D01*
X203479192Y-50146809D02*
X203574430Y-50194428D01*
X203574430Y-50194428D02*
X203955382Y-50194428D01*
X202431573Y-50670619D02*
X203003001Y-50670619D01*
X202717287Y-50670619D02*
X202717287Y-49670619D01*
X202717287Y-49670619D02*
X202812525Y-49813476D01*
X202812525Y-49813476D02*
X202907763Y-49908714D01*
X202907763Y-49908714D02*
X203003001Y-49956333D01*
X197850268Y-56805533D02*
X197897888Y-56757914D01*
X197897888Y-56757914D02*
X197945507Y-56615057D01*
X197945507Y-56615057D02*
X197945507Y-56519819D01*
X197945507Y-56519819D02*
X197897888Y-56376962D01*
X197897888Y-56376962D02*
X197802649Y-56281724D01*
X197802649Y-56281724D02*
X197707411Y-56234105D01*
X197707411Y-56234105D02*
X197516935Y-56186486D01*
X197516935Y-56186486D02*
X197374078Y-56186486D01*
X197374078Y-56186486D02*
X197183602Y-56234105D01*
X197183602Y-56234105D02*
X197088364Y-56281724D01*
X197088364Y-56281724D02*
X196993126Y-56376962D01*
X196993126Y-56376962D02*
X196945507Y-56519819D01*
X196945507Y-56519819D02*
X196945507Y-56615057D01*
X196945507Y-56615057D02*
X196993126Y-56757914D01*
X196993126Y-56757914D02*
X197040745Y-56805533D01*
X197945507Y-57757914D02*
X197945507Y-57186486D01*
X197945507Y-57472200D02*
X196945507Y-57472200D01*
X196945507Y-57472200D02*
X197088364Y-57376962D01*
X197088364Y-57376962D02*
X197183602Y-57281724D01*
X197183602Y-57281724D02*
X197231221Y-57186486D01*
X226682677Y-69212619D02*
X226682677Y-68212619D01*
X226254106Y-69165000D02*
X226111249Y-69212619D01*
X226111249Y-69212619D02*
X225873154Y-69212619D01*
X225873154Y-69212619D02*
X225777916Y-69165000D01*
X225777916Y-69165000D02*
X225730297Y-69117380D01*
X225730297Y-69117380D02*
X225682678Y-69022142D01*
X225682678Y-69022142D02*
X225682678Y-68926904D01*
X225682678Y-68926904D02*
X225730297Y-68831666D01*
X225730297Y-68831666D02*
X225777916Y-68784047D01*
X225777916Y-68784047D02*
X225873154Y-68736428D01*
X225873154Y-68736428D02*
X226063630Y-68688809D01*
X226063630Y-68688809D02*
X226158868Y-68641190D01*
X226158868Y-68641190D02*
X226206487Y-68593571D01*
X226206487Y-68593571D02*
X226254106Y-68498333D01*
X226254106Y-68498333D02*
X226254106Y-68403095D01*
X226254106Y-68403095D02*
X226206487Y-68307857D01*
X226206487Y-68307857D02*
X226158868Y-68260238D01*
X226158868Y-68260238D02*
X226063630Y-68212619D01*
X226063630Y-68212619D02*
X225825535Y-68212619D01*
X225825535Y-68212619D02*
X225682678Y-68260238D01*
X225254106Y-69212619D02*
X225254106Y-68212619D01*
X225254106Y-68212619D02*
X224873154Y-68212619D01*
X224873154Y-68212619D02*
X224777916Y-68260238D01*
X224777916Y-68260238D02*
X224730297Y-68307857D01*
X224730297Y-68307857D02*
X224682678Y-68403095D01*
X224682678Y-68403095D02*
X224682678Y-68545952D01*
X224682678Y-68545952D02*
X224730297Y-68641190D01*
X224730297Y-68641190D02*
X224777916Y-68688809D01*
X224777916Y-68688809D02*
X224873154Y-68736428D01*
X224873154Y-68736428D02*
X225254106Y-68736428D01*
X197672468Y-61352133D02*
X197720088Y-61304514D01*
X197720088Y-61304514D02*
X197767707Y-61161657D01*
X197767707Y-61161657D02*
X197767707Y-61066419D01*
X197767707Y-61066419D02*
X197720088Y-60923562D01*
X197720088Y-60923562D02*
X197624849Y-60828324D01*
X197624849Y-60828324D02*
X197529611Y-60780705D01*
X197529611Y-60780705D02*
X197339135Y-60733086D01*
X197339135Y-60733086D02*
X197196278Y-60733086D01*
X197196278Y-60733086D02*
X197005802Y-60780705D01*
X197005802Y-60780705D02*
X196910564Y-60828324D01*
X196910564Y-60828324D02*
X196815326Y-60923562D01*
X196815326Y-60923562D02*
X196767707Y-61066419D01*
X196767707Y-61066419D02*
X196767707Y-61161657D01*
X196767707Y-61161657D02*
X196815326Y-61304514D01*
X196815326Y-61304514D02*
X196862945Y-61352133D01*
X197101040Y-62209276D02*
X197767707Y-62209276D01*
X196720088Y-61971181D02*
X197434373Y-61733086D01*
X197434373Y-61733086D02*
X197434373Y-62352133D01*
X204468764Y-61598980D02*
X204516383Y-61646600D01*
X204516383Y-61646600D02*
X204659240Y-61694219D01*
X204659240Y-61694219D02*
X204754478Y-61694219D01*
X204754478Y-61694219D02*
X204897335Y-61646600D01*
X204897335Y-61646600D02*
X204992573Y-61551361D01*
X204992573Y-61551361D02*
X205040192Y-61456123D01*
X205040192Y-61456123D02*
X205087811Y-61265647D01*
X205087811Y-61265647D02*
X205087811Y-61122790D01*
X205087811Y-61122790D02*
X205040192Y-60932314D01*
X205040192Y-60932314D02*
X204992573Y-60837076D01*
X204992573Y-60837076D02*
X204897335Y-60741838D01*
X204897335Y-60741838D02*
X204754478Y-60694219D01*
X204754478Y-60694219D02*
X204659240Y-60694219D01*
X204659240Y-60694219D02*
X204516383Y-60741838D01*
X204516383Y-60741838D02*
X204468764Y-60789457D01*
X204040192Y-61694219D02*
X204040192Y-60694219D01*
X204040192Y-60694219D02*
X203659240Y-60694219D01*
X203659240Y-60694219D02*
X203564002Y-60741838D01*
X203564002Y-60741838D02*
X203516383Y-60789457D01*
X203516383Y-60789457D02*
X203468764Y-60884695D01*
X203468764Y-60884695D02*
X203468764Y-61027552D01*
X203468764Y-61027552D02*
X203516383Y-61122790D01*
X203516383Y-61122790D02*
X203564002Y-61170409D01*
X203564002Y-61170409D02*
X203659240Y-61218028D01*
X203659240Y-61218028D02*
X204040192Y-61218028D01*
X203040192Y-60694219D02*
X203040192Y-61503742D01*
X203040192Y-61503742D02*
X202992573Y-61598980D01*
X202992573Y-61598980D02*
X202944954Y-61646600D01*
X202944954Y-61646600D02*
X202849716Y-61694219D01*
X202849716Y-61694219D02*
X202659240Y-61694219D01*
X202659240Y-61694219D02*
X202564002Y-61646600D01*
X202564002Y-61646600D02*
X202516383Y-61598980D01*
X202516383Y-61598980D02*
X202468764Y-61503742D01*
X202468764Y-61503742D02*
X202468764Y-60694219D01*
X201468764Y-61694219D02*
X202040192Y-61694219D01*
X201754478Y-61694219D02*
X201754478Y-60694219D01*
X201754478Y-60694219D02*
X201849716Y-60837076D01*
X201849716Y-60837076D02*
X201944954Y-60932314D01*
X201944954Y-60932314D02*
X202040192Y-60979933D01*
X215789354Y-50473780D02*
X215836973Y-50521400D01*
X215836973Y-50521400D02*
X215979830Y-50569019D01*
X215979830Y-50569019D02*
X216075068Y-50569019D01*
X216075068Y-50569019D02*
X216217925Y-50521400D01*
X216217925Y-50521400D02*
X216313163Y-50426161D01*
X216313163Y-50426161D02*
X216360782Y-50330923D01*
X216360782Y-50330923D02*
X216408401Y-50140447D01*
X216408401Y-50140447D02*
X216408401Y-49997590D01*
X216408401Y-49997590D02*
X216360782Y-49807114D01*
X216360782Y-49807114D02*
X216313163Y-49711876D01*
X216313163Y-49711876D02*
X216217925Y-49616638D01*
X216217925Y-49616638D02*
X216075068Y-49569019D01*
X216075068Y-49569019D02*
X215979830Y-49569019D01*
X215979830Y-49569019D02*
X215836973Y-49616638D01*
X215836973Y-49616638D02*
X215789354Y-49664257D01*
X215456020Y-49569019D02*
X214836973Y-49569019D01*
X214836973Y-49569019D02*
X215170306Y-49949971D01*
X215170306Y-49949971D02*
X215027449Y-49949971D01*
X215027449Y-49949971D02*
X214932211Y-49997590D01*
X214932211Y-49997590D02*
X214884592Y-50045209D01*
X214884592Y-50045209D02*
X214836973Y-50140447D01*
X214836973Y-50140447D02*
X214836973Y-50378542D01*
X214836973Y-50378542D02*
X214884592Y-50473780D01*
X214884592Y-50473780D02*
X214932211Y-50521400D01*
X214932211Y-50521400D02*
X215027449Y-50569019D01*
X215027449Y-50569019D02*
X215313163Y-50569019D01*
X215313163Y-50569019D02*
X215408401Y-50521400D01*
X215408401Y-50521400D02*
X215456020Y-50473780D01*
X223778468Y-60937542D02*
X224254659Y-61270875D01*
X223778468Y-61508970D02*
X224778468Y-61508970D01*
X224778468Y-61508970D02*
X224778468Y-61128018D01*
X224778468Y-61128018D02*
X224730849Y-61032780D01*
X224730849Y-61032780D02*
X224683230Y-60985161D01*
X224683230Y-60985161D02*
X224587992Y-60937542D01*
X224587992Y-60937542D02*
X224445135Y-60937542D01*
X224445135Y-60937542D02*
X224349897Y-60985161D01*
X224349897Y-60985161D02*
X224302278Y-61032780D01*
X224302278Y-61032780D02*
X224254659Y-61128018D01*
X224254659Y-61128018D02*
X224254659Y-61508970D01*
X224064183Y-60556589D02*
X224064183Y-60080399D01*
X223778468Y-60651827D02*
X224778468Y-60318494D01*
X224778468Y-60318494D02*
X223778468Y-59985161D01*
X223778468Y-59651827D02*
X224778468Y-59651827D01*
X224778468Y-59651827D02*
X224778468Y-59413732D01*
X224778468Y-59413732D02*
X224730849Y-59270875D01*
X224730849Y-59270875D02*
X224635611Y-59175637D01*
X224635611Y-59175637D02*
X224540373Y-59128018D01*
X224540373Y-59128018D02*
X224349897Y-59080399D01*
X224349897Y-59080399D02*
X224207040Y-59080399D01*
X224207040Y-59080399D02*
X224016564Y-59128018D01*
X224016564Y-59128018D02*
X223921326Y-59175637D01*
X223921326Y-59175637D02*
X223826088Y-59270875D01*
X223826088Y-59270875D02*
X223778468Y-59413732D01*
X223778468Y-59413732D02*
X223778468Y-59651827D01*
X223778468Y-58651827D02*
X224778468Y-58651827D01*
X224778468Y-57985161D02*
X224778468Y-57794685D01*
X224778468Y-57794685D02*
X224730849Y-57699447D01*
X224730849Y-57699447D02*
X224635611Y-57604209D01*
X224635611Y-57604209D02*
X224445135Y-57556590D01*
X224445135Y-57556590D02*
X224111802Y-57556590D01*
X224111802Y-57556590D02*
X223921326Y-57604209D01*
X223921326Y-57604209D02*
X223826088Y-57699447D01*
X223826088Y-57699447D02*
X223778468Y-57794685D01*
X223778468Y-57794685D02*
X223778468Y-57985161D01*
X223778468Y-57985161D02*
X223826088Y-58080399D01*
X223826088Y-58080399D02*
X223921326Y-58175637D01*
X223921326Y-58175637D02*
X224111802Y-58223256D01*
X224111802Y-58223256D02*
X224445135Y-58223256D01*
X224445135Y-58223256D02*
X224635611Y-58175637D01*
X224635611Y-58175637D02*
X224730849Y-58080399D01*
X224730849Y-58080399D02*
X224778468Y-57985161D01*
X223778468Y-56604209D02*
X223778468Y-57175637D01*
X223778468Y-56889923D02*
X224778468Y-56889923D01*
X224778468Y-56889923D02*
X224635611Y-56985161D01*
X224635611Y-56985161D02*
X224540373Y-57080399D01*
X224540373Y-57080399D02*
X224492754Y-57175637D01*
X210541049Y-53296409D02*
X210398192Y-53344028D01*
X210398192Y-53344028D02*
X210350573Y-53391647D01*
X210350573Y-53391647D02*
X210302954Y-53486885D01*
X210302954Y-53486885D02*
X210302954Y-53629742D01*
X210302954Y-53629742D02*
X210350573Y-53724980D01*
X210350573Y-53724980D02*
X210398192Y-53772600D01*
X210398192Y-53772600D02*
X210493430Y-53820219D01*
X210493430Y-53820219D02*
X210874382Y-53820219D01*
X210874382Y-53820219D02*
X210874382Y-52820219D01*
X210874382Y-52820219D02*
X210541049Y-52820219D01*
X210541049Y-52820219D02*
X210445811Y-52867838D01*
X210445811Y-52867838D02*
X210398192Y-52915457D01*
X210398192Y-52915457D02*
X210350573Y-53010695D01*
X210350573Y-53010695D02*
X210350573Y-53105933D01*
X210350573Y-53105933D02*
X210398192Y-53201171D01*
X210398192Y-53201171D02*
X210445811Y-53248790D01*
X210445811Y-53248790D02*
X210541049Y-53296409D01*
X210541049Y-53296409D02*
X210874382Y-53296409D01*
X209969620Y-52820219D02*
X209350573Y-52820219D01*
X209350573Y-52820219D02*
X209683906Y-53201171D01*
X209683906Y-53201171D02*
X209541049Y-53201171D01*
X209541049Y-53201171D02*
X209445811Y-53248790D01*
X209445811Y-53248790D02*
X209398192Y-53296409D01*
X209398192Y-53296409D02*
X209350573Y-53391647D01*
X209350573Y-53391647D02*
X209350573Y-53629742D01*
X209350573Y-53629742D02*
X209398192Y-53724980D01*
X209398192Y-53724980D02*
X209445811Y-53772600D01*
X209445811Y-53772600D02*
X209541049Y-53820219D01*
X209541049Y-53820219D02*
X209826763Y-53820219D01*
X209826763Y-53820219D02*
X209922001Y-53772600D01*
X209922001Y-53772600D02*
X209969620Y-53724980D01*
X242514735Y-52366104D02*
X242038545Y-52366104D01*
X242609973Y-52651819D02*
X242276640Y-51651819D01*
X242276640Y-51651819D02*
X241943307Y-52651819D01*
X241609973Y-52651819D02*
X241609973Y-51651819D01*
X241609973Y-51651819D02*
X241038545Y-52651819D01*
X241038545Y-52651819D02*
X241038545Y-51651819D01*
X240705211Y-51651819D02*
X240133783Y-51651819D01*
X240419497Y-52651819D02*
X240419497Y-51651819D01*
X239276640Y-52651819D02*
X239848068Y-52651819D01*
X239562354Y-52651819D02*
X239562354Y-51651819D01*
X239562354Y-51651819D02*
X239657592Y-51794676D01*
X239657592Y-51794676D02*
X239752830Y-51889914D01*
X239752830Y-51889914D02*
X239848068Y-51937533D01*
D12*
G04 #@! TO.C,D1*
X196991888Y-51487400D02*
X199276888Y-51487400D01*
X199276888Y-52957400D02*
X196991888Y-52957400D01*
X199276888Y-51487400D02*
X199276888Y-52957400D01*
G04 #@! TO.C,R2*
X195006546Y-52770300D02*
X194532030Y-52770300D01*
X195006546Y-51725300D02*
X194532030Y-51725300D01*
G04 #@! TO.C,R1*
X203454546Y-50937900D02*
X202980030Y-50937900D01*
X203454546Y-51982900D02*
X202980030Y-51982900D01*
G04 #@! TO.C,C1*
X196545688Y-57233452D02*
X196545688Y-56710948D01*
X195075688Y-57233452D02*
X195075688Y-56710948D01*
G04 #@! TO.C,C4*
X194897888Y-61780052D02*
X194897888Y-61257548D01*
X196367888Y-61780052D02*
X196367888Y-61257548D01*
G04 #@! TO.C,CPU1*
X199668288Y-57629400D02*
X199668288Y-57904400D01*
X199668288Y-64849400D02*
X199668288Y-64574400D01*
X199943288Y-57629400D02*
X199668288Y-57629400D01*
X199943288Y-64849400D02*
X199668288Y-64849400D01*
X206613288Y-57629400D02*
X206888288Y-57629400D01*
X206613288Y-64849400D02*
X206888288Y-64849400D01*
X206888288Y-57629400D02*
X206888288Y-57904400D01*
X206888288Y-64849400D02*
X206888288Y-64574400D01*
X207478288Y-57904400D02*
X207138288Y-57434400D01*
X207818288Y-57434400D01*
X207478288Y-57904400D01*
G36*
X207478288Y-57904400D02*
G01*
X207138288Y-57434400D01*
X207818288Y-57434400D01*
X207478288Y-57904400D01*
G37*
G04 #@! TO.C,C3*
X213521740Y-50623800D02*
X212999236Y-50623800D01*
X213521740Y-52093800D02*
X212999236Y-52093800D01*
D13*
G04 #@! TO.C,RADIO1*
X216105288Y-50952400D02*
X216519549Y-50952400D01*
X216105288Y-67208400D02*
X216105288Y-50952400D01*
X216519547Y-67208400D02*
X216105288Y-67208400D01*
X217947029Y-50952400D02*
X218519548Y-50952400D01*
X218519548Y-67208400D02*
X217947027Y-67208400D01*
X219947028Y-50952400D02*
X220519549Y-50952400D01*
X220519549Y-67208400D02*
X219947028Y-67208400D01*
X221947029Y-50952400D02*
X222519547Y-50952400D01*
X222519547Y-67208400D02*
X221947029Y-67208400D01*
X223947027Y-50952400D02*
X224519549Y-50952400D01*
X224519549Y-67208400D02*
X223947027Y-67208400D01*
X225947029Y-50952400D02*
X226519547Y-50952400D01*
X226519547Y-67208400D02*
X225947029Y-67208400D01*
X227947027Y-50952400D02*
X228519548Y-50952400D01*
X228519548Y-67208400D02*
X227947027Y-67208400D01*
X229947028Y-50952400D02*
X230519549Y-50952400D01*
X230519547Y-67208400D02*
X229947028Y-67208400D01*
X231947029Y-50952400D02*
X232361288Y-50952400D01*
X232361288Y-50952400D02*
X232361288Y-67208400D01*
X232361288Y-67208400D02*
X231947027Y-67208400D01*
X231334888Y-69437000D02*
G75*
G02*
X231131688Y-69437000I-101600J0D01*
G01*
X231131688Y-69437000D02*
G75*
G02*
X231334888Y-69437000I101600J0D01*
G01*
D14*
G04 #@! TO.C,B3*
X208763288Y-54020400D02*
X211763288Y-54020400D01*
X208763288Y-56520400D02*
X211763288Y-56520400D01*
D10*
X207663288Y-55470400D02*
G75*
G02*
X207463288Y-55470400I-100000J0D01*
G01*
X207463288Y-55470400D02*
G75*
G02*
X207663288Y-55470400I100000J0D01*
G01*
D13*
G04 #@! TO.C,ANT1*
X239196638Y-53378100D02*
X240194438Y-53378100D01*
X240194438Y-55638700D02*
X239196638Y-55638700D01*
X241800138Y-53378100D02*
X242797938Y-53378100D01*
X242797938Y-55638700D02*
X241800138Y-55638700D01*
D15*
X244044161Y-56187692D02*
G75*
G02*
X243671497Y-56187692I-186332J0D01*
G01*
X243671497Y-56187692D02*
G75*
G02*
X244044161Y-56187692I186332J0D01*
G01*
D14*
G04 #@! TO.C,Y1*
X211772288Y-59733400D02*
X213072288Y-59733400D01*
X211772288Y-63173400D02*
X213072288Y-63173400D01*
D10*
X212522288Y-59233400D02*
G75*
G02*
X212322288Y-59233400I-100000J0D01*
G01*
X212322288Y-59233400D02*
G75*
G02*
X212522288Y-59233400I100000J0D01*
G01*
G04 #@! TD*
%LPC*%
D16*
G04 #@! TO.C,D1*
X197004388Y-52222400D03*
X198579388Y-52222400D03*
G04 #@! TD*
D17*
G04 #@! TO.C,R2*
X193944288Y-52247800D03*
X195594288Y-52247800D03*
G04 #@! TD*
G04 #@! TO.C,R1*
X204042288Y-51460400D03*
X202392288Y-51460400D03*
G04 #@! TD*
D18*
G04 #@! TO.C,C1*
X195810688Y-57922200D03*
X195810688Y-56022200D03*
G04 #@! TD*
D19*
G04 #@! TO.C,ISP1*
X223344288Y-70637400D03*
D20*
X223344288Y-73177400D03*
X225884288Y-70637400D03*
X225884288Y-73177400D03*
X228424288Y-70637400D03*
X228424288Y-73177400D03*
G04 #@! TD*
D18*
G04 #@! TO.C,C4*
X195632888Y-62468800D03*
X195632888Y-60568800D03*
G04 #@! TD*
D21*
G04 #@! TO.C,CPU1*
X207440788Y-58439400D03*
X207440788Y-59239400D03*
X207440788Y-60039400D03*
X207440788Y-60839400D03*
X207440788Y-61639400D03*
X207440788Y-62439400D03*
X207440788Y-63239400D03*
X207440788Y-64039400D03*
D22*
X206078288Y-65401900D03*
X205278288Y-65401900D03*
X204478288Y-65401900D03*
X203678288Y-65401900D03*
X202878288Y-65401900D03*
X202078288Y-65401900D03*
X201278288Y-65401900D03*
X200478288Y-65401900D03*
D21*
X199115788Y-64039400D03*
X199115788Y-63239400D03*
X199115788Y-62439400D03*
X199115788Y-61639400D03*
X199115788Y-60839400D03*
X199115788Y-60039400D03*
X199115788Y-59239400D03*
X199115788Y-58439400D03*
D22*
X200478288Y-57076900D03*
X201278288Y-57076900D03*
X202078288Y-57076900D03*
X202878288Y-57076900D03*
X203678288Y-57076900D03*
X204478288Y-57076900D03*
X205278288Y-57076900D03*
X206078288Y-57076900D03*
G04 #@! TD*
D23*
G04 #@! TO.C,C3*
X214210488Y-51358800D03*
X212310488Y-51358800D03*
G04 #@! TD*
D24*
G04 #@! TO.C,RADIO1*
X231233287Y-66433700D03*
X229233288Y-66433700D03*
X227233287Y-66433700D03*
X225233289Y-66433700D03*
X223233287Y-66433700D03*
X221233289Y-66433700D03*
X219233288Y-66433700D03*
X217233287Y-66433700D03*
X217233289Y-51727100D03*
X219233288Y-51727100D03*
X221233289Y-51727100D03*
X223233287Y-51727100D03*
X225233289Y-51727100D03*
X227233287Y-51727100D03*
X229233288Y-51727100D03*
X231233289Y-51727100D03*
G04 #@! TD*
D25*
G04 #@! TO.C,B3*
X208563288Y-55270400D03*
X211963288Y-55270400D03*
G04 #@! TD*
D26*
G04 #@! TO.C,ANT1*
X243600788Y-54508400D03*
X240997288Y-54508400D03*
X238393788Y-54508400D03*
G04 #@! TD*
D27*
G04 #@! TO.C,Y1*
X212422288Y-60253400D03*
X212422288Y-61453400D03*
X212422288Y-62653400D03*
G04 #@! TD*
%LPD*%
M02*
