M48
; DRILL file {KiCad 9.0.3} date 2025-08-06T08:50:20-0400
; FORMAT={-:-/ absolute / metric / decimal}
; #@! TF.CreationDate,2025-08-06T08:50:20-04:00
; #@! TF.GenerationSoftware,Kicad,Pcbnew,9.0.3
; #@! TF.FileFunction,MixedPlating,1,2
FMAT,2
METRIC
; #@! TA.AperFunction,Plated,PTH,ViaDrill
T1C0.302
; #@! TA.AperFunction,Plated,PTH,ComponentDrill
T2C1.000
%
G90
G05
T1
X190.451Y-59.588
X190.451Y-60.35
X190.451Y-67.335
X190.451Y-67.97
X192.61Y-59.715
X192.737Y-58.445
X197.436Y-54.381
X202.897Y-52.857
X209.628Y-57.683
X211.279Y-68.351
X213.184Y-69.875
X213.946Y-54.635
X213.946Y-67.716
X214.073Y-73.177
X214.2Y-55.778
X215.216Y-59.588
X215.216Y-62.636
X215.343Y-68.986
X215.47Y-64.922
X216.766Y-63.144
X217.121Y-73.812
X217.248Y-68.478
X219.102Y-54.305
X219.153Y-53.365
X222.608Y-53.645
X226.062Y-54.0
X226.824Y-60.3
X227.535Y-53.95
X231.091Y-70.002
X233.758Y-53.492
X234.012Y-71.399
X240.896Y-59.944
T2
X223.344Y-70.637
X223.344Y-73.177
X225.884Y-70.637
X225.884Y-73.177
X228.424Y-70.637
X228.424Y-73.177
M30
