M48
METRIC,TZ
T1C0.302
T2C1.000
%
G90
G05
T1
X190451Y-59588
X190451Y-60350
X190451Y-67335
X190451Y-67970
X192636Y-68834
X192737Y-58445
X192940Y-53594
X192940Y-55423
X193042Y-60096
X193499Y-69545
X194261Y-70358
X196598Y-50800
X198935Y-50749
X200967Y-50800
X201780Y-53340
X202745Y-54254
X203100Y-52934
X204878Y-54000
X205894Y-51460
X207063Y-54000
X207622Y-51410
X209628Y-57683
X211279Y-68351
X211686Y-59131
X212600Y-72492
X212993Y-58471
X213184Y-69875
X213464Y-72492
X213667Y-56413
X213946Y-54635
X214988Y-72542
X215216Y-59588
X215216Y-62636
X215343Y-68986
X215470Y-64922
X216766Y-63144
X217121Y-73812
X217248Y-68478
X218036Y-72492
X219102Y-54305
X219153Y-53365
X220118Y-72492
X221439Y-72542
X223268Y-53594
X226062Y-54000
X226824Y-60300
X227535Y-53950
X231091Y-70002
X231599Y-74117
X233758Y-53492
X234012Y-71399
X235054Y-69596
X235714Y-70714
X240896Y-59944
T2
X223344Y-70637
X223344Y-73177
X225884Y-70637
X225884Y-73177
X228424Y-70637
X228424Y-73177
M30
