%TF.GenerationSoftware,KiCad,Pcbnew,9.0.3*%
%TF.CreationDate,2025-08-06T08:50:17-04:00*%
%TF.ProjectId,remote,72656d6f-7465-42e6-9b69-6361645f7063,rev?*%
%TF.SameCoordinates,Original*%
%TF.FileFunction,Legend,Bot*%
%TF.FilePolarity,Positive*%
%FSLAX46Y46*%
G04 Gerber Fmt 4.6, Leading zero omitted, Abs format (unit mm)*
G04 Created by KiCad (PCBNEW 9.0.3) date 2025-08-06 08:50:17*
%MOMM*%
%LPD*%
G01*
G04 APERTURE LIST*
%ADD10C,0.200000*%
%ADD11C,0.150000*%
%ADD12C,0.127000*%
%ADD13C,0.120000*%
%ADD14C,0.152400*%
G04 APERTURE END LIST*
D10*
X224625614Y-69107619D02*
X224625614Y-68107619D01*
X224625614Y-68107619D02*
X224292281Y-68821904D01*
X224292281Y-68821904D02*
X223958948Y-68107619D01*
X223958948Y-68107619D02*
X223958948Y-69107619D01*
X223482757Y-69107619D02*
X223482757Y-68107619D01*
X223054186Y-69060000D02*
X222911329Y-69107619D01*
X222911329Y-69107619D02*
X222673234Y-69107619D01*
X222673234Y-69107619D02*
X222577996Y-69060000D01*
X222577996Y-69060000D02*
X222530377Y-69012380D01*
X222530377Y-69012380D02*
X222482758Y-68917142D01*
X222482758Y-68917142D02*
X222482758Y-68821904D01*
X222482758Y-68821904D02*
X222530377Y-68726666D01*
X222530377Y-68726666D02*
X222577996Y-68679047D01*
X222577996Y-68679047D02*
X222673234Y-68631428D01*
X222673234Y-68631428D02*
X222863710Y-68583809D01*
X222863710Y-68583809D02*
X222958948Y-68536190D01*
X222958948Y-68536190D02*
X223006567Y-68488571D01*
X223006567Y-68488571D02*
X223054186Y-68393333D01*
X223054186Y-68393333D02*
X223054186Y-68298095D01*
X223054186Y-68298095D02*
X223006567Y-68202857D01*
X223006567Y-68202857D02*
X222958948Y-68155238D01*
X222958948Y-68155238D02*
X222863710Y-68107619D01*
X222863710Y-68107619D02*
X222625615Y-68107619D01*
X222625615Y-68107619D02*
X222482758Y-68155238D01*
X221863710Y-68107619D02*
X221673234Y-68107619D01*
X221673234Y-68107619D02*
X221577996Y-68155238D01*
X221577996Y-68155238D02*
X221482758Y-68250476D01*
X221482758Y-68250476D02*
X221435139Y-68440952D01*
X221435139Y-68440952D02*
X221435139Y-68774285D01*
X221435139Y-68774285D02*
X221482758Y-68964761D01*
X221482758Y-68964761D02*
X221577996Y-69060000D01*
X221577996Y-69060000D02*
X221673234Y-69107619D01*
X221673234Y-69107619D02*
X221863710Y-69107619D01*
X221863710Y-69107619D02*
X221958948Y-69060000D01*
X221958948Y-69060000D02*
X222054186Y-68964761D01*
X222054186Y-68964761D02*
X222101805Y-68774285D01*
X222101805Y-68774285D02*
X222101805Y-68440952D01*
X222101805Y-68440952D02*
X222054186Y-68250476D01*
X222054186Y-68250476D02*
X221958948Y-68155238D01*
X221958948Y-68155238D02*
X221863710Y-68107619D01*
D11*
X231649107Y-70931210D02*
X230649107Y-70931210D01*
X231601488Y-71359781D02*
X231649107Y-71502638D01*
X231649107Y-71502638D02*
X231649107Y-71740733D01*
X231649107Y-71740733D02*
X231601488Y-71835971D01*
X231601488Y-71835971D02*
X231553868Y-71883590D01*
X231553868Y-71883590D02*
X231458630Y-71931209D01*
X231458630Y-71931209D02*
X231363392Y-71931209D01*
X231363392Y-71931209D02*
X231268154Y-71883590D01*
X231268154Y-71883590D02*
X231220535Y-71835971D01*
X231220535Y-71835971D02*
X231172916Y-71740733D01*
X231172916Y-71740733D02*
X231125297Y-71550257D01*
X231125297Y-71550257D02*
X231077678Y-71455019D01*
X231077678Y-71455019D02*
X231030059Y-71407400D01*
X231030059Y-71407400D02*
X230934821Y-71359781D01*
X230934821Y-71359781D02*
X230839583Y-71359781D01*
X230839583Y-71359781D02*
X230744345Y-71407400D01*
X230744345Y-71407400D02*
X230696726Y-71455019D01*
X230696726Y-71455019D02*
X230649107Y-71550257D01*
X230649107Y-71550257D02*
X230649107Y-71788352D01*
X230649107Y-71788352D02*
X230696726Y-71931209D01*
X231649107Y-72359781D02*
X230649107Y-72359781D01*
X230649107Y-72359781D02*
X230649107Y-72740733D01*
X230649107Y-72740733D02*
X230696726Y-72835971D01*
X230696726Y-72835971D02*
X230744345Y-72883590D01*
X230744345Y-72883590D02*
X230839583Y-72931209D01*
X230839583Y-72931209D02*
X230982440Y-72931209D01*
X230982440Y-72931209D02*
X231077678Y-72883590D01*
X231077678Y-72883590D02*
X231125297Y-72835971D01*
X231125297Y-72835971D02*
X231172916Y-72740733D01*
X231172916Y-72740733D02*
X231172916Y-72359781D01*
X208873525Y-67258504D02*
X208397335Y-67258504D01*
X208968763Y-67544219D02*
X208635430Y-66544219D01*
X208635430Y-66544219D02*
X208302097Y-67544219D01*
X208111620Y-66544219D02*
X207540192Y-66544219D01*
X207825906Y-67544219D02*
X207825906Y-66544219D01*
X207206858Y-67544219D02*
X207206858Y-66877552D01*
X207206858Y-66972790D02*
X207159239Y-66925171D01*
X207159239Y-66925171D02*
X207064001Y-66877552D01*
X207064001Y-66877552D02*
X206921144Y-66877552D01*
X206921144Y-66877552D02*
X206825906Y-66925171D01*
X206825906Y-66925171D02*
X206778287Y-67020409D01*
X206778287Y-67020409D02*
X206778287Y-67544219D01*
X206778287Y-67020409D02*
X206730668Y-66925171D01*
X206730668Y-66925171D02*
X206635430Y-66877552D01*
X206635430Y-66877552D02*
X206492573Y-66877552D01*
X206492573Y-66877552D02*
X206397334Y-66925171D01*
X206397334Y-66925171D02*
X206349715Y-67020409D01*
X206349715Y-67020409D02*
X206349715Y-67544219D01*
X205492573Y-67496600D02*
X205587811Y-67544219D01*
X205587811Y-67544219D02*
X205778287Y-67544219D01*
X205778287Y-67544219D02*
X205873525Y-67496600D01*
X205873525Y-67496600D02*
X205921144Y-67401361D01*
X205921144Y-67401361D02*
X205921144Y-67020409D01*
X205921144Y-67020409D02*
X205873525Y-66925171D01*
X205873525Y-66925171D02*
X205778287Y-66877552D01*
X205778287Y-66877552D02*
X205587811Y-66877552D01*
X205587811Y-66877552D02*
X205492573Y-66925171D01*
X205492573Y-66925171D02*
X205444954Y-67020409D01*
X205444954Y-67020409D02*
X205444954Y-67115647D01*
X205444954Y-67115647D02*
X205921144Y-67210885D01*
X204587811Y-66877552D02*
X204587811Y-67687076D01*
X204587811Y-67687076D02*
X204635430Y-67782314D01*
X204635430Y-67782314D02*
X204683049Y-67829933D01*
X204683049Y-67829933D02*
X204778287Y-67877552D01*
X204778287Y-67877552D02*
X204921144Y-67877552D01*
X204921144Y-67877552D02*
X205016382Y-67829933D01*
X204587811Y-67496600D02*
X204683049Y-67544219D01*
X204683049Y-67544219D02*
X204873525Y-67544219D01*
X204873525Y-67544219D02*
X204968763Y-67496600D01*
X204968763Y-67496600D02*
X205016382Y-67448980D01*
X205016382Y-67448980D02*
X205064001Y-67353742D01*
X205064001Y-67353742D02*
X205064001Y-67068028D01*
X205064001Y-67068028D02*
X205016382Y-66972790D01*
X205016382Y-66972790D02*
X204968763Y-66925171D01*
X204968763Y-66925171D02*
X204873525Y-66877552D01*
X204873525Y-66877552D02*
X204683049Y-66877552D01*
X204683049Y-66877552D02*
X204587811Y-66925171D01*
X203683049Y-67544219D02*
X203683049Y-67020409D01*
X203683049Y-67020409D02*
X203730668Y-66925171D01*
X203730668Y-66925171D02*
X203825906Y-66877552D01*
X203825906Y-66877552D02*
X204016382Y-66877552D01*
X204016382Y-66877552D02*
X204111620Y-66925171D01*
X203683049Y-67496600D02*
X203778287Y-67544219D01*
X203778287Y-67544219D02*
X204016382Y-67544219D01*
X204016382Y-67544219D02*
X204111620Y-67496600D01*
X204111620Y-67496600D02*
X204159239Y-67401361D01*
X204159239Y-67401361D02*
X204159239Y-67306123D01*
X204159239Y-67306123D02*
X204111620Y-67210885D01*
X204111620Y-67210885D02*
X204016382Y-67163266D01*
X204016382Y-67163266D02*
X203778287Y-67163266D01*
X203778287Y-67163266D02*
X203683049Y-67115647D01*
X203302096Y-66544219D02*
X202683049Y-66544219D01*
X202683049Y-66544219D02*
X203016382Y-66925171D01*
X203016382Y-66925171D02*
X202873525Y-66925171D01*
X202873525Y-66925171D02*
X202778287Y-66972790D01*
X202778287Y-66972790D02*
X202730668Y-67020409D01*
X202730668Y-67020409D02*
X202683049Y-67115647D01*
X202683049Y-67115647D02*
X202683049Y-67353742D01*
X202683049Y-67353742D02*
X202730668Y-67448980D01*
X202730668Y-67448980D02*
X202778287Y-67496600D01*
X202778287Y-67496600D02*
X202873525Y-67544219D01*
X202873525Y-67544219D02*
X203159239Y-67544219D01*
X203159239Y-67544219D02*
X203254477Y-67496600D01*
X203254477Y-67496600D02*
X203302096Y-67448980D01*
X202302096Y-66639457D02*
X202254477Y-66591838D01*
X202254477Y-66591838D02*
X202159239Y-66544219D01*
X202159239Y-66544219D02*
X201921144Y-66544219D01*
X201921144Y-66544219D02*
X201825906Y-66591838D01*
X201825906Y-66591838D02*
X201778287Y-66639457D01*
X201778287Y-66639457D02*
X201730668Y-66734695D01*
X201730668Y-66734695D02*
X201730668Y-66829933D01*
X201730668Y-66829933D02*
X201778287Y-66972790D01*
X201778287Y-66972790D02*
X202349715Y-67544219D01*
X202349715Y-67544219D02*
X201730668Y-67544219D01*
X201159239Y-66972790D02*
X201254477Y-66925171D01*
X201254477Y-66925171D02*
X201302096Y-66877552D01*
X201302096Y-66877552D02*
X201349715Y-66782314D01*
X201349715Y-66782314D02*
X201349715Y-66734695D01*
X201349715Y-66734695D02*
X201302096Y-66639457D01*
X201302096Y-66639457D02*
X201254477Y-66591838D01*
X201254477Y-66591838D02*
X201159239Y-66544219D01*
X201159239Y-66544219D02*
X200968763Y-66544219D01*
X200968763Y-66544219D02*
X200873525Y-66591838D01*
X200873525Y-66591838D02*
X200825906Y-66639457D01*
X200825906Y-66639457D02*
X200778287Y-66734695D01*
X200778287Y-66734695D02*
X200778287Y-66782314D01*
X200778287Y-66782314D02*
X200825906Y-66877552D01*
X200825906Y-66877552D02*
X200873525Y-66925171D01*
X200873525Y-66925171D02*
X200968763Y-66972790D01*
X200968763Y-66972790D02*
X201159239Y-66972790D01*
X201159239Y-66972790D02*
X201254477Y-67020409D01*
X201254477Y-67020409D02*
X201302096Y-67068028D01*
X201302096Y-67068028D02*
X201349715Y-67163266D01*
X201349715Y-67163266D02*
X201349715Y-67353742D01*
X201349715Y-67353742D02*
X201302096Y-67448980D01*
X201302096Y-67448980D02*
X201254477Y-67496600D01*
X201254477Y-67496600D02*
X201159239Y-67544219D01*
X201159239Y-67544219D02*
X200968763Y-67544219D01*
X200968763Y-67544219D02*
X200873525Y-67496600D01*
X200873525Y-67496600D02*
X200825906Y-67448980D01*
X200825906Y-67448980D02*
X200778287Y-67353742D01*
X200778287Y-67353742D02*
X200778287Y-67163266D01*
X200778287Y-67163266D02*
X200825906Y-67068028D01*
X200825906Y-67068028D02*
X200873525Y-67020409D01*
X200873525Y-67020409D02*
X200968763Y-66972790D01*
X200349715Y-67544219D02*
X200349715Y-66544219D01*
X200349715Y-66544219D02*
X199968763Y-66544219D01*
X199968763Y-66544219D02*
X199873525Y-66591838D01*
X199873525Y-66591838D02*
X199825906Y-66639457D01*
X199825906Y-66639457D02*
X199778287Y-66734695D01*
X199778287Y-66734695D02*
X199778287Y-66877552D01*
X199778287Y-66877552D02*
X199825906Y-66972790D01*
X199825906Y-66972790D02*
X199873525Y-67020409D01*
X199873525Y-67020409D02*
X199968763Y-67068028D01*
X199968763Y-67068028D02*
X200349715Y-67068028D01*
X199349715Y-67163266D02*
X198587811Y-67163266D01*
X198159239Y-67258504D02*
X197683049Y-67258504D01*
X198254477Y-67544219D02*
X197921144Y-66544219D01*
X197921144Y-66544219D02*
X197587811Y-67544219D01*
X214736068Y-66882114D02*
X215212259Y-67215447D01*
X214736068Y-67453542D02*
X215736068Y-67453542D01*
X215736068Y-67453542D02*
X215736068Y-67072590D01*
X215736068Y-67072590D02*
X215688449Y-66977352D01*
X215688449Y-66977352D02*
X215640830Y-66929733D01*
X215640830Y-66929733D02*
X215545592Y-66882114D01*
X215545592Y-66882114D02*
X215402735Y-66882114D01*
X215402735Y-66882114D02*
X215307497Y-66929733D01*
X215307497Y-66929733D02*
X215259878Y-66977352D01*
X215259878Y-66977352D02*
X215212259Y-67072590D01*
X215212259Y-67072590D02*
X215212259Y-67453542D01*
X215259878Y-66120209D02*
X215259878Y-66453542D01*
X214736068Y-66453542D02*
X215736068Y-66453542D01*
X215736068Y-66453542D02*
X215736068Y-65977352D01*
X214736068Y-65596399D02*
X215736068Y-65596399D01*
X215736068Y-65596399D02*
X215021783Y-65263066D01*
X215021783Y-65263066D02*
X215736068Y-64929733D01*
X215736068Y-64929733D02*
X214736068Y-64929733D01*
X215736068Y-64024971D02*
X215736068Y-64215447D01*
X215736068Y-64215447D02*
X215688449Y-64310685D01*
X215688449Y-64310685D02*
X215640830Y-64358304D01*
X215640830Y-64358304D02*
X215497973Y-64453542D01*
X215497973Y-64453542D02*
X215307497Y-64501161D01*
X215307497Y-64501161D02*
X214926545Y-64501161D01*
X214926545Y-64501161D02*
X214831307Y-64453542D01*
X214831307Y-64453542D02*
X214783688Y-64405923D01*
X214783688Y-64405923D02*
X214736068Y-64310685D01*
X214736068Y-64310685D02*
X214736068Y-64120209D01*
X214736068Y-64120209D02*
X214783688Y-64024971D01*
X214783688Y-64024971D02*
X214831307Y-63977352D01*
X214831307Y-63977352D02*
X214926545Y-63929733D01*
X214926545Y-63929733D02*
X215164640Y-63929733D01*
X215164640Y-63929733D02*
X215259878Y-63977352D01*
X215259878Y-63977352D02*
X215307497Y-64024971D01*
X215307497Y-64024971D02*
X215355116Y-64120209D01*
X215355116Y-64120209D02*
X215355116Y-64310685D01*
X215355116Y-64310685D02*
X215307497Y-64405923D01*
X215307497Y-64405923D02*
X215259878Y-64453542D01*
X215259878Y-64453542D02*
X215164640Y-64501161D01*
X214736068Y-63453542D02*
X214736068Y-63263066D01*
X214736068Y-63263066D02*
X214783688Y-63167828D01*
X214783688Y-63167828D02*
X214831307Y-63120209D01*
X214831307Y-63120209D02*
X214974164Y-63024971D01*
X214974164Y-63024971D02*
X215164640Y-62977352D01*
X215164640Y-62977352D02*
X215545592Y-62977352D01*
X215545592Y-62977352D02*
X215640830Y-63024971D01*
X215640830Y-63024971D02*
X215688449Y-63072590D01*
X215688449Y-63072590D02*
X215736068Y-63167828D01*
X215736068Y-63167828D02*
X215736068Y-63358304D01*
X215736068Y-63358304D02*
X215688449Y-63453542D01*
X215688449Y-63453542D02*
X215640830Y-63501161D01*
X215640830Y-63501161D02*
X215545592Y-63548780D01*
X215545592Y-63548780D02*
X215307497Y-63548780D01*
X215307497Y-63548780D02*
X215212259Y-63501161D01*
X215212259Y-63501161D02*
X215164640Y-63453542D01*
X215164640Y-63453542D02*
X215117021Y-63358304D01*
X215117021Y-63358304D02*
X215117021Y-63167828D01*
X215117021Y-63167828D02*
X215164640Y-63072590D01*
X215164640Y-63072590D02*
X215212259Y-63024971D01*
X215212259Y-63024971D02*
X215307497Y-62977352D01*
X214736068Y-62548780D02*
X215736068Y-62548780D01*
X215259878Y-62548780D02*
X215259878Y-61977352D01*
X214736068Y-61977352D02*
X215736068Y-61977352D01*
X214831307Y-60929733D02*
X214783688Y-60977352D01*
X214783688Y-60977352D02*
X214736068Y-61120209D01*
X214736068Y-61120209D02*
X214736068Y-61215447D01*
X214736068Y-61215447D02*
X214783688Y-61358304D01*
X214783688Y-61358304D02*
X214878926Y-61453542D01*
X214878926Y-61453542D02*
X214974164Y-61501161D01*
X214974164Y-61501161D02*
X215164640Y-61548780D01*
X215164640Y-61548780D02*
X215307497Y-61548780D01*
X215307497Y-61548780D02*
X215497973Y-61501161D01*
X215497973Y-61501161D02*
X215593211Y-61453542D01*
X215593211Y-61453542D02*
X215688449Y-61358304D01*
X215688449Y-61358304D02*
X215736068Y-61215447D01*
X215736068Y-61215447D02*
X215736068Y-61120209D01*
X215736068Y-61120209D02*
X215688449Y-60977352D01*
X215688449Y-60977352D02*
X215640830Y-60929733D01*
X215736068Y-60596399D02*
X214736068Y-60358304D01*
X214736068Y-60358304D02*
X215450354Y-60167828D01*
X215450354Y-60167828D02*
X214736068Y-59977352D01*
X214736068Y-59977352D02*
X215736068Y-59739257D01*
X215117021Y-59358304D02*
X215117021Y-58596400D01*
X214736068Y-58072590D02*
X214736068Y-57882114D01*
X214736068Y-57882114D02*
X214783688Y-57786876D01*
X214783688Y-57786876D02*
X214831307Y-57739257D01*
X214831307Y-57739257D02*
X214974164Y-57644019D01*
X214974164Y-57644019D02*
X215164640Y-57596400D01*
X215164640Y-57596400D02*
X215545592Y-57596400D01*
X215545592Y-57596400D02*
X215640830Y-57644019D01*
X215640830Y-57644019D02*
X215688449Y-57691638D01*
X215688449Y-57691638D02*
X215736068Y-57786876D01*
X215736068Y-57786876D02*
X215736068Y-57977352D01*
X215736068Y-57977352D02*
X215688449Y-58072590D01*
X215688449Y-58072590D02*
X215640830Y-58120209D01*
X215640830Y-58120209D02*
X215545592Y-58167828D01*
X215545592Y-58167828D02*
X215307497Y-58167828D01*
X215307497Y-58167828D02*
X215212259Y-58120209D01*
X215212259Y-58120209D02*
X215164640Y-58072590D01*
X215164640Y-58072590D02*
X215117021Y-57977352D01*
X215117021Y-57977352D02*
X215117021Y-57786876D01*
X215117021Y-57786876D02*
X215164640Y-57691638D01*
X215164640Y-57691638D02*
X215212259Y-57644019D01*
X215212259Y-57644019D02*
X215307497Y-57596400D01*
X214736068Y-56644019D02*
X214736068Y-57215447D01*
X214736068Y-56929733D02*
X215736068Y-56929733D01*
X215736068Y-56929733D02*
X215593211Y-57024971D01*
X215593211Y-57024971D02*
X215497973Y-57120209D01*
X215497973Y-57120209D02*
X215450354Y-57215447D01*
X215736068Y-55739257D02*
X215736068Y-56215447D01*
X215736068Y-56215447D02*
X215259878Y-56263066D01*
X215259878Y-56263066D02*
X215307497Y-56215447D01*
X215307497Y-56215447D02*
X215355116Y-56120209D01*
X215355116Y-56120209D02*
X215355116Y-55882114D01*
X215355116Y-55882114D02*
X215307497Y-55786876D01*
X215307497Y-55786876D02*
X215259878Y-55739257D01*
X215259878Y-55739257D02*
X215164640Y-55691638D01*
X215164640Y-55691638D02*
X214926545Y-55691638D01*
X214926545Y-55691638D02*
X214831307Y-55739257D01*
X214831307Y-55739257D02*
X214783688Y-55786876D01*
X214783688Y-55786876D02*
X214736068Y-55882114D01*
X214736068Y-55882114D02*
X214736068Y-56120209D01*
X214736068Y-56120209D02*
X214783688Y-56215447D01*
X214783688Y-56215447D02*
X214831307Y-56263066D01*
X214736068Y-55263066D02*
X215736068Y-55263066D01*
X215736068Y-55263066D02*
X215021783Y-54929733D01*
X215021783Y-54929733D02*
X215736068Y-54596400D01*
X215736068Y-54596400D02*
X214736068Y-54596400D01*
X214736068Y-54120209D02*
X215736068Y-54120209D01*
X215259878Y-54120209D02*
X215259878Y-53548781D01*
X214736068Y-53548781D02*
X215736068Y-53548781D01*
X215402735Y-53167828D02*
X215402735Y-52644019D01*
X215402735Y-52644019D02*
X214736068Y-53167828D01*
X214736068Y-53167828D02*
X214736068Y-52644019D01*
D10*
%TO.C,Y1*%
X212522288Y-59233400D02*
G75*
G02*
X212322288Y-59233400I-100000J0D01*
G01*
X212322288Y-59233400D02*
G75*
G02*
X212522288Y-59233400I100000J0D01*
G01*
D12*
X211772288Y-59733400D02*
X213072288Y-59733400D01*
X211772288Y-63173400D02*
X213072288Y-63173400D01*
D13*
%TO.C,C4*%
X193983488Y-61932452D02*
X193983488Y-61409948D01*
X195453488Y-61932452D02*
X195453488Y-61409948D01*
%TO.C,CPU1*%
X199668288Y-57629400D02*
X199668288Y-57904400D01*
X199668288Y-64849400D02*
X199668288Y-64574400D01*
X199943288Y-57629400D02*
X199668288Y-57629400D01*
X199943288Y-64849400D02*
X199668288Y-64849400D01*
X206613288Y-57629400D02*
X206888288Y-57629400D01*
X206613288Y-64849400D02*
X206888288Y-64849400D01*
X206888288Y-57629400D02*
X206888288Y-57904400D01*
X206888288Y-64849400D02*
X206888288Y-64574400D01*
X207478288Y-57904400D02*
X207138288Y-57434400D01*
X207818288Y-57434400D01*
X207478288Y-57904400D01*
G36*
X207478288Y-57904400D02*
G01*
X207138288Y-57434400D01*
X207818288Y-57434400D01*
X207478288Y-57904400D01*
G37*
%TO.C,C3*%
X213521740Y-50623800D02*
X212999236Y-50623800D01*
X213521740Y-52093800D02*
X212999236Y-52093800D01*
D14*
%TO.C,RADIO1*%
X216105288Y-50952400D02*
X216519549Y-50952400D01*
X216105288Y-67208400D02*
X216105288Y-50952400D01*
X216519547Y-67208400D02*
X216105288Y-67208400D01*
X217947029Y-50952400D02*
X218519548Y-50952400D01*
X218519548Y-67208400D02*
X217947027Y-67208400D01*
X219947028Y-50952400D02*
X220519549Y-50952400D01*
X220519549Y-67208400D02*
X219947028Y-67208400D01*
X221947029Y-50952400D02*
X222519547Y-50952400D01*
X222519547Y-67208400D02*
X221947029Y-67208400D01*
X223947027Y-50952400D02*
X224519549Y-50952400D01*
X224519549Y-67208400D02*
X223947027Y-67208400D01*
X225947029Y-50952400D02*
X226519547Y-50952400D01*
X226519547Y-67208400D02*
X225947029Y-67208400D01*
X227947027Y-50952400D02*
X228519548Y-50952400D01*
X228519548Y-67208400D02*
X227947027Y-67208400D01*
X229947028Y-50952400D02*
X230519549Y-50952400D01*
X230519547Y-67208400D02*
X229947028Y-67208400D01*
X231947029Y-50952400D02*
X232361288Y-50952400D01*
X232361288Y-50952400D02*
X232361288Y-67208400D01*
X232361288Y-67208400D02*
X231947027Y-67208400D01*
X231334888Y-69437000D02*
G75*
G02*
X231131688Y-69437000I-101600J0D01*
G01*
X231131688Y-69437000D02*
G75*
G02*
X231334888Y-69437000I101600J0D01*
G01*
D12*
%TO.C,B3*%
X208763288Y-54020400D02*
X211763288Y-54020400D01*
X208763288Y-56520400D02*
X211763288Y-56520400D01*
D10*
X207663288Y-55470400D02*
G75*
G02*
X207463288Y-55470400I-100000J0D01*
G01*
X207463288Y-55470400D02*
G75*
G02*
X207663288Y-55470400I100000J0D01*
G01*
D14*
%TO.C,ANT1*%
X239196638Y-53378100D02*
X240194438Y-53378100D01*
X240194438Y-55638700D02*
X239196638Y-55638700D01*
X241800138Y-53378100D02*
X242797938Y-53378100D01*
X242797938Y-55638700D02*
X241800138Y-55638700D01*
%TD*%
%LPC*%
G36*
X223591030Y-72364001D02*
G01*
X223744975Y-72427767D01*
X223883522Y-72520341D01*
X224001347Y-72638166D01*
X224093921Y-72776713D01*
X224157687Y-72930658D01*
X224190195Y-73094085D01*
X224190195Y-73260715D01*
X224157687Y-73424142D01*
X224093921Y-73578087D01*
X224001347Y-73716634D01*
X223883522Y-73834459D01*
X223744975Y-73927033D01*
X223591030Y-73990799D01*
X223427603Y-74023307D01*
X223260973Y-74023307D01*
X223097546Y-73990799D01*
X222943601Y-73927033D01*
X222805054Y-73834459D01*
X222687229Y-73716634D01*
X222594655Y-73578087D01*
X222530889Y-73424142D01*
X222498381Y-73260715D01*
X222498381Y-73094085D01*
X222530889Y-72930658D01*
X222594655Y-72776713D01*
X222687229Y-72638166D01*
X222805054Y-72520341D01*
X222943601Y-72427767D01*
X223097546Y-72364001D01*
X223260973Y-72331493D01*
X223427603Y-72331493D01*
X223591030Y-72364001D01*
G37*
G36*
X226131030Y-72364001D02*
G01*
X226284975Y-72427767D01*
X226423522Y-72520341D01*
X226541347Y-72638166D01*
X226633921Y-72776713D01*
X226697687Y-72930658D01*
X226730195Y-73094085D01*
X226730195Y-73260715D01*
X226697687Y-73424142D01*
X226633921Y-73578087D01*
X226541347Y-73716634D01*
X226423522Y-73834459D01*
X226284975Y-73927033D01*
X226131030Y-73990799D01*
X225967603Y-74023307D01*
X225800973Y-74023307D01*
X225637546Y-73990799D01*
X225483601Y-73927033D01*
X225345054Y-73834459D01*
X225227229Y-73716634D01*
X225134655Y-73578087D01*
X225070889Y-73424142D01*
X225038381Y-73260715D01*
X225038381Y-73094085D01*
X225070889Y-72930658D01*
X225134655Y-72776713D01*
X225227229Y-72638166D01*
X225345054Y-72520341D01*
X225483601Y-72427767D01*
X225637546Y-72364001D01*
X225800973Y-72331493D01*
X225967603Y-72331493D01*
X226131030Y-72364001D01*
G37*
G36*
X228671030Y-72364001D02*
G01*
X228824975Y-72427767D01*
X228963522Y-72520341D01*
X229081347Y-72638166D01*
X229173921Y-72776713D01*
X229237687Y-72930658D01*
X229270195Y-73094085D01*
X229270195Y-73260715D01*
X229237687Y-73424142D01*
X229173921Y-73578087D01*
X229081347Y-73716634D01*
X228963522Y-73834459D01*
X228824975Y-73927033D01*
X228671030Y-73990799D01*
X228507603Y-74023307D01*
X228340973Y-74023307D01*
X228177546Y-73990799D01*
X228023601Y-73927033D01*
X227885054Y-73834459D01*
X227767229Y-73716634D01*
X227674655Y-73578087D01*
X227610889Y-73424142D01*
X227578381Y-73260715D01*
X227578381Y-73094085D01*
X227610889Y-72930658D01*
X227674655Y-72776713D01*
X227767229Y-72638166D01*
X227885054Y-72520341D01*
X228023601Y-72427767D01*
X228177546Y-72364001D01*
X228340973Y-72331493D01*
X228507603Y-72331493D01*
X228671030Y-72364001D01*
G37*
G36*
X224194288Y-71487400D02*
G01*
X222494288Y-71487400D01*
X222494288Y-69787400D01*
X224194288Y-69787400D01*
X224194288Y-71487400D01*
G37*
G36*
X226131030Y-69824001D02*
G01*
X226284975Y-69887767D01*
X226423522Y-69980341D01*
X226541347Y-70098166D01*
X226633921Y-70236713D01*
X226697687Y-70390658D01*
X226730195Y-70554085D01*
X226730195Y-70720715D01*
X226697687Y-70884142D01*
X226633921Y-71038087D01*
X226541347Y-71176634D01*
X226423522Y-71294459D01*
X226284975Y-71387033D01*
X226131030Y-71450799D01*
X225967603Y-71483307D01*
X225800973Y-71483307D01*
X225637546Y-71450799D01*
X225483601Y-71387033D01*
X225345054Y-71294459D01*
X225227229Y-71176634D01*
X225134655Y-71038087D01*
X225070889Y-70884142D01*
X225038381Y-70720715D01*
X225038381Y-70554085D01*
X225070889Y-70390658D01*
X225134655Y-70236713D01*
X225227229Y-70098166D01*
X225345054Y-69980341D01*
X225483601Y-69887767D01*
X225637546Y-69824001D01*
X225800973Y-69791493D01*
X225967603Y-69791493D01*
X226131030Y-69824001D01*
G37*
G36*
X228671030Y-69824001D02*
G01*
X228824975Y-69887767D01*
X228963522Y-69980341D01*
X229081347Y-70098166D01*
X229173921Y-70236713D01*
X229237687Y-70390658D01*
X229270195Y-70554085D01*
X229270195Y-70720715D01*
X229237687Y-70884142D01*
X229173921Y-71038087D01*
X229081347Y-71176634D01*
X228963522Y-71294459D01*
X228824975Y-71387033D01*
X228671030Y-71450799D01*
X228507603Y-71483307D01*
X228340973Y-71483307D01*
X228177546Y-71450799D01*
X228023601Y-71387033D01*
X227885054Y-71294459D01*
X227767229Y-71176634D01*
X227674655Y-71038087D01*
X227610889Y-70884142D01*
X227578381Y-70720715D01*
X227578381Y-70554085D01*
X227610889Y-70390658D01*
X227674655Y-70236713D01*
X227767229Y-70098166D01*
X227885054Y-69980341D01*
X228023601Y-69887767D01*
X228177546Y-69824001D01*
X228340973Y-69791493D01*
X228507603Y-69791493D01*
X228671030Y-69824001D01*
G37*
G36*
X217614287Y-67386200D02*
G01*
X216852287Y-67386200D01*
X216852287Y-65481200D01*
X217614287Y-65481200D01*
X217614287Y-67386200D01*
G37*
G36*
X219614288Y-67386200D02*
G01*
X218852288Y-67386200D01*
X218852288Y-65481200D01*
X219614288Y-65481200D01*
X219614288Y-67386200D01*
G37*
G36*
X221614289Y-67386200D02*
G01*
X220852289Y-67386200D01*
X220852289Y-65481200D01*
X221614289Y-65481200D01*
X221614289Y-67386200D01*
G37*
G36*
X223614287Y-67386200D02*
G01*
X222852287Y-67386200D01*
X222852287Y-65481200D01*
X223614287Y-65481200D01*
X223614287Y-67386200D01*
G37*
G36*
X225614289Y-67386200D02*
G01*
X224852289Y-67386200D01*
X224852289Y-65481200D01*
X225614289Y-65481200D01*
X225614289Y-67386200D01*
G37*
G36*
X227614287Y-67386200D02*
G01*
X226852287Y-67386200D01*
X226852287Y-65481200D01*
X227614287Y-65481200D01*
X227614287Y-67386200D01*
G37*
G36*
X229614288Y-67386200D02*
G01*
X228852288Y-67386200D01*
X228852288Y-65481200D01*
X229614288Y-65481200D01*
X229614288Y-67386200D01*
G37*
G36*
X231614287Y-67386200D02*
G01*
X230852287Y-67386200D01*
X230852287Y-65481200D01*
X231614287Y-65481200D01*
X231614287Y-67386200D01*
G37*
G36*
X200668407Y-64674867D02*
G01*
X200713015Y-64704673D01*
X200742821Y-64749281D01*
X200753288Y-64801900D01*
X200753288Y-66001900D01*
X200742821Y-66054519D01*
X200713015Y-66099127D01*
X200668407Y-66128933D01*
X200615788Y-66139400D01*
X200340788Y-66139400D01*
X200288169Y-66128933D01*
X200243561Y-66099127D01*
X200213755Y-66054519D01*
X200203288Y-66001900D01*
X200203288Y-64801900D01*
X200213755Y-64749281D01*
X200243561Y-64704673D01*
X200288169Y-64674867D01*
X200340788Y-64664400D01*
X200615788Y-64664400D01*
X200668407Y-64674867D01*
G37*
G36*
X201468407Y-64674867D02*
G01*
X201513015Y-64704673D01*
X201542821Y-64749281D01*
X201553288Y-64801900D01*
X201553288Y-66001900D01*
X201542821Y-66054519D01*
X201513015Y-66099127D01*
X201468407Y-66128933D01*
X201415788Y-66139400D01*
X201140788Y-66139400D01*
X201088169Y-66128933D01*
X201043561Y-66099127D01*
X201013755Y-66054519D01*
X201003288Y-66001900D01*
X201003288Y-64801900D01*
X201013755Y-64749281D01*
X201043561Y-64704673D01*
X201088169Y-64674867D01*
X201140788Y-64664400D01*
X201415788Y-64664400D01*
X201468407Y-64674867D01*
G37*
G36*
X202268407Y-64674867D02*
G01*
X202313015Y-64704673D01*
X202342821Y-64749281D01*
X202353288Y-64801900D01*
X202353288Y-66001900D01*
X202342821Y-66054519D01*
X202313015Y-66099127D01*
X202268407Y-66128933D01*
X202215788Y-66139400D01*
X201940788Y-66139400D01*
X201888169Y-66128933D01*
X201843561Y-66099127D01*
X201813755Y-66054519D01*
X201803288Y-66001900D01*
X201803288Y-64801900D01*
X201813755Y-64749281D01*
X201843561Y-64704673D01*
X201888169Y-64674867D01*
X201940788Y-64664400D01*
X202215788Y-64664400D01*
X202268407Y-64674867D01*
G37*
G36*
X203068407Y-64674867D02*
G01*
X203113015Y-64704673D01*
X203142821Y-64749281D01*
X203153288Y-64801900D01*
X203153288Y-66001900D01*
X203142821Y-66054519D01*
X203113015Y-66099127D01*
X203068407Y-66128933D01*
X203015788Y-66139400D01*
X202740788Y-66139400D01*
X202688169Y-66128933D01*
X202643561Y-66099127D01*
X202613755Y-66054519D01*
X202603288Y-66001900D01*
X202603288Y-64801900D01*
X202613755Y-64749281D01*
X202643561Y-64704673D01*
X202688169Y-64674867D01*
X202740788Y-64664400D01*
X203015788Y-64664400D01*
X203068407Y-64674867D01*
G37*
G36*
X203868407Y-64674867D02*
G01*
X203913015Y-64704673D01*
X203942821Y-64749281D01*
X203953288Y-64801900D01*
X203953288Y-66001900D01*
X203942821Y-66054519D01*
X203913015Y-66099127D01*
X203868407Y-66128933D01*
X203815788Y-66139400D01*
X203540788Y-66139400D01*
X203488169Y-66128933D01*
X203443561Y-66099127D01*
X203413755Y-66054519D01*
X203403288Y-66001900D01*
X203403288Y-64801900D01*
X203413755Y-64749281D01*
X203443561Y-64704673D01*
X203488169Y-64674867D01*
X203540788Y-64664400D01*
X203815788Y-64664400D01*
X203868407Y-64674867D01*
G37*
G36*
X204668407Y-64674867D02*
G01*
X204713015Y-64704673D01*
X204742821Y-64749281D01*
X204753288Y-64801900D01*
X204753288Y-66001900D01*
X204742821Y-66054519D01*
X204713015Y-66099127D01*
X204668407Y-66128933D01*
X204615788Y-66139400D01*
X204340788Y-66139400D01*
X204288169Y-66128933D01*
X204243561Y-66099127D01*
X204213755Y-66054519D01*
X204203288Y-66001900D01*
X204203288Y-64801900D01*
X204213755Y-64749281D01*
X204243561Y-64704673D01*
X204288169Y-64674867D01*
X204340788Y-64664400D01*
X204615788Y-64664400D01*
X204668407Y-64674867D01*
G37*
G36*
X205468407Y-64674867D02*
G01*
X205513015Y-64704673D01*
X205542821Y-64749281D01*
X205553288Y-64801900D01*
X205553288Y-66001900D01*
X205542821Y-66054519D01*
X205513015Y-66099127D01*
X205468407Y-66128933D01*
X205415788Y-66139400D01*
X205140788Y-66139400D01*
X205088169Y-66128933D01*
X205043561Y-66099127D01*
X205013755Y-66054519D01*
X205003288Y-66001900D01*
X205003288Y-64801900D01*
X205013755Y-64749281D01*
X205043561Y-64704673D01*
X205088169Y-64674867D01*
X205140788Y-64664400D01*
X205415788Y-64664400D01*
X205468407Y-64674867D01*
G37*
G36*
X206268407Y-64674867D02*
G01*
X206313015Y-64704673D01*
X206342821Y-64749281D01*
X206353288Y-64801900D01*
X206353288Y-66001900D01*
X206342821Y-66054519D01*
X206313015Y-66099127D01*
X206268407Y-66128933D01*
X206215788Y-66139400D01*
X205940788Y-66139400D01*
X205888169Y-66128933D01*
X205843561Y-66099127D01*
X205813755Y-66054519D01*
X205803288Y-66001900D01*
X205803288Y-64801900D01*
X205813755Y-64749281D01*
X205843561Y-64704673D01*
X205888169Y-64674867D01*
X205940788Y-64664400D01*
X206215788Y-64664400D01*
X206268407Y-64674867D01*
G37*
G36*
X199768407Y-63774867D02*
G01*
X199813015Y-63804673D01*
X199842821Y-63849281D01*
X199853288Y-63901900D01*
X199853288Y-64176900D01*
X199842821Y-64229519D01*
X199813015Y-64274127D01*
X199768407Y-64303933D01*
X199715788Y-64314400D01*
X198515788Y-64314400D01*
X198463169Y-64303933D01*
X198418561Y-64274127D01*
X198388755Y-64229519D01*
X198378288Y-64176900D01*
X198378288Y-63901900D01*
X198388755Y-63849281D01*
X198418561Y-63804673D01*
X198463169Y-63774867D01*
X198515788Y-63764400D01*
X199715788Y-63764400D01*
X199768407Y-63774867D01*
G37*
G36*
X208093407Y-63774867D02*
G01*
X208138015Y-63804673D01*
X208167821Y-63849281D01*
X208178288Y-63901900D01*
X208178288Y-64176900D01*
X208167821Y-64229519D01*
X208138015Y-64274127D01*
X208093407Y-64303933D01*
X208040788Y-64314400D01*
X206840788Y-64314400D01*
X206788169Y-64303933D01*
X206743561Y-64274127D01*
X206713755Y-64229519D01*
X206703288Y-64176900D01*
X206703288Y-63901900D01*
X206713755Y-63849281D01*
X206743561Y-63804673D01*
X206788169Y-63774867D01*
X206840788Y-63764400D01*
X208040788Y-63764400D01*
X208093407Y-63774867D01*
G37*
G36*
X199768407Y-62974867D02*
G01*
X199813015Y-63004673D01*
X199842821Y-63049281D01*
X199853288Y-63101900D01*
X199853288Y-63376900D01*
X199842821Y-63429519D01*
X199813015Y-63474127D01*
X199768407Y-63503933D01*
X199715788Y-63514400D01*
X198515788Y-63514400D01*
X198463169Y-63503933D01*
X198418561Y-63474127D01*
X198388755Y-63429519D01*
X198378288Y-63376900D01*
X198378288Y-63101900D01*
X198388755Y-63049281D01*
X198418561Y-63004673D01*
X198463169Y-62974867D01*
X198515788Y-62964400D01*
X199715788Y-62964400D01*
X199768407Y-62974867D01*
G37*
G36*
X208093407Y-62974867D02*
G01*
X208138015Y-63004673D01*
X208167821Y-63049281D01*
X208178288Y-63101900D01*
X208178288Y-63376900D01*
X208167821Y-63429519D01*
X208138015Y-63474127D01*
X208093407Y-63503933D01*
X208040788Y-63514400D01*
X206840788Y-63514400D01*
X206788169Y-63503933D01*
X206743561Y-63474127D01*
X206713755Y-63429519D01*
X206703288Y-63376900D01*
X206703288Y-63101900D01*
X206713755Y-63049281D01*
X206743561Y-63004673D01*
X206788169Y-62974867D01*
X206840788Y-62964400D01*
X208040788Y-62964400D01*
X208093407Y-62974867D01*
G37*
G36*
X195197604Y-62122018D02*
G01*
X195248867Y-62127966D01*
X195266380Y-62135699D01*
X195289159Y-62140230D01*
X195313545Y-62156524D01*
X195334276Y-62165678D01*
X195348434Y-62179836D01*
X195370265Y-62194423D01*
X195384851Y-62216253D01*
X195399009Y-62230411D01*
X195408161Y-62251139D01*
X195424458Y-62275529D01*
X195428989Y-62298309D01*
X195436721Y-62315820D01*
X195442666Y-62367072D01*
X195443488Y-62371200D01*
X195443488Y-62871200D01*
X195442666Y-62875328D01*
X195436721Y-62926579D01*
X195428989Y-62944088D01*
X195424458Y-62966871D01*
X195408160Y-62991262D01*
X195399009Y-63011988D01*
X195384853Y-63026143D01*
X195370265Y-63047977D01*
X195348431Y-63062565D01*
X195334276Y-63076721D01*
X195313550Y-63085872D01*
X195289159Y-63102170D01*
X195266376Y-63106701D01*
X195248867Y-63114433D01*
X195197617Y-63120378D01*
X195193488Y-63121200D01*
X194243488Y-63121200D01*
X194239361Y-63120379D01*
X194188108Y-63114433D01*
X194170597Y-63106701D01*
X194147817Y-63102170D01*
X194123427Y-63085873D01*
X194102699Y-63076721D01*
X194088541Y-63062563D01*
X194066711Y-63047977D01*
X194052124Y-63026146D01*
X194037966Y-63011988D01*
X194028812Y-62991257D01*
X194012518Y-62966871D01*
X194007987Y-62944092D01*
X194000254Y-62926579D01*
X193994306Y-62875317D01*
X193993488Y-62871200D01*
X193993488Y-62371200D01*
X193994306Y-62367085D01*
X194000254Y-62315820D01*
X194007987Y-62298305D01*
X194012518Y-62275529D01*
X194028811Y-62251144D01*
X194037966Y-62230411D01*
X194052126Y-62216250D01*
X194066711Y-62194423D01*
X194088538Y-62179838D01*
X194102699Y-62165678D01*
X194123432Y-62156523D01*
X194147817Y-62140230D01*
X194170593Y-62135699D01*
X194188108Y-62127966D01*
X194239372Y-62122018D01*
X194243488Y-62121200D01*
X195193488Y-62121200D01*
X195197604Y-62122018D01*
G37*
G36*
X213411322Y-62359164D02*
G01*
X213444413Y-62381275D01*
X213466524Y-62414366D01*
X213474288Y-62453400D01*
X213474288Y-62853400D01*
X213466524Y-62892434D01*
X213444413Y-62925525D01*
X213411322Y-62947636D01*
X213372288Y-62955400D01*
X211472288Y-62955400D01*
X211433254Y-62947636D01*
X211400163Y-62925525D01*
X211378052Y-62892434D01*
X211370288Y-62853400D01*
X211370288Y-62453400D01*
X211378052Y-62414366D01*
X211400163Y-62381275D01*
X211433254Y-62359164D01*
X211472288Y-62351400D01*
X213372288Y-62351400D01*
X213411322Y-62359164D01*
G37*
G36*
X199768407Y-62174867D02*
G01*
X199813015Y-62204673D01*
X199842821Y-62249281D01*
X199853288Y-62301900D01*
X199853288Y-62576900D01*
X199842821Y-62629519D01*
X199813015Y-62674127D01*
X199768407Y-62703933D01*
X199715788Y-62714400D01*
X198515788Y-62714400D01*
X198463169Y-62703933D01*
X198418561Y-62674127D01*
X198388755Y-62629519D01*
X198378288Y-62576900D01*
X198378288Y-62301900D01*
X198388755Y-62249281D01*
X198418561Y-62204673D01*
X198463169Y-62174867D01*
X198515788Y-62164400D01*
X199715788Y-62164400D01*
X199768407Y-62174867D01*
G37*
G36*
X208093407Y-62174867D02*
G01*
X208138015Y-62204673D01*
X208167821Y-62249281D01*
X208178288Y-62301900D01*
X208178288Y-62576900D01*
X208167821Y-62629519D01*
X208138015Y-62674127D01*
X208093407Y-62703933D01*
X208040788Y-62714400D01*
X206840788Y-62714400D01*
X206788169Y-62703933D01*
X206743561Y-62674127D01*
X206713755Y-62629519D01*
X206703288Y-62576900D01*
X206703288Y-62301900D01*
X206713755Y-62249281D01*
X206743561Y-62204673D01*
X206788169Y-62174867D01*
X206840788Y-62164400D01*
X208040788Y-62164400D01*
X208093407Y-62174867D01*
G37*
G36*
X199768407Y-61374867D02*
G01*
X199813015Y-61404673D01*
X199842821Y-61449281D01*
X199853288Y-61501900D01*
X199853288Y-61776900D01*
X199842821Y-61829519D01*
X199813015Y-61874127D01*
X199768407Y-61903933D01*
X199715788Y-61914400D01*
X198515788Y-61914400D01*
X198463169Y-61903933D01*
X198418561Y-61874127D01*
X198388755Y-61829519D01*
X198378288Y-61776900D01*
X198378288Y-61501900D01*
X198388755Y-61449281D01*
X198418561Y-61404673D01*
X198463169Y-61374867D01*
X198515788Y-61364400D01*
X199715788Y-61364400D01*
X199768407Y-61374867D01*
G37*
G36*
X208093407Y-61374867D02*
G01*
X208138015Y-61404673D01*
X208167821Y-61449281D01*
X208178288Y-61501900D01*
X208178288Y-61776900D01*
X208167821Y-61829519D01*
X208138015Y-61874127D01*
X208093407Y-61903933D01*
X208040788Y-61914400D01*
X206840788Y-61914400D01*
X206788169Y-61903933D01*
X206743561Y-61874127D01*
X206713755Y-61829519D01*
X206703288Y-61776900D01*
X206703288Y-61501900D01*
X206713755Y-61449281D01*
X206743561Y-61404673D01*
X206788169Y-61374867D01*
X206840788Y-61364400D01*
X208040788Y-61364400D01*
X208093407Y-61374867D01*
G37*
G36*
X213411322Y-61159164D02*
G01*
X213444413Y-61181275D01*
X213466524Y-61214366D01*
X213474288Y-61253400D01*
X213474288Y-61653400D01*
X213466524Y-61692434D01*
X213444413Y-61725525D01*
X213411322Y-61747636D01*
X213372288Y-61755400D01*
X211472288Y-61755400D01*
X211433254Y-61747636D01*
X211400163Y-61725525D01*
X211378052Y-61692434D01*
X211370288Y-61653400D01*
X211370288Y-61253400D01*
X211378052Y-61214366D01*
X211400163Y-61181275D01*
X211433254Y-61159164D01*
X211472288Y-61151400D01*
X213372288Y-61151400D01*
X213411322Y-61159164D01*
G37*
G36*
X195197604Y-60222018D02*
G01*
X195248867Y-60227966D01*
X195266380Y-60235699D01*
X195289159Y-60240230D01*
X195313545Y-60256524D01*
X195334276Y-60265678D01*
X195348434Y-60279836D01*
X195370265Y-60294423D01*
X195384851Y-60316253D01*
X195399009Y-60330411D01*
X195408161Y-60351139D01*
X195424458Y-60375529D01*
X195428989Y-60398309D01*
X195436721Y-60415820D01*
X195442666Y-60467072D01*
X195443488Y-60471200D01*
X195443488Y-60971200D01*
X195442666Y-60975328D01*
X195436721Y-61026579D01*
X195428989Y-61044088D01*
X195424458Y-61066871D01*
X195408160Y-61091262D01*
X195399009Y-61111988D01*
X195384853Y-61126143D01*
X195370265Y-61147977D01*
X195348431Y-61162565D01*
X195334276Y-61176721D01*
X195313550Y-61185872D01*
X195289159Y-61202170D01*
X195266376Y-61206701D01*
X195248867Y-61214433D01*
X195197617Y-61220378D01*
X195193488Y-61221200D01*
X194243488Y-61221200D01*
X194239361Y-61220379D01*
X194188108Y-61214433D01*
X194170597Y-61206701D01*
X194147817Y-61202170D01*
X194123427Y-61185873D01*
X194102699Y-61176721D01*
X194088541Y-61162563D01*
X194066711Y-61147977D01*
X194052124Y-61126146D01*
X194037966Y-61111988D01*
X194028812Y-61091257D01*
X194012518Y-61066871D01*
X194007987Y-61044092D01*
X194000254Y-61026579D01*
X193994306Y-60975317D01*
X193993488Y-60971200D01*
X193993488Y-60471200D01*
X193994306Y-60467085D01*
X194000254Y-60415820D01*
X194007987Y-60398305D01*
X194012518Y-60375529D01*
X194028811Y-60351144D01*
X194037966Y-60330411D01*
X194052126Y-60316250D01*
X194066711Y-60294423D01*
X194088538Y-60279838D01*
X194102699Y-60265678D01*
X194123432Y-60256523D01*
X194147817Y-60240230D01*
X194170593Y-60235699D01*
X194188108Y-60227966D01*
X194239372Y-60222018D01*
X194243488Y-60221200D01*
X195193488Y-60221200D01*
X195197604Y-60222018D01*
G37*
G36*
X199768407Y-60574867D02*
G01*
X199813015Y-60604673D01*
X199842821Y-60649281D01*
X199853288Y-60701900D01*
X199853288Y-60976900D01*
X199842821Y-61029519D01*
X199813015Y-61074127D01*
X199768407Y-61103933D01*
X199715788Y-61114400D01*
X198515788Y-61114400D01*
X198463169Y-61103933D01*
X198418561Y-61074127D01*
X198388755Y-61029519D01*
X198378288Y-60976900D01*
X198378288Y-60701900D01*
X198388755Y-60649281D01*
X198418561Y-60604673D01*
X198463169Y-60574867D01*
X198515788Y-60564400D01*
X199715788Y-60564400D01*
X199768407Y-60574867D01*
G37*
G36*
X208093407Y-60574867D02*
G01*
X208138015Y-60604673D01*
X208167821Y-60649281D01*
X208178288Y-60701900D01*
X208178288Y-60976900D01*
X208167821Y-61029519D01*
X208138015Y-61074127D01*
X208093407Y-61103933D01*
X208040788Y-61114400D01*
X206840788Y-61114400D01*
X206788169Y-61103933D01*
X206743561Y-61074127D01*
X206713755Y-61029519D01*
X206703288Y-60976900D01*
X206703288Y-60701900D01*
X206713755Y-60649281D01*
X206743561Y-60604673D01*
X206788169Y-60574867D01*
X206840788Y-60564400D01*
X208040788Y-60564400D01*
X208093407Y-60574867D01*
G37*
G36*
X213411322Y-59959164D02*
G01*
X213444413Y-59981275D01*
X213466524Y-60014366D01*
X213474288Y-60053400D01*
X213474288Y-60453400D01*
X213466524Y-60492434D01*
X213444413Y-60525525D01*
X213411322Y-60547636D01*
X213372288Y-60555400D01*
X211472288Y-60555400D01*
X211433254Y-60547636D01*
X211400163Y-60525525D01*
X211378052Y-60492434D01*
X211370288Y-60453400D01*
X211370288Y-60053400D01*
X211378052Y-60014366D01*
X211400163Y-59981275D01*
X211433254Y-59959164D01*
X211472288Y-59951400D01*
X213372288Y-59951400D01*
X213411322Y-59959164D01*
G37*
G36*
X199768407Y-59774867D02*
G01*
X199813015Y-59804673D01*
X199842821Y-59849281D01*
X199853288Y-59901900D01*
X199853288Y-60176900D01*
X199842821Y-60229519D01*
X199813015Y-60274127D01*
X199768407Y-60303933D01*
X199715788Y-60314400D01*
X198515788Y-60314400D01*
X198463169Y-60303933D01*
X198418561Y-60274127D01*
X198388755Y-60229519D01*
X198378288Y-60176900D01*
X198378288Y-59901900D01*
X198388755Y-59849281D01*
X198418561Y-59804673D01*
X198463169Y-59774867D01*
X198515788Y-59764400D01*
X199715788Y-59764400D01*
X199768407Y-59774867D01*
G37*
G36*
X208093407Y-59774867D02*
G01*
X208138015Y-59804673D01*
X208167821Y-59849281D01*
X208178288Y-59901900D01*
X208178288Y-60176900D01*
X208167821Y-60229519D01*
X208138015Y-60274127D01*
X208093407Y-60303933D01*
X208040788Y-60314400D01*
X206840788Y-60314400D01*
X206788169Y-60303933D01*
X206743561Y-60274127D01*
X206713755Y-60229519D01*
X206703288Y-60176900D01*
X206703288Y-59901900D01*
X206713755Y-59849281D01*
X206743561Y-59804673D01*
X206788169Y-59774867D01*
X206840788Y-59764400D01*
X208040788Y-59764400D01*
X208093407Y-59774867D01*
G37*
G36*
X199768407Y-58974867D02*
G01*
X199813015Y-59004673D01*
X199842821Y-59049281D01*
X199853288Y-59101900D01*
X199853288Y-59376900D01*
X199842821Y-59429519D01*
X199813015Y-59474127D01*
X199768407Y-59503933D01*
X199715788Y-59514400D01*
X198515788Y-59514400D01*
X198463169Y-59503933D01*
X198418561Y-59474127D01*
X198388755Y-59429519D01*
X198378288Y-59376900D01*
X198378288Y-59101900D01*
X198388755Y-59049281D01*
X198418561Y-59004673D01*
X198463169Y-58974867D01*
X198515788Y-58964400D01*
X199715788Y-58964400D01*
X199768407Y-58974867D01*
G37*
G36*
X208093407Y-58974867D02*
G01*
X208138015Y-59004673D01*
X208167821Y-59049281D01*
X208178288Y-59101900D01*
X208178288Y-59376900D01*
X208167821Y-59429519D01*
X208138015Y-59474127D01*
X208093407Y-59503933D01*
X208040788Y-59514400D01*
X206840788Y-59514400D01*
X206788169Y-59503933D01*
X206743561Y-59474127D01*
X206713755Y-59429519D01*
X206703288Y-59376900D01*
X206703288Y-59101900D01*
X206713755Y-59049281D01*
X206743561Y-59004673D01*
X206788169Y-58974867D01*
X206840788Y-58964400D01*
X208040788Y-58964400D01*
X208093407Y-58974867D01*
G37*
G36*
X196482356Y-58924012D02*
G01*
X196514799Y-58945689D01*
X196536476Y-58978132D01*
X196544088Y-59016400D01*
X196544088Y-59276400D01*
X196536476Y-59314668D01*
X196514799Y-59347111D01*
X196482356Y-59368788D01*
X196444088Y-59376400D01*
X196244088Y-59376400D01*
X196205820Y-59368788D01*
X196173377Y-59347111D01*
X196151700Y-59314668D01*
X196144088Y-59276400D01*
X196144088Y-59016400D01*
X196151700Y-58978132D01*
X196173377Y-58945689D01*
X196205820Y-58924012D01*
X196244088Y-58916400D01*
X196444088Y-58916400D01*
X196482356Y-58924012D01*
G37*
G36*
X196482356Y-58284012D02*
G01*
X196514799Y-58305689D01*
X196536476Y-58338132D01*
X196544088Y-58376400D01*
X196544088Y-58636400D01*
X196536476Y-58674668D01*
X196514799Y-58707111D01*
X196482356Y-58728788D01*
X196444088Y-58736400D01*
X196244088Y-58736400D01*
X196205820Y-58728788D01*
X196173377Y-58707111D01*
X196151700Y-58674668D01*
X196144088Y-58636400D01*
X196144088Y-58376400D01*
X196151700Y-58338132D01*
X196173377Y-58305689D01*
X196205820Y-58284012D01*
X196244088Y-58276400D01*
X196444088Y-58276400D01*
X196482356Y-58284012D01*
G37*
G36*
X199768407Y-58174867D02*
G01*
X199813015Y-58204673D01*
X199842821Y-58249281D01*
X199853288Y-58301900D01*
X199853288Y-58576900D01*
X199842821Y-58629519D01*
X199813015Y-58674127D01*
X199768407Y-58703933D01*
X199715788Y-58714400D01*
X198515788Y-58714400D01*
X198463169Y-58703933D01*
X198418561Y-58674127D01*
X198388755Y-58629519D01*
X198378288Y-58576900D01*
X198378288Y-58301900D01*
X198388755Y-58249281D01*
X198418561Y-58204673D01*
X198463169Y-58174867D01*
X198515788Y-58164400D01*
X199715788Y-58164400D01*
X199768407Y-58174867D01*
G37*
G36*
X208093407Y-58174867D02*
G01*
X208138015Y-58204673D01*
X208167821Y-58249281D01*
X208178288Y-58301900D01*
X208178288Y-58576900D01*
X208167821Y-58629519D01*
X208138015Y-58674127D01*
X208093407Y-58703933D01*
X208040788Y-58714400D01*
X206840788Y-58714400D01*
X206788169Y-58703933D01*
X206743561Y-58674127D01*
X206713755Y-58629519D01*
X206703288Y-58576900D01*
X206703288Y-58301900D01*
X206713755Y-58249281D01*
X206743561Y-58204673D01*
X206788169Y-58174867D01*
X206840788Y-58164400D01*
X208040788Y-58164400D01*
X208093407Y-58174867D01*
G37*
G36*
X200668407Y-56349867D02*
G01*
X200713015Y-56379673D01*
X200742821Y-56424281D01*
X200753288Y-56476900D01*
X200753288Y-57676900D01*
X200742821Y-57729519D01*
X200713015Y-57774127D01*
X200668407Y-57803933D01*
X200615788Y-57814400D01*
X200340788Y-57814400D01*
X200288169Y-57803933D01*
X200243561Y-57774127D01*
X200213755Y-57729519D01*
X200203288Y-57676900D01*
X200203288Y-56476900D01*
X200213755Y-56424281D01*
X200243561Y-56379673D01*
X200288169Y-56349867D01*
X200340788Y-56339400D01*
X200615788Y-56339400D01*
X200668407Y-56349867D01*
G37*
G36*
X201468407Y-56349867D02*
G01*
X201513015Y-56379673D01*
X201542821Y-56424281D01*
X201553288Y-56476900D01*
X201553288Y-57676900D01*
X201542821Y-57729519D01*
X201513015Y-57774127D01*
X201468407Y-57803933D01*
X201415788Y-57814400D01*
X201140788Y-57814400D01*
X201088169Y-57803933D01*
X201043561Y-57774127D01*
X201013755Y-57729519D01*
X201003288Y-57676900D01*
X201003288Y-56476900D01*
X201013755Y-56424281D01*
X201043561Y-56379673D01*
X201088169Y-56349867D01*
X201140788Y-56339400D01*
X201415788Y-56339400D01*
X201468407Y-56349867D01*
G37*
G36*
X202268407Y-56349867D02*
G01*
X202313015Y-56379673D01*
X202342821Y-56424281D01*
X202353288Y-56476900D01*
X202353288Y-57676900D01*
X202342821Y-57729519D01*
X202313015Y-57774127D01*
X202268407Y-57803933D01*
X202215788Y-57814400D01*
X201940788Y-57814400D01*
X201888169Y-57803933D01*
X201843561Y-57774127D01*
X201813755Y-57729519D01*
X201803288Y-57676900D01*
X201803288Y-56476900D01*
X201813755Y-56424281D01*
X201843561Y-56379673D01*
X201888169Y-56349867D01*
X201940788Y-56339400D01*
X202215788Y-56339400D01*
X202268407Y-56349867D01*
G37*
G36*
X203068407Y-56349867D02*
G01*
X203113015Y-56379673D01*
X203142821Y-56424281D01*
X203153288Y-56476900D01*
X203153288Y-57676900D01*
X203142821Y-57729519D01*
X203113015Y-57774127D01*
X203068407Y-57803933D01*
X203015788Y-57814400D01*
X202740788Y-57814400D01*
X202688169Y-57803933D01*
X202643561Y-57774127D01*
X202613755Y-57729519D01*
X202603288Y-57676900D01*
X202603288Y-56476900D01*
X202613755Y-56424281D01*
X202643561Y-56379673D01*
X202688169Y-56349867D01*
X202740788Y-56339400D01*
X203015788Y-56339400D01*
X203068407Y-56349867D01*
G37*
G36*
X203868407Y-56349867D02*
G01*
X203913015Y-56379673D01*
X203942821Y-56424281D01*
X203953288Y-56476900D01*
X203953288Y-57676900D01*
X203942821Y-57729519D01*
X203913015Y-57774127D01*
X203868407Y-57803933D01*
X203815788Y-57814400D01*
X203540788Y-57814400D01*
X203488169Y-57803933D01*
X203443561Y-57774127D01*
X203413755Y-57729519D01*
X203403288Y-57676900D01*
X203403288Y-56476900D01*
X203413755Y-56424281D01*
X203443561Y-56379673D01*
X203488169Y-56349867D01*
X203540788Y-56339400D01*
X203815788Y-56339400D01*
X203868407Y-56349867D01*
G37*
G36*
X204668407Y-56349867D02*
G01*
X204713015Y-56379673D01*
X204742821Y-56424281D01*
X204753288Y-56476900D01*
X204753288Y-57676900D01*
X204742821Y-57729519D01*
X204713015Y-57774127D01*
X204668407Y-57803933D01*
X204615788Y-57814400D01*
X204340788Y-57814400D01*
X204288169Y-57803933D01*
X204243561Y-57774127D01*
X204213755Y-57729519D01*
X204203288Y-57676900D01*
X204203288Y-56476900D01*
X204213755Y-56424281D01*
X204243561Y-56379673D01*
X204288169Y-56349867D01*
X204340788Y-56339400D01*
X204615788Y-56339400D01*
X204668407Y-56349867D01*
G37*
G36*
X205468407Y-56349867D02*
G01*
X205513015Y-56379673D01*
X205542821Y-56424281D01*
X205553288Y-56476900D01*
X205553288Y-57676900D01*
X205542821Y-57729519D01*
X205513015Y-57774127D01*
X205468407Y-57803933D01*
X205415788Y-57814400D01*
X205140788Y-57814400D01*
X205088169Y-57803933D01*
X205043561Y-57774127D01*
X205013755Y-57729519D01*
X205003288Y-57676900D01*
X205003288Y-56476900D01*
X205013755Y-56424281D01*
X205043561Y-56379673D01*
X205088169Y-56349867D01*
X205140788Y-56339400D01*
X205415788Y-56339400D01*
X205468407Y-56349867D01*
G37*
G36*
X206268407Y-56349867D02*
G01*
X206313015Y-56379673D01*
X206342821Y-56424281D01*
X206353288Y-56476900D01*
X206353288Y-57676900D01*
X206342821Y-57729519D01*
X206313015Y-57774127D01*
X206268407Y-57803933D01*
X206215788Y-57814400D01*
X205940788Y-57814400D01*
X205888169Y-57803933D01*
X205843561Y-57774127D01*
X205813755Y-57729519D01*
X205803288Y-57676900D01*
X205803288Y-56476900D01*
X205813755Y-56424281D01*
X205843561Y-56379673D01*
X205888169Y-56349867D01*
X205940788Y-56339400D01*
X206215788Y-56339400D01*
X206268407Y-56349867D01*
G37*
G36*
X209002322Y-54326164D02*
G01*
X209035413Y-54348275D01*
X209057524Y-54381366D01*
X209065288Y-54420400D01*
X209065288Y-56120400D01*
X209057524Y-56159434D01*
X209035413Y-56192525D01*
X209002322Y-56214636D01*
X208963288Y-56222400D01*
X208163288Y-56222400D01*
X208124254Y-56214636D01*
X208091163Y-56192525D01*
X208069052Y-56159434D01*
X208061288Y-56120400D01*
X208061288Y-54420400D01*
X208069052Y-54381366D01*
X208091163Y-54348275D01*
X208124254Y-54326164D01*
X208163288Y-54318400D01*
X208963288Y-54318400D01*
X209002322Y-54326164D01*
G37*
G36*
X212402322Y-54326164D02*
G01*
X212435413Y-54348275D01*
X212457524Y-54381366D01*
X212465288Y-54420400D01*
X212465288Y-56120400D01*
X212457524Y-56159434D01*
X212435413Y-56192525D01*
X212402322Y-56214636D01*
X212363288Y-56222400D01*
X211563288Y-56222400D01*
X211524254Y-56214636D01*
X211491163Y-56192525D01*
X211469052Y-56159434D01*
X211461288Y-56120400D01*
X211461288Y-54420400D01*
X211469052Y-54381366D01*
X211491163Y-54348275D01*
X211524254Y-54326164D01*
X211563288Y-54318400D01*
X212363288Y-54318400D01*
X212402322Y-54326164D01*
G37*
G36*
X238889088Y-55511700D02*
G01*
X237898488Y-55511700D01*
X237898488Y-53505100D01*
X238889088Y-53505100D01*
X238889088Y-55511700D01*
G37*
G36*
X241492588Y-55511700D02*
G01*
X240501988Y-55511700D01*
X240501988Y-53505100D01*
X241492588Y-53505100D01*
X241492588Y-55511700D01*
G37*
G36*
X244096088Y-55511700D02*
G01*
X243105488Y-55511700D01*
X243105488Y-53505100D01*
X244096088Y-53505100D01*
X244096088Y-55511700D01*
G37*
G36*
X217614289Y-52679600D02*
G01*
X216852289Y-52679600D01*
X216852289Y-50774600D01*
X217614289Y-50774600D01*
X217614289Y-52679600D01*
G37*
G36*
X219614288Y-52679600D02*
G01*
X218852288Y-52679600D01*
X218852288Y-50774600D01*
X219614288Y-50774600D01*
X219614288Y-52679600D01*
G37*
G36*
X221614289Y-52679600D02*
G01*
X220852289Y-52679600D01*
X220852289Y-50774600D01*
X221614289Y-50774600D01*
X221614289Y-52679600D01*
G37*
G36*
X223614287Y-52679600D02*
G01*
X222852287Y-52679600D01*
X222852287Y-50774600D01*
X223614287Y-50774600D01*
X223614287Y-52679600D01*
G37*
G36*
X225614289Y-52679600D02*
G01*
X224852289Y-52679600D01*
X224852289Y-50774600D01*
X225614289Y-50774600D01*
X225614289Y-52679600D01*
G37*
G36*
X227614287Y-52679600D02*
G01*
X226852287Y-52679600D01*
X226852287Y-50774600D01*
X227614287Y-50774600D01*
X227614287Y-52679600D01*
G37*
G36*
X229614288Y-52679600D02*
G01*
X228852288Y-52679600D01*
X228852288Y-50774600D01*
X229614288Y-50774600D01*
X229614288Y-52679600D01*
G37*
G36*
X231614289Y-52679600D02*
G01*
X230852289Y-52679600D01*
X230852289Y-50774600D01*
X231614289Y-50774600D01*
X231614289Y-52679600D01*
G37*
G36*
X212564604Y-50634618D02*
G01*
X212615867Y-50640566D01*
X212633380Y-50648299D01*
X212656159Y-50652830D01*
X212680545Y-50669124D01*
X212701276Y-50678278D01*
X212715434Y-50692436D01*
X212737265Y-50707023D01*
X212751851Y-50728853D01*
X212766009Y-50743011D01*
X212775161Y-50763739D01*
X212791458Y-50788129D01*
X212795989Y-50810909D01*
X212803721Y-50828420D01*
X212809666Y-50879672D01*
X212810488Y-50883800D01*
X212810488Y-51833800D01*
X212809666Y-51837928D01*
X212803721Y-51889179D01*
X212795989Y-51906688D01*
X212791458Y-51929471D01*
X212775160Y-51953862D01*
X212766009Y-51974588D01*
X212751853Y-51988743D01*
X212737265Y-52010577D01*
X212715431Y-52025165D01*
X212701276Y-52039321D01*
X212680550Y-52048472D01*
X212656159Y-52064770D01*
X212633376Y-52069301D01*
X212615867Y-52077033D01*
X212564617Y-52082978D01*
X212560488Y-52083800D01*
X212060488Y-52083800D01*
X212056361Y-52082979D01*
X212005108Y-52077033D01*
X211987597Y-52069301D01*
X211964817Y-52064770D01*
X211940427Y-52048473D01*
X211919699Y-52039321D01*
X211905541Y-52025163D01*
X211883711Y-52010577D01*
X211869124Y-51988746D01*
X211854966Y-51974588D01*
X211845812Y-51953857D01*
X211829518Y-51929471D01*
X211824987Y-51906692D01*
X211817254Y-51889179D01*
X211811306Y-51837917D01*
X211810488Y-51833800D01*
X211810488Y-50883800D01*
X211811306Y-50879685D01*
X211817254Y-50828420D01*
X211824987Y-50810905D01*
X211829518Y-50788129D01*
X211845811Y-50763744D01*
X211854966Y-50743011D01*
X211869126Y-50728850D01*
X211883711Y-50707023D01*
X211905538Y-50692438D01*
X211919699Y-50678278D01*
X211940432Y-50669123D01*
X211964817Y-50652830D01*
X211987593Y-50648299D01*
X212005108Y-50640566D01*
X212056372Y-50634618D01*
X212060488Y-50633800D01*
X212560488Y-50633800D01*
X212564604Y-50634618D01*
G37*
G36*
X214464604Y-50634618D02*
G01*
X214515867Y-50640566D01*
X214533380Y-50648299D01*
X214556159Y-50652830D01*
X214580545Y-50669124D01*
X214601276Y-50678278D01*
X214615434Y-50692436D01*
X214637265Y-50707023D01*
X214651851Y-50728853D01*
X214666009Y-50743011D01*
X214675161Y-50763739D01*
X214691458Y-50788129D01*
X214695989Y-50810909D01*
X214703721Y-50828420D01*
X214709666Y-50879672D01*
X214710488Y-50883800D01*
X214710488Y-51833800D01*
X214709666Y-51837928D01*
X214703721Y-51889179D01*
X214695989Y-51906688D01*
X214691458Y-51929471D01*
X214675160Y-51953862D01*
X214666009Y-51974588D01*
X214651853Y-51988743D01*
X214637265Y-52010577D01*
X214615431Y-52025165D01*
X214601276Y-52039321D01*
X214580550Y-52048472D01*
X214556159Y-52064770D01*
X214533376Y-52069301D01*
X214515867Y-52077033D01*
X214464617Y-52082978D01*
X214460488Y-52083800D01*
X213960488Y-52083800D01*
X213956361Y-52082979D01*
X213905108Y-52077033D01*
X213887597Y-52069301D01*
X213864817Y-52064770D01*
X213840427Y-52048473D01*
X213819699Y-52039321D01*
X213805541Y-52025163D01*
X213783711Y-52010577D01*
X213769124Y-51988746D01*
X213754966Y-51974588D01*
X213745812Y-51953857D01*
X213729518Y-51929471D01*
X213724987Y-51906692D01*
X213717254Y-51889179D01*
X213711306Y-51837917D01*
X213710488Y-51833800D01*
X213710488Y-50883800D01*
X213711306Y-50879685D01*
X213717254Y-50828420D01*
X213724987Y-50810905D01*
X213729518Y-50788129D01*
X213745811Y-50763744D01*
X213754966Y-50743011D01*
X213769126Y-50728850D01*
X213783711Y-50707023D01*
X213805538Y-50692438D01*
X213819699Y-50678278D01*
X213840432Y-50669123D01*
X213864817Y-50652830D01*
X213887593Y-50648299D01*
X213905108Y-50640566D01*
X213956372Y-50634618D01*
X213960488Y-50633800D01*
X214460488Y-50633800D01*
X214464604Y-50634618D01*
G37*
G36*
X203065556Y-51268012D02*
G01*
X203097999Y-51289689D01*
X203119676Y-51322132D01*
X203127288Y-51360400D01*
X203127288Y-51560400D01*
X203119676Y-51598668D01*
X203097999Y-51631111D01*
X203065556Y-51652788D01*
X203027288Y-51660400D01*
X202767288Y-51660400D01*
X202729020Y-51652788D01*
X202696577Y-51631111D01*
X202674900Y-51598668D01*
X202667288Y-51560400D01*
X202667288Y-51360400D01*
X202674900Y-51322132D01*
X202696577Y-51289689D01*
X202729020Y-51268012D01*
X202767288Y-51260400D01*
X203027288Y-51260400D01*
X203065556Y-51268012D01*
G37*
G36*
X203705556Y-51268012D02*
G01*
X203737999Y-51289689D01*
X203759676Y-51322132D01*
X203767288Y-51360400D01*
X203767288Y-51560400D01*
X203759676Y-51598668D01*
X203737999Y-51631111D01*
X203705556Y-51652788D01*
X203667288Y-51660400D01*
X203407288Y-51660400D01*
X203369020Y-51652788D01*
X203336577Y-51631111D01*
X203314900Y-51598668D01*
X203307288Y-51560400D01*
X203307288Y-51360400D01*
X203314900Y-51322132D01*
X203336577Y-51289689D01*
X203369020Y-51268012D01*
X203407288Y-51260400D01*
X203667288Y-51260400D01*
X203705556Y-51268012D01*
G37*
%LPD*%
M02*
