G04 #@! TF.GenerationSoftware,KiCad,Pcbnew,9.0.3*
G04 #@! TF.CreationDate,2025-08-17T17:29:30-04:00*
G04 #@! TF.ProjectId,remote,72656d6f-7465-42e6-9b69-6361645f7063,rev?*
G04 #@! TF.SameCoordinates,Original*
G04 #@! TF.FileFunction,Legend,Top*
G04 #@! TF.FilePolarity,Positive*
%FSLAX46Y46*%
G04 Gerber Fmt 4.6, Leading zero omitted, Abs format (unit mm)*
G04 Created by KiCad (PCBNEW 9.0.3) date 2025-08-17 17:29:30*
%MOMM*%
%LPD*%
G01*
G04 APERTURE LIST*
G04 Aperture macros list*
%AMRoundRect*
0 Rectangle with rounded corners*
0 $1 Rounding radius*
0 $2 $3 $4 $5 $6 $7 $8 $9 X,Y pos of 4 corners*
0 Add a 4 corners polygon primitive as box body*
4,1,4,$2,$3,$4,$5,$6,$7,$8,$9,$2,$3,0*
0 Add four circle primitives for the rounded corners*
1,1,$1+$1,$2,$3*
1,1,$1+$1,$4,$5*
1,1,$1+$1,$6,$7*
1,1,$1+$1,$8,$9*
0 Add four rect primitives between the rounded corners*
20,1,$1+$1,$2,$3,$4,$5,0*
20,1,$1+$1,$4,$5,$6,$7,0*
20,1,$1+$1,$6,$7,$8,$9,0*
20,1,$1+$1,$8,$9,$2,$3,0*%
G04 Aperture macros list end*
%ADD10C,0.150000*%
%ADD11C,0.120000*%
%ADD12C,0.127000*%
%ADD13C,0.200000*%
%ADD14RoundRect,0.250000X0.250000X0.475000X-0.250000X0.475000X-0.250000X-0.475000X0.250000X-0.475000X0*%
%ADD15R,1.700000X1.700000*%
%ADD16C,1.700000*%
%ADD17RoundRect,0.102000X-0.775000X-0.650000X0.775000X-0.650000X0.775000X0.650000X-0.775000X0.650000X0*%
%ADD18C,17.984000*%
%ADD19RoundRect,0.102000X1.395000X2.540000X-1.395000X2.540000X-1.395000X-2.540000X1.395000X-2.540000X0*%
G04 APERTURE END LIST*
D10*
X221018621Y-55658980D02*
X220971002Y-55706600D01*
X220971002Y-55706600D02*
X220828145Y-55754219D01*
X220828145Y-55754219D02*
X220732907Y-55754219D01*
X220732907Y-55754219D02*
X220590050Y-55706600D01*
X220590050Y-55706600D02*
X220494812Y-55611361D01*
X220494812Y-55611361D02*
X220447193Y-55516123D01*
X220447193Y-55516123D02*
X220399574Y-55325647D01*
X220399574Y-55325647D02*
X220399574Y-55182790D01*
X220399574Y-55182790D02*
X220447193Y-54992314D01*
X220447193Y-54992314D02*
X220494812Y-54897076D01*
X220494812Y-54897076D02*
X220590050Y-54801838D01*
X220590050Y-54801838D02*
X220732907Y-54754219D01*
X220732907Y-54754219D02*
X220828145Y-54754219D01*
X220828145Y-54754219D02*
X220971002Y-54801838D01*
X220971002Y-54801838D02*
X221018621Y-54849457D01*
X221399574Y-54849457D02*
X221447193Y-54801838D01*
X221447193Y-54801838D02*
X221542431Y-54754219D01*
X221542431Y-54754219D02*
X221780526Y-54754219D01*
X221780526Y-54754219D02*
X221875764Y-54801838D01*
X221875764Y-54801838D02*
X221923383Y-54849457D01*
X221923383Y-54849457D02*
X221971002Y-54944695D01*
X221971002Y-54944695D02*
X221971002Y-55039933D01*
X221971002Y-55039933D02*
X221923383Y-55182790D01*
X221923383Y-55182790D02*
X221351955Y-55754219D01*
X221351955Y-55754219D02*
X221971002Y-55754219D01*
X225069622Y-57187933D02*
X225269622Y-57254600D01*
X225269622Y-57254600D02*
X225336288Y-57321266D01*
X225336288Y-57321266D02*
X225402955Y-57454600D01*
X225402955Y-57454600D02*
X225402955Y-57654600D01*
X225402955Y-57654600D02*
X225336288Y-57787933D01*
X225336288Y-57787933D02*
X225269622Y-57854600D01*
X225269622Y-57854600D02*
X225136288Y-57921266D01*
X225136288Y-57921266D02*
X224602955Y-57921266D01*
X224602955Y-57921266D02*
X224602955Y-56521266D01*
X224602955Y-56521266D02*
X225069622Y-56521266D01*
X225069622Y-56521266D02*
X225202955Y-56587933D01*
X225202955Y-56587933D02*
X225269622Y-56654600D01*
X225269622Y-56654600D02*
X225336288Y-56787933D01*
X225336288Y-56787933D02*
X225336288Y-56921266D01*
X225336288Y-56921266D02*
X225269622Y-57054600D01*
X225269622Y-57054600D02*
X225202955Y-57121266D01*
X225202955Y-57121266D02*
X225069622Y-57187933D01*
X225069622Y-57187933D02*
X224602955Y-57187933D01*
X225936288Y-56654600D02*
X226002955Y-56587933D01*
X226002955Y-56587933D02*
X226136288Y-56521266D01*
X226136288Y-56521266D02*
X226469622Y-56521266D01*
X226469622Y-56521266D02*
X226602955Y-56587933D01*
X226602955Y-56587933D02*
X226669622Y-56654600D01*
X226669622Y-56654600D02*
X226736288Y-56787933D01*
X226736288Y-56787933D02*
X226736288Y-56921266D01*
X226736288Y-56921266D02*
X226669622Y-57121266D01*
X226669622Y-57121266D02*
X225869622Y-57921266D01*
X225869622Y-57921266D02*
X226736288Y-57921266D01*
X222970087Y-66984666D02*
X222970087Y-65584666D01*
X222970087Y-66918000D02*
X222836754Y-66984666D01*
X222836754Y-66984666D02*
X222570087Y-66984666D01*
X222570087Y-66984666D02*
X222436754Y-66918000D01*
X222436754Y-66918000D02*
X222370087Y-66851333D01*
X222370087Y-66851333D02*
X222303420Y-66718000D01*
X222303420Y-66718000D02*
X222303420Y-66318000D01*
X222303420Y-66318000D02*
X222370087Y-66184666D01*
X222370087Y-66184666D02*
X222436754Y-66118000D01*
X222436754Y-66118000D02*
X222570087Y-66051333D01*
X222570087Y-66051333D02*
X222836754Y-66051333D01*
X222836754Y-66051333D02*
X222970087Y-66118000D01*
X223636754Y-66984666D02*
X223636754Y-66051333D01*
X223636754Y-65584666D02*
X223570087Y-65651333D01*
X223570087Y-65651333D02*
X223636754Y-65718000D01*
X223636754Y-65718000D02*
X223703421Y-65651333D01*
X223703421Y-65651333D02*
X223636754Y-65584666D01*
X223636754Y-65584666D02*
X223636754Y-65718000D01*
X224903421Y-66051333D02*
X224903421Y-67184666D01*
X224903421Y-67184666D02*
X224836754Y-67318000D01*
X224836754Y-67318000D02*
X224770088Y-67384666D01*
X224770088Y-67384666D02*
X224636754Y-67451333D01*
X224636754Y-67451333D02*
X224436754Y-67451333D01*
X224436754Y-67451333D02*
X224303421Y-67384666D01*
X224903421Y-66918000D02*
X224770088Y-66984666D01*
X224770088Y-66984666D02*
X224503421Y-66984666D01*
X224503421Y-66984666D02*
X224370088Y-66918000D01*
X224370088Y-66918000D02*
X224303421Y-66851333D01*
X224303421Y-66851333D02*
X224236754Y-66718000D01*
X224236754Y-66718000D02*
X224236754Y-66318000D01*
X224236754Y-66318000D02*
X224303421Y-66184666D01*
X224303421Y-66184666D02*
X224370088Y-66118000D01*
X224370088Y-66118000D02*
X224503421Y-66051333D01*
X224503421Y-66051333D02*
X224770088Y-66051333D01*
X224770088Y-66051333D02*
X224903421Y-66118000D01*
X225570088Y-66984666D02*
X225570088Y-66051333D01*
X225570088Y-65584666D02*
X225503421Y-65651333D01*
X225503421Y-65651333D02*
X225570088Y-65718000D01*
X225570088Y-65718000D02*
X225636755Y-65651333D01*
X225636755Y-65651333D02*
X225570088Y-65584666D01*
X225570088Y-65584666D02*
X225570088Y-65718000D01*
X226036755Y-66051333D02*
X226570088Y-66051333D01*
X226236755Y-65584666D02*
X226236755Y-66784666D01*
X226236755Y-66784666D02*
X226303422Y-66918000D01*
X226303422Y-66918000D02*
X226436755Y-66984666D01*
X226436755Y-66984666D02*
X226570088Y-66984666D01*
X227636755Y-66984666D02*
X227636755Y-66251333D01*
X227636755Y-66251333D02*
X227570088Y-66118000D01*
X227570088Y-66118000D02*
X227436755Y-66051333D01*
X227436755Y-66051333D02*
X227170088Y-66051333D01*
X227170088Y-66051333D02*
X227036755Y-66118000D01*
X227636755Y-66918000D02*
X227503422Y-66984666D01*
X227503422Y-66984666D02*
X227170088Y-66984666D01*
X227170088Y-66984666D02*
X227036755Y-66918000D01*
X227036755Y-66918000D02*
X226970088Y-66784666D01*
X226970088Y-66784666D02*
X226970088Y-66651333D01*
X226970088Y-66651333D02*
X227036755Y-66518000D01*
X227036755Y-66518000D02*
X227170088Y-66451333D01*
X227170088Y-66451333D02*
X227503422Y-66451333D01*
X227503422Y-66451333D02*
X227636755Y-66384666D01*
X228503422Y-66984666D02*
X228370089Y-66918000D01*
X228370089Y-66918000D02*
X228303422Y-66784666D01*
X228303422Y-66784666D02*
X228303422Y-65584666D01*
X230703422Y-65584666D02*
X230436755Y-65584666D01*
X230436755Y-65584666D02*
X230303422Y-65651333D01*
X230303422Y-65651333D02*
X230236755Y-65718000D01*
X230236755Y-65718000D02*
X230103422Y-65918000D01*
X230103422Y-65918000D02*
X230036755Y-66184666D01*
X230036755Y-66184666D02*
X230036755Y-66718000D01*
X230036755Y-66718000D02*
X230103422Y-66851333D01*
X230103422Y-66851333D02*
X230170089Y-66918000D01*
X230170089Y-66918000D02*
X230303422Y-66984666D01*
X230303422Y-66984666D02*
X230570089Y-66984666D01*
X230570089Y-66984666D02*
X230703422Y-66918000D01*
X230703422Y-66918000D02*
X230770089Y-66851333D01*
X230770089Y-66851333D02*
X230836755Y-66718000D01*
X230836755Y-66718000D02*
X230836755Y-66384666D01*
X230836755Y-66384666D02*
X230770089Y-66251333D01*
X230770089Y-66251333D02*
X230703422Y-66184666D01*
X230703422Y-66184666D02*
X230570089Y-66118000D01*
X230570089Y-66118000D02*
X230303422Y-66118000D01*
X230303422Y-66118000D02*
X230170089Y-66184666D01*
X230170089Y-66184666D02*
X230103422Y-66251333D01*
X230103422Y-66251333D02*
X230036755Y-66384666D01*
X238404622Y-57187933D02*
X238604622Y-57254600D01*
X238604622Y-57254600D02*
X238671288Y-57321266D01*
X238671288Y-57321266D02*
X238737955Y-57454600D01*
X238737955Y-57454600D02*
X238737955Y-57654600D01*
X238737955Y-57654600D02*
X238671288Y-57787933D01*
X238671288Y-57787933D02*
X238604622Y-57854600D01*
X238604622Y-57854600D02*
X238471288Y-57921266D01*
X238471288Y-57921266D02*
X237937955Y-57921266D01*
X237937955Y-57921266D02*
X237937955Y-56521266D01*
X237937955Y-56521266D02*
X238404622Y-56521266D01*
X238404622Y-56521266D02*
X238537955Y-56587933D01*
X238537955Y-56587933D02*
X238604622Y-56654600D01*
X238604622Y-56654600D02*
X238671288Y-56787933D01*
X238671288Y-56787933D02*
X238671288Y-56921266D01*
X238671288Y-56921266D02*
X238604622Y-57054600D01*
X238604622Y-57054600D02*
X238537955Y-57121266D01*
X238537955Y-57121266D02*
X238404622Y-57187933D01*
X238404622Y-57187933D02*
X237937955Y-57187933D01*
X240071288Y-57921266D02*
X239271288Y-57921266D01*
X239671288Y-57921266D02*
X239671288Y-56521266D01*
X239671288Y-56521266D02*
X239537955Y-56721266D01*
X239537955Y-56721266D02*
X239404622Y-56854600D01*
X239404622Y-56854600D02*
X239271288Y-56921266D01*
X236279687Y-66984666D02*
X236279687Y-65584666D01*
X236279687Y-66918000D02*
X236146354Y-66984666D01*
X236146354Y-66984666D02*
X235879687Y-66984666D01*
X235879687Y-66984666D02*
X235746354Y-66918000D01*
X235746354Y-66918000D02*
X235679687Y-66851333D01*
X235679687Y-66851333D02*
X235613020Y-66718000D01*
X235613020Y-66718000D02*
X235613020Y-66318000D01*
X235613020Y-66318000D02*
X235679687Y-66184666D01*
X235679687Y-66184666D02*
X235746354Y-66118000D01*
X235746354Y-66118000D02*
X235879687Y-66051333D01*
X235879687Y-66051333D02*
X236146354Y-66051333D01*
X236146354Y-66051333D02*
X236279687Y-66118000D01*
X236946354Y-66984666D02*
X236946354Y-66051333D01*
X236946354Y-65584666D02*
X236879687Y-65651333D01*
X236879687Y-65651333D02*
X236946354Y-65718000D01*
X236946354Y-65718000D02*
X237013021Y-65651333D01*
X237013021Y-65651333D02*
X236946354Y-65584666D01*
X236946354Y-65584666D02*
X236946354Y-65718000D01*
X238213021Y-66051333D02*
X238213021Y-67184666D01*
X238213021Y-67184666D02*
X238146354Y-67318000D01*
X238146354Y-67318000D02*
X238079688Y-67384666D01*
X238079688Y-67384666D02*
X237946354Y-67451333D01*
X237946354Y-67451333D02*
X237746354Y-67451333D01*
X237746354Y-67451333D02*
X237613021Y-67384666D01*
X238213021Y-66918000D02*
X238079688Y-66984666D01*
X238079688Y-66984666D02*
X237813021Y-66984666D01*
X237813021Y-66984666D02*
X237679688Y-66918000D01*
X237679688Y-66918000D02*
X237613021Y-66851333D01*
X237613021Y-66851333D02*
X237546354Y-66718000D01*
X237546354Y-66718000D02*
X237546354Y-66318000D01*
X237546354Y-66318000D02*
X237613021Y-66184666D01*
X237613021Y-66184666D02*
X237679688Y-66118000D01*
X237679688Y-66118000D02*
X237813021Y-66051333D01*
X237813021Y-66051333D02*
X238079688Y-66051333D01*
X238079688Y-66051333D02*
X238213021Y-66118000D01*
X238879688Y-66984666D02*
X238879688Y-66051333D01*
X238879688Y-65584666D02*
X238813021Y-65651333D01*
X238813021Y-65651333D02*
X238879688Y-65718000D01*
X238879688Y-65718000D02*
X238946355Y-65651333D01*
X238946355Y-65651333D02*
X238879688Y-65584666D01*
X238879688Y-65584666D02*
X238879688Y-65718000D01*
X239346355Y-66051333D02*
X239879688Y-66051333D01*
X239546355Y-65584666D02*
X239546355Y-66784666D01*
X239546355Y-66784666D02*
X239613022Y-66918000D01*
X239613022Y-66918000D02*
X239746355Y-66984666D01*
X239746355Y-66984666D02*
X239879688Y-66984666D01*
X240946355Y-66984666D02*
X240946355Y-66251333D01*
X240946355Y-66251333D02*
X240879688Y-66118000D01*
X240879688Y-66118000D02*
X240746355Y-66051333D01*
X240746355Y-66051333D02*
X240479688Y-66051333D01*
X240479688Y-66051333D02*
X240346355Y-66118000D01*
X240946355Y-66918000D02*
X240813022Y-66984666D01*
X240813022Y-66984666D02*
X240479688Y-66984666D01*
X240479688Y-66984666D02*
X240346355Y-66918000D01*
X240346355Y-66918000D02*
X240279688Y-66784666D01*
X240279688Y-66784666D02*
X240279688Y-66651333D01*
X240279688Y-66651333D02*
X240346355Y-66518000D01*
X240346355Y-66518000D02*
X240479688Y-66451333D01*
X240479688Y-66451333D02*
X240813022Y-66451333D01*
X240813022Y-66451333D02*
X240946355Y-66384666D01*
X241813022Y-66984666D02*
X241679689Y-66918000D01*
X241679689Y-66918000D02*
X241613022Y-66784666D01*
X241613022Y-66784666D02*
X241613022Y-65584666D01*
X244079689Y-65584666D02*
X243413022Y-65584666D01*
X243413022Y-65584666D02*
X243346355Y-66251333D01*
X243346355Y-66251333D02*
X243413022Y-66184666D01*
X243413022Y-66184666D02*
X243546355Y-66118000D01*
X243546355Y-66118000D02*
X243879689Y-66118000D01*
X243879689Y-66118000D02*
X244013022Y-66184666D01*
X244013022Y-66184666D02*
X244079689Y-66251333D01*
X244079689Y-66251333D02*
X244146355Y-66384666D01*
X244146355Y-66384666D02*
X244146355Y-66718000D01*
X244146355Y-66718000D02*
X244079689Y-66851333D01*
X244079689Y-66851333D02*
X244013022Y-66918000D01*
X244013022Y-66918000D02*
X243879689Y-66984666D01*
X243879689Y-66984666D02*
X243546355Y-66984666D01*
X243546355Y-66984666D02*
X243413022Y-66918000D01*
X243413022Y-66918000D02*
X243346355Y-66851333D01*
X194748802Y-55277609D02*
X194891659Y-55325228D01*
X194891659Y-55325228D02*
X194939278Y-55372847D01*
X194939278Y-55372847D02*
X194986897Y-55468085D01*
X194986897Y-55468085D02*
X194986897Y-55610942D01*
X194986897Y-55610942D02*
X194939278Y-55706180D01*
X194939278Y-55706180D02*
X194891659Y-55753800D01*
X194891659Y-55753800D02*
X194796421Y-55801419D01*
X194796421Y-55801419D02*
X194415469Y-55801419D01*
X194415469Y-55801419D02*
X194415469Y-54801419D01*
X194415469Y-54801419D02*
X194748802Y-54801419D01*
X194748802Y-54801419D02*
X194844040Y-54849038D01*
X194844040Y-54849038D02*
X194891659Y-54896657D01*
X194891659Y-54896657D02*
X194939278Y-54991895D01*
X194939278Y-54991895D02*
X194939278Y-55087133D01*
X194939278Y-55087133D02*
X194891659Y-55182371D01*
X194891659Y-55182371D02*
X194844040Y-55229990D01*
X194844040Y-55229990D02*
X194748802Y-55277609D01*
X194748802Y-55277609D02*
X194415469Y-55277609D01*
X195367850Y-55515704D02*
X195844040Y-55515704D01*
X195272612Y-55801419D02*
X195605945Y-54801419D01*
X195605945Y-54801419D02*
X195939278Y-55801419D01*
X196129755Y-54801419D02*
X196701183Y-54801419D01*
X196415469Y-55801419D02*
X196415469Y-54801419D01*
X197558326Y-55801419D02*
X196986898Y-55801419D01*
X197272612Y-55801419D02*
X197272612Y-54801419D01*
X197272612Y-54801419D02*
X197177374Y-54944276D01*
X197177374Y-54944276D02*
X197082136Y-55039514D01*
X197082136Y-55039514D02*
X196986898Y-55087133D01*
X206898049Y-55680780D02*
X206850430Y-55728400D01*
X206850430Y-55728400D02*
X206707573Y-55776019D01*
X206707573Y-55776019D02*
X206612335Y-55776019D01*
X206612335Y-55776019D02*
X206469478Y-55728400D01*
X206469478Y-55728400D02*
X206374240Y-55633161D01*
X206374240Y-55633161D02*
X206326621Y-55537923D01*
X206326621Y-55537923D02*
X206279002Y-55347447D01*
X206279002Y-55347447D02*
X206279002Y-55204590D01*
X206279002Y-55204590D02*
X206326621Y-55014114D01*
X206326621Y-55014114D02*
X206374240Y-54918876D01*
X206374240Y-54918876D02*
X206469478Y-54823638D01*
X206469478Y-54823638D02*
X206612335Y-54776019D01*
X206612335Y-54776019D02*
X206707573Y-54776019D01*
X206707573Y-54776019D02*
X206850430Y-54823638D01*
X206850430Y-54823638D02*
X206898049Y-54871257D01*
X207898049Y-55776019D02*
X207564716Y-55299828D01*
X207326621Y-55776019D02*
X207326621Y-54776019D01*
X207326621Y-54776019D02*
X207707573Y-54776019D01*
X207707573Y-54776019D02*
X207802811Y-54823638D01*
X207802811Y-54823638D02*
X207850430Y-54871257D01*
X207850430Y-54871257D02*
X207898049Y-54966495D01*
X207898049Y-54966495D02*
X207898049Y-55109352D01*
X207898049Y-55109352D02*
X207850430Y-55204590D01*
X207850430Y-55204590D02*
X207802811Y-55252209D01*
X207802811Y-55252209D02*
X207707573Y-55299828D01*
X207707573Y-55299828D02*
X207326621Y-55299828D01*
X208279002Y-54871257D02*
X208326621Y-54823638D01*
X208326621Y-54823638D02*
X208421859Y-54776019D01*
X208421859Y-54776019D02*
X208659954Y-54776019D01*
X208659954Y-54776019D02*
X208755192Y-54823638D01*
X208755192Y-54823638D02*
X208802811Y-54871257D01*
X208802811Y-54871257D02*
X208850430Y-54966495D01*
X208850430Y-54966495D02*
X208850430Y-55061733D01*
X208850430Y-55061733D02*
X208802811Y-55204590D01*
X208802811Y-55204590D02*
X208231383Y-55776019D01*
X208231383Y-55776019D02*
X208850430Y-55776019D01*
X209469478Y-54776019D02*
X209564716Y-54776019D01*
X209564716Y-54776019D02*
X209659954Y-54823638D01*
X209659954Y-54823638D02*
X209707573Y-54871257D01*
X209707573Y-54871257D02*
X209755192Y-54966495D01*
X209755192Y-54966495D02*
X209802811Y-55156971D01*
X209802811Y-55156971D02*
X209802811Y-55395066D01*
X209802811Y-55395066D02*
X209755192Y-55585542D01*
X209755192Y-55585542D02*
X209707573Y-55680780D01*
X209707573Y-55680780D02*
X209659954Y-55728400D01*
X209659954Y-55728400D02*
X209564716Y-55776019D01*
X209564716Y-55776019D02*
X209469478Y-55776019D01*
X209469478Y-55776019D02*
X209374240Y-55728400D01*
X209374240Y-55728400D02*
X209326621Y-55680780D01*
X209326621Y-55680780D02*
X209279002Y-55585542D01*
X209279002Y-55585542D02*
X209231383Y-55395066D01*
X209231383Y-55395066D02*
X209231383Y-55156971D01*
X209231383Y-55156971D02*
X209279002Y-54966495D01*
X209279002Y-54966495D02*
X209326621Y-54871257D01*
X209326621Y-54871257D02*
X209374240Y-54823638D01*
X209374240Y-54823638D02*
X209469478Y-54776019D01*
X210136145Y-54776019D02*
X210755192Y-54776019D01*
X210755192Y-54776019D02*
X210421859Y-55156971D01*
X210421859Y-55156971D02*
X210564716Y-55156971D01*
X210564716Y-55156971D02*
X210659954Y-55204590D01*
X210659954Y-55204590D02*
X210707573Y-55252209D01*
X210707573Y-55252209D02*
X210755192Y-55347447D01*
X210755192Y-55347447D02*
X210755192Y-55585542D01*
X210755192Y-55585542D02*
X210707573Y-55680780D01*
X210707573Y-55680780D02*
X210659954Y-55728400D01*
X210659954Y-55728400D02*
X210564716Y-55776019D01*
X210564716Y-55776019D02*
X210279002Y-55776019D01*
X210279002Y-55776019D02*
X210183764Y-55728400D01*
X210183764Y-55728400D02*
X210136145Y-55680780D01*
X211136145Y-54871257D02*
X211183764Y-54823638D01*
X211183764Y-54823638D02*
X211279002Y-54776019D01*
X211279002Y-54776019D02*
X211517097Y-54776019D01*
X211517097Y-54776019D02*
X211612335Y-54823638D01*
X211612335Y-54823638D02*
X211659954Y-54871257D01*
X211659954Y-54871257D02*
X211707573Y-54966495D01*
X211707573Y-54966495D02*
X211707573Y-55061733D01*
X211707573Y-55061733D02*
X211659954Y-55204590D01*
X211659954Y-55204590D02*
X211088526Y-55776019D01*
X211088526Y-55776019D02*
X211707573Y-55776019D01*
D11*
G04 #@! TO.C,C2*
X221446540Y-54354400D02*
X220924036Y-54354400D01*
X221446540Y-52884400D02*
X220924036Y-52884400D01*
G04 #@! TO.C,ISP1*
X222014288Y-69307400D02*
X223344288Y-69307400D01*
X222014288Y-70637400D02*
X222014288Y-69307400D01*
X222014288Y-71907400D02*
X224614288Y-71907400D01*
X222014288Y-74507400D02*
X222014288Y-71907400D01*
X222014288Y-74507400D02*
X229754288Y-74507400D01*
X224614288Y-69307400D02*
X229754288Y-69307400D01*
X224614288Y-71907400D02*
X224614288Y-69307400D01*
X229754288Y-74507400D02*
X229754288Y-69307400D01*
D12*
G04 #@! TO.C,B2*
X223011288Y-60620400D02*
X223011288Y-63120400D01*
X223161288Y-58870400D02*
X228861288Y-58870400D01*
X223161288Y-64870400D02*
X228861288Y-64870400D01*
X229011288Y-60620400D02*
X229011288Y-63120400D01*
D13*
X220411288Y-59570400D02*
G75*
G02*
X220211288Y-59570400I-100000J0D01*
G01*
X220211288Y-59570400D02*
G75*
G02*
X220411288Y-59570400I100000J0D01*
G01*
D12*
G04 #@! TO.C,B1*
X236346288Y-60620400D02*
X236346288Y-63120400D01*
X236496288Y-58870400D02*
X242196288Y-58870400D01*
X236496288Y-64870400D02*
X242196288Y-64870400D01*
X242346288Y-60620400D02*
X242346288Y-63120400D01*
D13*
X233746288Y-59570400D02*
G75*
G02*
X233546288Y-59570400I-100000J0D01*
G01*
X233546288Y-59570400D02*
G75*
G02*
X233746288Y-59570400I100000J0D01*
G01*
D12*
G04 #@! TO.C,BAT1*
X191468288Y-56413400D02*
X196828288Y-56413400D01*
X191468288Y-61033400D02*
X191468288Y-56413400D01*
X194518288Y-71653400D02*
X191468288Y-68863400D01*
X196828288Y-71653400D02*
X194518288Y-71653400D01*
X207188288Y-56413400D02*
X212548288Y-56413400D01*
X209498288Y-71653400D02*
X207188288Y-71653400D01*
X212548288Y-56413400D02*
X212548288Y-61033400D01*
X212548288Y-68863400D02*
X209498288Y-71653400D01*
G04 #@! TD*
%LPC*%
D14*
G04 #@! TO.C,C2*
X222135288Y-53619400D03*
X220235288Y-53619400D03*
G04 #@! TD*
D15*
G04 #@! TO.C,ISP1*
X223344288Y-70637400D03*
D16*
X223344288Y-73177400D03*
X225884288Y-70637400D03*
X225884288Y-73177400D03*
X228424288Y-70637400D03*
X228424288Y-73177400D03*
G04 #@! TD*
D17*
G04 #@! TO.C,B2*
X222036288Y-59620400D03*
X229986288Y-59620400D03*
X222036288Y-64120400D03*
X229986288Y-64120400D03*
G04 #@! TD*
G04 #@! TO.C,B1*
X235371288Y-59620400D03*
X243321288Y-59620400D03*
X235371288Y-64120400D03*
X243321288Y-64120400D03*
G04 #@! TD*
D18*
G04 #@! TO.C,BAT1*
X202008288Y-64033400D03*
D19*
X212993288Y-64033400D03*
X191023288Y-64033400D03*
G04 #@! TD*
%LPD*%
M02*
