%TF.GenerationSoftware,KiCad,Pcbnew,9.0.3*%
%TF.CreationDate,2025-08-06T08:50:17-04:00*%
%TF.ProjectId,remote,72656d6f-7465-42e6-9b69-6361645f7063,rev?*%
%TF.SameCoordinates,Original*%
%TF.FileFunction,Legend,Top*%
%TF.FilePolarity,Positive*%
%FSLAX46Y46*%
G04 Gerber Fmt 4.6, Leading zero omitted, Abs format (unit mm)*
G04 Created by KiCad (PCBNEW 9.0.3) date 2025-08-06 08:50:17*
%MOMM*%
%LPD*%
G01*
G04 APERTURE LIST*
%ADD10C,0.150000*%
%ADD11C,0.120000*%
%ADD12C,0.127000*%
%ADD13C,0.200000*%
G04 APERTURE END LIST*
D10*
X225069622Y-57187933D02*
X225269622Y-57254600D01*
X225269622Y-57254600D02*
X225336288Y-57321266D01*
X225336288Y-57321266D02*
X225402955Y-57454600D01*
X225402955Y-57454600D02*
X225402955Y-57654600D01*
X225402955Y-57654600D02*
X225336288Y-57787933D01*
X225336288Y-57787933D02*
X225269622Y-57854600D01*
X225269622Y-57854600D02*
X225136288Y-57921266D01*
X225136288Y-57921266D02*
X224602955Y-57921266D01*
X224602955Y-57921266D02*
X224602955Y-56521266D01*
X224602955Y-56521266D02*
X225069622Y-56521266D01*
X225069622Y-56521266D02*
X225202955Y-56587933D01*
X225202955Y-56587933D02*
X225269622Y-56654600D01*
X225269622Y-56654600D02*
X225336288Y-56787933D01*
X225336288Y-56787933D02*
X225336288Y-56921266D01*
X225336288Y-56921266D02*
X225269622Y-57054600D01*
X225269622Y-57054600D02*
X225202955Y-57121266D01*
X225202955Y-57121266D02*
X225069622Y-57187933D01*
X225069622Y-57187933D02*
X224602955Y-57187933D01*
X225936288Y-56654600D02*
X226002955Y-56587933D01*
X226002955Y-56587933D02*
X226136288Y-56521266D01*
X226136288Y-56521266D02*
X226469622Y-56521266D01*
X226469622Y-56521266D02*
X226602955Y-56587933D01*
X226602955Y-56587933D02*
X226669622Y-56654600D01*
X226669622Y-56654600D02*
X226736288Y-56787933D01*
X226736288Y-56787933D02*
X226736288Y-56921266D01*
X226736288Y-56921266D02*
X226669622Y-57121266D01*
X226669622Y-57121266D02*
X225869622Y-57921266D01*
X225869622Y-57921266D02*
X226736288Y-57921266D01*
X238404622Y-57187933D02*
X238604622Y-57254600D01*
X238604622Y-57254600D02*
X238671288Y-57321266D01*
X238671288Y-57321266D02*
X238737955Y-57454600D01*
X238737955Y-57454600D02*
X238737955Y-57654600D01*
X238737955Y-57654600D02*
X238671288Y-57787933D01*
X238671288Y-57787933D02*
X238604622Y-57854600D01*
X238604622Y-57854600D02*
X238471288Y-57921266D01*
X238471288Y-57921266D02*
X237937955Y-57921266D01*
X237937955Y-57921266D02*
X237937955Y-56521266D01*
X237937955Y-56521266D02*
X238404622Y-56521266D01*
X238404622Y-56521266D02*
X238537955Y-56587933D01*
X238537955Y-56587933D02*
X238604622Y-56654600D01*
X238604622Y-56654600D02*
X238671288Y-56787933D01*
X238671288Y-56787933D02*
X238671288Y-56921266D01*
X238671288Y-56921266D02*
X238604622Y-57054600D01*
X238604622Y-57054600D02*
X238537955Y-57121266D01*
X238537955Y-57121266D02*
X238404622Y-57187933D01*
X238404622Y-57187933D02*
X237937955Y-57187933D01*
X240071288Y-57921266D02*
X239271288Y-57921266D01*
X239671288Y-57921266D02*
X239671288Y-56521266D01*
X239671288Y-56521266D02*
X239537955Y-56721266D01*
X239537955Y-56721266D02*
X239404622Y-56854600D01*
X239404622Y-56854600D02*
X239271288Y-56921266D01*
X204103526Y-53173819D02*
X204151145Y-53126200D01*
X204151145Y-53126200D02*
X204294002Y-53078580D01*
X204294002Y-53078580D02*
X204389240Y-53078580D01*
X204389240Y-53078580D02*
X204532097Y-53126200D01*
X204532097Y-53126200D02*
X204627335Y-53221438D01*
X204627335Y-53221438D02*
X204674954Y-53316676D01*
X204674954Y-53316676D02*
X204722573Y-53507152D01*
X204722573Y-53507152D02*
X204722573Y-53650009D01*
X204722573Y-53650009D02*
X204674954Y-53840485D01*
X204674954Y-53840485D02*
X204627335Y-53935723D01*
X204627335Y-53935723D02*
X204532097Y-54030961D01*
X204532097Y-54030961D02*
X204389240Y-54078580D01*
X204389240Y-54078580D02*
X204294002Y-54078580D01*
X204294002Y-54078580D02*
X204151145Y-54030961D01*
X204151145Y-54030961D02*
X204103526Y-53983342D01*
X203103526Y-53078580D02*
X203436859Y-53554771D01*
X203674954Y-53078580D02*
X203674954Y-54078580D01*
X203674954Y-54078580D02*
X203294002Y-54078580D01*
X203294002Y-54078580D02*
X203198764Y-54030961D01*
X203198764Y-54030961D02*
X203151145Y-53983342D01*
X203151145Y-53983342D02*
X203103526Y-53888104D01*
X203103526Y-53888104D02*
X203103526Y-53745247D01*
X203103526Y-53745247D02*
X203151145Y-53650009D01*
X203151145Y-53650009D02*
X203198764Y-53602390D01*
X203198764Y-53602390D02*
X203294002Y-53554771D01*
X203294002Y-53554771D02*
X203674954Y-53554771D01*
X202722573Y-53983342D02*
X202674954Y-54030961D01*
X202674954Y-54030961D02*
X202579716Y-54078580D01*
X202579716Y-54078580D02*
X202341621Y-54078580D01*
X202341621Y-54078580D02*
X202246383Y-54030961D01*
X202246383Y-54030961D02*
X202198764Y-53983342D01*
X202198764Y-53983342D02*
X202151145Y-53888104D01*
X202151145Y-53888104D02*
X202151145Y-53792866D01*
X202151145Y-53792866D02*
X202198764Y-53650009D01*
X202198764Y-53650009D02*
X202770192Y-53078580D01*
X202770192Y-53078580D02*
X202151145Y-53078580D01*
X201532097Y-54078580D02*
X201436859Y-54078580D01*
X201436859Y-54078580D02*
X201341621Y-54030961D01*
X201341621Y-54030961D02*
X201294002Y-53983342D01*
X201294002Y-53983342D02*
X201246383Y-53888104D01*
X201246383Y-53888104D02*
X201198764Y-53697628D01*
X201198764Y-53697628D02*
X201198764Y-53459533D01*
X201198764Y-53459533D02*
X201246383Y-53269057D01*
X201246383Y-53269057D02*
X201294002Y-53173819D01*
X201294002Y-53173819D02*
X201341621Y-53126200D01*
X201341621Y-53126200D02*
X201436859Y-53078580D01*
X201436859Y-53078580D02*
X201532097Y-53078580D01*
X201532097Y-53078580D02*
X201627335Y-53126200D01*
X201627335Y-53126200D02*
X201674954Y-53173819D01*
X201674954Y-53173819D02*
X201722573Y-53269057D01*
X201722573Y-53269057D02*
X201770192Y-53459533D01*
X201770192Y-53459533D02*
X201770192Y-53697628D01*
X201770192Y-53697628D02*
X201722573Y-53888104D01*
X201722573Y-53888104D02*
X201674954Y-53983342D01*
X201674954Y-53983342D02*
X201627335Y-54030961D01*
X201627335Y-54030961D02*
X201532097Y-54078580D01*
X200865430Y-54078580D02*
X200246383Y-54078580D01*
X200246383Y-54078580D02*
X200579716Y-53697628D01*
X200579716Y-53697628D02*
X200436859Y-53697628D01*
X200436859Y-53697628D02*
X200341621Y-53650009D01*
X200341621Y-53650009D02*
X200294002Y-53602390D01*
X200294002Y-53602390D02*
X200246383Y-53507152D01*
X200246383Y-53507152D02*
X200246383Y-53269057D01*
X200246383Y-53269057D02*
X200294002Y-53173819D01*
X200294002Y-53173819D02*
X200341621Y-53126200D01*
X200341621Y-53126200D02*
X200436859Y-53078580D01*
X200436859Y-53078580D02*
X200722573Y-53078580D01*
X200722573Y-53078580D02*
X200817811Y-53126200D01*
X200817811Y-53126200D02*
X200865430Y-53173819D01*
X199865430Y-53983342D02*
X199817811Y-54030961D01*
X199817811Y-54030961D02*
X199722573Y-54078580D01*
X199722573Y-54078580D02*
X199484478Y-54078580D01*
X199484478Y-54078580D02*
X199389240Y-54030961D01*
X199389240Y-54030961D02*
X199341621Y-53983342D01*
X199341621Y-53983342D02*
X199294002Y-53888104D01*
X199294002Y-53888104D02*
X199294002Y-53792866D01*
X199294002Y-53792866D02*
X199341621Y-53650009D01*
X199341621Y-53650009D02*
X199913049Y-53078580D01*
X199913049Y-53078580D02*
X199294002Y-53078580D01*
D11*
%TO.C,ISP1*%
X222014288Y-69307400D02*
X223344288Y-69307400D01*
X222014288Y-70637400D02*
X222014288Y-69307400D01*
X222014288Y-71907400D02*
X224614288Y-71907400D01*
X222014288Y-74507400D02*
X222014288Y-71907400D01*
X222014288Y-74507400D02*
X229754288Y-74507400D01*
X224614288Y-69307400D02*
X229754288Y-69307400D01*
X224614288Y-71907400D02*
X224614288Y-69307400D01*
X229754288Y-74507400D02*
X229754288Y-69307400D01*
D12*
%TO.C,B2*%
X223011288Y-60620400D02*
X223011288Y-63120400D01*
X223161288Y-58870400D02*
X228861288Y-58870400D01*
X223161288Y-64870400D02*
X228861288Y-64870400D01*
X229011288Y-60620400D02*
X229011288Y-63120400D01*
D13*
X220411288Y-59570400D02*
G75*
G02*
X220211288Y-59570400I-100000J0D01*
G01*
X220211288Y-59570400D02*
G75*
G02*
X220411288Y-59570400I100000J0D01*
G01*
D12*
%TO.C,B1*%
X236346288Y-60620400D02*
X236346288Y-63120400D01*
X236496288Y-58870400D02*
X242196288Y-58870400D01*
X236496288Y-64870400D02*
X242196288Y-64870400D01*
X242346288Y-60620400D02*
X242346288Y-63120400D01*
D13*
X233746288Y-59570400D02*
G75*
G02*
X233546288Y-59570400I-100000J0D01*
G01*
X233546288Y-59570400D02*
G75*
G02*
X233746288Y-59570400I100000J0D01*
G01*
%TD*%
%LPC*%
G36*
X223591030Y-72364001D02*
G01*
X223744975Y-72427767D01*
X223883522Y-72520341D01*
X224001347Y-72638166D01*
X224093921Y-72776713D01*
X224157687Y-72930658D01*
X224190195Y-73094085D01*
X224190195Y-73260715D01*
X224157687Y-73424142D01*
X224093921Y-73578087D01*
X224001347Y-73716634D01*
X223883522Y-73834459D01*
X223744975Y-73927033D01*
X223591030Y-73990799D01*
X223427603Y-74023307D01*
X223260973Y-74023307D01*
X223097546Y-73990799D01*
X222943601Y-73927033D01*
X222805054Y-73834459D01*
X222687229Y-73716634D01*
X222594655Y-73578087D01*
X222530889Y-73424142D01*
X222498381Y-73260715D01*
X222498381Y-73094085D01*
X222530889Y-72930658D01*
X222594655Y-72776713D01*
X222687229Y-72638166D01*
X222805054Y-72520341D01*
X222943601Y-72427767D01*
X223097546Y-72364001D01*
X223260973Y-72331493D01*
X223427603Y-72331493D01*
X223591030Y-72364001D01*
G37*
G36*
X226131030Y-72364001D02*
G01*
X226284975Y-72427767D01*
X226423522Y-72520341D01*
X226541347Y-72638166D01*
X226633921Y-72776713D01*
X226697687Y-72930658D01*
X226730195Y-73094085D01*
X226730195Y-73260715D01*
X226697687Y-73424142D01*
X226633921Y-73578087D01*
X226541347Y-73716634D01*
X226423522Y-73834459D01*
X226284975Y-73927033D01*
X226131030Y-73990799D01*
X225967603Y-74023307D01*
X225800973Y-74023307D01*
X225637546Y-73990799D01*
X225483601Y-73927033D01*
X225345054Y-73834459D01*
X225227229Y-73716634D01*
X225134655Y-73578087D01*
X225070889Y-73424142D01*
X225038381Y-73260715D01*
X225038381Y-73094085D01*
X225070889Y-72930658D01*
X225134655Y-72776713D01*
X225227229Y-72638166D01*
X225345054Y-72520341D01*
X225483601Y-72427767D01*
X225637546Y-72364001D01*
X225800973Y-72331493D01*
X225967603Y-72331493D01*
X226131030Y-72364001D01*
G37*
G36*
X228671030Y-72364001D02*
G01*
X228824975Y-72427767D01*
X228963522Y-72520341D01*
X229081347Y-72638166D01*
X229173921Y-72776713D01*
X229237687Y-72930658D01*
X229270195Y-73094085D01*
X229270195Y-73260715D01*
X229237687Y-73424142D01*
X229173921Y-73578087D01*
X229081347Y-73716634D01*
X228963522Y-73834459D01*
X228824975Y-73927033D01*
X228671030Y-73990799D01*
X228507603Y-74023307D01*
X228340973Y-74023307D01*
X228177546Y-73990799D01*
X228023601Y-73927033D01*
X227885054Y-73834459D01*
X227767229Y-73716634D01*
X227674655Y-73578087D01*
X227610889Y-73424142D01*
X227578381Y-73260715D01*
X227578381Y-73094085D01*
X227610889Y-72930658D01*
X227674655Y-72776713D01*
X227767229Y-72638166D01*
X227885054Y-72520341D01*
X228023601Y-72427767D01*
X228177546Y-72364001D01*
X228340973Y-72331493D01*
X228507603Y-72331493D01*
X228671030Y-72364001D01*
G37*
G36*
X202879660Y-55186208D02*
G01*
X203456429Y-55262141D01*
X204026996Y-55375634D01*
X204588919Y-55526200D01*
X205139791Y-55713196D01*
X205677253Y-55935821D01*
X206199005Y-56193120D01*
X206702811Y-56483993D01*
X207186515Y-56807193D01*
X207648044Y-57161337D01*
X208085424Y-57544908D01*
X208496780Y-57956264D01*
X208880351Y-58393644D01*
X209234495Y-58855173D01*
X209557695Y-59338877D01*
X209848568Y-59842683D01*
X210105867Y-60364435D01*
X210328492Y-60901897D01*
X210515488Y-61452769D01*
X210666054Y-62014692D01*
X210779547Y-62585259D01*
X210855480Y-63162028D01*
X210893528Y-63742527D01*
X210893528Y-64324273D01*
X210855480Y-64904772D01*
X210779547Y-65481541D01*
X210666054Y-66052108D01*
X210515488Y-66614031D01*
X210328492Y-67164903D01*
X210105867Y-67702365D01*
X209848568Y-68224117D01*
X209557695Y-68727923D01*
X209234495Y-69211627D01*
X208880351Y-69673156D01*
X208496780Y-70110536D01*
X208085424Y-70521892D01*
X207648044Y-70905463D01*
X207186515Y-71259607D01*
X206702811Y-71582807D01*
X206199005Y-71873680D01*
X205677253Y-72130979D01*
X205139791Y-72353604D01*
X204588919Y-72540600D01*
X204026996Y-72691166D01*
X203456429Y-72804659D01*
X202879660Y-72880592D01*
X202299161Y-72918640D01*
X201717415Y-72918640D01*
X201136916Y-72880592D01*
X200560147Y-72804659D01*
X199989580Y-72691166D01*
X199427657Y-72540600D01*
X198876785Y-72353604D01*
X198339323Y-72130979D01*
X197817571Y-71873680D01*
X197313765Y-71582807D01*
X196830061Y-71259607D01*
X196368532Y-70905463D01*
X195931152Y-70521892D01*
X195519796Y-70110536D01*
X195136225Y-69673156D01*
X194782081Y-69211627D01*
X194458881Y-68727923D01*
X194168008Y-68224117D01*
X193910709Y-67702365D01*
X193688084Y-67164903D01*
X193501088Y-66614031D01*
X193350522Y-66052108D01*
X193237029Y-65481541D01*
X193161096Y-64904772D01*
X193123048Y-64324273D01*
X193123048Y-63742527D01*
X193161096Y-63162028D01*
X193237029Y-62585259D01*
X193350522Y-62014692D01*
X193501088Y-61452769D01*
X193688084Y-60901897D01*
X193910709Y-60364435D01*
X194168008Y-59842683D01*
X194458881Y-59338877D01*
X194782081Y-58855173D01*
X195136225Y-58393644D01*
X195519796Y-57956264D01*
X195931152Y-57544908D01*
X196368532Y-57161337D01*
X196830061Y-56807193D01*
X197313765Y-56483993D01*
X197817571Y-56193120D01*
X198339323Y-55935821D01*
X198876785Y-55713196D01*
X199427657Y-55526200D01*
X199989580Y-55375634D01*
X200560147Y-55262141D01*
X201136916Y-55186208D01*
X201717415Y-55148160D01*
X202299161Y-55148160D01*
X202879660Y-55186208D01*
G37*
G36*
X224194288Y-71487400D02*
G01*
X222494288Y-71487400D01*
X222494288Y-69787400D01*
X224194288Y-69787400D01*
X224194288Y-71487400D01*
G37*
G36*
X226131030Y-69824001D02*
G01*
X226284975Y-69887767D01*
X226423522Y-69980341D01*
X226541347Y-70098166D01*
X226633921Y-70236713D01*
X226697687Y-70390658D01*
X226730195Y-70554085D01*
X226730195Y-70720715D01*
X226697687Y-70884142D01*
X226633921Y-71038087D01*
X226541347Y-71176634D01*
X226423522Y-71294459D01*
X226284975Y-71387033D01*
X226131030Y-71450799D01*
X225967603Y-71483307D01*
X225800973Y-71483307D01*
X225637546Y-71450799D01*
X225483601Y-71387033D01*
X225345054Y-71294459D01*
X225227229Y-71176634D01*
X225134655Y-71038087D01*
X225070889Y-70884142D01*
X225038381Y-70720715D01*
X225038381Y-70554085D01*
X225070889Y-70390658D01*
X225134655Y-70236713D01*
X225227229Y-70098166D01*
X225345054Y-69980341D01*
X225483601Y-69887767D01*
X225637546Y-69824001D01*
X225800973Y-69791493D01*
X225967603Y-69791493D01*
X226131030Y-69824001D01*
G37*
G36*
X228671030Y-69824001D02*
G01*
X228824975Y-69887767D01*
X228963522Y-69980341D01*
X229081347Y-70098166D01*
X229173921Y-70236713D01*
X229237687Y-70390658D01*
X229270195Y-70554085D01*
X229270195Y-70720715D01*
X229237687Y-70884142D01*
X229173921Y-71038087D01*
X229081347Y-71176634D01*
X228963522Y-71294459D01*
X228824975Y-71387033D01*
X228671030Y-71450799D01*
X228507603Y-71483307D01*
X228340973Y-71483307D01*
X228177546Y-71450799D01*
X228023601Y-71387033D01*
X227885054Y-71294459D01*
X227767229Y-71176634D01*
X227674655Y-71038087D01*
X227610889Y-70884142D01*
X227578381Y-70720715D01*
X227578381Y-70554085D01*
X227610889Y-70390658D01*
X227674655Y-70236713D01*
X227767229Y-70098166D01*
X227885054Y-69980341D01*
X228023601Y-69887767D01*
X228177546Y-69824001D01*
X228340973Y-69791493D01*
X228507603Y-69791493D01*
X228671030Y-69824001D01*
G37*
G36*
X192418288Y-66573400D02*
G01*
X189628288Y-66573400D01*
X189628288Y-61493400D01*
X192418288Y-61493400D01*
X192418288Y-66573400D01*
G37*
G36*
X214388288Y-66573400D02*
G01*
X211598288Y-66573400D01*
X211598288Y-61493400D01*
X214388288Y-61493400D01*
X214388288Y-66573400D01*
G37*
G36*
X222850322Y-63376164D02*
G01*
X222883413Y-63398275D01*
X222905524Y-63431366D01*
X222913288Y-63470400D01*
X222913288Y-64770400D01*
X222905524Y-64809434D01*
X222883413Y-64842525D01*
X222850322Y-64864636D01*
X222811288Y-64872400D01*
X221261288Y-64872400D01*
X221222254Y-64864636D01*
X221189163Y-64842525D01*
X221167052Y-64809434D01*
X221159288Y-64770400D01*
X221159288Y-63470400D01*
X221167052Y-63431366D01*
X221189163Y-63398275D01*
X221222254Y-63376164D01*
X221261288Y-63368400D01*
X222811288Y-63368400D01*
X222850322Y-63376164D01*
G37*
G36*
X230800322Y-63376164D02*
G01*
X230833413Y-63398275D01*
X230855524Y-63431366D01*
X230863288Y-63470400D01*
X230863288Y-64770400D01*
X230855524Y-64809434D01*
X230833413Y-64842525D01*
X230800322Y-64864636D01*
X230761288Y-64872400D01*
X229211288Y-64872400D01*
X229172254Y-64864636D01*
X229139163Y-64842525D01*
X229117052Y-64809434D01*
X229109288Y-64770400D01*
X229109288Y-63470400D01*
X229117052Y-63431366D01*
X229139163Y-63398275D01*
X229172254Y-63376164D01*
X229211288Y-63368400D01*
X230761288Y-63368400D01*
X230800322Y-63376164D01*
G37*
G36*
X236185322Y-63376164D02*
G01*
X236218413Y-63398275D01*
X236240524Y-63431366D01*
X236248288Y-63470400D01*
X236248288Y-64770400D01*
X236240524Y-64809434D01*
X236218413Y-64842525D01*
X236185322Y-64864636D01*
X236146288Y-64872400D01*
X234596288Y-64872400D01*
X234557254Y-64864636D01*
X234524163Y-64842525D01*
X234502052Y-64809434D01*
X234494288Y-64770400D01*
X234494288Y-63470400D01*
X234502052Y-63431366D01*
X234524163Y-63398275D01*
X234557254Y-63376164D01*
X234596288Y-63368400D01*
X236146288Y-63368400D01*
X236185322Y-63376164D01*
G37*
G36*
X244135322Y-63376164D02*
G01*
X244168413Y-63398275D01*
X244190524Y-63431366D01*
X244198288Y-63470400D01*
X244198288Y-64770400D01*
X244190524Y-64809434D01*
X244168413Y-64842525D01*
X244135322Y-64864636D01*
X244096288Y-64872400D01*
X242546288Y-64872400D01*
X242507254Y-64864636D01*
X242474163Y-64842525D01*
X242452052Y-64809434D01*
X242444288Y-64770400D01*
X242444288Y-63470400D01*
X242452052Y-63431366D01*
X242474163Y-63398275D01*
X242507254Y-63376164D01*
X242546288Y-63368400D01*
X244096288Y-63368400D01*
X244135322Y-63376164D01*
G37*
G36*
X222850322Y-58876164D02*
G01*
X222883413Y-58898275D01*
X222905524Y-58931366D01*
X222913288Y-58970400D01*
X222913288Y-60270400D01*
X222905524Y-60309434D01*
X222883413Y-60342525D01*
X222850322Y-60364636D01*
X222811288Y-60372400D01*
X221261288Y-60372400D01*
X221222254Y-60364636D01*
X221189163Y-60342525D01*
X221167052Y-60309434D01*
X221159288Y-60270400D01*
X221159288Y-58970400D01*
X221167052Y-58931366D01*
X221189163Y-58898275D01*
X221222254Y-58876164D01*
X221261288Y-58868400D01*
X222811288Y-58868400D01*
X222850322Y-58876164D01*
G37*
G36*
X230800322Y-58876164D02*
G01*
X230833413Y-58898275D01*
X230855524Y-58931366D01*
X230863288Y-58970400D01*
X230863288Y-60270400D01*
X230855524Y-60309434D01*
X230833413Y-60342525D01*
X230800322Y-60364636D01*
X230761288Y-60372400D01*
X229211288Y-60372400D01*
X229172254Y-60364636D01*
X229139163Y-60342525D01*
X229117052Y-60309434D01*
X229109288Y-60270400D01*
X229109288Y-58970400D01*
X229117052Y-58931366D01*
X229139163Y-58898275D01*
X229172254Y-58876164D01*
X229211288Y-58868400D01*
X230761288Y-58868400D01*
X230800322Y-58876164D01*
G37*
G36*
X236185322Y-58876164D02*
G01*
X236218413Y-58898275D01*
X236240524Y-58931366D01*
X236248288Y-58970400D01*
X236248288Y-60270400D01*
X236240524Y-60309434D01*
X236218413Y-60342525D01*
X236185322Y-60364636D01*
X236146288Y-60372400D01*
X234596288Y-60372400D01*
X234557254Y-60364636D01*
X234524163Y-60342525D01*
X234502052Y-60309434D01*
X234494288Y-60270400D01*
X234494288Y-58970400D01*
X234502052Y-58931366D01*
X234524163Y-58898275D01*
X234557254Y-58876164D01*
X234596288Y-58868400D01*
X236146288Y-58868400D01*
X236185322Y-58876164D01*
G37*
G36*
X244135322Y-58876164D02*
G01*
X244168413Y-58898275D01*
X244190524Y-58931366D01*
X244198288Y-58970400D01*
X244198288Y-60270400D01*
X244190524Y-60309434D01*
X244168413Y-60342525D01*
X244135322Y-60364636D01*
X244096288Y-60372400D01*
X242546288Y-60372400D01*
X242507254Y-60364636D01*
X242474163Y-60342525D01*
X242452052Y-60309434D01*
X242444288Y-60270400D01*
X242444288Y-58970400D01*
X242452052Y-58931366D01*
X242474163Y-58898275D01*
X242507254Y-58876164D01*
X242546288Y-58868400D01*
X244096288Y-58868400D01*
X244135322Y-58876164D01*
G37*
G36*
X221033556Y-53427012D02*
G01*
X221065999Y-53448689D01*
X221087676Y-53481132D01*
X221095288Y-53519400D01*
X221095288Y-53719400D01*
X221087676Y-53757668D01*
X221065999Y-53790111D01*
X221033556Y-53811788D01*
X220995288Y-53819400D01*
X220735288Y-53819400D01*
X220697020Y-53811788D01*
X220664577Y-53790111D01*
X220642900Y-53757668D01*
X220635288Y-53719400D01*
X220635288Y-53519400D01*
X220642900Y-53481132D01*
X220664577Y-53448689D01*
X220697020Y-53427012D01*
X220735288Y-53419400D01*
X220995288Y-53419400D01*
X221033556Y-53427012D01*
G37*
G36*
X221673556Y-53427012D02*
G01*
X221705999Y-53448689D01*
X221727676Y-53481132D01*
X221735288Y-53519400D01*
X221735288Y-53719400D01*
X221727676Y-53757668D01*
X221705999Y-53790111D01*
X221673556Y-53811788D01*
X221635288Y-53819400D01*
X221375288Y-53819400D01*
X221337020Y-53811788D01*
X221304577Y-53790111D01*
X221282900Y-53757668D01*
X221275288Y-53719400D01*
X221275288Y-53519400D01*
X221282900Y-53481132D01*
X221304577Y-53448689D01*
X221337020Y-53427012D01*
X221375288Y-53419400D01*
X221635288Y-53419400D01*
X221673556Y-53427012D01*
G37*
%LPD*%
M02*
