G04 #@! TF.GenerationSoftware,KiCad,Pcbnew,9.0.3*
G04 #@! TF.CreationDate,2025-08-17T17:29:30-04:00*
G04 #@! TF.ProjectId,remote,72656d6f-7465-42e6-9b69-6361645f7063,rev?*
G04 #@! TF.SameCoordinates,Original*
G04 #@! TF.FileFunction,Copper,L1,Top*
G04 #@! TF.FilePolarity,Positive*
%FSLAX46Y46*%
G04 Gerber Fmt 4.6, Leading zero omitted, Abs format (unit mm)*
G04 Created by KiCad (PCBNEW 9.0.3) date 2025-08-17 17:29:30*
%MOMM*%
%LPD*%
G01*
G04 APERTURE LIST*
G04 Aperture macros list*
%AMRoundRect*
0 Rectangle with rounded corners*
0 $1 Rounding radius*
0 $2 $3 $4 $5 $6 $7 $8 $9 X,Y pos of 4 corners*
0 Add a 4 corners polygon primitive as box body*
4,1,4,$2,$3,$4,$5,$6,$7,$8,$9,$2,$3,0*
0 Add four circle primitives for the rounded corners*
1,1,$1+$1,$2,$3*
1,1,$1+$1,$4,$5*
1,1,$1+$1,$6,$7*
1,1,$1+$1,$8,$9*
0 Add four rect primitives between the rounded corners*
20,1,$1+$1,$2,$3,$4,$5,0*
20,1,$1+$1,$4,$5,$6,$7,0*
20,1,$1+$1,$6,$7,$8,$9,0*
20,1,$1+$1,$8,$9,$2,$3,0*%
G04 Aperture macros list end*
%ADD10C,0.200000*%
G04 #@! TA.AperFunction,NonConductor*
%ADD11C,0.200000*%
G04 #@! TD*
G04 #@! TA.AperFunction,SMDPad,CuDef*
%ADD12RoundRect,0.250000X0.250000X0.475000X-0.250000X0.475000X-0.250000X-0.475000X0.250000X-0.475000X0*%
G04 #@! TD*
G04 #@! TA.AperFunction,ComponentPad*
%ADD13R,1.700000X1.700000*%
G04 #@! TD*
G04 #@! TA.AperFunction,ComponentPad*
%ADD14C,1.700000*%
G04 #@! TD*
G04 #@! TA.AperFunction,SMDPad,CuDef*
%ADD15R,1.550000X1.300000*%
G04 #@! TD*
G04 #@! TA.AperFunction,SMDPad,CuDef*
%ADD16C,17.780000*%
G04 #@! TD*
G04 #@! TA.AperFunction,SMDPad,CuDef*
%ADD17R,2.790000X5.080000*%
G04 #@! TD*
G04 #@! TA.AperFunction,ViaPad*
%ADD18C,0.505460*%
G04 #@! TD*
G04 #@! TA.AperFunction,Conductor*
%ADD19C,0.152400*%
G04 #@! TD*
G04 APERTURE END LIST*
D10*
D11*
X254219507Y-63204552D02*
X254219507Y-63775980D01*
X254219507Y-63490266D02*
X253219507Y-63490266D01*
X253219507Y-63490266D02*
X253362364Y-63585504D01*
X253362364Y-63585504D02*
X253457602Y-63680742D01*
X253457602Y-63680742D02*
X253505221Y-63775980D01*
X254124268Y-62775980D02*
X254171888Y-62728361D01*
X254171888Y-62728361D02*
X254219507Y-62775980D01*
X254219507Y-62775980D02*
X254171888Y-62823599D01*
X254171888Y-62823599D02*
X254124268Y-62775980D01*
X254124268Y-62775980D02*
X254219507Y-62775980D01*
X253219507Y-62109314D02*
X253219507Y-62014076D01*
X253219507Y-62014076D02*
X253267126Y-61918838D01*
X253267126Y-61918838D02*
X253314745Y-61871219D01*
X253314745Y-61871219D02*
X253409983Y-61823600D01*
X253409983Y-61823600D02*
X253600459Y-61775981D01*
X253600459Y-61775981D02*
X253838554Y-61775981D01*
X253838554Y-61775981D02*
X254029030Y-61823600D01*
X254029030Y-61823600D02*
X254124268Y-61871219D01*
X254124268Y-61871219D02*
X254171888Y-61918838D01*
X254171888Y-61918838D02*
X254219507Y-62014076D01*
X254219507Y-62014076D02*
X254219507Y-62109314D01*
X254219507Y-62109314D02*
X254171888Y-62204552D01*
X254171888Y-62204552D02*
X254124268Y-62252171D01*
X254124268Y-62252171D02*
X254029030Y-62299790D01*
X254029030Y-62299790D02*
X253838554Y-62347409D01*
X253838554Y-62347409D02*
X253600459Y-62347409D01*
X253600459Y-62347409D02*
X253409983Y-62299790D01*
X253409983Y-62299790D02*
X253314745Y-62252171D01*
X253314745Y-62252171D02*
X253267126Y-62204552D01*
X253267126Y-62204552D02*
X253219507Y-62109314D01*
X253552840Y-60918838D02*
X254219507Y-60918838D01*
X253171888Y-61156933D02*
X253886173Y-61395028D01*
X253886173Y-61395028D02*
X253886173Y-60775981D01*
X253552840Y-59966457D02*
X254219507Y-59966457D01*
X253171888Y-60204552D02*
X253886173Y-60442647D01*
X253886173Y-60442647D02*
X253886173Y-59823600D01*
X261426888Y-48564800D02*
X254380868Y-48564800D01*
X255553708Y-75082400D02*
X247694888Y-75082400D01*
X254967288Y-48564800D02*
X254967288Y-75082400D01*
X254967288Y-48564800D02*
X255553709Y-49691304D01*
X254967288Y-48564800D02*
X254380867Y-49691304D01*
X254967288Y-75082400D02*
X254380867Y-73955896D01*
X254967288Y-75082400D02*
X255553709Y-73955896D01*
D10*
D11*
X215600707Y-80338657D02*
X215648326Y-80291038D01*
X215648326Y-80291038D02*
X215743564Y-80243419D01*
X215743564Y-80243419D02*
X215981659Y-80243419D01*
X215981659Y-80243419D02*
X216076897Y-80291038D01*
X216076897Y-80291038D02*
X216124516Y-80338657D01*
X216124516Y-80338657D02*
X216172135Y-80433895D01*
X216172135Y-80433895D02*
X216172135Y-80529133D01*
X216172135Y-80529133D02*
X216124516Y-80671990D01*
X216124516Y-80671990D02*
X215553088Y-81243419D01*
X215553088Y-81243419D02*
X216172135Y-81243419D01*
X216600707Y-81148180D02*
X216648326Y-81195800D01*
X216648326Y-81195800D02*
X216600707Y-81243419D01*
X216600707Y-81243419D02*
X216553088Y-81195800D01*
X216553088Y-81195800D02*
X216600707Y-81148180D01*
X216600707Y-81148180D02*
X216600707Y-81243419D01*
X217029278Y-80338657D02*
X217076897Y-80291038D01*
X217076897Y-80291038D02*
X217172135Y-80243419D01*
X217172135Y-80243419D02*
X217410230Y-80243419D01*
X217410230Y-80243419D02*
X217505468Y-80291038D01*
X217505468Y-80291038D02*
X217553087Y-80338657D01*
X217553087Y-80338657D02*
X217600706Y-80433895D01*
X217600706Y-80433895D02*
X217600706Y-80529133D01*
X217600706Y-80529133D02*
X217553087Y-80671990D01*
X217553087Y-80671990D02*
X216981659Y-81243419D01*
X216981659Y-81243419D02*
X217600706Y-81243419D01*
X218457849Y-80576752D02*
X218457849Y-81243419D01*
X218219754Y-80195800D02*
X217981659Y-80910085D01*
X217981659Y-80910085D02*
X218600706Y-80910085D01*
X219410230Y-80243419D02*
X219219754Y-80243419D01*
X219219754Y-80243419D02*
X219124516Y-80291038D01*
X219124516Y-80291038D02*
X219076897Y-80338657D01*
X219076897Y-80338657D02*
X218981659Y-80481514D01*
X218981659Y-80481514D02*
X218934040Y-80671990D01*
X218934040Y-80671990D02*
X218934040Y-81052942D01*
X218934040Y-81052942D02*
X218981659Y-81148180D01*
X218981659Y-81148180D02*
X219029278Y-81195800D01*
X219029278Y-81195800D02*
X219124516Y-81243419D01*
X219124516Y-81243419D02*
X219314992Y-81243419D01*
X219314992Y-81243419D02*
X219410230Y-81195800D01*
X219410230Y-81195800D02*
X219457849Y-81148180D01*
X219457849Y-81148180D02*
X219505468Y-81052942D01*
X219505468Y-81052942D02*
X219505468Y-80814847D01*
X219505468Y-80814847D02*
X219457849Y-80719609D01*
X219457849Y-80719609D02*
X219410230Y-80671990D01*
X219410230Y-80671990D02*
X219314992Y-80624371D01*
X219314992Y-80624371D02*
X219124516Y-80624371D01*
X219124516Y-80624371D02*
X219029278Y-80671990D01*
X219029278Y-80671990D02*
X218981659Y-80719609D01*
X218981659Y-80719609D02*
X218934040Y-80814847D01*
X189028888Y-71658548D02*
X189028888Y-82577620D01*
X246077288Y-82577620D02*
X246077288Y-77766800D01*
X189028888Y-81991200D02*
X246077288Y-81991200D01*
X189028888Y-81991200D02*
X190155392Y-81404779D01*
X189028888Y-81991200D02*
X190155392Y-82577621D01*
X246077288Y-81991200D02*
X244950784Y-82577621D01*
X246077288Y-81991200D02*
X244950784Y-81404779D01*
D12*
G04 #@! TO.P,C2,1*
G04 #@! TO.N,+3.3V*
X222135288Y-53619400D03*
G04 #@! TO.P,C2,2*
G04 #@! TO.N,GND*
X220235288Y-53619400D03*
G04 #@! TD*
D13*
G04 #@! TO.P,ISP1,1,MISO*
G04 #@! TO.N,/MISO*
X223344288Y-70637400D03*
D14*
G04 #@! TO.P,ISP1,2,VCC*
G04 #@! TO.N,unconnected-(ISP1-VCC-Pad2)*
X223344288Y-73177400D03*
G04 #@! TO.P,ISP1,3,SCK*
G04 #@! TO.N,/SCK*
X225884288Y-70637400D03*
G04 #@! TO.P,ISP1,4,MOSI*
G04 #@! TO.N,/MOSI*
X225884288Y-73177400D03*
G04 #@! TO.P,ISP1,5,~{RST}*
G04 #@! TO.N,/RESET*
X228424288Y-70637400D03*
G04 #@! TO.P,ISP1,6,GND*
G04 #@! TO.N,GND*
X228424288Y-73177400D03*
G04 #@! TD*
D15*
G04 #@! TO.P,B2,1*
G04 #@! TO.N,unconnected-(B2-Pad1)*
X222036288Y-59620400D03*
G04 #@! TO.P,B2,2*
G04 #@! TO.N,/PD6*
X229986288Y-59620400D03*
G04 #@! TO.P,B2,3*
G04 #@! TO.N,unconnected-(B2-Pad3)*
X222036288Y-64120400D03*
G04 #@! TO.P,B2,4*
G04 #@! TO.N,GND*
X229986288Y-64120400D03*
G04 #@! TD*
G04 #@! TO.P,B1,1*
G04 #@! TO.N,unconnected-(B1-Pad1)*
X235371288Y-59620400D03*
G04 #@! TO.P,B1,2*
G04 #@! TO.N,/PD5*
X243321288Y-59620400D03*
G04 #@! TO.P,B1,3*
G04 #@! TO.N,unconnected-(B1-Pad3)*
X235371288Y-64120400D03*
G04 #@! TO.P,B1,4*
G04 #@! TO.N,GND*
X243321288Y-64120400D03*
G04 #@! TD*
D16*
G04 #@! TO.P,BAT1,1*
G04 #@! TO.N,GND*
X202008288Y-64033400D03*
D17*
G04 #@! TO.P,BAT1,S1*
G04 #@! TO.N,+3.3V*
X212993288Y-64033400D03*
G04 #@! TO.P,BAT1,S2*
X191023288Y-64033400D03*
G04 #@! TD*
D18*
G04 #@! TO.N,+3.3V*
X223268088Y-53594000D03*
G04 #@! TO.N,GND*
X213463688Y-72491600D03*
X216765688Y-63144400D03*
X190451288Y-67335400D03*
X217248288Y-68478400D03*
X190451288Y-60350400D03*
X219153288Y-53365400D03*
X190451288Y-59588400D03*
X235714088Y-70713600D03*
X190451288Y-67970400D03*
X218035688Y-72491600D03*
X203100488Y-52933600D03*
X226062088Y-54000400D03*
X214987688Y-72542400D03*
X209628288Y-57683400D03*
X205894488Y-51460400D03*
X207621688Y-51409600D03*
X235053688Y-69596000D03*
X219102488Y-54305200D03*
X192940488Y-53594000D03*
X212600088Y-72491600D03*
X196598088Y-50800000D03*
X193499288Y-69545200D03*
X192635688Y-68834000D03*
X201779688Y-53340000D03*
X192737288Y-58445400D03*
X231599288Y-74117200D03*
X211685688Y-59131200D03*
X221439288Y-72542400D03*
X204878488Y-54000400D03*
X233758288Y-53492400D03*
X227535288Y-53949600D03*
X192940488Y-55422800D03*
X200966888Y-50800000D03*
X202744888Y-54254400D03*
X213946288Y-54635400D03*
X207062888Y-54000400D03*
X220118488Y-72491600D03*
X198934888Y-50749200D03*
X231091288Y-70002400D03*
X194261288Y-70358000D03*
G04 #@! TO.N,+3.3V*
X212993288Y-58470800D03*
X193042088Y-60096400D03*
X213666888Y-56413400D03*
G04 #@! TO.N,/MOSI*
X213184288Y-69875400D03*
X217121288Y-73812400D03*
G04 #@! TO.N,Net-(CPU1-XTAL1{slash}PB6)*
X215216288Y-62636400D03*
X215216288Y-59588400D03*
G04 #@! TO.N,/PD5*
X234012288Y-71399400D03*
X240895688Y-59944000D03*
X215343288Y-68986400D03*
G04 #@! TO.N,/PD6*
X226824088Y-60299600D03*
X211279288Y-68351400D03*
X215470288Y-64922400D03*
G04 #@! TD*
D19*
G04 #@! TO.N,+3.3V*
X223242688Y-53619400D02*
X223268088Y-53594000D01*
X222135288Y-53619400D02*
X223242688Y-53619400D01*
G04 #@! TO.N,GND*
X238040088Y-64120400D02*
X234952088Y-67208400D01*
X204802288Y-64033400D02*
X202008288Y-64033400D01*
X202008288Y-64033400D02*
X202008288Y-58953400D01*
X243321288Y-64120400D02*
X238040088Y-64120400D01*
G04 #@! TO.N,+3.3V*
X212993288Y-57061600D02*
X212993288Y-58470800D01*
X193042088Y-62014600D02*
X191023288Y-64033400D01*
X193042088Y-60096400D02*
X193042088Y-62014600D01*
X212993288Y-64033400D02*
X212993288Y-65955282D01*
X212993288Y-64033400D02*
X212993288Y-58470800D01*
X212993288Y-57061600D02*
X213641488Y-56413400D01*
X213641488Y-56413400D02*
X213666888Y-56413400D01*
G04 #@! TO.N,/MOSI*
X217121288Y-71160946D02*
X215835742Y-69875400D01*
X217121288Y-73812400D02*
X217121288Y-71160946D01*
X215835742Y-69875400D02*
X213184288Y-69875400D01*
G04 #@! TO.N,Net-(CPU1-XTAL1{slash}PB6)*
X215216288Y-62636400D02*
X215216288Y-59588400D01*
G04 #@! TO.N,/PD5*
X218264288Y-71907400D02*
X215343288Y-68986400D01*
X220423288Y-71907400D02*
X218264288Y-71907400D01*
X234012288Y-71399400D02*
X233504288Y-71907400D01*
X233504288Y-71907400D02*
X220423288Y-71907400D01*
X243321288Y-59620400D02*
X241219288Y-59620400D01*
X241219288Y-59620400D02*
X240895688Y-59944000D01*
G04 #@! TO.N,/PD6*
X229986288Y-59620400D02*
X227503288Y-59620400D01*
X227503288Y-59620400D02*
X226824088Y-60299600D01*
X215470288Y-66268600D02*
X214936888Y-66802000D01*
X211279288Y-68065828D02*
X211279288Y-68351400D01*
X215470288Y-64922400D02*
X215470288Y-66268600D01*
X212543116Y-66802000D02*
X211279288Y-68065828D01*
X214936888Y-66802000D02*
X212543116Y-66802000D01*
G04 #@! TD*
G04 #@! TA.AperFunction,Conductor*
G04 #@! TO.N,GND*
G36*
X236259537Y-48661185D02*
G01*
X236305292Y-48713989D01*
X236316493Y-48764440D01*
X236398444Y-58352757D01*
X236379334Y-58419962D01*
X236326923Y-58466167D01*
X236261195Y-58477107D01*
X236247387Y-58475622D01*
X236194161Y-58469900D01*
X236194154Y-58469900D01*
X234548417Y-58469900D01*
X234548411Y-58469901D01*
X234488804Y-58476308D01*
X234353959Y-58526602D01*
X234353952Y-58526606D01*
X234238743Y-58612852D01*
X234238740Y-58612855D01*
X234152494Y-58728064D01*
X234152490Y-58728071D01*
X234102196Y-58862917D01*
X234095963Y-58920896D01*
X234095789Y-58922523D01*
X234095788Y-58922535D01*
X234095788Y-60318270D01*
X234095789Y-60318276D01*
X234102196Y-60377883D01*
X234152490Y-60512728D01*
X234152494Y-60512735D01*
X234238740Y-60627944D01*
X234238743Y-60627947D01*
X234353952Y-60714193D01*
X234353959Y-60714197D01*
X234488805Y-60764491D01*
X234488804Y-60764491D01*
X234495732Y-60765235D01*
X234548415Y-60770900D01*
X236194160Y-60770899D01*
X236253771Y-60764491D01*
X236253773Y-60764490D01*
X236253775Y-60764490D01*
X236261319Y-60762708D01*
X236261682Y-60764245D01*
X236322396Y-60759897D01*
X236383722Y-60793376D01*
X236417213Y-60854696D01*
X236420044Y-60880006D01*
X236437010Y-62865001D01*
X236417900Y-62932206D01*
X236365489Y-62978411D01*
X236296418Y-62988945D01*
X236269683Y-62982243D01*
X236253773Y-62976309D01*
X236253771Y-62976308D01*
X236194171Y-62969901D01*
X236194169Y-62969900D01*
X236194161Y-62969900D01*
X236194152Y-62969900D01*
X234548417Y-62969900D01*
X234548411Y-62969901D01*
X234488804Y-62976308D01*
X234353959Y-63026602D01*
X234353952Y-63026606D01*
X234238743Y-63112852D01*
X234238740Y-63112855D01*
X234152494Y-63228064D01*
X234152490Y-63228071D01*
X234102196Y-63362917D01*
X234095789Y-63422516D01*
X234095789Y-63422523D01*
X234095788Y-63422535D01*
X234095788Y-64818270D01*
X234095789Y-64818276D01*
X234102196Y-64877883D01*
X234152490Y-65012728D01*
X234152494Y-65012735D01*
X234238740Y-65127944D01*
X234238743Y-65127947D01*
X234353952Y-65214193D01*
X234353959Y-65214197D01*
X234488805Y-65264491D01*
X234488804Y-65264491D01*
X234495732Y-65265235D01*
X234548415Y-65270900D01*
X236194160Y-65270899D01*
X236253771Y-65264491D01*
X236291055Y-65250584D01*
X236360744Y-65245599D01*
X236422068Y-65279083D01*
X236455554Y-65340406D01*
X236458383Y-65365706D01*
X236528836Y-73608512D01*
X236538549Y-74745037D01*
X236540577Y-74982240D01*
X236521467Y-75049445D01*
X236469056Y-75095650D01*
X236416582Y-75107300D01*
X232160535Y-75107300D01*
X232155618Y-75107202D01*
X231864508Y-75095650D01*
X231666208Y-75087780D01*
X223525324Y-74764729D01*
X223459118Y-74742402D01*
X223415493Y-74687825D01*
X223408299Y-74618327D01*
X223439822Y-74555972D01*
X223500051Y-74520558D01*
X223510833Y-74518355D01*
X223660531Y-74494646D01*
X223862700Y-74428957D01*
X224052104Y-74332451D01*
X224110200Y-74290242D01*
X224224074Y-74207509D01*
X224224076Y-74207506D01*
X224224080Y-74207504D01*
X224374392Y-74057192D01*
X224374394Y-74057188D01*
X224374397Y-74057186D01*
X224490847Y-73896904D01*
X224499339Y-73885216D01*
X224503802Y-73876454D01*
X224551776Y-73825659D01*
X224619596Y-73808863D01*
X224685732Y-73831399D01*
X224724774Y-73876456D01*
X224729239Y-73885220D01*
X224854178Y-74057186D01*
X225004501Y-74207509D01*
X225176467Y-74332448D01*
X225176469Y-74332449D01*
X225176472Y-74332451D01*
X225365876Y-74428957D01*
X225568045Y-74494646D01*
X225778001Y-74527900D01*
X225778002Y-74527900D01*
X225990574Y-74527900D01*
X225990575Y-74527900D01*
X226200531Y-74494646D01*
X226402700Y-74428957D01*
X226592104Y-74332451D01*
X226650200Y-74290242D01*
X226764074Y-74207509D01*
X226764076Y-74207506D01*
X226764080Y-74207504D01*
X226914392Y-74057192D01*
X226914394Y-74057188D01*
X226914397Y-74057186D01*
X227000178Y-73939117D01*
X227039339Y-73885216D01*
X227044081Y-73875908D01*
X227092051Y-73825111D01*
X227159871Y-73808311D01*
X227226007Y-73830845D01*
X227265051Y-73875900D01*
X227269661Y-73884947D01*
X227309016Y-73939116D01*
X227941324Y-73306807D01*
X227958363Y-73370393D01*
X228024189Y-73484407D01*
X228117281Y-73577499D01*
X228231295Y-73643325D01*
X228294878Y-73660362D01*
X227662570Y-74292669D01*
X227662570Y-74292670D01*
X227716737Y-74332024D01*
X227906070Y-74428495D01*
X228108158Y-74494157D01*
X228318042Y-74527400D01*
X228530534Y-74527400D01*
X228740415Y-74494157D01*
X228740418Y-74494157D01*
X228942505Y-74428495D01*
X229131842Y-74332022D01*
X229186004Y-74292670D01*
X229186005Y-74292670D01*
X228553696Y-73660362D01*
X228617281Y-73643325D01*
X228731295Y-73577499D01*
X228824387Y-73484407D01*
X228890213Y-73370393D01*
X228907250Y-73306809D01*
X229539558Y-73939117D01*
X229539558Y-73939116D01*
X229578910Y-73884954D01*
X229650957Y-73743555D01*
X233948288Y-73743555D01*
X233948288Y-73743984D01*
X233948288Y-73881245D01*
X233950314Y-73891430D01*
X233951335Y-73896565D01*
X233951335Y-73896904D01*
X233951683Y-73898316D01*
X233952227Y-73901052D01*
X233975148Y-74016283D01*
X233975151Y-74016295D01*
X233985415Y-74041074D01*
X233985416Y-74041075D01*
X233989005Y-74049742D01*
X233991781Y-74061001D01*
X234000738Y-74078068D01*
X234002892Y-74083267D01*
X234002892Y-74083268D01*
X234027840Y-74143497D01*
X234027842Y-74143501D01*
X234057936Y-74188539D01*
X234057936Y-74188540D01*
X234061585Y-74194001D01*
X234070323Y-74210650D01*
X234080031Y-74221609D01*
X234084721Y-74228627D01*
X234104335Y-74257980D01*
X234104341Y-74257988D01*
X234173760Y-74327407D01*
X234182396Y-74337155D01*
X234185985Y-74339632D01*
X234201702Y-74355349D01*
X234316187Y-74431846D01*
X234316188Y-74431846D01*
X234316189Y-74431847D01*
X234316191Y-74431848D01*
X234433272Y-74480344D01*
X234443397Y-74484538D01*
X234443399Y-74484538D01*
X234443401Y-74484539D01*
X234448262Y-74485505D01*
X234471908Y-74490209D01*
X234479512Y-74493093D01*
X234497200Y-74495240D01*
X234578443Y-74511400D01*
X234630281Y-74511400D01*
X234647288Y-74513465D01*
X234664295Y-74511400D01*
X234716134Y-74511400D01*
X234724054Y-74509824D01*
X234797369Y-74495241D01*
X234815064Y-74493093D01*
X234822666Y-74490209D01*
X234851179Y-74484538D01*
X234978389Y-74431846D01*
X235092874Y-74355349D01*
X235108594Y-74339628D01*
X235112180Y-74337155D01*
X235120805Y-74327417D01*
X235190237Y-74257986D01*
X235214544Y-74221608D01*
X235224253Y-74210650D01*
X235232985Y-74194008D01*
X235266734Y-74143501D01*
X235293839Y-74078061D01*
X235302795Y-74061001D01*
X235305570Y-74049742D01*
X235319426Y-74016291D01*
X235342892Y-73898315D01*
X235343241Y-73896904D01*
X235343252Y-73896504D01*
X235346288Y-73881245D01*
X235346288Y-73743555D01*
X235343252Y-73728295D01*
X235343241Y-73727896D01*
X235342892Y-73726484D01*
X235319426Y-73608509D01*
X235305570Y-73575057D01*
X235302795Y-73563799D01*
X235293837Y-73546731D01*
X235266734Y-73481299D01*
X235266732Y-73481296D01*
X235266731Y-73481293D01*
X235236638Y-73436257D01*
X235236637Y-73436256D01*
X235232992Y-73430801D01*
X235224253Y-73414150D01*
X235214540Y-73403186D01*
X235209852Y-73396170D01*
X235190237Y-73366814D01*
X235120815Y-73297392D01*
X235112180Y-73287645D01*
X235108590Y-73285167D01*
X235100622Y-73277199D01*
X235092874Y-73269451D01*
X234978389Y-73192954D01*
X234978388Y-73192953D01*
X234978386Y-73192952D01*
X234978384Y-73192951D01*
X234851183Y-73140263D01*
X234851179Y-73140262D01*
X234832779Y-73136601D01*
X234832779Y-73136600D01*
X234822659Y-73134587D01*
X234815064Y-73131707D01*
X234797367Y-73129558D01*
X234794355Y-73128959D01*
X234792769Y-73128643D01*
X234792766Y-73128643D01*
X234745077Y-73119157D01*
X234716134Y-73113400D01*
X234716133Y-73113400D01*
X234664295Y-73113400D01*
X234647288Y-73111335D01*
X234630281Y-73113400D01*
X234578443Y-73113400D01*
X234556519Y-73117761D01*
X234501809Y-73128643D01*
X234501808Y-73128643D01*
X234497203Y-73129558D01*
X234479512Y-73131707D01*
X234471912Y-73134589D01*
X234461787Y-73136603D01*
X234461786Y-73136602D01*
X234443397Y-73140261D01*
X234443395Y-73140262D01*
X234316189Y-73192952D01*
X234201700Y-73269451D01*
X234201699Y-73269453D01*
X234193944Y-73277208D01*
X234193943Y-73277207D01*
X234185975Y-73285174D01*
X234182396Y-73287645D01*
X234173790Y-73297358D01*
X234171116Y-73300033D01*
X234171117Y-73300033D01*
X234104343Y-73366808D01*
X234104334Y-73366819D01*
X234084722Y-73396169D01*
X234084723Y-73396170D01*
X234080030Y-73403192D01*
X234070323Y-73414150D01*
X234061591Y-73430786D01*
X234057942Y-73436248D01*
X234027841Y-73481299D01*
X234002891Y-73541530D01*
X234002892Y-73541531D01*
X234000735Y-73546737D01*
X233991781Y-73563799D01*
X233989006Y-73575057D01*
X233987995Y-73577499D01*
X233976820Y-73604479D01*
X233975149Y-73608512D01*
X233975148Y-73608515D01*
X233952226Y-73723748D01*
X233951206Y-73728337D01*
X233950811Y-73730866D01*
X233948288Y-73743555D01*
X229650957Y-73743555D01*
X229675383Y-73695617D01*
X229741045Y-73493530D01*
X229741045Y-73493527D01*
X229774288Y-73283646D01*
X229774288Y-73071153D01*
X229741045Y-72861272D01*
X229741045Y-72861269D01*
X229675383Y-72659182D01*
X229578908Y-72469842D01*
X229461313Y-72307985D01*
X229437833Y-72242179D01*
X229453659Y-72174125D01*
X229503764Y-72125430D01*
X229561631Y-72111100D01*
X233544805Y-72111100D01*
X233544807Y-72111100D01*
X233606052Y-72085731D01*
X233675518Y-72078263D01*
X233700954Y-72085731D01*
X233792579Y-72123684D01*
X233872972Y-72139675D01*
X233938096Y-72152629D01*
X233938100Y-72152630D01*
X233938101Y-72152630D01*
X234086476Y-72152630D01*
X234086477Y-72152629D01*
X234231997Y-72123684D01*
X234369076Y-72066904D01*
X234369082Y-72066900D01*
X234492446Y-71984471D01*
X234492447Y-71984469D01*
X234597357Y-71879559D01*
X234597360Y-71879556D01*
X234679792Y-71756188D01*
X234736572Y-71619109D01*
X234765518Y-71473587D01*
X234765518Y-71325213D01*
X234736572Y-71179691D01*
X234692655Y-71073667D01*
X234679793Y-71042614D01*
X234679788Y-71042605D01*
X234597360Y-70919244D01*
X234597357Y-70919240D01*
X234492447Y-70814330D01*
X234492443Y-70814327D01*
X234369082Y-70731899D01*
X234369073Y-70731894D01*
X234231997Y-70675116D01*
X234231989Y-70675114D01*
X234086479Y-70646170D01*
X234086475Y-70646170D01*
X233938101Y-70646170D01*
X233938096Y-70646170D01*
X233792586Y-70675114D01*
X233792578Y-70675116D01*
X233655502Y-70731894D01*
X233655493Y-70731899D01*
X233532132Y-70814327D01*
X233532128Y-70814330D01*
X233427218Y-70919240D01*
X233427215Y-70919244D01*
X233344787Y-71042605D01*
X233344782Y-71042614D01*
X233288004Y-71179690D01*
X233288002Y-71179698D01*
X233259058Y-71325208D01*
X233259058Y-71473590D01*
X233275353Y-71555509D01*
X233269126Y-71625100D01*
X233226263Y-71680278D01*
X233160373Y-71703522D01*
X233153736Y-71703700D01*
X229562250Y-71703700D01*
X229495211Y-71684015D01*
X229449456Y-71631211D01*
X229439512Y-71562053D01*
X229461932Y-71506815D01*
X229520096Y-71426757D01*
X229579339Y-71345216D01*
X229675845Y-71155812D01*
X229741534Y-70953643D01*
X229774788Y-70743687D01*
X229774788Y-70531113D01*
X229741534Y-70321157D01*
X229675845Y-70118988D01*
X229579339Y-69929584D01*
X229579337Y-69929581D01*
X229579336Y-69929579D01*
X229454397Y-69757613D01*
X229304074Y-69607290D01*
X229132108Y-69482351D01*
X228942702Y-69385844D01*
X228942701Y-69385843D01*
X228942700Y-69385843D01*
X228740531Y-69320154D01*
X228740529Y-69320153D01*
X228740528Y-69320153D01*
X228579245Y-69294608D01*
X228530575Y-69286900D01*
X228318001Y-69286900D01*
X228269330Y-69294608D01*
X228108048Y-69320153D01*
X227905873Y-69385844D01*
X227716467Y-69482351D01*
X227544501Y-69607290D01*
X227394178Y-69757613D01*
X227269237Y-69929582D01*
X227264772Y-69938346D01*
X227216797Y-69989142D01*
X227148976Y-70005936D01*
X227082841Y-69983398D01*
X227043804Y-69938346D01*
X227039338Y-69929582D01*
X226914397Y-69757613D01*
X226764074Y-69607290D01*
X226592108Y-69482351D01*
X226402702Y-69385844D01*
X226402701Y-69385843D01*
X226402700Y-69385843D01*
X226200531Y-69320154D01*
X226200529Y-69320153D01*
X226200528Y-69320153D01*
X226039245Y-69294608D01*
X225990575Y-69286900D01*
X225778001Y-69286900D01*
X225729330Y-69294608D01*
X225568048Y-69320153D01*
X225365873Y-69385844D01*
X225176467Y-69482351D01*
X225004503Y-69607289D01*
X224890961Y-69720831D01*
X224829638Y-69754315D01*
X224759946Y-69749331D01*
X224704013Y-69707459D01*
X224687098Y-69676482D01*
X224638085Y-69545071D01*
X224638081Y-69545064D01*
X224551835Y-69429855D01*
X224551832Y-69429852D01*
X224436623Y-69343606D01*
X224436616Y-69343602D01*
X224301770Y-69293308D01*
X224301771Y-69293308D01*
X224242171Y-69286901D01*
X224242169Y-69286900D01*
X224242161Y-69286900D01*
X224242152Y-69286900D01*
X222446417Y-69286900D01*
X222446411Y-69286901D01*
X222386804Y-69293308D01*
X222251959Y-69343602D01*
X222251952Y-69343606D01*
X222136743Y-69429852D01*
X222136740Y-69429855D01*
X222050494Y-69545064D01*
X222050490Y-69545071D01*
X222000196Y-69679917D01*
X221993789Y-69739516D01*
X221993788Y-69739535D01*
X221993788Y-71535270D01*
X221993789Y-71535276D01*
X221997140Y-71566447D01*
X221984733Y-71635206D01*
X221937122Y-71686343D01*
X221873850Y-71703700D01*
X218400025Y-71703700D01*
X218332986Y-71684015D01*
X218312344Y-71667381D01*
X216062747Y-69417784D01*
X216029262Y-69356461D01*
X216034246Y-69286769D01*
X216035854Y-69282682D01*
X216067572Y-69206109D01*
X216096518Y-69060587D01*
X216096518Y-68912213D01*
X216067572Y-68766691D01*
X216010792Y-68629612D01*
X216010791Y-68629611D01*
X216010788Y-68629605D01*
X215928360Y-68506244D01*
X215928357Y-68506240D01*
X215823447Y-68401330D01*
X215823443Y-68401327D01*
X215700082Y-68318899D01*
X215700073Y-68318894D01*
X215562997Y-68262116D01*
X215562989Y-68262114D01*
X215417479Y-68233170D01*
X215417475Y-68233170D01*
X215269101Y-68233170D01*
X215269096Y-68233170D01*
X215123586Y-68262114D01*
X215123578Y-68262116D01*
X214986502Y-68318894D01*
X214986493Y-68318899D01*
X214863132Y-68401327D01*
X214863128Y-68401330D01*
X214758218Y-68506240D01*
X214758215Y-68506244D01*
X214675787Y-68629605D01*
X214675782Y-68629614D01*
X214619004Y-68766690D01*
X214619002Y-68766698D01*
X214590058Y-68912208D01*
X214590058Y-69060591D01*
X214619002Y-69206101D01*
X214619004Y-69206109D01*
X214675782Y-69343185D01*
X214675787Y-69343194D01*
X214758215Y-69466555D01*
X214760251Y-69469036D01*
X214760910Y-69470589D01*
X214761600Y-69471621D01*
X214761404Y-69471751D01*
X214787563Y-69533346D01*
X214775772Y-69602213D01*
X214728619Y-69653773D01*
X214664397Y-69671700D01*
X213998058Y-69671700D01*
X213931019Y-69652015D01*
X213885264Y-69599211D01*
X213883497Y-69595153D01*
X213851793Y-69518615D01*
X213851793Y-69518614D01*
X213851792Y-69518612D01*
X213851790Y-69518609D01*
X213851788Y-69518605D01*
X213769360Y-69395244D01*
X213769357Y-69395240D01*
X213664447Y-69290330D01*
X213664443Y-69290327D01*
X213541082Y-69207899D01*
X213541073Y-69207894D01*
X213403997Y-69151116D01*
X213403989Y-69151114D01*
X213258479Y-69122170D01*
X213258475Y-69122170D01*
X213110101Y-69122170D01*
X213110096Y-69122170D01*
X212964586Y-69151114D01*
X212964578Y-69151116D01*
X212827502Y-69207894D01*
X212827493Y-69207899D01*
X212704132Y-69290327D01*
X212704128Y-69290330D01*
X212599218Y-69395240D01*
X212599215Y-69395244D01*
X212516787Y-69518605D01*
X212516782Y-69518614D01*
X212460004Y-69655690D01*
X212460002Y-69655698D01*
X212431058Y-69801208D01*
X212431058Y-69949591D01*
X212460002Y-70095101D01*
X212460004Y-70095109D01*
X212516782Y-70232185D01*
X212516787Y-70232194D01*
X212599215Y-70355555D01*
X212599218Y-70355559D01*
X212704128Y-70460469D01*
X212704132Y-70460472D01*
X212827493Y-70542900D01*
X212827499Y-70542903D01*
X212827500Y-70542904D01*
X212964579Y-70599684D01*
X213110096Y-70628629D01*
X213110100Y-70628630D01*
X213110101Y-70628630D01*
X213258476Y-70628630D01*
X213258477Y-70628629D01*
X213403997Y-70599684D01*
X213541076Y-70542904D01*
X213664444Y-70460472D01*
X213769360Y-70355556D01*
X213851792Y-70232188D01*
X213875170Y-70175749D01*
X213883497Y-70155647D01*
X213927339Y-70101243D01*
X213993633Y-70079179D01*
X213998058Y-70079100D01*
X215700005Y-70079100D01*
X215767044Y-70098785D01*
X215787686Y-70115419D01*
X216881269Y-71209002D01*
X216914754Y-71270325D01*
X216917588Y-71296683D01*
X216917588Y-72998630D01*
X216897903Y-73065669D01*
X216845099Y-73111424D01*
X216841041Y-73113191D01*
X216764503Y-73144894D01*
X216764493Y-73144899D01*
X216641132Y-73227327D01*
X216641128Y-73227330D01*
X216536218Y-73332240D01*
X216536215Y-73332244D01*
X216453787Y-73455605D01*
X216453782Y-73455614D01*
X216397004Y-73592690D01*
X216397002Y-73592698D01*
X216368058Y-73738208D01*
X216368058Y-73886591D01*
X216397002Y-74032101D01*
X216397004Y-74032109D01*
X216453782Y-74169185D01*
X216453787Y-74169193D01*
X216534670Y-74290242D01*
X216555548Y-74356919D01*
X216537064Y-74424299D01*
X216485085Y-74470990D01*
X216426651Y-74483035D01*
X209777619Y-74219184D01*
X209755502Y-74218307D01*
X209755495Y-74218300D01*
X209755303Y-74218300D01*
X209755101Y-74218292D01*
X209755100Y-74218292D01*
X209752850Y-74218203D01*
X209752849Y-74218202D01*
X209737607Y-74217598D01*
X209733567Y-74218300D01*
X193436956Y-74218300D01*
X193369917Y-74198615D01*
X193365814Y-74195862D01*
X191864831Y-73144456D01*
X189666039Y-71604248D01*
X189622425Y-71549665D01*
X189617411Y-71534795D01*
X189588465Y-71426764D01*
X189541386Y-71345220D01*
X189509412Y-71289838D01*
X189509406Y-71289830D01*
X189397605Y-71178029D01*
X189397597Y-71178023D01*
X189260678Y-71098974D01*
X189260673Y-71098971D01*
X189171932Y-71075193D01*
X189121293Y-71061624D01*
X189097514Y-71047130D01*
X189072185Y-71035563D01*
X189068094Y-71029197D01*
X189061634Y-71025260D01*
X189049466Y-71000212D01*
X189034411Y-70976785D01*
X189032865Y-70966037D01*
X189031105Y-70962413D01*
X189029388Y-70941850D01*
X189029388Y-70849909D01*
X195545332Y-70849909D01*
X195585913Y-70890490D01*
X196048150Y-71295861D01*
X196535891Y-71670118D01*
X197047058Y-72011669D01*
X197047083Y-72011685D01*
X197579501Y-72319077D01*
X198130889Y-72590991D01*
X198698879Y-72826260D01*
X198698890Y-72826264D01*
X199281045Y-73023880D01*
X199281060Y-73023884D01*
X199874876Y-73182996D01*
X199874916Y-73183006D01*
X200477870Y-73302942D01*
X200477881Y-73302944D01*
X201087408Y-73383189D01*
X201700902Y-73423400D01*
X202315674Y-73423400D01*
X202929167Y-73383189D01*
X203538694Y-73302944D01*
X203538705Y-73302942D01*
X204141659Y-73183006D01*
X204141699Y-73182996D01*
X204735515Y-73023884D01*
X204735530Y-73023880D01*
X205317685Y-72826264D01*
X205317696Y-72826260D01*
X205601301Y-72708787D01*
X208357788Y-72708787D01*
X208357788Y-72884012D01*
X208391969Y-73055850D01*
X208391972Y-73055862D01*
X208459020Y-73217731D01*
X208459022Y-73217734D01*
X208459023Y-73217736D01*
X208474830Y-73241392D01*
X208475174Y-73241908D01*
X208475271Y-73242124D01*
X208475866Y-73242943D01*
X208477208Y-73244952D01*
X208556367Y-73363423D01*
X208556369Y-73363425D01*
X208575182Y-73382237D01*
X208582084Y-73389139D01*
X208584813Y-73392895D01*
X208595125Y-73402180D01*
X208680265Y-73487320D01*
X208716780Y-73511719D01*
X208723308Y-73517597D01*
X208740003Y-73527235D01*
X208743380Y-73529492D01*
X208825947Y-73584662D01*
X208825948Y-73584662D01*
X208825952Y-73584665D01*
X208873803Y-73604485D01*
X208884703Y-73610779D01*
X208904621Y-73617250D01*
X208987830Y-73651717D01*
X209046797Y-73663446D01*
X209061945Y-73668368D01*
X209082284Y-73670505D01*
X209159680Y-73685900D01*
X209228745Y-73685900D01*
X209247288Y-73687849D01*
X209265831Y-73685900D01*
X209334895Y-73685900D01*
X209334896Y-73685900D01*
X209412292Y-73670504D01*
X209432631Y-73668368D01*
X209447773Y-73663447D01*
X209506746Y-73651717D01*
X209589966Y-73617246D01*
X209609873Y-73610779D01*
X209620772Y-73604485D01*
X209668624Y-73584665D01*
X209754583Y-73527228D01*
X209771268Y-73517597D01*
X209777793Y-73511720D01*
X209814311Y-73487320D01*
X209899460Y-73402170D01*
X209909763Y-73392895D01*
X209912488Y-73389142D01*
X209938208Y-73363423D01*
X210018720Y-73242927D01*
X210019305Y-73242124D01*
X210019399Y-73241911D01*
X210035553Y-73217736D01*
X210102605Y-73055858D01*
X210136788Y-72884008D01*
X210136788Y-72708792D01*
X210102605Y-72536942D01*
X210074811Y-72469842D01*
X210035555Y-72375068D01*
X210035553Y-72375065D01*
X210035553Y-72375064D01*
X210019399Y-72350888D01*
X210019305Y-72350676D01*
X210018717Y-72349868D01*
X209938208Y-72229377D01*
X209938206Y-72229374D01*
X209919395Y-72210564D01*
X209912491Y-72203660D01*
X209909763Y-72199905D01*
X209899450Y-72190619D01*
X209897165Y-72188334D01*
X209814311Y-72105480D01*
X209814310Y-72105479D01*
X209814309Y-72105478D01*
X209785231Y-72086049D01*
X209785231Y-72086048D01*
X209777794Y-72081079D01*
X209771268Y-72075203D01*
X209754570Y-72065562D01*
X209751208Y-72063316D01*
X209668624Y-72008135D01*
X209668620Y-72008133D01*
X209628283Y-71991425D01*
X209620774Y-71988315D01*
X209609873Y-71982021D01*
X209589951Y-71975547D01*
X209506746Y-71941083D01*
X209506744Y-71941082D01*
X209506739Y-71941080D01*
X209454948Y-71930779D01*
X209454946Y-71930779D01*
X209447774Y-71929352D01*
X209432631Y-71924432D01*
X209412297Y-71922294D01*
X209406728Y-71921187D01*
X209406720Y-71921186D01*
X209351841Y-71910270D01*
X209334896Y-71906900D01*
X209265822Y-71906900D01*
X209247288Y-71904952D01*
X209228754Y-71906900D01*
X209159680Y-71906900D01*
X209087856Y-71921185D01*
X209087855Y-71921184D01*
X209082261Y-71922296D01*
X209061945Y-71924432D01*
X209046815Y-71929347D01*
X209039636Y-71930776D01*
X209039630Y-71930778D01*
X208987834Y-71941081D01*
X208909122Y-71973683D01*
X208909123Y-71973684D01*
X208904615Y-71975550D01*
X208884703Y-71982021D01*
X208873801Y-71988314D01*
X208866291Y-71991426D01*
X208866289Y-71991426D01*
X208825949Y-72008136D01*
X208743372Y-72063309D01*
X208743373Y-72063310D01*
X208739977Y-72065578D01*
X208723308Y-72075203D01*
X208716787Y-72081073D01*
X208709357Y-72086039D01*
X208709351Y-72086044D01*
X208680262Y-72105482D01*
X208680257Y-72105486D01*
X208597407Y-72188335D01*
X208595094Y-72190647D01*
X208584813Y-72199905D01*
X208582092Y-72203649D01*
X208556372Y-72229370D01*
X208556365Y-72229380D01*
X208477184Y-72347878D01*
X208477185Y-72347879D01*
X208475835Y-72349899D01*
X208475271Y-72350676D01*
X208475180Y-72350879D01*
X208472719Y-72354564D01*
X208472717Y-72354564D01*
X208472716Y-72354568D01*
X208459023Y-72375062D01*
X208459021Y-72375065D01*
X208391972Y-72536937D01*
X208391969Y-72536949D01*
X208357788Y-72708787D01*
X205601301Y-72708787D01*
X205885684Y-72590992D01*
X206437074Y-72319077D01*
X206969492Y-72011685D01*
X206969517Y-72011669D01*
X207480684Y-71670118D01*
X207968425Y-71295861D01*
X208430655Y-70890497D01*
X208471243Y-70849908D01*
X202008288Y-64386953D01*
X195545332Y-70849909D01*
X189029388Y-70849909D01*
X189029388Y-66981095D01*
X189049073Y-66914056D01*
X189101877Y-66868301D01*
X189171035Y-66858357D01*
X189234591Y-66887382D01*
X189252651Y-66906780D01*
X189270742Y-66930946D01*
X189316931Y-66965523D01*
X189385952Y-67017193D01*
X189385959Y-67017197D01*
X189520805Y-67067491D01*
X189520804Y-67067491D01*
X189527732Y-67068235D01*
X189580415Y-67073900D01*
X192466160Y-67073899D01*
X192525771Y-67067491D01*
X192660619Y-67017196D01*
X192775834Y-66930946D01*
X192841054Y-66843823D01*
X192896987Y-66801953D01*
X192966679Y-66796969D01*
X193028002Y-66830454D01*
X193057739Y-66878276D01*
X193215423Y-67342797D01*
X193215427Y-67342808D01*
X193450696Y-67910798D01*
X193722610Y-68462186D01*
X194030002Y-68994604D01*
X194030018Y-68994629D01*
X194371569Y-69505796D01*
X194745826Y-69993537D01*
X195151197Y-70455774D01*
X195191778Y-70496355D01*
X201654732Y-64033400D01*
X202361841Y-64033400D01*
X208824796Y-70496355D01*
X208824797Y-70496355D01*
X208865385Y-70455767D01*
X209270749Y-69993537D01*
X209645006Y-69505796D01*
X209986557Y-68994629D01*
X209986573Y-68994604D01*
X210293964Y-68462188D01*
X210302970Y-68443925D01*
X210350274Y-68392504D01*
X210417868Y-68374820D01*
X210484293Y-68396488D01*
X210528459Y-68450628D01*
X210535801Y-68474573D01*
X210555002Y-68571103D01*
X210555004Y-68571109D01*
X210611782Y-68708185D01*
X210611787Y-68708194D01*
X210694215Y-68831555D01*
X210694218Y-68831559D01*
X210799128Y-68936469D01*
X210799132Y-68936472D01*
X210922493Y-69018900D01*
X210922499Y-69018903D01*
X210922500Y-69018904D01*
X211059579Y-69075684D01*
X211205096Y-69104629D01*
X211205100Y-69104630D01*
X211205101Y-69104630D01*
X211353476Y-69104630D01*
X211353477Y-69104629D01*
X211498997Y-69075684D01*
X211636076Y-69018904D01*
X211759444Y-68936472D01*
X211864360Y-68831556D01*
X211946792Y-68708188D01*
X212003572Y-68571109D01*
X212032518Y-68425587D01*
X212032518Y-68277213D01*
X212003572Y-68131691D01*
X211946792Y-67994612D01*
X211946791Y-67994611D01*
X211946788Y-67994605D01*
X211879876Y-67894464D01*
X211858998Y-67827786D01*
X211877483Y-67760406D01*
X211895293Y-67737896D01*
X212522972Y-67110218D01*
X212584295Y-67076733D01*
X212610653Y-67073899D01*
X214436159Y-67073899D01*
X214436160Y-67073899D01*
X214495771Y-67067491D01*
X214495776Y-67067489D01*
X214638929Y-67014097D01*
X214639929Y-67016778D01*
X214683322Y-67005700D01*
X214977405Y-67005700D01*
X214977407Y-67005700D01*
X215014841Y-66990194D01*
X215052272Y-66974691D01*
X215052273Y-66974689D01*
X215052275Y-66974689D01*
X215109577Y-66917387D01*
X215109577Y-66917386D01*
X215127015Y-66899948D01*
X215127017Y-66899945D01*
X215585673Y-66441289D01*
X215585675Y-66441289D01*
X215642977Y-66383987D01*
X215655822Y-66352975D01*
X215673989Y-66309118D01*
X215673989Y-66228081D01*
X215673989Y-66218092D01*
X215673988Y-66218078D01*
X215673988Y-65736169D01*
X215693673Y-65669130D01*
X215746477Y-65623375D01*
X215750536Y-65621608D01*
X215827069Y-65589907D01*
X215827069Y-65589906D01*
X215827076Y-65589904D01*
X215950444Y-65507472D01*
X216055360Y-65402556D01*
X216137792Y-65279188D01*
X216194572Y-65142109D01*
X216223518Y-64996587D01*
X216223518Y-64848213D01*
X216194572Y-64702691D01*
X216137792Y-64565612D01*
X216137791Y-64565611D01*
X216137788Y-64565605D01*
X216055360Y-64442244D01*
X216055357Y-64442240D01*
X215950447Y-64337330D01*
X215950443Y-64337327D01*
X215827082Y-64254899D01*
X215827073Y-64254894D01*
X215689997Y-64198116D01*
X215689989Y-64198114D01*
X215544479Y-64169170D01*
X215544475Y-64169170D01*
X215396101Y-64169170D01*
X215396096Y-64169170D01*
X215250586Y-64198114D01*
X215250578Y-64198116D01*
X215113502Y-64254894D01*
X215113493Y-64254899D01*
X215081678Y-64276158D01*
X215015000Y-64297036D01*
X214947620Y-64278551D01*
X214900930Y-64226572D01*
X214888787Y-64173056D01*
X214888787Y-63490337D01*
X214908472Y-63423298D01*
X214909353Y-63422535D01*
X220760788Y-63422535D01*
X220760788Y-64818270D01*
X220760789Y-64818276D01*
X220767196Y-64877883D01*
X220817490Y-65012728D01*
X220817494Y-65012735D01*
X220903740Y-65127944D01*
X220903743Y-65127947D01*
X221018952Y-65214193D01*
X221018959Y-65214197D01*
X221153805Y-65264491D01*
X221153804Y-65264491D01*
X221160732Y-65265235D01*
X221213415Y-65270900D01*
X222859160Y-65270899D01*
X222918771Y-65264491D01*
X223053619Y-65214196D01*
X223168834Y-65127946D01*
X223255084Y-65012731D01*
X223305379Y-64877883D01*
X223311788Y-64818273D01*
X223311788Y-64818244D01*
X228711288Y-64818244D01*
X228717689Y-64877772D01*
X228717691Y-64877779D01*
X228767933Y-65012486D01*
X228767937Y-65012493D01*
X228854097Y-65127587D01*
X228854100Y-65127590D01*
X228969194Y-65213750D01*
X228969201Y-65213754D01*
X229103908Y-65263996D01*
X229103915Y-65263998D01*
X229163443Y-65270399D01*
X229163460Y-65270400D01*
X229736288Y-65270400D01*
X230236288Y-65270400D01*
X230809116Y-65270400D01*
X230809132Y-65270399D01*
X230868660Y-65263998D01*
X230868667Y-65263996D01*
X231003374Y-65213754D01*
X231003381Y-65213750D01*
X231118475Y-65127590D01*
X231118478Y-65127587D01*
X231204638Y-65012493D01*
X231204642Y-65012486D01*
X231254884Y-64877779D01*
X231254886Y-64877772D01*
X231261287Y-64818244D01*
X231261288Y-64818227D01*
X231261288Y-64370400D01*
X230236288Y-64370400D01*
X230236288Y-65270400D01*
X229736288Y-65270400D01*
X229736288Y-64370400D01*
X228711288Y-64370400D01*
X228711288Y-64818244D01*
X223311788Y-64818244D01*
X223311787Y-64033400D01*
X223311787Y-63422555D01*
X228711288Y-63422555D01*
X228711288Y-63870400D01*
X229736288Y-63870400D01*
X230236288Y-63870400D01*
X231261288Y-63870400D01*
X231261288Y-63422572D01*
X231261287Y-63422555D01*
X231254886Y-63363027D01*
X231254884Y-63363020D01*
X231204642Y-63228313D01*
X231204638Y-63228306D01*
X231118478Y-63113212D01*
X231118475Y-63113209D01*
X231003381Y-63027049D01*
X231003374Y-63027045D01*
X230868667Y-62976803D01*
X230868660Y-62976801D01*
X230809132Y-62970400D01*
X230236288Y-62970400D01*
X230236288Y-63870400D01*
X229736288Y-63870400D01*
X229736288Y-62970400D01*
X229163443Y-62970400D01*
X229103915Y-62976801D01*
X229103908Y-62976803D01*
X228969201Y-63027045D01*
X228969194Y-63027049D01*
X228854100Y-63113209D01*
X228854097Y-63113212D01*
X228767937Y-63228306D01*
X228767933Y-63228313D01*
X228717691Y-63363020D01*
X228717689Y-63363027D01*
X228711288Y-63422555D01*
X223311787Y-63422555D01*
X223311787Y-63422529D01*
X223311786Y-63422523D01*
X223311785Y-63422516D01*
X223305379Y-63362917D01*
X223304546Y-63360684D01*
X223255085Y-63228071D01*
X223255081Y-63228064D01*
X223168835Y-63112855D01*
X223168832Y-63112852D01*
X223053623Y-63026606D01*
X223053616Y-63026602D01*
X222918770Y-62976308D01*
X222918771Y-62976308D01*
X222859171Y-62969901D01*
X222859169Y-62969900D01*
X222859161Y-62969900D01*
X222859152Y-62969900D01*
X221213417Y-62969900D01*
X221213411Y-62969901D01*
X221153804Y-62976308D01*
X221018959Y-63026602D01*
X221018952Y-63026606D01*
X220903743Y-63112852D01*
X220903740Y-63112855D01*
X220817494Y-63228064D01*
X220817490Y-63228071D01*
X220767196Y-63362917D01*
X220760789Y-63422516D01*
X220760789Y-63422523D01*
X220760788Y-63422535D01*
X214909353Y-63422535D01*
X214961276Y-63377543D01*
X215030434Y-63367599D01*
X215036978Y-63368720D01*
X215081335Y-63377543D01*
X215142098Y-63389629D01*
X215142100Y-63389630D01*
X215142101Y-63389630D01*
X215290476Y-63389630D01*
X215290477Y-63389629D01*
X215435997Y-63360684D01*
X215571289Y-63304644D01*
X215571290Y-63304644D01*
X215571728Y-63304462D01*
X215573076Y-63303904D01*
X215696444Y-63221472D01*
X215801360Y-63116556D01*
X215883792Y-62993188D01*
X215940572Y-62856109D01*
X215969518Y-62710587D01*
X215969518Y-62562213D01*
X215940572Y-62416691D01*
X215883792Y-62279612D01*
X215883791Y-62279611D01*
X215883788Y-62279605D01*
X215801360Y-62156244D01*
X215801357Y-62156240D01*
X215696447Y-62051330D01*
X215696443Y-62051327D01*
X215573082Y-61968899D01*
X215573072Y-61968894D01*
X215496535Y-61937191D01*
X215442131Y-61893349D01*
X215420067Y-61827055D01*
X215419988Y-61822630D01*
X215419988Y-60402169D01*
X215439673Y-60335130D01*
X215492477Y-60289375D01*
X215496536Y-60287608D01*
X215573069Y-60255907D01*
X215573069Y-60255906D01*
X215573076Y-60255904D01*
X215696444Y-60173472D01*
X215801360Y-60068556D01*
X215883792Y-59945188D01*
X215940572Y-59808109D01*
X215969518Y-59662587D01*
X215969518Y-59514213D01*
X215940572Y-59368691D01*
X215883792Y-59231612D01*
X215883791Y-59231611D01*
X215883788Y-59231605D01*
X215801360Y-59108244D01*
X215801357Y-59108240D01*
X215696447Y-59003330D01*
X215696443Y-59003327D01*
X215575530Y-58922535D01*
X220760788Y-58922535D01*
X220760788Y-60318270D01*
X220760789Y-60318276D01*
X220767196Y-60377883D01*
X220817490Y-60512728D01*
X220817494Y-60512735D01*
X220903740Y-60627944D01*
X220903743Y-60627947D01*
X221018952Y-60714193D01*
X221018959Y-60714197D01*
X221153805Y-60764491D01*
X221153804Y-60764491D01*
X221160732Y-60765235D01*
X221213415Y-60770900D01*
X222859160Y-60770899D01*
X222918771Y-60764491D01*
X223053619Y-60714196D01*
X223168834Y-60627946D01*
X223255084Y-60512731D01*
X223305379Y-60377883D01*
X223311788Y-60318273D01*
X223311788Y-60225408D01*
X226070858Y-60225408D01*
X226070858Y-60373791D01*
X226099802Y-60519301D01*
X226099804Y-60519309D01*
X226156582Y-60656385D01*
X226156587Y-60656394D01*
X226239015Y-60779755D01*
X226239018Y-60779759D01*
X226343928Y-60884669D01*
X226343932Y-60884672D01*
X226467293Y-60967100D01*
X226467299Y-60967103D01*
X226467300Y-60967104D01*
X226604379Y-61023884D01*
X226733673Y-61049602D01*
X226749896Y-61052829D01*
X226749900Y-61052830D01*
X226749901Y-61052830D01*
X226898276Y-61052830D01*
X226898277Y-61052829D01*
X227043797Y-61023884D01*
X227180876Y-60967104D01*
X227304244Y-60884672D01*
X227409160Y-60779756D01*
X227491592Y-60656388D01*
X227548372Y-60519309D01*
X227577318Y-60373787D01*
X227577318Y-60225413D01*
X227548372Y-60079891D01*
X227516666Y-60003348D01*
X227514529Y-59983464D01*
X227507543Y-59964726D01*
X227510870Y-59949437D01*
X227509198Y-59933879D01*
X227518149Y-59915995D01*
X227522403Y-59896455D01*
X227539078Y-59874186D01*
X227540473Y-59871400D01*
X227543541Y-59868220D01*
X227545908Y-59865854D01*
X227551356Y-59860408D01*
X227612683Y-59826930D01*
X227639026Y-59824100D01*
X228586789Y-59824100D01*
X228653828Y-59843785D01*
X228699583Y-59896589D01*
X228710789Y-59948100D01*
X228710789Y-60318276D01*
X228717196Y-60377883D01*
X228767490Y-60512728D01*
X228767494Y-60512735D01*
X228853740Y-60627944D01*
X228853743Y-60627947D01*
X228968952Y-60714193D01*
X228968959Y-60714197D01*
X229103805Y-60764491D01*
X229103804Y-60764491D01*
X229110732Y-60765235D01*
X229163415Y-60770900D01*
X230809160Y-60770899D01*
X230868771Y-60764491D01*
X231003619Y-60714196D01*
X231118834Y-60627946D01*
X231205084Y-60512731D01*
X231255379Y-60377883D01*
X231261788Y-60318273D01*
X231261787Y-58922528D01*
X231255379Y-58862917D01*
X231242204Y-58827594D01*
X231205085Y-58728071D01*
X231205081Y-58728064D01*
X231118835Y-58612855D01*
X231118832Y-58612852D01*
X231003623Y-58526606D01*
X231003616Y-58526602D01*
X230868770Y-58476308D01*
X230868771Y-58476308D01*
X230809171Y-58469901D01*
X230809169Y-58469900D01*
X230809161Y-58469900D01*
X230809152Y-58469900D01*
X229163417Y-58469900D01*
X229163411Y-58469901D01*
X229103804Y-58476308D01*
X228968959Y-58526602D01*
X228968952Y-58526606D01*
X228853743Y-58612852D01*
X228853740Y-58612855D01*
X228767494Y-58728064D01*
X228767490Y-58728071D01*
X228717196Y-58862917D01*
X228710963Y-58920896D01*
X228710789Y-58922523D01*
X228710788Y-58922535D01*
X228710788Y-59292700D01*
X228691103Y-59359739D01*
X228638299Y-59405494D01*
X228586788Y-59416700D01*
X227558249Y-59416700D01*
X227558241Y-59416699D01*
X227543807Y-59416699D01*
X227462769Y-59416699D01*
X227462767Y-59416699D01*
X227462765Y-59416700D01*
X227409831Y-59438625D01*
X227409829Y-59438627D01*
X227401727Y-59441983D01*
X227387900Y-59447711D01*
X227330600Y-59505011D01*
X227330599Y-59505013D01*
X227330598Y-59505014D01*
X227289242Y-59546370D01*
X227255471Y-59580141D01*
X227194147Y-59613625D01*
X227124456Y-59608640D01*
X227120337Y-59607020D01*
X227088877Y-59593989D01*
X227043797Y-59575316D01*
X227043789Y-59575314D01*
X226898279Y-59546370D01*
X226898275Y-59546370D01*
X226749901Y-59546370D01*
X226749896Y-59546370D01*
X226604386Y-59575314D01*
X226604378Y-59575316D01*
X226467302Y-59632094D01*
X226467293Y-59632099D01*
X226343932Y-59714527D01*
X226343928Y-59714530D01*
X226239018Y-59819440D01*
X226239015Y-59819444D01*
X226156587Y-59942805D01*
X226156582Y-59942814D01*
X226099804Y-60079890D01*
X226099802Y-60079898D01*
X226070858Y-60225408D01*
X223311788Y-60225408D01*
X223311787Y-59616244D01*
X223311787Y-58922529D01*
X223311786Y-58922523D01*
X223311785Y-58922516D01*
X223305379Y-58862917D01*
X223292204Y-58827594D01*
X223255085Y-58728071D01*
X223255081Y-58728064D01*
X223168835Y-58612855D01*
X223168832Y-58612852D01*
X223053623Y-58526606D01*
X223053616Y-58526602D01*
X222918770Y-58476308D01*
X222918771Y-58476308D01*
X222859171Y-58469901D01*
X222859169Y-58469900D01*
X222859161Y-58469900D01*
X222859152Y-58469900D01*
X221213417Y-58469900D01*
X221213411Y-58469901D01*
X221153804Y-58476308D01*
X221018959Y-58526602D01*
X221018952Y-58526606D01*
X220903743Y-58612852D01*
X220903740Y-58612855D01*
X220817494Y-58728064D01*
X220817490Y-58728071D01*
X220767196Y-58862917D01*
X220760963Y-58920896D01*
X220760789Y-58922523D01*
X220760788Y-58922535D01*
X215575530Y-58922535D01*
X215573082Y-58920899D01*
X215573073Y-58920894D01*
X215435997Y-58864116D01*
X215435989Y-58864114D01*
X215290479Y-58835170D01*
X215290475Y-58835170D01*
X215142101Y-58835170D01*
X215142096Y-58835170D01*
X214996586Y-58864114D01*
X214996578Y-58864116D01*
X214859502Y-58920894D01*
X214859493Y-58920899D01*
X214736132Y-59003327D01*
X214736128Y-59003330D01*
X214631218Y-59108240D01*
X214631215Y-59108244D01*
X214548787Y-59231605D01*
X214548782Y-59231614D01*
X214492004Y-59368690D01*
X214492002Y-59368698D01*
X214463058Y-59514208D01*
X214463058Y-59662591D01*
X214492002Y-59808101D01*
X214492004Y-59808109D01*
X214548782Y-59945185D01*
X214548787Y-59945194D01*
X214631215Y-60068555D01*
X214631218Y-60068559D01*
X214736128Y-60173469D01*
X214736132Y-60173472D01*
X214859493Y-60255900D01*
X214859506Y-60255907D01*
X214936040Y-60287608D01*
X214990444Y-60331448D01*
X215012509Y-60397742D01*
X215012588Y-60402169D01*
X215012588Y-61119634D01*
X214992903Y-61186673D01*
X214940099Y-61232428D01*
X214870941Y-61242372D01*
X214807385Y-61213347D01*
X214789322Y-61193946D01*
X214763922Y-61160017D01*
X214745834Y-61135854D01*
X214745832Y-61135853D01*
X214745832Y-61135852D01*
X214630623Y-61049606D01*
X214630616Y-61049602D01*
X214495770Y-60999308D01*
X214495771Y-60999308D01*
X214436171Y-60992901D01*
X214436169Y-60992900D01*
X214436161Y-60992900D01*
X214436153Y-60992900D01*
X213320988Y-60992900D01*
X213253949Y-60973215D01*
X213208194Y-60920411D01*
X213196988Y-60868900D01*
X213196988Y-59284569D01*
X213216673Y-59217530D01*
X213269477Y-59171775D01*
X213273536Y-59170008D01*
X213350069Y-59138307D01*
X213350069Y-59138306D01*
X213350076Y-59138304D01*
X213473444Y-59055872D01*
X213578360Y-58950956D01*
X213660792Y-58827588D01*
X213717572Y-58690509D01*
X213746518Y-58544987D01*
X213746518Y-58396613D01*
X213717572Y-58251091D01*
X213660792Y-58114012D01*
X213660791Y-58114011D01*
X213660788Y-58114005D01*
X213578360Y-57990644D01*
X213578357Y-57990640D01*
X213473447Y-57885730D01*
X213473443Y-57885727D01*
X213350082Y-57803299D01*
X213350072Y-57803294D01*
X213273535Y-57771591D01*
X213219131Y-57727749D01*
X213197067Y-57661455D01*
X213196988Y-57657030D01*
X213196988Y-57219630D01*
X213216673Y-57152591D01*
X213269477Y-57106836D01*
X213338635Y-57096892D01*
X213368436Y-57105067D01*
X213447179Y-57137684D01*
X213592696Y-57166629D01*
X213592700Y-57166630D01*
X213592701Y-57166630D01*
X213741076Y-57166630D01*
X213741077Y-57166629D01*
X213886597Y-57137684D01*
X214023676Y-57080904D01*
X214147044Y-56998472D01*
X214251960Y-56893556D01*
X214334392Y-56770188D01*
X214391172Y-56633109D01*
X214420118Y-56487587D01*
X214420118Y-56339213D01*
X214391172Y-56193691D01*
X214334392Y-56056612D01*
X214334391Y-56056611D01*
X214334388Y-56056605D01*
X214251960Y-55933244D01*
X214251957Y-55933240D01*
X214147047Y-55828330D01*
X214147043Y-55828327D01*
X214023682Y-55745899D01*
X214023673Y-55745894D01*
X213886597Y-55689116D01*
X213886589Y-55689114D01*
X213741079Y-55660170D01*
X213741075Y-55660170D01*
X213592701Y-55660170D01*
X213592696Y-55660170D01*
X213447186Y-55689114D01*
X213447178Y-55689116D01*
X213310102Y-55745894D01*
X213310093Y-55745899D01*
X213186732Y-55828327D01*
X213186728Y-55828330D01*
X213081818Y-55933240D01*
X213081815Y-55933244D01*
X212999387Y-56056605D01*
X212999382Y-56056614D01*
X212942604Y-56193690D01*
X212942602Y-56193698D01*
X212913658Y-56339208D01*
X212913658Y-56487591D01*
X212942601Y-56633101D01*
X212942604Y-56633110D01*
X212966868Y-56691688D01*
X212969004Y-56711561D01*
X212975991Y-56730291D01*
X212972663Y-56745590D01*
X212974337Y-56761157D01*
X212965389Y-56779030D01*
X212961141Y-56798564D01*
X212944449Y-56820862D01*
X212943061Y-56823636D01*
X212939993Y-56826815D01*
X212939990Y-56826820D01*
X212877903Y-56888909D01*
X212877901Y-56888911D01*
X212820598Y-56946213D01*
X212820596Y-56946215D01*
X212789589Y-57021077D01*
X212789588Y-57021082D01*
X212789588Y-57657030D01*
X212769903Y-57724069D01*
X212717099Y-57769824D01*
X212713041Y-57771591D01*
X212636503Y-57803294D01*
X212636493Y-57803299D01*
X212513132Y-57885727D01*
X212513128Y-57885730D01*
X212408218Y-57990640D01*
X212408215Y-57990644D01*
X212325787Y-58114005D01*
X212325782Y-58114014D01*
X212269004Y-58251090D01*
X212269002Y-58251098D01*
X212240058Y-58396608D01*
X212240058Y-58544991D01*
X212269002Y-58690501D01*
X212269004Y-58690509D01*
X212325782Y-58827585D01*
X212325787Y-58827594D01*
X212408215Y-58950955D01*
X212408218Y-58950959D01*
X212513128Y-59055869D01*
X212513132Y-59055872D01*
X212636493Y-59138300D01*
X212636506Y-59138307D01*
X212713040Y-59170008D01*
X212767444Y-59213848D01*
X212789509Y-59280142D01*
X212789588Y-59284569D01*
X212789588Y-60868900D01*
X212769903Y-60935939D01*
X212717099Y-60981694D01*
X212665588Y-60992900D01*
X211550417Y-60992900D01*
X211550411Y-60992901D01*
X211490804Y-60999308D01*
X211355959Y-61049602D01*
X211355952Y-61049606D01*
X211240743Y-61135852D01*
X211175521Y-61222976D01*
X211119586Y-61264847D01*
X211049895Y-61269830D01*
X210988572Y-61236344D01*
X210958836Y-61188522D01*
X210801156Y-60724011D01*
X210801148Y-60723991D01*
X210565879Y-60156001D01*
X210293965Y-59604613D01*
X209986573Y-59072195D01*
X209986557Y-59072170D01*
X209645006Y-58561003D01*
X209270749Y-58073262D01*
X208865378Y-57611025D01*
X208824797Y-57570444D01*
X202361841Y-64033400D01*
X201654732Y-64033400D01*
X201654733Y-64033399D01*
X195191778Y-57570444D01*
X195191777Y-57570444D01*
X195151197Y-57611024D01*
X194745826Y-58073262D01*
X194371569Y-58561003D01*
X194030018Y-59072170D01*
X194030002Y-59072195D01*
X193764216Y-59532550D01*
X193713649Y-59580766D01*
X193645042Y-59593989D01*
X193580177Y-59568020D01*
X193569148Y-59558231D01*
X193522247Y-59511330D01*
X193522243Y-59511327D01*
X193398882Y-59428899D01*
X193398873Y-59428894D01*
X193261797Y-59372116D01*
X193261789Y-59372114D01*
X193116279Y-59343170D01*
X193116275Y-59343170D01*
X192967901Y-59343170D01*
X192967896Y-59343170D01*
X192822386Y-59372114D01*
X192822378Y-59372116D01*
X192685302Y-59428894D01*
X192685293Y-59428899D01*
X192561932Y-59511327D01*
X192561928Y-59511330D01*
X192457018Y-59616240D01*
X192457015Y-59616244D01*
X192374587Y-59739605D01*
X192374582Y-59739614D01*
X192317804Y-59876690D01*
X192317802Y-59876698D01*
X192288858Y-60022208D01*
X192288858Y-60170591D01*
X192317802Y-60316101D01*
X192317804Y-60316109D01*
X192374582Y-60453185D01*
X192374587Y-60453194D01*
X192457015Y-60576555D01*
X192457018Y-60576559D01*
X192561928Y-60681469D01*
X192561932Y-60681472D01*
X192685293Y-60763900D01*
X192685306Y-60763907D01*
X192761840Y-60795608D01*
X192777405Y-60808150D01*
X192795591Y-60816456D01*
X192804054Y-60829625D01*
X192816244Y-60839448D01*
X192822557Y-60858417D01*
X192833365Y-60875234D01*
X192837327Y-60902793D01*
X192838309Y-60905742D01*
X192838388Y-60910169D01*
X192838388Y-60937681D01*
X192818703Y-61004720D01*
X192765899Y-61050475D01*
X192696741Y-61060419D01*
X192669438Y-61051336D01*
X192668929Y-61052703D01*
X192525770Y-60999308D01*
X192525771Y-60999308D01*
X192466171Y-60992901D01*
X192466169Y-60992900D01*
X192466161Y-60992900D01*
X192466152Y-60992900D01*
X189580417Y-60992900D01*
X189580411Y-60992901D01*
X189520804Y-60999308D01*
X189385959Y-61049602D01*
X189385952Y-61049606D01*
X189270744Y-61135851D01*
X189252654Y-61160017D01*
X189196719Y-61201887D01*
X189127027Y-61206870D01*
X189065705Y-61173383D01*
X189032221Y-61112059D01*
X189029388Y-61085704D01*
X189029388Y-57216888D01*
X195545332Y-57216888D01*
X195545332Y-57216890D01*
X202008287Y-63679845D01*
X208471243Y-57216890D01*
X208430662Y-57176309D01*
X207968425Y-56770938D01*
X207480684Y-56396681D01*
X206969517Y-56055130D01*
X206969492Y-56055114D01*
X206437074Y-55747722D01*
X205885686Y-55475808D01*
X205317696Y-55240539D01*
X205317685Y-55240535D01*
X204735530Y-55042919D01*
X204735515Y-55042915D01*
X204141699Y-54883803D01*
X204141659Y-54883793D01*
X203538705Y-54763857D01*
X203538694Y-54763855D01*
X202929167Y-54683610D01*
X202315674Y-54643400D01*
X201700902Y-54643400D01*
X201087408Y-54683610D01*
X200477881Y-54763855D01*
X200477870Y-54763857D01*
X199874916Y-54883793D01*
X199874876Y-54883803D01*
X199281060Y-55042915D01*
X199281045Y-55042919D01*
X198698890Y-55240535D01*
X198698879Y-55240539D01*
X198130889Y-55475808D01*
X197579501Y-55747722D01*
X197047083Y-56055114D01*
X197047058Y-56055130D01*
X196535891Y-56396681D01*
X196048150Y-56770938D01*
X195585912Y-57176309D01*
X195545332Y-57216888D01*
X189029388Y-57216888D01*
X189029388Y-54144386D01*
X219235289Y-54144386D01*
X219245782Y-54247097D01*
X219300929Y-54413519D01*
X219300931Y-54413524D01*
X219392972Y-54562745D01*
X219516942Y-54686715D01*
X219666163Y-54778756D01*
X219666168Y-54778758D01*
X219832590Y-54833905D01*
X219832597Y-54833906D01*
X219935307Y-54844399D01*
X219985287Y-54844398D01*
X219985288Y-54844398D01*
X219985288Y-53869400D01*
X219235289Y-53869400D01*
X219235289Y-54144386D01*
X189029388Y-54144386D01*
X189029388Y-53094413D01*
X219235288Y-53094413D01*
X219235288Y-53369400D01*
X219985288Y-53369400D01*
X219985288Y-52394400D01*
X220485288Y-52394400D01*
X220485288Y-54844399D01*
X220535260Y-54844399D01*
X220535274Y-54844398D01*
X220637985Y-54833905D01*
X220804407Y-54778758D01*
X220804412Y-54778756D01*
X220953633Y-54686715D01*
X221077606Y-54562742D01*
X221079453Y-54559748D01*
X221081257Y-54558124D01*
X221082086Y-54557077D01*
X221082264Y-54557218D01*
X221131398Y-54513021D01*
X221200361Y-54501796D01*
X221264444Y-54529636D01*
X221290531Y-54559741D01*
X221292576Y-54563056D01*
X221416632Y-54687112D01*
X221565954Y-54779214D01*
X221732491Y-54834399D01*
X221835279Y-54844900D01*
X222435296Y-54844899D01*
X222435304Y-54844898D01*
X222435307Y-54844898D01*
X222491590Y-54839148D01*
X222538085Y-54834399D01*
X222704622Y-54779214D01*
X222853944Y-54687112D01*
X222978000Y-54563056D01*
X223070102Y-54413734D01*
X223070102Y-54413732D01*
X223073893Y-54407587D01*
X223076116Y-54408958D01*
X223114235Y-54365663D01*
X223181428Y-54346509D01*
X223192602Y-54347102D01*
X223193900Y-54347229D01*
X223193901Y-54347230D01*
X223193902Y-54347230D01*
X223342276Y-54347230D01*
X223342277Y-54347229D01*
X223487797Y-54318284D01*
X223624876Y-54261504D01*
X223748244Y-54179072D01*
X223853160Y-54074156D01*
X223935592Y-53950788D01*
X223992372Y-53813709D01*
X224021318Y-53668187D01*
X224021318Y-53519813D01*
X223992372Y-53374291D01*
X223935592Y-53237212D01*
X223935591Y-53237211D01*
X223935588Y-53237205D01*
X223853160Y-53113844D01*
X223853157Y-53113840D01*
X223748247Y-53008930D01*
X223748243Y-53008927D01*
X223624882Y-52926499D01*
X223624873Y-52926494D01*
X223487797Y-52869716D01*
X223487789Y-52869714D01*
X223342279Y-52840770D01*
X223342275Y-52840770D01*
X223193901Y-52840770D01*
X223176756Y-52844180D01*
X223107164Y-52837951D01*
X223051988Y-52795087D01*
X223047037Y-52787671D01*
X222978000Y-52675744D01*
X222853944Y-52551688D01*
X222704622Y-52459586D01*
X222538085Y-52404401D01*
X222538083Y-52404400D01*
X222435298Y-52393900D01*
X221835286Y-52393900D01*
X221835268Y-52393901D01*
X221732491Y-52404400D01*
X221732488Y-52404401D01*
X221565956Y-52459585D01*
X221565951Y-52459587D01*
X221416630Y-52551689D01*
X221292576Y-52675743D01*
X221292571Y-52675749D01*
X221290529Y-52679061D01*
X221288535Y-52680853D01*
X221288095Y-52681411D01*
X221287999Y-52681335D01*
X221238579Y-52725783D01*
X221169616Y-52737002D01*
X221105535Y-52709155D01*
X221079456Y-52679056D01*
X221077607Y-52676059D01*
X221077604Y-52676055D01*
X220953633Y-52552084D01*
X220804412Y-52460043D01*
X220804407Y-52460041D01*
X220637985Y-52404894D01*
X220637978Y-52404893D01*
X220535274Y-52394400D01*
X220485288Y-52394400D01*
X219985288Y-52394400D01*
X219985287Y-52394399D01*
X219935317Y-52394400D01*
X219935299Y-52394401D01*
X219832590Y-52404894D01*
X219666168Y-52460041D01*
X219666163Y-52460043D01*
X219516942Y-52552084D01*
X219392972Y-52676054D01*
X219300931Y-52825275D01*
X219300929Y-52825280D01*
X219245782Y-52991702D01*
X219245781Y-52991709D01*
X219235288Y-53094413D01*
X189029388Y-53094413D01*
X189029388Y-52655047D01*
X189049073Y-52588008D01*
X189082246Y-52553485D01*
X189084812Y-52551688D01*
X191493024Y-50864787D01*
X208357788Y-50864787D01*
X208357788Y-51040012D01*
X208391969Y-51211850D01*
X208391972Y-51211862D01*
X208459020Y-51373731D01*
X208459022Y-51373734D01*
X208459023Y-51373736D01*
X208474830Y-51397392D01*
X208475174Y-51397908D01*
X208475271Y-51398124D01*
X208475866Y-51398943D01*
X208477208Y-51400952D01*
X208556367Y-51519423D01*
X208556369Y-51519425D01*
X208575182Y-51538237D01*
X208582084Y-51545139D01*
X208584813Y-51548895D01*
X208595125Y-51558180D01*
X208680265Y-51643320D01*
X208716780Y-51667719D01*
X208723308Y-51673597D01*
X208740003Y-51683235D01*
X208743380Y-51685492D01*
X208825947Y-51740662D01*
X208825948Y-51740662D01*
X208825952Y-51740665D01*
X208873803Y-51760485D01*
X208884703Y-51766779D01*
X208904621Y-51773250D01*
X208987830Y-51807717D01*
X209046797Y-51819446D01*
X209061945Y-51824368D01*
X209082284Y-51826505D01*
X209159680Y-51841900D01*
X209228745Y-51841900D01*
X209247288Y-51843849D01*
X209265831Y-51841900D01*
X209334895Y-51841900D01*
X209334896Y-51841900D01*
X209412292Y-51826504D01*
X209432631Y-51824368D01*
X209447773Y-51819447D01*
X209506746Y-51807717D01*
X209589966Y-51773246D01*
X209609873Y-51766779D01*
X209620772Y-51760485D01*
X209668624Y-51740665D01*
X209754583Y-51683228D01*
X209771268Y-51673597D01*
X209777793Y-51667720D01*
X209814311Y-51643320D01*
X209899460Y-51558170D01*
X209909763Y-51548895D01*
X209912488Y-51545142D01*
X209938208Y-51519423D01*
X210018720Y-51398927D01*
X210019305Y-51398124D01*
X210019399Y-51397911D01*
X210035553Y-51373736D01*
X210102605Y-51211858D01*
X210136788Y-51040008D01*
X210136788Y-50864792D01*
X210102605Y-50692942D01*
X210079626Y-50637465D01*
X210035555Y-50531068D01*
X210035553Y-50531065D01*
X210035553Y-50531064D01*
X210019399Y-50506888D01*
X210019305Y-50506676D01*
X210018717Y-50505868D01*
X209938208Y-50385377D01*
X209938206Y-50385374D01*
X209919395Y-50366564D01*
X209912491Y-50359660D01*
X209909763Y-50355905D01*
X209899450Y-50346619D01*
X209897165Y-50344334D01*
X209814311Y-50261480D01*
X209814310Y-50261479D01*
X209814309Y-50261478D01*
X209785231Y-50242049D01*
X209785231Y-50242048D01*
X209777794Y-50237079D01*
X209771268Y-50231203D01*
X209754570Y-50221562D01*
X209751208Y-50219316D01*
X209668624Y-50164135D01*
X209668620Y-50164133D01*
X209628283Y-50147425D01*
X209620774Y-50144315D01*
X209609873Y-50138021D01*
X209589951Y-50131547D01*
X209506746Y-50097083D01*
X209506744Y-50097082D01*
X209506739Y-50097080D01*
X209454948Y-50086779D01*
X209454946Y-50086779D01*
X209447774Y-50085352D01*
X209432631Y-50080432D01*
X209412297Y-50078294D01*
X209406728Y-50077187D01*
X209406720Y-50077186D01*
X209351841Y-50066270D01*
X209334896Y-50062900D01*
X209265822Y-50062900D01*
X209247288Y-50060952D01*
X209228754Y-50062900D01*
X209159680Y-50062900D01*
X209087856Y-50077185D01*
X209087855Y-50077184D01*
X209082261Y-50078296D01*
X209061945Y-50080432D01*
X209046815Y-50085347D01*
X209039636Y-50086776D01*
X209039630Y-50086778D01*
X208987834Y-50097081D01*
X208909122Y-50129683D01*
X208909123Y-50129684D01*
X208904615Y-50131550D01*
X208884703Y-50138021D01*
X208873801Y-50144314D01*
X208866291Y-50147426D01*
X208866289Y-50147426D01*
X208825949Y-50164136D01*
X208743372Y-50219309D01*
X208743373Y-50219310D01*
X208739977Y-50221578D01*
X208723308Y-50231203D01*
X208716787Y-50237073D01*
X208709357Y-50242039D01*
X208709351Y-50242044D01*
X208680262Y-50261482D01*
X208680257Y-50261486D01*
X208597407Y-50344335D01*
X208595094Y-50346647D01*
X208584813Y-50355905D01*
X208582092Y-50359649D01*
X208556372Y-50385370D01*
X208556365Y-50385380D01*
X208477184Y-50503878D01*
X208477185Y-50503879D01*
X208475835Y-50505899D01*
X208475271Y-50506676D01*
X208475180Y-50506879D01*
X208472719Y-50510564D01*
X208472717Y-50510564D01*
X208472716Y-50510568D01*
X208459023Y-50531062D01*
X208459021Y-50531065D01*
X208391972Y-50692937D01*
X208391969Y-50692949D01*
X208357788Y-50864787D01*
X191493024Y-50864787D01*
X192005428Y-50505859D01*
X192916668Y-49867555D01*
X233948288Y-49867555D01*
X233948288Y-49867984D01*
X233948288Y-50005245D01*
X233950314Y-50015430D01*
X233951335Y-50020565D01*
X233951335Y-50020904D01*
X233951683Y-50022316D01*
X233952227Y-50025052D01*
X233975148Y-50140283D01*
X233975151Y-50140295D01*
X233985415Y-50165074D01*
X233985416Y-50165075D01*
X233989005Y-50173742D01*
X233991781Y-50185001D01*
X234000738Y-50202068D01*
X234002892Y-50207267D01*
X234002892Y-50207268D01*
X234027840Y-50267497D01*
X234027842Y-50267501D01*
X234057936Y-50312539D01*
X234057936Y-50312540D01*
X234061585Y-50318001D01*
X234070323Y-50334650D01*
X234080031Y-50345609D01*
X234084721Y-50352627D01*
X234104335Y-50381980D01*
X234104341Y-50381988D01*
X234173760Y-50451407D01*
X234182396Y-50461155D01*
X234185985Y-50463632D01*
X234201702Y-50479349D01*
X234316187Y-50555846D01*
X234316188Y-50555846D01*
X234316189Y-50555847D01*
X234316191Y-50555848D01*
X234433272Y-50604344D01*
X234443397Y-50608538D01*
X234443399Y-50608538D01*
X234443401Y-50608539D01*
X234448262Y-50609505D01*
X234471908Y-50614209D01*
X234479512Y-50617093D01*
X234497200Y-50619240D01*
X234578443Y-50635400D01*
X234630281Y-50635400D01*
X234647288Y-50637465D01*
X234664295Y-50635400D01*
X234716134Y-50635400D01*
X234724054Y-50633824D01*
X234797369Y-50619241D01*
X234815064Y-50617093D01*
X234822666Y-50614209D01*
X234851179Y-50608538D01*
X234978389Y-50555846D01*
X235092874Y-50479349D01*
X235108594Y-50463628D01*
X235112180Y-50461155D01*
X235120805Y-50451417D01*
X235190237Y-50381986D01*
X235214544Y-50345608D01*
X235224253Y-50334650D01*
X235232985Y-50318008D01*
X235266734Y-50267501D01*
X235293839Y-50202061D01*
X235302795Y-50185001D01*
X235305570Y-50173742D01*
X235319426Y-50140291D01*
X235342892Y-50022315D01*
X235343241Y-50020904D01*
X235343252Y-50020504D01*
X235346288Y-50005245D01*
X235346288Y-49867555D01*
X235343252Y-49852295D01*
X235343241Y-49851896D01*
X235342892Y-49850484D01*
X235319426Y-49732509D01*
X235305570Y-49699057D01*
X235302795Y-49687799D01*
X235293837Y-49670731D01*
X235266734Y-49605299D01*
X235266732Y-49605296D01*
X235266731Y-49605293D01*
X235236638Y-49560257D01*
X235236637Y-49560256D01*
X235232992Y-49554801D01*
X235224253Y-49538150D01*
X235214540Y-49527186D01*
X235209852Y-49520170D01*
X235190237Y-49490814D01*
X235120815Y-49421392D01*
X235112180Y-49411645D01*
X235108590Y-49409167D01*
X235100622Y-49401199D01*
X235092874Y-49393451D01*
X234978389Y-49316954D01*
X234978388Y-49316953D01*
X234978386Y-49316952D01*
X234978384Y-49316951D01*
X234851183Y-49264263D01*
X234851179Y-49264262D01*
X234832779Y-49260601D01*
X234832779Y-49260600D01*
X234822659Y-49258587D01*
X234815064Y-49255707D01*
X234797367Y-49253558D01*
X234794355Y-49252959D01*
X234792769Y-49252643D01*
X234792766Y-49252643D01*
X234745077Y-49243157D01*
X234716134Y-49237400D01*
X234716133Y-49237400D01*
X234664295Y-49237400D01*
X234647288Y-49235335D01*
X234630281Y-49237400D01*
X234578443Y-49237400D01*
X234556519Y-49241761D01*
X234501809Y-49252643D01*
X234501808Y-49252643D01*
X234497203Y-49253558D01*
X234479512Y-49255707D01*
X234471912Y-49258589D01*
X234461787Y-49260603D01*
X234461786Y-49260602D01*
X234443397Y-49264261D01*
X234443395Y-49264262D01*
X234316189Y-49316952D01*
X234201700Y-49393451D01*
X234201699Y-49393453D01*
X234193944Y-49401208D01*
X234193943Y-49401207D01*
X234185975Y-49409174D01*
X234182396Y-49411645D01*
X234173790Y-49421358D01*
X234171116Y-49424033D01*
X234171117Y-49424033D01*
X234104343Y-49490808D01*
X234104334Y-49490819D01*
X234084722Y-49520169D01*
X234084723Y-49520170D01*
X234080030Y-49527192D01*
X234070323Y-49538150D01*
X234061591Y-49554786D01*
X234057942Y-49560248D01*
X234027841Y-49605299D01*
X234002891Y-49665530D01*
X234002892Y-49665531D01*
X234000735Y-49670737D01*
X233991781Y-49687799D01*
X233989006Y-49699057D01*
X233985417Y-49707723D01*
X233985416Y-49707725D01*
X233975149Y-49732512D01*
X233975148Y-49732515D01*
X233952226Y-49847748D01*
X233951206Y-49852337D01*
X233950811Y-49854866D01*
X233948288Y-49867555D01*
X192916668Y-49867555D01*
X193070353Y-49759902D01*
X193365814Y-49552938D01*
X193432016Y-49530598D01*
X193436956Y-49530500D01*
X209755092Y-49530500D01*
X209755101Y-49530508D01*
X209755303Y-49530500D01*
X209755495Y-49530500D01*
X209775657Y-49530500D01*
X209779746Y-49529529D01*
X232155618Y-48641597D01*
X232160535Y-48641500D01*
X236192498Y-48641500D01*
X236259537Y-48661185D01*
G37*
G04 #@! TD.AperFunction*
G04 #@! TA.AperFunction,Conductor*
G36*
X217530191Y-71461824D02*
G01*
X217536669Y-71467856D01*
X218091598Y-72022785D01*
X218091599Y-72022787D01*
X218148901Y-72080089D01*
X218170829Y-72089172D01*
X218223769Y-72111101D01*
X218223770Y-72111101D01*
X218319241Y-72111101D01*
X218319249Y-72111100D01*
X220382769Y-72111100D01*
X222206326Y-72111100D01*
X222273365Y-72130785D01*
X222319120Y-72183589D01*
X222329064Y-72252747D01*
X222306644Y-72307985D01*
X222189239Y-72469580D01*
X222092732Y-72658985D01*
X222027041Y-72861160D01*
X222023422Y-72884012D01*
X221993788Y-73071113D01*
X221993788Y-73283687D01*
X221994024Y-73285174D01*
X222027023Y-73493527D01*
X222027042Y-73493643D01*
X222089510Y-73685900D01*
X222092732Y-73695814D01*
X222189239Y-73885220D01*
X222314178Y-74057186D01*
X222464501Y-74207509D01*
X222636467Y-74332448D01*
X222636469Y-74332449D01*
X222636472Y-74332451D01*
X222825876Y-74428957D01*
X223028045Y-74494646D01*
X223028048Y-74494646D01*
X223028049Y-74494647D01*
X223053400Y-74498662D01*
X223116535Y-74528591D01*
X223153467Y-74587902D01*
X223152469Y-74657765D01*
X223113860Y-74715998D01*
X223049896Y-74744112D01*
X223029086Y-74745037D01*
X217757420Y-74535843D01*
X217691214Y-74513516D01*
X217647589Y-74458939D01*
X217640395Y-74389441D01*
X217671918Y-74327086D01*
X217674657Y-74324259D01*
X217706357Y-74292559D01*
X217706360Y-74292556D01*
X217788792Y-74169188D01*
X217845572Y-74032109D01*
X217874518Y-73886587D01*
X217874518Y-73738213D01*
X217845572Y-73592691D01*
X217799432Y-73481299D01*
X217788793Y-73455614D01*
X217788788Y-73455605D01*
X217706360Y-73332244D01*
X217706357Y-73332240D01*
X217601447Y-73227330D01*
X217601443Y-73227327D01*
X217478082Y-73144899D01*
X217478072Y-73144894D01*
X217401535Y-73113191D01*
X217347131Y-73069349D01*
X217325067Y-73003055D01*
X217324988Y-72998630D01*
X217324988Y-71555537D01*
X217344673Y-71488498D01*
X217397477Y-71442743D01*
X217466635Y-71432799D01*
X217530191Y-71461824D01*
G37*
G04 #@! TD.AperFunction*
G04 #@! TD*
M02*
